<svg id="Layer_1" data-name="Layer 1" xmlns="http://www.w3.org/2000/svg" xmlns:xlink="http://www.w3.org/1999/xlink" viewBox="0 0 987 990"><defs><style>.cls-1{fill:url(#linear-gradient);}.cls-2{fill:url(#linear-gradient-2);}.cls-3{fill:url(#linear-gradient-3);}.cls-4{fill:url(#linear-gradient-4);}.cls-5{fill:url(#linear-gradient-5);}.cls-6{fill:url(#linear-gradient-6);}.cls-7{fill:url(#linear-gradient-7);}.cls-8{fill:url(#linear-gradient-8);}.cls-9{fill:url(#linear-gradient-9);}.cls-10{fill:url(#linear-gradient-10);}.cls-11{fill:url(#linear-gradient-11);}.cls-12{fill:url(#linear-gradient-12);}.cls-13{fill:url(#linear-gradient-13);}.cls-14{fill:url(#linear-gradient-14);}.cls-15{fill:url(#linear-gradient-15);}.cls-16{fill:url(#linear-gradient-16);}.cls-17{fill:url(#linear-gradient-17);}.cls-18{fill:url(#linear-gradient-18);}.cls-19{fill:url(#linear-gradient-19);}.cls-20{fill:url(#linear-gradient-20);}.cls-21{fill:url(#linear-gradient-21);}.cls-22{fill:url(#linear-gradient-22);}.cls-23{fill:url(#linear-gradient-23);}.cls-24{fill:url(#linear-gradient-24);}.cls-25{fill:url(#linear-gradient-25);}.cls-26{fill:url(#linear-gradient-26);}.cls-27{fill:url(#linear-gradient-27);}.cls-28{fill:url(#linear-gradient-28);}.cls-29{fill:url(#linear-gradient-29);}.cls-30{fill:url(#linear-gradient-30);}.cls-31{fill:url(#linear-gradient-31);}.cls-32{fill:url(#linear-gradient-32);}.cls-33{fill:url(#linear-gradient-33);}.cls-34{fill:url(#linear-gradient-34);}.cls-35{fill:url(#linear-gradient-35);}.cls-36{fill:url(#linear-gradient-36);}.cls-37{fill:url(#linear-gradient-37);}.cls-38{fill:url(#linear-gradient-38);}.cls-39{fill:url(#linear-gradient-39);}.cls-40{fill:url(#linear-gradient-40);}.cls-41{fill:url(#linear-gradient-41);}.cls-42{fill:url(#linear-gradient-42);}.cls-43{fill:url(#linear-gradient-43);}.cls-44{fill:url(#linear-gradient-44);}.cls-45{fill:url(#linear-gradient-45);}.cls-46{fill:url(#linear-gradient-46);}.cls-47{fill:url(#linear-gradient-47);}.cls-48{fill:url(#linear-gradient-48);}.cls-49{fill:url(#linear-gradient-49);}.cls-50{fill:url(#linear-gradient-50);}.cls-51{fill:url(#linear-gradient-51);}.cls-52{fill:url(#linear-gradient-52);}.cls-53{fill:url(#linear-gradient-53);}.cls-54{fill:url(#linear-gradient-54);}.cls-55{fill:url(#linear-gradient-55);}.cls-56{fill:url(#linear-gradient-56);}.cls-57{fill:url(#linear-gradient-57);}.cls-58{fill:url(#linear-gradient-58);}.cls-59{fill:url(#linear-gradient-59);}.cls-60{fill:url(#linear-gradient-60);}.cls-61{fill:url(#linear-gradient-61);}.cls-62{fill:url(#linear-gradient-62);}.cls-63{fill:url(#linear-gradient-63);}.cls-64{fill:url(#linear-gradient-64);}.cls-65{fill:url(#linear-gradient-65);}.cls-66{fill:url(#linear-gradient-66);}.cls-67{fill:url(#linear-gradient-67);}.cls-68{fill:url(#linear-gradient-68);}.cls-69{fill:url(#linear-gradient-69);}.cls-70{fill:url(#linear-gradient-70);}.cls-71{fill:url(#linear-gradient-71);}.cls-72{fill:url(#linear-gradient-72);}.cls-73{fill:url(#linear-gradient-73);}.cls-74{fill:url(#linear-gradient-74);}.cls-75{fill:url(#linear-gradient-75);}.cls-76{fill:url(#linear-gradient-76);}.cls-77{fill:url(#linear-gradient-77);}.cls-78{fill:url(#linear-gradient-78);}.cls-79{fill:url(#linear-gradient-79);}.cls-80{fill:url(#linear-gradient-80);}.cls-81{fill:url(#linear-gradient-81);}.cls-82{fill:url(#linear-gradient-82);}.cls-83{fill:url(#linear-gradient-83);}.cls-84{fill:url(#linear-gradient-84);}.cls-85{fill:url(#linear-gradient-85);}.cls-86{fill:url(#linear-gradient-86);}.cls-87{fill:url(#linear-gradient-87);}.cls-88{fill:url(#linear-gradient-88);}.cls-89{fill:url(#linear-gradient-89);}</style><linearGradient id="linear-gradient" x1="103.5" y1="807.58" x2="104.5" y2="806.58" gradientTransform="matrix(122, 0, 0, -159, -12640.52, 128436.04)" gradientUnits="userSpaceOnUse"><stop offset="0" stop-color="#5e8006"/><stop offset="1" stop-color="#6d9011"/></linearGradient><linearGradient id="linear-gradient-2" x1="103.88" y1="808.5" x2="104.88" y2="807.5" gradientTransform="matrix(124, 0, 0, -109, -12849.52, 88111.02)" gradientUnits="userSpaceOnUse"><stop offset="0" stop-color="#587a02"/><stop offset="1" stop-color="#5e8006"/></linearGradient><linearGradient id="linear-gradient-3" x1="103.57" y1="808.39" x2="104.57" y2="807.39" gradientTransform="matrix(127, 0, 0, -97, -13041.02, 78445.02)" gradientUnits="userSpaceOnUse"><stop offset="0" stop-color="#64860a"/><stop offset="1" stop-color="#5b7d03"/></linearGradient><linearGradient id="linear-gradient-4" x1="103.83" y1="808.03" x2="104.83" y2="807.03" gradientTransform="matrix(127, 0, 0, -141, -13041.02, 113974.04)" gradientUnits="userSpaceOnUse"><stop offset="0" stop-color="#6b8e0f"/><stop offset="1" stop-color="#6f9312"/></linearGradient><linearGradient id="linear-gradient-5" x1="103.51" y1="807.49" x2="104.51" y2="806.49" gradientTransform="matrix(121, 0, 0, -175, -12416.02, 141449.04)" gradientUnits="userSpaceOnUse"><stop offset="0" stop-color="#779b19"/><stop offset="1" stop-color="#8db42a"/></linearGradient><linearGradient id="linear-gradient-6" x1="103.73" y1="807.79" x2="104.73" y2="806.79" gradientTransform="matrix(110, 0, 0, -175, -11374.52, 141449.04)" gradientUnits="userSpaceOnUse"><stop offset="0" stop-color="#7ca11c"/><stop offset="1" stop-color="#83a922"/></linearGradient><linearGradient id="linear-gradient-7" x1="96.91" y1="807.01" x2="97.91" y2="806.01" gradientTransform="matrix(14, 0, 0, -304, -1356.5, 245378.67)" gradientUnits="userSpaceOnUse"><stop offset="0" stop-color="#67890c"/><stop offset="1" stop-color="#87ac25"/></linearGradient><linearGradient id="linear-gradient-8" x1="103.43" y1="807.63" x2="104.43" y2="806.63" gradientTransform="matrix(122, 0, 0, -145, -12642.52, 117304.04)" gradientUnits="userSpaceOnUse"><stop offset="0" stop-color="#87ac25"/><stop offset="1" stop-color="#9ec737"/></linearGradient><linearGradient id="linear-gradient-9" x1="103.75" y1="807.96" x2="104.75" y2="806.96" gradientTransform="matrix(122, 0, 0, -144, -12642.52, 116622.54)" gradientUnits="userSpaceOnUse"><stop offset="0" stop-color="#abd641"/><stop offset="1" stop-color="#b2de46"/></linearGradient><linearGradient id="linear-gradient-10" x1="103.59" y1="807.73" x2="104.59" y2="806.73" gradientTransform="matrix(131, 0, 0, -144, -13531.04, 116622.54)" gradientUnits="userSpaceOnUse"><stop offset="0" stop-color="#c0ed52"/><stop offset="1" stop-color="#b4e048"/></linearGradient><linearGradient id="linear-gradient-11" x1="104" y1="807.97" x2="105" y2="806.97" gradientTransform="matrix(215, 0, 0, -131, -22239.04, 106138.04)" gradientUnits="userSpaceOnUse"><stop offset="0" stop-color="#a9d33f"/><stop offset="1" stop-color="#b6e249"/></linearGradient><linearGradient id="linear-gradient-12" x1="103.99" y1="807.92" x2="104.99" y2="806.92" gradientTransform="matrix(215, 0, 0, -135, -22239.04, 109276.04)" gradientUnits="userSpaceOnUse"><stop offset="0" stop-color="#9ec736"/><stop offset="1" stop-color="#9ac233"/></linearGradient><linearGradient id="linear-gradient-13" x1="103.64" y1="807.55" x2="104.64" y2="806.55" gradientTransform="matrix(162, 0, 0, -154, -16579.54, 124458.54)" gradientUnits="userSpaceOnUse"><stop offset="0" stop-color="#7da21d"/><stop offset="1" stop-color="#749716"/></linearGradient><linearGradient id="linear-gradient-14" x1="103.98" y1="808.06" x2="104.98" y2="807.06" gradientTransform="matrix(162, 0, 0, -135, -16579.54, 109276.04)" gradientUnits="userSpaceOnUse"><stop offset="0" stop-color="#8cb228"/><stop offset="1" stop-color="#98c032"/></linearGradient><linearGradient id="linear-gradient-15" x1="104.06" y1="807.68" x2="105.06" y2="806.68" gradientTransform="matrix(164, 0, 0, -197, -16780.54, 159095.05)" gradientUnits="userSpaceOnUse"><stop offset="0" stop-color="#618408"/><stop offset="1" stop-color="#6c8f10"/></linearGradient><linearGradient id="linear-gradient-16" x1="103.58" y1="807.35" x2="104.58" y2="806.35" gradientTransform="matrix(133, 0, 0, -197, -13387.04, 159095.05)" gradientUnits="userSpaceOnUse"><stop offset="0" stop-color="#799e1a"/><stop offset="1" stop-color="#65870a"/></linearGradient><linearGradient id="linear-gradient-17" x1="103.83" y1="808.48" x2="104.83" y2="807.48" gradientTransform="matrix(123, 0, 0, -108, -12332.02, 87316.52)" gradientUnits="userSpaceOnUse"><stop offset="0" stop-color="#597b02"/><stop offset="1" stop-color="#608207"/></linearGradient><linearGradient id="linear-gradient-18" x1="103.78" y1="807.94" x2="104.78" y2="806.94" gradientTransform="matrix(184, 0, 0, -122, -18784.54, 98804.54)" gradientUnits="userSpaceOnUse"><stop offset="0" stop-color="#a6d03d"/><stop offset="1" stop-color="#98c133"/></linearGradient><linearGradient id="linear-gradient-19" x1="103.84" y1="807.72" x2="104.84" y2="806.72" gradientTransform="matrix(133, 0, 0, -178, -13387.04, 143879.54)" gradientUnits="userSpaceOnUse"><stop offset="0" stop-color="#88ae25"/><stop offset="1" stop-color="#88ae25"/></linearGradient><linearGradient id="linear-gradient-20" x1="104.07" y1="808.01" x2="105.07" y2="807.01" gradientTransform="matrix(184, 0, 0, -142, -18784.54, 115023.54)" gradientUnits="userSpaceOnUse"><stop offset="0" stop-color="#b2dd46"/><stop offset="1" stop-color="#b6e149"/></linearGradient><linearGradient id="linear-gradient-21" x1="103.97" y1="807.61" x2="104.97" y2="806.61" gradientTransform="matrix(154, 0, 0, -202, -15803.54, 163446.55)" gradientUnits="userSpaceOnUse"><stop offset="0" stop-color="#c4f254"/><stop offset="1" stop-color="#c0ed51"/></linearGradient><linearGradient id="linear-gradient-22" x1="103.62" y1="807.33" x2="104.62" y2="806.33" gradientTransform="matrix(140, 0, 0, -202, -14221.54, 163446.55)" gradientUnits="userSpaceOnUse"><stop offset="0" stop-color="#bae74d"/><stop offset="1" stop-color="#c9f759"/></linearGradient><linearGradient id="linear-gradient-23" x1="103.71" y1="807.44" x2="104.71" y2="806.44" gradientTransform="matrix(167, 0, 0, -175, -17210.04, 141755.04)" gradientUnits="userSpaceOnUse"><stop offset="0" stop-color="#c8f657"/><stop offset="1" stop-color="#cdfb5c"/></linearGradient><linearGradient id="linear-gradient-24" x1="103.86" y1="807.77" x2="104.86" y2="806.77" gradientTransform="matrix(131, 0, 0, -175, -13531.04, 141755.04)" gradientUnits="userSpaceOnUse"><stop offset="0" stop-color="#c9f758"/><stop offset="1" stop-color="#c9f759"/></linearGradient><linearGradient id="linear-gradient-25" x1="102.52" y1="807.26" x2="103.52" y2="806.26" gradientTransform="matrix(52, 0, 0, -266, -5327.52, 215035.66)" gradientUnits="userSpaceOnUse"><stop offset="0" stop-color="#b6e24a"/><stop offset="1" stop-color="#c9f758"/></linearGradient><linearGradient id="linear-gradient-26" x1="103.34" y1="807.53" x2="104.34" y2="806.53" gradientTransform="matrix(105, 0, 0, -162, -10836.02, 131283.54)" gradientUnits="userSpaceOnUse"><stop offset="0" stop-color="#caf859"/><stop offset="1" stop-color="#cdfb5c"/></linearGradient><linearGradient id="linear-gradient-27" x1="101.07" y1="806.82" x2="102.07" y2="805.82" gradientTransform="matrix(32, 0, 0, -405, -3239.5, 327139.1)" gradientUnits="userSpaceOnUse"><stop offset="0" stop-color="#bae64c"/><stop offset="1" stop-color="#c9f65a"/></linearGradient><linearGradient id="linear-gradient-28" x1="103.7" y1="807.86" x2="104.7" y2="806.86" gradientTransform="matrix(137, 0, 0, -139, -14212.03, 112876.04)" gradientUnits="userSpaceOnUse"><stop offset="0" stop-color="#ccfa5c"/><stop offset="1" stop-color="#c8f55a"/></linearGradient><linearGradient id="linear-gradient-29" x1="103.91" y1="807.93" x2="104.91" y2="806.93" gradientTransform="matrix(194, 0, 0, -131, -20168.54, 106444.04)" gradientUnits="userSpaceOnUse"><stop offset="0" stop-color="#c2ef57"/><stop offset="1" stop-color="#c5f259"/></linearGradient><linearGradient id="linear-gradient-30" x1="103.96" y1="807.62" x2="104.96" y2="806.62" gradientTransform="matrix(167, 0, 0, -188, -17210.04, 152357.54)" gradientUnits="userSpaceOnUse"><stop offset="0" stop-color="#ccfa5d"/><stop offset="1" stop-color="#c8f45a"/></linearGradient><linearGradient id="linear-gradient-31" x1="103.97" y1="807.38" x2="104.97" y2="806.38" gradientTransform="matrix(277, 0, 0, -188, -28648.06, 152357.54)" gradientUnits="userSpaceOnUse"><stop offset="0" stop-color="#c4f058"/><stop offset="1" stop-color="#caf75b"/></linearGradient><linearGradient id="linear-gradient-32" x1="103.97" y1="807.52" x2="104.97" y2="806.52" gradientTransform="matrix(167, 0, 0, -212, -17043.04, 171620.56)" gradientUnits="userSpaceOnUse"><stop offset="0" stop-color="#cefc5c"/><stop offset="1" stop-color="#caf75a"/></linearGradient><linearGradient id="linear-gradient-33" x1="103.79" y1="807.33" x2="104.79" y2="806.33" gradientTransform="matrix(169, 0, 0, -212, -17112.04, 171620.56)" gradientUnits="userSpaceOnUse"><stop offset="0" stop-color="#cbf95a"/><stop offset="1" stop-color="#ccf95b"/></linearGradient><linearGradient id="linear-gradient-34" x1="103.9" y1="807.7" x2="104.9" y2="806.7" gradientTransform="matrix(242, 0, 0, -142, -24740.56, 115023.54)" gradientUnits="userSpaceOnUse"><stop offset="0" stop-color="#c2ef53"/><stop offset="1" stop-color="#b6e24a"/></linearGradient><linearGradient id="linear-gradient-35" x1="104.24" y1="808.06" x2="105.24" y2="807.06" gradientTransform="matrix(242, 0, 0, -140, -24740.56, 113524.54)" gradientUnits="userSpaceOnUse"><stop offset="0" stop-color="#caf859"/><stop offset="1" stop-color="#c9f758"/></linearGradient><linearGradient id="linear-gradient-36" x1="103.91" y1="807.47" x2="104.91" y2="806.47" gradientTransform="matrix(222, 0, 0, -178, -22571.55, 143879.54)" gradientUnits="userSpaceOnUse"><stop offset="0" stop-color="#96be30"/><stop offset="1" stop-color="#7ea31d"/></linearGradient><linearGradient id="linear-gradient-37" x1="104.17" y1="807.57" x2="105.17" y2="806.57" gradientTransform="matrix(222, 0, 0, -208, -22571.55, 168158.56)" gradientUnits="userSpaceOnUse"><stop offset="0" stop-color="#a5cf3c"/><stop offset="1" stop-color="#a5cf3c"/></linearGradient><linearGradient id="linear-gradient-38" x1="103.26" y1="807.43" x2="104.26" y2="806.43" gradientTransform="matrix(98, 0, 0, -176, -9391.52, 142174.54)" gradientUnits="userSpaceOnUse"><stop offset="0" stop-color="#7ba01b"/><stop offset="1" stop-color="#6a8d0e"/></linearGradient><linearGradient id="linear-gradient-39" x1="103.49" y1="807.96" x2="104.49" y2="806.96" gradientTransform="matrix(86, 0, 0, -155, -8123.52, 125208.04)" gradientUnits="userSpaceOnUse"><stop offset="0" stop-color="#5b7d03"/><stop offset="1" stop-color="#64860a"/></linearGradient><linearGradient id="linear-gradient-40" x1="103.55" y1="807.3" x2="104.55" y2="806.3" gradientTransform="matrix(129, 0, 0, -208, -12690.02, 168158.56)" gradientUnits="userSpaceOnUse"><stop offset="0" stop-color="#bae64d"/><stop offset="1" stop-color="#a7d13e"/></linearGradient><linearGradient id="linear-gradient-41" x1="103.61" y1="807.48" x2="104.61" y2="806.48" gradientTransform="matrix(98, 0, 0, -242, -9391.52, 195528.56)" gradientUnits="userSpaceOnUse"><stop offset="0" stop-color="#8eb52a"/><stop offset="1" stop-color="#99c133"/></linearGradient><linearGradient id="linear-gradient-42" x1="103.8" y1="807.47" x2="104.8" y2="806.47" gradientTransform="matrix(170, 0, 0, -185, -17047.54, 149817.04)" gradientUnits="userSpaceOnUse"><stop offset="0" stop-color="#cefc5c"/><stop offset="1" stop-color="#caf759"/></linearGradient><linearGradient id="linear-gradient-43" x1="103.88" y1="807.65" x2="104.88" y2="806.65" gradientTransform="matrix(129, 0, 0, -202, -12690.02, 163510.55)" gradientUnits="userSpaceOnUse"><stop offset="0" stop-color="#c7f557"/><stop offset="1" stop-color="#c8f558"/></linearGradient><linearGradient id="linear-gradient-44" x1="103.94" y1="807.58" x2="104.94" y2="806.58" gradientTransform="matrix(157, 0, 0, -199, -15831.04, 161248.05)" gradientUnits="userSpaceOnUse"><stop offset="0" stop-color="#c8f45b"/><stop offset="1" stop-color="#c5f158"/></linearGradient><linearGradient id="linear-gradient-45" x1="103.85" y1="807.44" x2="104.85" y2="806.44" gradientTransform="matrix(170, 0, 0, -199, -17047.54, 161248.05)" gradientUnits="userSpaceOnUse"><stop offset="0" stop-color="#ccf95c"/><stop offset="1" stop-color="#c5f259"/></linearGradient><linearGradient id="linear-gradient-46" x1="104.28" y1="807.67" x2="105.28" y2="806.67" gradientTransform="matrix(277, 0, 0, -192, -28648.06, 155702.54)" gradientUnits="userSpaceOnUse"><stop offset="0" stop-color="#bee854"/><stop offset="1" stop-color="#bae552"/></linearGradient><linearGradient id="linear-gradient-47" x1="103.77" y1="807.38" x2="104.77" y2="806.38" gradientTransform="matrix(175, 0, 0, -192, -17730.04, 155702.54)" gradientUnits="userSpaceOnUse"><stop offset="0" stop-color="#c1ec57"/><stop offset="1" stop-color="#b5df4f"/></linearGradient><linearGradient id="linear-gradient-48" x1="103.95" y1="807.71" x2="104.95" y2="806.71" gradientTransform="matrix(259, 0, 0, -143, -26767.06, 116253.04)" gradientUnits="userSpaceOnUse"><stop offset="0" stop-color="#b8e151"/><stop offset="1" stop-color="#acd449"/></linearGradient><linearGradient id="linear-gradient-49" x1="103.96" y1="807.47" x2="104.96" y2="806.47" gradientTransform="matrix(194, 0, 0, -201, -20168.54, 163018.05)" gradientUnits="userSpaceOnUse"><stop offset="0" stop-color="#bbe653"/><stop offset="1" stop-color="#b2db4d"/></linearGradient><linearGradient id="linear-gradient-50" x1="104.01" y1="807.46" x2="105.01" y2="806.46" gradientTransform="matrix(248, 0, 0, -189, -25799.56, 153352.04)" gradientUnits="userSpaceOnUse"><stop offset="0" stop-color="#b6df4f"/><stop offset="1" stop-color="#a7cf46"/></linearGradient><linearGradient id="linear-gradient-51" x1="104.13" y1="808.2" x2="105.13" y2="807.2" gradientTransform="matrix(248, 0, 0, -118, -25799.56, 96233.54)" gradientUnits="userSpaceOnUse"><stop offset="0" stop-color="#a1c742"/><stop offset="1" stop-color="#a1c742"/></linearGradient><linearGradient id="linear-gradient-52" x1="104.05" y1="808.17" x2="105.05" y2="807.17" gradientTransform="matrix(193, 0, 0, -123, -19804.04, 100246.03)" gradientUnits="userSpaceOnUse"><stop offset="0" stop-color="#a7ce46"/><stop offset="1" stop-color="#a4cb43"/></linearGradient><linearGradient id="linear-gradient-53" x1="104.05" y1="808.08" x2="105.05" y2="807.08" gradientTransform="matrix(271, 0, 0, -118, -28156.06, 96233.54)" gradientUnits="userSpaceOnUse"><stop offset="0" stop-color="#9dc23f"/><stop offset="1" stop-color="#a1c742"/></linearGradient><linearGradient id="linear-gradient-54" x1="103.92" y1="807.97" x2="104.92" y2="806.97" gradientTransform="matrix(221, 0, 0, -123, -22660.05, 100246.03)" gradientUnits="userSpaceOnUse"><stop offset="0" stop-color="#9ec441"/><stop offset="1" stop-color="#a4cb44"/></linearGradient><linearGradient id="linear-gradient-55" x1="104.02" y1="807.75" x2="105.02" y2="806.75" gradientTransform="matrix(175, 0, 0, -172, -17730.04, 139671.54)" gradientUnits="userSpaceOnUse"><stop offset="0" stop-color="#abd448"/><stop offset="1" stop-color="#acd54a"/></linearGradient><linearGradient id="linear-gradient-56" x1="103.71" y1="807.5" x2="104.71" y2="806.5" gradientTransform="matrix(158, 0, 0, -172, -15855.54, 139671.54)" gradientUnits="userSpaceOnUse"><stop offset="0" stop-color="#a5cd45"/><stop offset="1" stop-color="#afd94b"/></linearGradient><linearGradient id="linear-gradient-57" x1="104.15" y1="808.41" x2="105.15" y2="807.41" gradientTransform="matrix(242, 0, 0, -106, -24556.56, 86442.52)" gradientUnits="userSpaceOnUse"><stop offset="0" stop-color="#b7e251"/><stop offset="1" stop-color="#b2dc4d"/></linearGradient><linearGradient id="linear-gradient-58" x1="103.98" y1="807.65" x2="104.98" y2="806.65" gradientTransform="matrix(242, 0, 0, -157, -24556.56, 127420.04)" gradientUnits="userSpaceOnUse"><stop offset="0" stop-color="#bee955"/><stop offset="1" stop-color="#c3ef57"/></linearGradient><linearGradient id="linear-gradient-59" x1="103.71" y1="807.26" x2="104.71" y2="806.26" gradientTransform="matrix(180, 0, 0, -202, -17922.54, 163510.55)" gradientUnits="userSpaceOnUse"><stop offset="0" stop-color="#cdfb5c"/><stop offset="1" stop-color="#c9f658"/></linearGradient><linearGradient id="linear-gradient-60" x1="104.04" y1="807.67" x2="105.04" y2="806.67" gradientTransform="matrix(180, 0, 0, -185, -17922.54, 149974.04)" gradientUnits="userSpaceOnUse"><stop offset="0" stop-color="#cbf85c"/><stop offset="1" stop-color="#c5f258"/></linearGradient><linearGradient id="linear-gradient-61" x1="104.11" y1="807.73" x2="105.11" y2="806.73" gradientTransform="matrix(171, 0, 0, -192, -16950.04, 155427.54)" gradientUnits="userSpaceOnUse"><stop offset="0" stop-color="#c4f155"/><stop offset="1" stop-color="#c6f356"/></linearGradient><linearGradient id="linear-gradient-62" x1="103.58" y1="807.29" x2="104.58" y2="806.29" gradientTransform="matrix(116, 0, 0, -242, -11202.52, 195528.56)" gradientUnits="userSpaceOnUse"><stop offset="0" stop-color="#a8d23f"/><stop offset="1" stop-color="#81a620"/></linearGradient><linearGradient id="linear-gradient-63" x1="103.81" y1="807.27" x2="104.81" y2="806.27" gradientTransform="matrix(171, 0, 0, -228, -16950.04, 184251.56)" gradientUnits="userSpaceOnUse"><stop offset="0" stop-color="#b4df48"/><stop offset="1" stop-color="#9fc838"/></linearGradient><linearGradient id="linear-gradient-64" x1="103.09" y1="807.43" x2="104.09" y2="806.43" gradientTransform="matrix(88, 0, 0, -169, -8248.52, 136499.04)" gradientUnits="userSpaceOnUse"><stop offset="0" stop-color="#709313"/><stop offset="1" stop-color="#698c0e"/></linearGradient><linearGradient id="linear-gradient-65" x1="103.56" y1="807.5" x2="104.56" y2="806.5" gradientTransform="matrix(117, 0, 0, -185, -11252.02, 149974.04)" gradientUnits="userSpaceOnUse"><stop offset="0" stop-color="#bfea55"/><stop offset="1" stop-color="#c5f258"/></linearGradient><linearGradient id="linear-gradient-66" x1="100.25" y1="807.17" x2="101.25" y2="806.17" gradientTransform="matrix(24, 0, 0, -342, -1440.5, 276402.68)" gradientUnits="userSpaceOnUse"><stop offset="0" stop-color="#cefc5c"/><stop offset="1" stop-color="#c2ee54"/></linearGradient><linearGradient id="linear-gradient-67" x1="103.8" y1="808" x2="104.8" y2="807" gradientTransform="matrix(117, 0, 0, -149, -11252.02, 121090.04)" gradientUnits="userSpaceOnUse"><stop offset="0" stop-color="#b8e251"/><stop offset="1" stop-color="#b4dd4e"/></linearGradient><linearGradient id="linear-gradient-68" x1="104" y1="807.53" x2="105" y2="806.53" gradientTransform="matrix(168, 0, 0, -213, -16742.54, 172741.06)" gradientUnits="userSpaceOnUse"><stop offset="0" stop-color="#a8d147"/><stop offset="1" stop-color="#aad247"/></linearGradient><linearGradient id="linear-gradient-69" x1="103.47" y1="807.29" x2="104.47" y2="806.29" gradientTransform="matrix(114, 0, 0, -213, -10938.52, 172741.06)" gradientUnits="userSpaceOnUse"><stop offset="0" stop-color="#b1da4c"/><stop offset="1" stop-color="#a4cb43"/></linearGradient><linearGradient id="linear-gradient-70" x1="104.13" y1="810.34" x2="105.13" y2="809.34" gradientTransform="matrix(329, 0, 0, -50, -33946.17, 41450.52)" gradientUnits="userSpaceOnUse"><stop offset="0" stop-color="#9cc13e"/><stop offset="1" stop-color="#9dc23f"/></linearGradient><linearGradient id="linear-gradient-71" x1="103.95" y1="808.28" x2="104.95" y2="807.28" gradientTransform="matrix(158, 0, 0, -116, -15855.54, 94613.52)" gradientUnits="userSpaceOnUse"><stop offset="0" stop-color="#a0c642"/><stop offset="1" stop-color="#a1c842"/></linearGradient><linearGradient id="linear-gradient-72" x1="104.23" y1="819.37" x2="105.23" y2="818.37" gradientTransform="matrix(600, 0, 0, -15, -62536.73, 13267)" gradientUnits="userSpaceOnUse"><stop offset="0" stop-color="#9abf3d"/><stop offset="1" stop-color="#9bc03d"/></linearGradient><linearGradient id="linear-gradient-73" x1="103.83" y1="807.98" x2="104.83" y2="806.98" gradientTransform="matrix(218, 0, 0, -116, -22017.55, 94613.52)" gradientUnits="userSpaceOnUse"><stop offset="0" stop-color="#a4cb44"/><stop offset="1" stop-color="#9cc23e"/></linearGradient><linearGradient id="linear-gradient-74" x1="104.09" y1="838.84" x2="105.09" y2="837.85" gradientTransform="matrix(305, 0, 0, -6, -31109.17, 6008.5)" gradientUnits="userSpaceOnUse"><stop offset="0" stop-color="#9bc03d"/><stop offset="1" stop-color="#9cc13e"/></linearGradient><linearGradient id="linear-gradient-75" x1="103.53" y1="808.4" x2="104.53" y2="807.4" gradientTransform="matrix(107, 0, 0, -103, -10200.02, 84140.02)" gradientUnits="userSpaceOnUse"><stop offset="0" stop-color="#9dc33f"/><stop offset="1" stop-color="#a1c741"/></linearGradient><linearGradient id="linear-gradient-76" x1="103.72" y1="807.61" x2="104.72" y2="806.61" gradientTransform="matrix(142, 0, 0, -169, -13889.54, 136499.04)" gradientUnits="userSpaceOnUse"><stop offset="0" stop-color="#5f8106"/><stop offset="1" stop-color="#709413"/></linearGradient><linearGradient id="linear-gradient-77" x1="104.01" y1="808.2" x2="105.01" y2="807.2" gradientTransform="matrix(142, 0, 0, -133, -13889.54, 107465.04)" gradientUnits="userSpaceOnUse"><stop offset="0" stop-color="#597b02"/><stop offset="1" stop-color="#608308"/></linearGradient><linearGradient id="linear-gradient-78" x1="102.85" y1="807.5" x2="103.85" y2="806.5" gradientTransform="matrix(56, 0, 0, -246, -4816.52, 198732.56)" gradientUnits="userSpaceOnUse"><stop offset="0" stop-color="#84aa22"/><stop offset="1" stop-color="#93ba2d"/></linearGradient><linearGradient id="linear-gradient-79" x1="104.13" y1="814.33" x2="105.13" y2="813.33" gradientTransform="matrix(247, 0, 0, -25, -25290.06, 20357)" gradientUnits="userSpaceOnUse"><stop offset="0" stop-color="#577800"/><stop offset="1" stop-color="#577800"/></linearGradient><linearGradient id="linear-gradient-80" x1="103.88" y1="808.07" x2="104.88" y2="807.07" gradientTransform="matrix(155, 0, 0, -128, -15584.04, 103426.54)" gradientUnits="userSpaceOnUse"><stop offset="0" stop-color="#597a02"/><stop offset="1" stop-color="#5f8207"/></linearGradient><linearGradient id="linear-gradient-81" x1="103.99" y1="807.42" x2="104.99" y2="806.42" gradientTransform="matrix(205, 0, 0, -212, -20778.04, 171172.56)" gradientUnits="userSpaceOnUse"><stop offset="0" stop-color="#6b8e0f"/><stop offset="1" stop-color="#6d9011"/></linearGradient><linearGradient id="linear-gradient-82" x1="103.57" y1="807.59" x2="104.57" y2="806.59" gradientTransform="matrix(95, 0, 0, -212, -9159.02, 171172.56)" gradientUnits="userSpaceOnUse"><stop offset="0" stop-color="#749816"/><stop offset="1" stop-color="#5a7c03"/></linearGradient><linearGradient id="linear-gradient-83" x1="104.01" y1="811.99" x2="105.01" y2="810.99" gradientTransform="matrix(181, 0, 0, -36, -18146.04, 29228.5)" gradientUnits="userSpaceOnUse"><stop offset="0" stop-color="#577901"/><stop offset="1" stop-color="#577901"/></linearGradient><linearGradient id="linear-gradient-84" x1="103.95" y1="809.92" x2="104.95" y2="808.92" gradientTransform="matrix(143, 0, 0, -60, -14711.04, 48587.52)" gradientUnits="userSpaceOnUse"><stop offset="0" stop-color="#577800"/><stop offset="1" stop-color="#597b02"/></linearGradient><linearGradient id="linear-gradient-85" x1="104.23" y1="818.06" x2="105.23" y2="817.06" gradientTransform="matrix(267, 0, 0, -17, -27793.06, 13908)" gradientUnits="userSpaceOnUse"><stop offset="0" stop-color="#577901"/><stop offset="1" stop-color="#577800"/></linearGradient><linearGradient id="linear-gradient-86" x1="103.79" y1="809.67" x2="104.79" y2="808.67" gradientTransform="matrix(164, 0, 0, -60, -16780.54, 48587.52)" gradientUnits="userSpaceOnUse"><stop offset="0" stop-color="#5a7c02"/><stop offset="1" stop-color="#577800"/></linearGradient><linearGradient id="linear-gradient-87" x1="104.33" y1="816.32" x2="105.33" y2="815.32" gradientTransform="matrix(393, 0, 0, -20, -40693.19, 16324.5)" gradientUnits="userSpaceOnUse"><stop offset="0" stop-color="#577800"/><stop offset="1" stop-color="#577901"/></linearGradient><linearGradient id="linear-gradient-88" x1="95.77" y1="807.21" x2="96.77" y2="806.21" gradientTransform="matrix(12, 0, 0, -264, -1149.5, 213827.66)" gradientUnits="userSpaceOnUse"><stop offset="0" stop-color="#b4de4e"/><stop offset="1" stop-color="#a1c842"/></linearGradient><linearGradient id="linear-gradient-89" x1="102.25" y1="809" x2="103.25" y2="808" gradientTransform="matrix(51, 0, 0, -72, -5217.02, 59180.52)" gradientUnits="userSpaceOnUse"><stop offset="0" stop-color="#9fc541"/><stop offset="1" stop-color="#9bc03e"/></linearGradient></defs><title>1</title><polygon id="triangle36" class="cls-1" points="4 8 16 167 126 117 4 8"/><polygon id="triangle36-2" data-name="triangle36" class="cls-2" points="4 8 126 117 128 20 4 8"/><polygon id="triangle36-3" data-name="triangle36" class="cls-3" points="126 117 128 20 253 63 126 117"/><polygon id="triangle36-4" data-name="triangle36" class="cls-4" points="126 117 253 63 245 204 126 117"/><polygon id="triangle36-5" data-name="triangle36" class="cls-5" points="126 117 245 204 124 292 126 117"/><polygon id="triangle36-6" data-name="triangle36" class="cls-6" points="16 167 126 117 124 292 16 167"/><polygon id="triangle36-7" data-name="triangle36" class="cls-7" points="4 8 16 167 2 312 4 8"/><polygon id="triangle36-8" data-name="triangle36" class="cls-8" points="16 167 124 292 2 312 16 167"/><polygon id="triangle36-9" data-name="triangle36" class="cls-9" points="2 312 124 292 54 436 2 312"/><polygon id="triangle36-10" data-name="triangle36" class="cls-10" points="54 436 124 292 185 423 54 436"/><polygon id="triangle36-11" data-name="triangle36" class="cls-11" points="124 292 185 423 339 339 124 292"/><polygon id="triangle36-12" data-name="triangle36" class="cls-12" points="124 292 245 204 339 339 124 292"/><polygon id="triangle36-13" data-name="triangle36" class="cls-13" points="245 204 253 63 407 217 245 204"/><polygon id="triangle36-14" data-name="triangle36" class="cls-14" points="245 204 339 339 407 217 245 204"/><polygon id="triangle36-15" data-name="triangle36" class="cls-15" points="253 63 407 217 417 20 253 63"/><polygon id="triangle36-16" data-name="triangle36" class="cls-16" points="407 217 417 20 540 128 407 217"/><polygon id="triangle36-17" data-name="triangle36" class="cls-17" points="417 20 509 25 540 128 417 20"/><polygon id="triangle36-18" data-name="triangle36" class="cls-18" points="339 339 407 217 523 306 339 339"/><polygon id="triangle36-19" data-name="triangle36" class="cls-19" points="407 217 540 128 523 306 407 217"/><polygon id="triangle36-20" data-name="triangle36" class="cls-20" points="339 339 523 306 444 448 339 339"/><polygon id="triangle36-21" data-name="triangle36" class="cls-21" points="185 423 339 339 304 541 185 423"/><polygon id="triangle36-22" data-name="triangle36" class="cls-22" points="339 339 444 448 304 541 339 339"/><polygon id="triangle36-23" data-name="triangle36" class="cls-23" points="185 423 304 541 137 598 185 423"/><polygon id="triangle36-24" data-name="triangle36" class="cls-24" points="54 436 185 423 137 598 54 436"/><polygon id="triangle36-25" data-name="triangle36" class="cls-25" points="2 312 54 436 32 578 2 312"/><polygon id="triangle36-26" data-name="triangle36" class="cls-26" points="54 436 137 598 32 578 54 436"/><polygon id="triangle36-27" data-name="triangle36" class="cls-27" points="2 312 32 578 0 717 2 312"/><polygon id="triangle36-28" data-name="triangle36" class="cls-28" points="32 578 137 598 0 717 32 578"/><polygon id="triangle36-29" data-name="triangle36" class="cls-29" points="0 717 137 598 194 729 0 717"/><polygon id="triangle36-30" data-name="triangle36" class="cls-30" points="137 598 304 541 194 729 137 598"/><polygon id="triangle36-31" data-name="triangle36" class="cls-31" points="194 729 304 541 471 660 194 729"/><polygon id="triangle36-32" data-name="triangle36" class="cls-32" points="304 541 444 448 471 660 304 541"/><polygon id="triangle36-33" data-name="triangle36" class="cls-33" points="444 448 471 660 613 560 444 448"/><polygon id="triangle36-34" data-name="triangle36" class="cls-34" points="444 448 523 306 686 420 444 448"/><polygon id="triangle36-35" data-name="triangle36" class="cls-35" points="444 448 613 560 686 420 444 448"/><polygon id="triangle36-36" data-name="triangle36" class="cls-36" points="523 306 540 128 745 212 523 306"/><polygon id="triangle36-37" data-name="triangle36" class="cls-37" points="523 306 686 420 745 212 523 306"/><polygon id="triangle36-38" data-name="triangle36" class="cls-38" points="745 212 759 36 843 161 745 212"/><polygon id="triangle36-39" data-name="triangle36" class="cls-39" points="759 36 845 6 843 161 759 36"/><polygon id="triangle36-40" data-name="triangle36" class="cls-40" points="686 420 745 212 815 403 686 420"/><polygon id="triangle36-41" data-name="triangle36" class="cls-41" points="745 212 843 161 815 403 745 212"/><polygon id="triangle36-42" data-name="triangle36" class="cls-42" points="613 560 686 420 783 605 613 560"/><polygon id="triangle36-43" data-name="triangle36" class="cls-43" points="686 420 815 403 783 605 686 420"/><polygon id="triangle36-44" data-name="triangle36" class="cls-44" points="471 660 613 560 628 759 471 660"/><polygon id="triangle36-45" data-name="triangle36" class="cls-45" points="613 560 783 605 628 759 613 560"/><polygon id="triangle36-46" data-name="triangle36" class="cls-46" points="194 729 471 660 453 852 194 729"/><polygon id="triangle36-47" data-name="triangle36" class="cls-47" points="471 660 628 759 453 852 471 660"/><polygon id="triangle36-48" data-name="triangle36" class="cls-48" points="194 729 453 852 260 872 194 729"/><polygon id="triangle36-49" data-name="triangle36" class="cls-49" points="0 717 194 729 12 918 0 717"/><polygon id="triangle36-50" data-name="triangle36" class="cls-50" points="194 729 260 872 12 918 194 729"/><polygon id="triangle36-51" data-name="triangle36" class="cls-51" points="12 918 260 872 59 990 12 918"/><polygon id="triangle36-52" data-name="triangle36" class="cls-52" points="260 872 453 852 330 975 260 872"/><polygon id="triangle36-53" data-name="triangle36" class="cls-53" points="59 990 260 872 330 975 59 990"/><polygon id="triangle36-54" data-name="triangle36" class="cls-54" points="330 975 453 852 551 931 330 975"/><polygon id="triangle36-55" data-name="triangle36" class="cls-55" points="453 852 628 759 551 931 453 852"/><polygon id="triangle36-56" data-name="triangle36" class="cls-56" points="551 931 628 759 709 865 551 931"/><polygon id="triangle36-57" data-name="triangle36" class="cls-57" points="628 759 709 865 870 762 628 759"/><polygon id="triangle36-58" data-name="triangle36" class="cls-58" points="628 759 783 605 870 762 628 759"/><polygon id="triangle36-59" data-name="triangle36" class="cls-59" points="783 605 815 403 963 577 783 605"/><polygon id="triangle36-60" data-name="triangle36" class="cls-60" points="783 605 870 762 963 577 783 605"/><polygon id="triangle36-61" data-name="triangle36" class="cls-61" points="815 403 963 577 986 385 815 403"/><polygon id="triangle36-62" data-name="triangle36" class="cls-62" points="815 403 843 161 931 175 815 403"/><polygon id="triangle36-63" data-name="triangle36" class="cls-63" points="815 403 986 385 931 175 815 403"/><polygon id="triangle36-64" data-name="triangle36" class="cls-64" points="843 161 845 6 931 175 843 161"/><polygon id="triangle36-65" data-name="triangle36" class="cls-65" points="870 762 963 577 987 727 870 762"/><polygon id="triangle36-66" data-name="triangle36" class="cls-66" points="963 577 986 385 987 727 963 577"/><polygon id="triangle36-67" data-name="triangle36" class="cls-67" points="870 762 987 727 984 876 870 762"/><polygon id="triangle36-68" data-name="triangle36" class="cls-68" points="709 865 870 762 877 975 709 865"/><polygon id="triangle36-69" data-name="triangle36" class="cls-69" points="870 762 984 876 877 975 870 762"/><polygon id="triangle36-70" data-name="triangle36" class="cls-70" points="330 975 551 931 659 981 330 975"/><polygon id="triangle36-71" data-name="triangle36" class="cls-71" points="551 931 709 865 659 981 551 931"/><polygon id="triangle36-72" data-name="triangle36" class="cls-72" points="59 990 330 975 659 981 59 990"/><polygon id="triangle36-73" data-name="triangle36" class="cls-73" points="709 865 877 975 659 981 709 865"/><polygon id="triangle36-74" data-name="triangle36" class="cls-74" points="659 981 877 975 964 979 659 981"/><polygon id="triangle36-75" data-name="triangle36" class="cls-75" points="877 975 984 876 964 979 877 975"/><polygon id="triangle36-76" data-name="triangle36" class="cls-76" points="845 6 931 175 987 139 845 6"/><polygon id="triangle36-77" data-name="triangle36" class="cls-77" points="845 6 986 10 987 139 845 6"/><polygon id="triangle36-78" data-name="triangle36" class="cls-78" points="931 175 986 385 987 139 931 175"/><polygon id="triangle36-79" data-name="triangle36" class="cls-79" points="417 20 509 25 664 0 417 20"/><polygon id="triangle36-80" data-name="triangle36" class="cls-80" points="509 25 540 128 664 0 509 25"/><polygon id="triangle36-81" data-name="triangle36" class="cls-81" points="540 128 745 212 664 0 540 128"/><polygon id="triangle36-82" data-name="triangle36" class="cls-82" points="745 212 759 36 664 0 745 212"/><polygon id="triangle36-83" data-name="triangle36" class="cls-83" points="759 36 845 6 664 0 759 36"/><polygon id="triangle36-84" data-name="triangle36" class="cls-84" points="128 20 253 63 271 3 128 20"/><polygon id="triangle36-85" data-name="triangle36" class="cls-85" points="4 8 128 20 271 3 4 8"/><polygon id="triangle36-86" data-name="triangle36" class="cls-86" points="253 63 417 20 271 3 253 63"/><polygon id="triangle36-87" data-name="triangle36" class="cls-87" points="417 20 664 0 271 3 417 20"/><polygon id="triangle36-88" data-name="triangle36" class="cls-88" points="0 717 12 918 8 981 0 717"/><polygon id="triangle36-89" data-name="triangle36" class="cls-89" points="12 918 59 990 8 981 12 918"/></svg>