<?xml version="1.0" encoding="utf-8"?>
<!-- Generator: Adobe Illustrator 15.0.0, SVG Export Plug-In . SVG Version: 6.00 Build 0)  -->
<!DOCTYPE svg PUBLIC "-//W3C//DTD SVG 1.1//EN" "http://www.w3.org/Graphics/SVG/1.1/DTD/svg11.dtd">
<svg version="1.1" id="Layer_1" xmlns="http://www.w3.org/2000/svg" xmlns:xlink="http://www.w3.org/1999/xlink" x="0px" y="0px"
	 width="1000px" height="1000px" viewBox="0 0 1000 1000" enable-background="new 0 0 1000 1000" xml:space="preserve">
<linearGradient id="triangle36_89_" gradientUnits="userSpaceOnUse" x1="103.4014" y1="807.5264" x2="104.4014" y2="806.5264" gradientTransform="matrix(105 0 0 -172 -10858 138925.5)">
	<stop  offset="0" style="stop-color:#2C3D00"/>
	<stop  offset="1" style="stop-color:#304300"/>
</linearGradient>
<polygon id="triangle36" fill="url(#triangle36_89_)" points="10,13 21,185 115,102 "/>
<linearGradient id="triangle36_90_" gradientUnits="userSpaceOnUse" x1="104.0059" y1="808.6924" x2="105.0058" y2="807.6924" gradientTransform="matrix(158 0 0 -96 -16396.5 77624.5)">
	<stop  offset="0" style="stop-color:#2A3800"/>
	<stop  offset="1" style="stop-color:#314000"/>
</linearGradient>
<polygon id="triangle36_1_" fill="url(#triangle36_90_)" points="10,13 115,102 168,6 "/>
<linearGradient id="triangle36_91_" gradientUnits="userSpaceOnUse" x1="103.6851" y1="807.9443" x2="104.6851" y2="806.9443" gradientTransform="matrix(146 0 0 -126 -15037.5 101819.5)">
	<stop  offset="0" style="stop-color:#324200"/>
	<stop  offset="1" style="stop-color:#374500"/>
</linearGradient>
<polygon id="triangle36_2_" fill="url(#triangle36_91_)" points="115,102 168,6 261,132 "/>
<linearGradient id="triangle36_92_" gradientUnits="userSpaceOnUse" x1="103.814" y1="807.835" x2="104.814" y2="806.8349" gradientTransform="matrix(146 0 0 -149 -15037.5 120465)">
	<stop  offset="0" style="stop-color:#3B4E00"/>
	<stop  offset="1" style="stop-color:#425601"/>
</linearGradient>
<polygon id="triangle36_3_" fill="url(#triangle36_92_)" points="115,102 261,132 162,251 "/>
<linearGradient id="triangle36_93_" gradientUnits="userSpaceOnUse" x1="103.7866" y1="807.833" x2="104.7866" y2="806.833" gradientTransform="matrix(141 0 0 -149 -14609 120465)">
	<stop  offset="0" style="stop-color:#2E4200"/>
	<stop  offset="1" style="stop-color:#374C00"/>
</linearGradient>
<polygon id="triangle36_4_" fill="url(#triangle36_93_)" points="21,185 115,102 162,251 "/>
<linearGradient id="triangle36_94_" gradientUnits="userSpaceOnUse" x1="103.6743" y1="807.5332" x2="104.6743" y2="806.5333" gradientTransform="matrix(141 0 0 -174 -14609 140710.5)">
	<stop  offset="0" style="stop-color:#314800"/>
	<stop  offset="1" style="stop-color:#395500"/>
</linearGradient>
<polygon id="triangle36_5_" fill="url(#triangle36_94_)" points="21,185 162,251 27,359 "/>
<linearGradient id="triangle36_95_" gradientUnits="userSpaceOnUse" x1="103.8687" y1="807.3877" x2="104.8686" y2="806.3878" gradientTransform="matrix(135 0 0 -261 -13976 210942)">
	<stop  offset="0" style="stop-color:#3B5D01"/>
	<stop  offset="1" style="stop-color:#426401"/>
</linearGradient>
<polygon id="triangle36_6_" fill="url(#triangle36_95_)" points="27,359 162,251 104,512 "/>
<linearGradient id="triangle36_96_" gradientUnits="userSpaceOnUse" x1="103.7354" y1="807.0771" x2="104.7354" y2="806.0771" gradientTransform="matrix(175 0 0 -261 -18079 210942)">
	<stop  offset="0" style="stop-color:#446B02"/>
	<stop  offset="1" style="stop-color:#456401"/>
</linearGradient>
<polygon id="triangle36_7_" fill="url(#triangle36_96_)" points="104,512 162,251 279,462 "/>
<linearGradient id="triangle36_97_" gradientUnits="userSpaceOnUse" x1="104.0215" y1="807.3457" x2="105.0215" y2="806.3457" gradientTransform="matrix(231 0 0 -223 -23873 180176)">
	<stop  offset="0" style="stop-color:#3F5501"/>
	<stop  offset="1" style="stop-color:#4B5E01"/>
</linearGradient>
<polygon id="triangle36_8_" fill="url(#triangle36_97_)" points="162,251 261,132 393,355 "/>
<linearGradient id="triangle36_98_" gradientUnits="userSpaceOnUse" x1="104.0513" y1="807.4258" x2="105.0513" y2="806.4258" gradientTransform="matrix(231 0 0 -211 -23873 170617)">
	<stop  offset="0" style="stop-color:#435C01"/>
	<stop  offset="1" style="stop-color:#516D01"/>
</linearGradient>
<polygon id="triangle36_9_" fill="url(#triangle36_98_)" points="162,251 279,462 393,355 "/>
<linearGradient id="triangle36_99_" gradientUnits="userSpaceOnUse" x1="104.0693" y1="807.4434" x2="105.0693" y2="806.4434" gradientTransform="matrix(208 0 0 -223 -21370.5 180176)">
	<stop  offset="0" style="stop-color:#4D5D01"/>
	<stop  offset="1" style="stop-color:#5D6D01"/>
</linearGradient>
<polygon id="triangle36_10_" fill="url(#triangle36_99_)" points="261,132 393,355 469,210 "/>
<linearGradient id="triangle36_100_" gradientUnits="userSpaceOnUse" x1="104.0977" y1="807.7852" x2="105.0977" y2="806.7852" gradientTransform="matrix(208 0 0 -164 -21370.5 132506.5)">
	<stop  offset="0" style="stop-color:#495601"/>
	<stop  offset="1" style="stop-color:#565E01"/>
</linearGradient>
<polygon id="triangle36_11_" fill="url(#triangle36_100_)" points="261,132 469,210 453,46 "/>
<linearGradient id="triangle36_101_" gradientUnits="userSpaceOnUse" x1="104.1416" y1="808.123" x2="105.1416" y2="807.123" gradientTransform="matrix(226 0 0 -128 -23344.5 103430.5)">
	<stop  offset="0" style="stop-color:#364201"/>
	<stop  offset="1" style="stop-color:#455001"/>
</linearGradient>
<polygon id="triangle36_12_" fill="url(#triangle36_101_)" points="168,6 261,132 394,4 "/>
<linearGradient id="triangle36_102_" gradientUnits="userSpaceOnUse" x1="103.8794" y1="807.9424" x2="104.8794" y2="806.9424" gradientTransform="matrix(192 0 0 -128 -19698.5 103430.5)">
	<stop  offset="0" style="stop-color:#4A5601"/>
	<stop  offset="1" style="stop-color:#4E5401"/>
</linearGradient>
<polygon id="triangle36_13_" fill="url(#triangle36_102_)" points="261,132 453,46 394,4 "/>
<linearGradient id="triangle36_103_" gradientUnits="userSpaceOnUse" x1="103.77" y1="811.0625" x2="104.77" y2="810.0625" gradientTransform="matrix(158 0 0 -42 -16012.5 34071.5)">
	<stop  offset="0" style="stop-color:#494C01"/>
	<stop  offset="1" style="stop-color:#4E4F01"/>
</linearGradient>
<polygon id="triangle36_14_" fill="url(#triangle36_103_)" points="394,4 453,46 552,31 "/>
<linearGradient id="triangle36_104_" gradientUnits="userSpaceOnUse" x1="103.5483" y1="807.5195" x2="104.5483" y2="806.5195" gradientTransform="matrix(133 0 0 -164 -13341 132506.5)">
	<stop  offset="0" style="stop-color:#575C01"/>
	<stop  offset="1" style="stop-color:#626701"/>
</linearGradient>
<polygon id="triangle36_15_" fill="url(#triangle36_104_)" points="453,46 469,210 586,175 "/>
<linearGradient id="triangle36_105_" gradientUnits="userSpaceOnUse" x1="103.875" y1="808.0107" x2="104.875" y2="807.0107" gradientTransform="matrix(133 0 0 -144 -13341 116361.5)">
	<stop  offset="0" style="stop-color:#585B01"/>
	<stop  offset="1" style="stop-color:#5D5C01"/>
</linearGradient>
<polygon id="triangle36_16_" fill="url(#triangle36_105_)" points="453,46 552,31 586,175 "/>
<linearGradient id="triangle36_106_" gradientUnits="userSpaceOnUse" x1="103.7173" y1="807.7051" x2="104.7173" y2="806.7051" gradientTransform="matrix(164 0 0 -144 -16481.5 116361.5)">
	<stop  offset="0" style="stop-color:#656001"/>
	<stop  offset="1" style="stop-color:#676001"/>
</linearGradient>
<polygon id="triangle36_17_" fill="url(#triangle36_106_)" points="552,31 716,145 586,175 "/>
<linearGradient id="triangle36_107_" gradientUnits="userSpaceOnUse" x1="103.7754" y1="807.6973" x2="104.7754" y2="806.6973" gradientTransform="matrix(180 0 0 -145 -18312.5 117347)">
	<stop  offset="0" style="stop-color:#617302"/>
	<stop  offset="1" style="stop-color:#6C7701"/>
</linearGradient>
<polygon id="triangle36_18_" fill="url(#triangle36_107_)" points="393,355 469,210 573,350 "/>
<linearGradient id="triangle36_108_" gradientUnits="userSpaceOnUse" x1="103.8071" y1="807.8115" x2="104.8071" y2="806.8115" gradientTransform="matrix(117 0 0 -175 -11653 141507)">
	<stop  offset="0" style="stop-color:#697201"/>
	<stop  offset="1" style="stop-color:#6B7001"/>
</linearGradient>
<polygon id="triangle36_19_" fill="url(#triangle36_108_)" points="469,210 586,175 573,350 "/>
<linearGradient id="triangle36_109_" gradientUnits="userSpaceOnUse" x1="103.7695" y1="807.4482" x2="104.7695" y2="806.4482" gradientTransform="matrix(143 0 0 -205 -14266 165672)">
	<stop  offset="0" style="stop-color:#6A6801"/>
	<stop  offset="1" style="stop-color:#6F6C01"/>
</linearGradient>
<polygon id="triangle36_20_" fill="url(#triangle36_109_)" points="586,175 716,145 573,350 "/>
<linearGradient id="triangle36_110_" gradientUnits="userSpaceOnUse" x1="104.0166" y1="807.7188" x2="105.0166" y2="806.7188" gradientTransform="matrix(247 0 0 -152 -25428 123137.5)">
	<stop  offset="0" style="stop-color:#5E8001"/>
	<stop  offset="1" style="stop-color:#6D8902"/>
</linearGradient>
<polygon id="triangle36_21_" fill="url(#triangle36_110_)" points="279,462 393,355 526,507 "/>
<linearGradient id="triangle36_111_" gradientUnits="userSpaceOnUse" x1="104.104" y1="807.9229" x2="105.104" y2="806.9229" gradientTransform="matrix(180 0 0 -157 -18312.5 127165)">
	<stop  offset="0" style="stop-color:#667C01"/>
	<stop  offset="1" style="stop-color:#788C01"/>
</linearGradient>
<polygon id="triangle36_22_" fill="url(#triangle36_111_)" points="393,355 573,350 526,507 "/>
<linearGradient id="triangle36_112_" gradientUnits="userSpaceOnUse" x1="104.062" y1="807.7891" x2="105.062" y2="806.7891" gradientTransform="matrix(247 0 0 -149 -25428 120825)">
	<stop  offset="0" style="stop-color:#597E01"/>
	<stop  offset="1" style="stop-color:#6A9001"/>
</linearGradient>
<polygon id="triangle36_23_" fill="url(#triangle36_112_)" points="279,462 526,507 338,611 "/>
<linearGradient id="triangle36_113_" gradientUnits="userSpaceOnUse" x1="104.0283" y1="807.6436" x2="105.0283" y2="806.6436" gradientTransform="matrix(175 0 0 -191 -18079 154698)">
	<stop  offset="0" style="stop-color:#477301"/>
	<stop  offset="1" style="stop-color:#4D7901"/>
</linearGradient>
<polygon id="triangle36_24_" fill="url(#triangle36_113_)" points="104,512 279,462 191,653 "/>
<linearGradient id="triangle36_114_" gradientUnits="userSpaceOnUse" x1="103.6895" y1="807.418" x2="104.6895" y2="806.4179" gradientTransform="matrix(147 0 0 -191 -15066 154698)">
	<stop  offset="0" style="stop-color:#537C01"/>
	<stop  offset="1" style="stop-color:#558701"/>
</linearGradient>
<polygon id="triangle36_25_" fill="url(#triangle36_114_)" points="279,462 338,611 191,653 "/>
<linearGradient id="triangle36_115_" gradientUnits="userSpaceOnUse" x1="103.6343" y1="807.5576" x2="104.6343" y2="806.5576" gradientTransform="matrix(146 0 0 -161 -15107.5 130553)">
	<stop  offset="0" style="stop-color:#437201"/>
	<stop  offset="1" style="stop-color:#447801"/>
</linearGradient>
<polygon id="triangle36_26_" fill="url(#triangle36_115_)" points="104,512 191,653 45,673 "/>
<linearGradient id="triangle36_116_" gradientUnits="userSpaceOnUse" x1="103.0801" y1="807.0557" x2="104.0801" y2="806.0557" gradientTransform="matrix(77 0 0 -314 -7915 253794.5)">
	<stop  offset="0" style="stop-color:#385C01"/>
	<stop  offset="1" style="stop-color:#3F6E01"/>
</linearGradient>
<polygon id="triangle36_27_" fill="url(#triangle36_116_)" points="27,359 104,512 45,673 "/>
<linearGradient id="triangle36_117_" gradientUnits="userSpaceOnUse" x1="95.7319" y1="806.7129" x2="96.7319" y2="805.713" gradientTransform="matrix(12 0 0 -712 -1140.5 574435.5)">
	<stop  offset="0" style="stop-color:#2A3E00"/>
	<stop  offset="1" style="stop-color:#315300"/>
</linearGradient>
<polygon id="triangle36_28_" fill="url(#triangle36_117_)" points="10,13 21,185 9,725 "/>
<linearGradient id="triangle36_118_" gradientUnits="userSpaceOnUse" x1="98.6147" y1="806.7803" x2="99.6148" y2="805.7802" gradientTransform="matrix(18 0 0 -540 -1767.5 435889.5)">
	<stop  offset="0" style="stop-color:#2E4800"/>
	<stop  offset="1" style="stop-color:#376000"/>
</linearGradient>
<polygon id="triangle36_29_" fill="url(#triangle36_118_)" points="21,185 27,359 9,725 "/>
<linearGradient id="triangle36_119_" gradientUnits="userSpaceOnUse" x1="101.4722" y1="806.9062" x2="102.4722" y2="805.9062" gradientTransform="matrix(36 0 0 -366 -3648.5 295732.5)">
	<stop  offset="0" style="stop-color:#365C01"/>
	<stop  offset="1" style="stop-color:#3A6E01"/>
</linearGradient>
<polygon id="triangle36_30_" fill="url(#triangle36_119_)" points="27,359 45,673 9,725 "/>
<linearGradient id="triangle36_120_" gradientUnits="userSpaceOnUse" x1="103.9048" y1="807.6328" x2="104.9048" y2="806.6328" gradientTransform="matrix(146 0 0 -192 -15107.5 155695.5)">
	<stop  offset="0" style="stop-color:#3D7201"/>
	<stop  offset="1" style="stop-color:#447F01"/>
</linearGradient>
<polygon id="triangle36_31_" fill="url(#triangle36_120_)" points="45,673 191,653 115,845 "/>
<linearGradient id="triangle36_121_" gradientUnits="userSpaceOnUse" x1="103.5229" y1="807.6387" x2="104.5229" y2="806.6387" gradientTransform="matrix(106 0 0 -172 -10963.5 139585.5)">
	<stop  offset="0" style="stop-color:#3B7301"/>
	<stop  offset="1" style="stop-color:#3E7801"/>
</linearGradient>
<polygon id="triangle36_32_" fill="url(#triangle36_121_)" points="9,725 45,673 115,845 "/>
<linearGradient id="triangle36_122_" gradientUnits="userSpaceOnUse" x1="103.7686" y1="807.3721" x2="104.7686" y2="806.3721" gradientTransform="matrix(177 0 0 -192 -18277 155695.5)">
	<stop  offset="0" style="stop-color:#448301"/>
	<stop  offset="1" style="stop-color:#4F8C01"/>
</linearGradient>
<polygon id="triangle36_33_" fill="url(#triangle36_122_)" points="115,845 191,653 292,792 "/>
<linearGradient id="triangle36_123_" gradientUnits="userSpaceOnUse" x1="103.9604" y1="807.7451" x2="104.9604" y2="806.7451" gradientTransform="matrix(147 0 0 -181 -15066 146782)">
	<stop  offset="0" style="stop-color:#569101"/>
	<stop  offset="1" style="stop-color:#5B9501"/>
</linearGradient>
<polygon id="triangle36_34_" fill="url(#triangle36_123_)" points="191,653 338,611 292,792 "/>
<linearGradient id="triangle36_124_" gradientUnits="userSpaceOnUse" x1="103.8555" y1="807.4229" x2="104.8555" y2="806.4229" gradientTransform="matrix(212 0 0 -181 -21757.5 146782)">
	<stop  offset="0" style="stop-color:#5E9C01"/>
	<stop  offset="1" style="stop-color:#669901"/>
</linearGradient>
<polygon id="triangle36_35_" fill="url(#triangle36_124_)" points="292,792 338,611 504,721 "/>
<linearGradient id="triangle36_125_" gradientUnits="userSpaceOnUse" x1="104.0732" y1="807.5381" x2="105.0732" y2="806.5381" gradientTransform="matrix(188 0 0 -214 -19203.5 173292.5)">
	<stop  offset="0" style="stop-color:#679401"/>
	<stop  offset="1" style="stop-color:#78A101"/>
</linearGradient>
<polygon id="triangle36_36_" fill="url(#triangle36_125_)" points="338,611 526,507 504,721 "/>
<linearGradient id="triangle36_126_" gradientUnits="userSpaceOnUse" x1="103.4712" y1="807.25" x2="104.4712" y2="806.25" gradientTransform="matrix(120 0 0 -214 -11931.5 173292.5)">
	<stop  offset="0" style="stop-color:#78A101"/>
	<stop  offset="1" style="stop-color:#88A701"/>
</linearGradient>
<polygon id="triangle36_37_" fill="url(#triangle36_126_)" points="504,721 526,507 624,642 "/>
<linearGradient id="triangle36_127_" gradientUnits="userSpaceOnUse" x1="103.7798" y1="807.5488" x2="104.7798" y2="806.5488" gradientTransform="matrix(197 0 0 -157 -19956 127165)">
	<stop  offset="0" style="stop-color:#89A002"/>
	<stop  offset="1" style="stop-color:#959E01"/>
</linearGradient>
<polygon id="triangle36_38_" fill="url(#triangle36_127_)" points="526,507 573,350 723,506 "/>
<linearGradient id="triangle36_128_" gradientUnits="userSpaceOnUse" x1="104.0942" y1="808.0547" x2="105.0943" y2="807.0547" gradientTransform="matrix(197 0 0 -136 -19956 110384.5)">
	<stop  offset="0" style="stop-color:#8FA902"/>
	<stop  offset="1" style="stop-color:#A5B902"/>
</linearGradient>
<polygon id="triangle36_39_" fill="url(#triangle36_128_)" points="526,507 624,642 723,506 "/>
<linearGradient id="triangle36_129_" gradientUnits="userSpaceOnUse" x1="103.9473" y1="807.3506" x2="104.9472" y2="806.3506" gradientTransform="matrix(225 0 0 -207 -22835 167285)">
	<stop  offset="0" style="stop-color:#767601"/>
	<stop  offset="1" style="stop-color:#756801"/>
</linearGradient>
<polygon id="triangle36_40_" fill="url(#triangle36_129_)" points="573,350 716,145 798,352 "/>
<linearGradient id="triangle36_130_" gradientUnits="userSpaceOnUse" x1="104.1987" y1="807.9102" x2="105.1987" y2="806.9102" gradientTransform="matrix(225 0 0 -156 -22835 126358.5)">
	<stop  offset="0" style="stop-color:#8B8D01"/>
	<stop  offset="1" style="stop-color:#A09901"/>
</linearGradient>
<polygon id="triangle36_41_" fill="url(#triangle36_130_)" points="573,350 723,506 798,352 "/>
<linearGradient id="triangle36_131_" gradientUnits="userSpaceOnUse" x1="103.6914" y1="807.5098" x2="104.6914" y2="806.5098" gradientTransform="matrix(119 0 0 -207 -11615 167285)">
	<stop  offset="0" style="stop-color:#756401"/>
	<stop  offset="1" style="stop-color:#816B01"/>
</linearGradient>
<polygon id="triangle36_42_" fill="url(#triangle36_131_)" points="716,145 798,352 835,230 "/>
<linearGradient id="triangle36_132_" gradientUnits="userSpaceOnUse" x1="103.8994" y1="808.8193" x2="104.8994" y2="807.8193" gradientTransform="matrix(126 0 0 -93 -12346.5 75336)">
	<stop  offset="0" style="stop-color:#6C5A01"/>
	<stop  offset="1" style="stop-color:#735B01"/>
</linearGradient>
<polygon id="triangle36_43_" fill="url(#triangle36_132_)" points="716,145 835,230 842,137 "/>
<linearGradient id="triangle36_133_" gradientUnits="userSpaceOnUse" x1="104.3242" y1="813.8096" x2="105.3242" y2="812.8096" gradientTransform="matrix(372 0 0 -27 -38375.5 21974)">
	<stop  offset="0" style="stop-color:#525101"/>
	<stop  offset="1" style="stop-color:#554C00"/>
</linearGradient>
<polygon id="triangle36_44_" fill="url(#triangle36_133_)" points="394,4 552,31 766,4 "/>
<linearGradient id="triangle36_134_" gradientUnits="userSpaceOnUse" x1="104.2036" y1="808.0713" x2="105.2036" y2="807.0713" gradientTransform="matrix(214 0 0 -141 -21706.5 113915)">
	<stop  offset="0" style="stop-color:#5C5400"/>
	<stop  offset="1" style="stop-color:#5D4F00"/>
</linearGradient>
<polygon id="triangle36_45_" fill="url(#triangle36_134_)" points="552,31 716,145 766,4 "/>
<linearGradient id="triangle36_135_" gradientUnits="userSpaceOnUse" x1="103.52" y1="807.7285" x2="104.5201" y2="806.7285" gradientTransform="matrix(126 0 0 -141 -12346.5 113915)">
	<stop  offset="0" style="stop-color:#6B5901"/>
	<stop  offset="1" style="stop-color:#675100"/>
</linearGradient>
<polygon id="triangle36_46_" fill="url(#triangle36_135_)" points="716,145 842,137 766,4 "/>
<linearGradient id="triangle36_136_" gradientUnits="userSpaceOnUse" x1="103.9077" y1="808.0723" x2="104.9077" y2="807.0723" gradientTransform="matrix(149 0 0 -133 -14700 107463)">
	<stop  offset="0" style="stop-color:#5B4500"/>
	<stop  offset="1" style="stop-color:#6B4D01"/>
</linearGradient>
<polygon id="triangle36_47_" fill="url(#triangle36_136_)" points="766,4 842,137 915,14 "/>
<linearGradient id="triangle36_137_" gradientUnits="userSpaceOnUse" x1="103.5674" y1="808.4844" x2="104.5674" y2="807.4844" gradientTransform="matrix(112 0 0 -98 -10764.5 79363.5)">
	<stop  offset="0" style="stop-color:#7E6001"/>
	<stop  offset="1" style="stop-color:#785701"/>
</linearGradient>
<polygon id="triangle36_48_" fill="url(#triangle36_137_)" points="835,230 842,137 947,132 "/>
<linearGradient id="triangle36_138_" gradientUnits="userSpaceOnUse" x1="103.4282" y1="808.0039" x2="104.4282" y2="807.0039" gradientTransform="matrix(105 0 0 -123 -10026 99408)">
	<stop  offset="0" style="stop-color:#715301"/>
	<stop  offset="1" style="stop-color:#714C01"/>
</linearGradient>
<polygon id="triangle36_49_" fill="url(#triangle36_138_)" points="842,137 915,14 947,132 "/>
<linearGradient id="triangle36_139_" gradientUnits="userSpaceOnUse" x1="103.6104" y1="807.9668" x2="104.6104" y2="806.9668" gradientTransform="matrix(137 0 0 -122 -13414 98817.5)">
	<stop  offset="0" style="stop-color:#947A01"/>
	<stop  offset="1" style="stop-color:#896901"/>
</linearGradient>
<polygon id="triangle36_50_" fill="url(#triangle36_139_)" points="798,352 835,230 935,292 "/>
<linearGradient id="triangle36_140_" gradientUnits="userSpaceOnUse" x1="103.7939" y1="807.6279" x2="104.794" y2="806.6279" gradientTransform="matrix(183 0 0 -154 -18296 124747.5)">
	<stop  offset="0" style="stop-color:#B6AE02"/>
	<stop  offset="1" style="stop-color:#9E8602"/>
</linearGradient>
<polygon id="triangle36_51_" fill="url(#triangle36_140_)" points="723,506 798,352 906,435 "/>
<linearGradient id="triangle36_141_" gradientUnits="userSpaceOnUse" x1="103.8833" y1="808.0059" x2="104.8833" y2="807.0059" gradientTransform="matrix(137 0 0 -143 -13414 115816)">
	<stop  offset="0" style="stop-color:#947901"/>
	<stop  offset="1" style="stop-color:#977401"/>
</linearGradient>
<polygon id="triangle36_52_" fill="url(#triangle36_141_)" points="798,352 935,292 906,435 "/>
<linearGradient id="triangle36_142_" gradientUnits="userSpaceOnUse" x1="104.0747" y1="807.7891" x2="105.0747" y2="806.7891" gradientTransform="matrix(183 0 0 -170 -18296 137734.5)">
	<stop  offset="0" style="stop-color:#BAB102"/>
	<stop  offset="1" style="stop-color:#B29702"/>
</linearGradient>
<polygon id="triangle36_53_" fill="url(#triangle36_142_)" points="723,506 906,435 894,605 "/>
<linearGradient id="triangle36_143_" gradientUnits="userSpaceOnUse" x1="103.9258" y1="807.4365" x2="104.9258" y2="806.4365" gradientTransform="matrix(152 0 0 -236 -15275.5 191170.5)">
	<stop  offset="0" style="stop-color:#7EAE02"/>
	<stop  offset="1" style="stop-color:#95C402"/>
</linearGradient>
<polygon id="triangle36_54_" fill="url(#triangle36_143_)" points="504,721 624,642 656,878 "/>
<linearGradient id="triangle36_144_" gradientUnits="userSpaceOnUse" x1="104.1733" y1="807.5879" x2="105.1733" y2="806.5879" gradientTransform="matrix(231 0 0 -202 -23920 163899.5)">
	<stop  offset="0" style="stop-color:#4A9101"/>
	<stop  offset="1" style="stop-color:#56A402"/>
</linearGradient>
<polygon id="triangle36_55_" fill="url(#triangle36_144_)" points="115,845 292,792 346,994 "/>
<linearGradient id="triangle36_145_" gradientUnits="userSpaceOnUse" x1="103.8047" y1="807.5361" x2="104.8047" y2="806.5361" gradientTransform="matrix(231 0 0 -152 -23920 123627.5)">
	<stop  offset="0" style="stop-color:#479201"/>
	<stop  offset="1" style="stop-color:#4A9E01"/>
</linearGradient>
<polygon id="triangle36_56_" fill="url(#triangle36_145_)" points="115,845 346,994 117,997 "/>
<linearGradient id="triangle36_146_" gradientUnits="userSpaceOnUse" x1="103.5127" y1="807.8262" x2="104.5127" y2="806.8261" gradientTransform="matrix(101 0 0 -152 -10434 123627.5)">
	<stop  offset="0" style="stop-color:#408701"/>
	<stop  offset="1" style="stop-color:#3B8801"/>
</linearGradient>
<polygon id="triangle36_57_" fill="url(#triangle36_146_)" points="115,845 117,997 16,965 "/>
<linearGradient id="triangle36_147_" gradientUnits="userSpaceOnUse" x1="103.4058" y1="807.2012" x2="104.4058" y2="806.2012" gradientTransform="matrix(106 0 0 -240 -10963.5 194479.5)">
	<stop  offset="0" style="stop-color:#397301"/>
	<stop  offset="1" style="stop-color:#3B7F01"/>
</linearGradient>
<polygon id="triangle36_58_" fill="url(#triangle36_147_)" points="9,725 115,845 16,965 "/>
<linearGradient id="triangle36_148_" gradientUnits="userSpaceOnUse" x1="104.0322" y1="830.6885" x2="105.0322" y2="829.6885" gradientTransform="matrix(304 0 0 -8 -31317.5 7632.5)">
	<stop  offset="0" style="stop-color:#64BF01"/>
	<stop  offset="1" style="stop-color:#7CD107"/>
</linearGradient>
<polygon id="triangle36_59_" fill="url(#triangle36_148_)" points="346,994 500,986 650,991 "/>
<linearGradient id="triangle36_149_" gradientUnits="userSpaceOnUse" x1="103.8418" y1="808.2324" x2="104.8418" y2="807.2324" gradientTransform="matrix(156 0 0 -113 -15697.5 92207)">
	<stop  offset="0" style="stop-color:#84D40D"/>
	<stop  offset="1" style="stop-color:#99DE10"/>
</linearGradient>
<polygon id="triangle36_60_" fill="url(#triangle36_149_)" points="500,986 656,878 650,991 "/>
<linearGradient id="triangle36_150_" gradientUnits="userSpaceOnUse" x1="103.6216" y1="808.0732" x2="104.6216" y2="807.0732" gradientTransform="matrix(143 0 0 -113 -14189 92207)">
	<stop  offset="0" style="stop-color:#A0E316"/>
	<stop  offset="1" style="stop-color:#B0E31F"/>
</linearGradient>
<polygon id="triangle36_61_" fill="url(#triangle36_150_)" points="650,991 656,878 793,945 "/>
<linearGradient id="triangle36_151_" gradientUnits="userSpaceOnUse" x1="103.9409" y1="808.0537" x2="104.9409" y2="807.0537" gradientTransform="matrix(153 0 0 -136 -15228 110687.5)">
	<stop  offset="0" style="stop-color:#ADDF11"/>
	<stop  offset="1" style="stop-color:#C5E326"/>
</linearGradient>
<polygon id="triangle36_62_" fill="url(#triangle36_151_)" points="656,878 809,809 793,945 "/>
<linearGradient id="triangle36_152_" gradientUnits="userSpaceOnUse" x1="103.335" y1="807.7998" x2="104.335" y2="806.7998" gradientTransform="matrix(101 0 0 -136 -9657 110687.5)">
	<stop  offset="0" style="stop-color:#CEEA30"/>
	<stop  offset="1" style="stop-color:#D5E318"/>
</linearGradient>
<polygon id="triangle36_63_" fill="url(#triangle36_152_)" points="793,945 809,809 894,880 "/>
<linearGradient id="triangle36_153_" gradientUnits="userSpaceOnUse" x1="103.8833" y1="808.7715" x2="104.8833" y2="807.7715" gradientTransform="matrix(135 0 0 -92 -13194 75180.5)">
	<stop  offset="0" style="stop-color:#D8E116"/>
	<stop  offset="1" style="stop-color:#E6E11A"/>
</linearGradient>
<polygon id="triangle36_64_" fill="url(#triangle36_153_)" points="809,809 894,880 944,788 "/>
<linearGradient id="triangle36_154_" gradientUnits="userSpaceOnUse" x1="103.2842" y1="807.4229" x2="104.2842" y2="806.4229" gradientTransform="matrix(105 0 0 -170 -9974 137734.5)">
	<stop  offset="0" style="stop-color:#CAA703"/>
	<stop  offset="1" style="stop-color:#BB9002"/>
</linearGradient>
<polygon id="triangle36_65_" fill="url(#triangle36_154_)" points="894,605 906,435 999,588 "/>
<linearGradient id="triangle36_155_" gradientUnits="userSpaceOnUse" x1="103.624" y1="807.5908" x2="104.624" y2="806.5909" gradientTransform="matrix(105 0 0 -200 -9974 162082.5)">
	<stop  offset="0" style="stop-color:#CBAC03"/>
	<stop  offset="1" style="stop-color:#D3AF09"/>
</linearGradient>
<polygon id="triangle36_66_" fill="url(#triangle36_155_)" points="894,605 944,788 999,588 "/>
<linearGradient id="triangle36_156_" gradientUnits="userSpaceOnUse" x1="103.1953" y1="807.7295" x2="104.1954" y2="806.7294" gradientTransform="matrix(89 0 0 -143 -8290 115816)">
	<stop  offset="0" style="stop-color:#9F7902"/>
	<stop  offset="1" style="stop-color:#966901"/>
</linearGradient>
<polygon id="triangle36_67_" fill="url(#triangle36_156_)" points="906,435 935,292 995,367 "/>
<linearGradient id="triangle36_157_" gradientUnits="userSpaceOnUse" x1="103.5391" y1="807.542" x2="104.5391" y2="806.542" gradientTransform="matrix(93 0 0 -221 -8708 178798)">
	<stop  offset="0" style="stop-color:#AD8302"/>
	<stop  offset="1" style="stop-color:#AF7D02"/>
</linearGradient>
<polygon id="triangle36_68_" fill="url(#triangle36_157_)" points="906,435 999,588 995,367 "/>
<linearGradient id="triangle36_158_" gradientUnits="userSpaceOnUse" x1="103.1353" y1="808.2344" x2="104.1353" y2="807.2344" gradientTransform="matrix(72 0 0 -118 -6504.5 95375.5)">
	<stop  offset="0" style="stop-color:#714B02"/>
	<stop  offset="1" style="stop-color:#6E4801"/>
</linearGradient>
<polygon id="triangle36_69_" fill="url(#triangle36_158_)" points="915,14 947,132 987,26 "/>
<linearGradient id="triangle36_159_" gradientUnits="userSpaceOnUse" x1="103.9971" y1="808.7051" x2="104.9971" y2="807.7051" gradientTransform="matrix(158 0 0 -95 -15571.5 77009)">
	<stop  offset="0" style="stop-color:#7E5F01"/>
	<stop  offset="1" style="stop-color:#885E01"/>
</linearGradient>
<polygon id="triangle36_70_" fill="url(#triangle36_159_)" points="835,230 935,292 993,197 "/>
<linearGradient id="triangle36_160_" gradientUnits="userSpaceOnUse" x1="103.7666" y1="808.4121" x2="104.7666" y2="807.4121" gradientTransform="matrix(158 0 0 -98 -15571.5 79363.5)">
	<stop  offset="0" style="stop-color:#7C5C01"/>
	<stop  offset="1" style="stop-color:#7F5501"/>
</linearGradient>
<polygon id="triangle36_71_" fill="url(#triangle36_160_)" points="835,230 947,132 993,197 "/>
<linearGradient id="triangle36_161_" gradientUnits="userSpaceOnUse" x1="102.8594" y1="807.7451" x2="103.8593" y2="806.7451" gradientTransform="matrix(60 0 0 -170 -5230.5 137496.5)">
	<stop  offset="0" style="stop-color:#946601"/>
	<stop  offset="1" style="stop-color:#966301"/>
</linearGradient>
<polygon id="triangle36_72_" fill="url(#triangle36_161_)" points="935,292 995,367 993,197 "/>
<linearGradient id="triangle36_162_" gradientUnits="userSpaceOnUse" x1="102.291" y1="807.7002" x2="103.291" y2="806.7002" gradientTransform="matrix(46 0 0 -171 -3755.5 138132)">
	<stop  offset="0" style="stop-color:#724B01"/>
	<stop  offset="1" style="stop-color:#754A01"/>
</linearGradient>
<polygon id="triangle36_73_" fill="url(#triangle36_162_)" points="947,132 987,26 993,197 "/>
<linearGradient id="triangle36_163_" gradientUnits="userSpaceOnUse" x1="104.0527" y1="810.5801" x2="105.0527" y2="809.5801" gradientTransform="matrix(349 0 0 -46 -35716 38238.5)">
	<stop  offset="0" style="stop-color:#B0E72C"/>
	<stop  offset="1" style="stop-color:#D5E841"/>
</linearGradient>
<polygon id="triangle36_74_" fill="url(#triangle36_163_)" points="650,991 793,945 999,988 "/>
<linearGradient id="triangle36_164_" gradientUnits="userSpaceOnUse" x1="103.9658" y1="808.2734" x2="104.9658" y2="807.2734" gradientTransform="matrix(206 0 0 -108 -20629.5 88176.5)">
	<stop  offset="0" style="stop-color:#D5EC42"/>
	<stop  offset="1" style="stop-color:#E5E733"/>
</linearGradient>
<polygon id="triangle36_75_" fill="url(#triangle36_164_)" points="793,945 894,880 999,988 "/>
<linearGradient id="triangle36_165_" gradientUnits="userSpaceOnUse" x1="103.5088" y1="807.4766" x2="104.5088" y2="806.4766" gradientTransform="matrix(105 0 0 -200 -9974 162282.5)">
	<stop  offset="0" style="stop-color:#E8E52E"/>
	<stop  offset="1" style="stop-color:#EADD31"/>
</linearGradient>
<polygon id="triangle36_76_" fill="url(#triangle36_165_)" points="894,880 944,788 999,988 "/>
<linearGradient id="triangle36_166_" gradientUnits="userSpaceOnUse" x1="102.7246" y1="807.1104" x2="103.7246" y2="806.1104" gradientTransform="matrix(55 0 0 -400 -4699 323382.5)">
	<stop  offset="0" style="stop-color:#E7CC16"/>
	<stop  offset="1" style="stop-color:#DABA1D"/>
</linearGradient>
<polygon id="triangle36_77_" fill="url(#triangle36_166_)" points="944,788 999,588 999,988 "/>
<linearGradient id="triangle36_167_" gradientUnits="userSpaceOnUse" x1="103.8604" y1="807.334" x2="104.8604" y2="806.3339" gradientTransform="matrix(161 0 0 -236 -16096 191170.5)">
	<stop  offset="0" style="stop-color:#A6C802"/>
	<stop  offset="1" style="stop-color:#B5D802"/>
</linearGradient>
<polygon id="triangle36_78_" fill="url(#triangle36_167_)" points="624,642 656,878 785,679 "/>
<linearGradient id="triangle36_168_" gradientUnits="userSpaceOnUse" x1="103.8096" y1="807.582" x2="104.8096" y2="806.582" gradientTransform="matrix(161 0 0 -173 -16096 140225)">
	<stop  offset="0" style="stop-color:#AAC103"/>
	<stop  offset="1" style="stop-color:#C1CA02"/>
</linearGradient>
<polygon id="triangle36_79_" fill="url(#triangle36_168_)" points="624,642 723,506 785,679 "/>
<linearGradient id="triangle36_169_" gradientUnits="userSpaceOnUse" x1="103.7788" y1="807.4385" x2="104.7788" y2="806.4385" gradientTransform="matrix(153 0 0 -199 -15228 161367)">
	<stop  offset="0" style="stop-color:#B4E10D"/>
	<stop  offset="1" style="stop-color:#CCDF0E"/>
</linearGradient>
<polygon id="triangle36_80_" fill="url(#triangle36_169_)" points="656,878 809,809 785,679 "/>
<linearGradient id="triangle36_170_" gradientUnits="userSpaceOnUse" x1="103.8359" y1="807.5723" x2="104.8359" y2="806.5723" gradientTransform="matrix(171 0 0 -173 -17042 140225)">
	<stop  offset="0" style="stop-color:#B9B702"/>
	<stop  offset="1" style="stop-color:#C2BA02"/>
</linearGradient>
<polygon id="triangle36_81_" fill="url(#triangle36_170_)" points="723,506 894,605 785,679 "/>
<linearGradient id="triangle36_171_" gradientUnits="userSpaceOnUse" x1="103.6704" y1="807.8232" x2="104.6704" y2="806.8232" gradientTransform="matrix(159 0 0 -130 -15726 105718.5)">
	<stop  offset="0" style="stop-color:#D7E012"/>
	<stop  offset="1" style="stop-color:#DFDC0F"/>
</linearGradient>
<polygon id="triangle36_82_" fill="url(#triangle36_171_)" points="809,809 944,788 785,679 "/>
<linearGradient id="triangle36_172_" gradientUnits="userSpaceOnUse" x1="103.9131" y1="807.6328" x2="104.9131" y2="806.6328" gradientTransform="matrix(159 0 0 -183 -15726 148389)">
	<stop  offset="0" style="stop-color:#CBB603"/>
	<stop  offset="1" style="stop-color:#DBD209"/>
</linearGradient>
<polygon id="triangle36_83_" fill="url(#triangle36_172_)" points="894,605 944,788 785,679 "/>
<linearGradient id="triangle36_173_" gradientUnits="userSpaceOnUse" x1="103.6436" y1="807.499" x2="104.6436" y2="806.499" gradientTransform="matrix(117 0 0 -202 -11830 163899.5)">
	<stop  offset="0" style="stop-color:#5DA701"/>
	<stop  offset="1" style="stop-color:#62B501"/>
</linearGradient>
<polygon id="triangle36_84_" fill="url(#triangle36_173_)" points="292,792 346,994 409,856 "/>
<linearGradient id="triangle36_174_" gradientUnits="userSpaceOnUse" x1="104.1255" y1="808.0586" x2="105.1255" y2="807.0586" gradientTransform="matrix(212 0 0 -135 -21757.5 109793)">
	<stop  offset="0" style="stop-color:#5C9B01"/>
	<stop  offset="1" style="stop-color:#6BA801"/>
</linearGradient>
<polygon id="triangle36_85_" fill="url(#triangle36_174_)" points="292,792 504,721 409,856 "/>
<linearGradient id="triangle36_175_" gradientUnits="userSpaceOnUse" x1="103.6738" y1="807.7617" x2="104.6739" y2="806.7617" gradientTransform="matrix(154 0 0 -138 -15642.5 112347.5)">
	<stop  offset="0" style="stop-color:#64C001"/>
	<stop  offset="1" style="stop-color:#6EC401"/>
</linearGradient>
<polygon id="triangle36_86_" fill="url(#triangle36_175_)" points="346,994 500,986 409,856 "/>
<linearGradient id="triangle36_176_" gradientUnits="userSpaceOnUse" x1="104.127" y1="808.0459" x2="105.1269" y2="807.046" gradientTransform="matrix(247 0 0 -130 -25298 105895.5)">
	<stop  offset="0" style="stop-color:#77CC01"/>
	<stop  offset="1" style="stop-color:#83CB02"/>
</linearGradient>
<polygon id="triangle36_87_" fill="url(#triangle36_176_)" points="500,986 656,878 409,856 "/>
<linearGradient id="triangle36_177_" gradientUnits="userSpaceOnUse" x1="103.959" y1="807.6201" x2="104.959" y2="806.6201" gradientTransform="matrix(247 0 0 -157 -25298 127536)">
	<stop  offset="0" style="stop-color:#78AF02"/>
	<stop  offset="1" style="stop-color:#81C302"/>
</linearGradient>
<polygon id="triangle36_88_" fill="url(#triangle36_177_)" points="504,721 656,878 409,856 "/>
</svg>
