<?xml version="1.0" encoding="utf-8"?>
<!-- Generator: Adobe Illustrator 21.1.0, SVG Export Plug-In . SVG Version: 6.00 Build 0)  -->
<svg version="1.1" id="Layer_1" xmlns="http://www.w3.org/2000/svg" xmlns:xlink="http://www.w3.org/1999/xlink" x="0px" y="0px"
	 viewBox="0 0 1000 1000" enable-background="new 0 0 1000 1000" xml:space="preserve">
<linearGradient id="triangle36_99_" gradientUnits="userSpaceOnUse" x1="103.7802" y1="807.6276" x2="104.7802" y2="806.6276" gradientTransform="matrix(174 0 0 -156 -18071.5391 126013.5391)">
	<stop  offset="0" style="stop-color:#49699D"/>
	<stop  offset="1" style="stop-color:#456A9B"/>
</linearGradient>
<polygon id="triangle36" fill="url(#triangle36_99_)" points="7,5 12,161 181,84 "/>
<linearGradient id="triangle36_100_" gradientUnits="userSpaceOnUse" x1="104.1439" y1="809.2065" x2="105.1439" y2="808.2065" gradientTransform="matrix(174 0 0 -79 -18071.5391 63913.0195)">
	<stop  offset="0" style="stop-color:#5E7CA5"/>
	<stop  offset="1" style="stop-color:#627CA3"/>
</linearGradient>
<polygon id="triangle36_1_" fill="url(#triangle36_100_)" points="7,5 181,84 177,5 "/>
<linearGradient id="triangle36_101_" gradientUnits="userSpaceOnUse" x1="103.0262" y1="808.5209" x2="104.0262" y2="807.5209" gradientTransform="matrix(83 0 0 -87 -8392.0186 70365.0234)">
	<stop  offset="0" style="stop-color:#6681A6"/>
	<stop  offset="1" style="stop-color:#6E8AAB"/>
</linearGradient>
<polygon id="triangle36_2_" fill="url(#triangle36_101_)" points="177,5 181,84 260,92 "/>
<linearGradient id="triangle36_102_" gradientUnits="userSpaceOnUse" x1="103.3698" y1="808.3" x2="104.3698" y2="807.3" gradientTransform="matrix(79 0 0 -121 -7970.019 97865.0313)">
	<stop  offset="0" style="stop-color:#6D8BAC"/>
	<stop  offset="1" style="stop-color:#738EAB"/>
</linearGradient>
<polygon id="triangle36_3_" fill="url(#triangle36_102_)" points="181,84 260,92 247,205 "/>
<linearGradient id="triangle36_103_" gradientUnits="userSpaceOnUse" x1="104.0244" y1="807.7292" x2="105.0244" y2="806.7292" gradientTransform="matrix(169 0 0 -179 -17544.0391 144642.0469)">
	<stop  offset="0" style="stop-color:#4B759C"/>
	<stop  offset="1" style="stop-color:#6D88A7"/>
</linearGradient>
<polygon id="triangle36_4_" fill="url(#triangle36_103_)" points="12,161 181,84 140,263 "/>
<linearGradient id="triangle36_104_" gradientUnits="userSpaceOnUse" x1="103.3692" y1="807.4327" x2="104.3692" y2="806.4327" gradientTransform="matrix(107 0 0 -179 -10937.0225 144642.0469)">
	<stop  offset="0" style="stop-color:#6D8AAC"/>
	<stop  offset="1" style="stop-color:#718DAA"/>
</linearGradient>
<polygon id="triangle36_5_" fill="url(#triangle36_104_)" points="181,84 247,205 140,263 "/>
<linearGradient id="triangle36_105_" gradientUnits="userSpaceOnUse" x1="103.4767" y1="807.8875" x2="104.4767" y2="806.8875" gradientTransform="matrix(128 0 0 -122 -13259.5244 98748.5313)">
	<stop  offset="0" style="stop-color:#5078A2"/>
	<stop  offset="1" style="stop-color:#7793AF"/>
</linearGradient>
<polygon id="triangle36_6_" fill="url(#triangle36_105_)" points="12,161 140,263 13,283 "/>
<linearGradient id="triangle36_106_" gradientUnits="userSpaceOnUse" x1="87.1514" y1="807.2683" x2="88.1514" y2="806.2683" gradientTransform="matrix(6 0 0 -278 -515.5 224406.6719)">
	<stop  offset="0" style="stop-color:#5475A2"/>
	<stop  offset="1" style="stop-color:#5378A2"/>
</linearGradient>
<polygon id="triangle36_7_" fill="url(#triangle36_106_)" points="7,5 12,161 13,283 "/>
<linearGradient id="triangle36_107_" gradientUnits="userSpaceOnUse" x1="103.7108" y1="807.6024" x2="104.7108" y2="806.6024" gradientTransform="matrix(127 0 0 -182 -13154.0244 147240.5469)">
	<stop  offset="0" style="stop-color:#6884A9"/>
	<stop  offset="1" style="stop-color:#738EAD"/>
</linearGradient>
<polygon id="triangle36_8_" fill="url(#triangle36_107_)" points="13,283 140,263 30,445 "/>
<linearGradient id="triangle36_108_" gradientUnits="userSpaceOnUse" x1="103.779" y1="807.6323" x2="104.779" y2="806.6323" gradientTransform="matrix(120 0 0 -198 -12295.5234 160086.5625)">
	<stop  offset="0" style="stop-color:#7A93AA"/>
	<stop  offset="1" style="stop-color:#6F85A4"/>
</linearGradient>
<polygon id="triangle36_9_" fill="url(#triangle36_108_)" points="140,263 247,205 260,403 "/>
<linearGradient id="triangle36_109_" gradientUnits="userSpaceOnUse" x1="103.9155" y1="807.4384" x2="104.9155" y2="806.4384" gradientTransform="matrix(230 0 0 -182 -23900.5566 147240.5469)">
	<stop  offset="0" style="stop-color:#7E9BB6"/>
	<stop  offset="1" style="stop-color:#86A2AF"/>
</linearGradient>
<polygon id="triangle36_10_" fill="url(#triangle36_109_)" points="30,445 140,263 260,403 "/>
<linearGradient id="triangle36_110_" gradientUnits="userSpaceOnUse" x1="103.8347" y1="807.3788" x2="104.8346" y2="806.3789" gradientTransform="matrix(186 0 0 -198 -19085.541 160086.5625)">
	<stop  offset="0" style="stop-color:#7A89A5"/>
	<stop  offset="1" style="stop-color:#97A5AD"/>
</linearGradient>
<polygon id="triangle36_11_" fill="url(#triangle36_110_)" points="247,205 260,403 433,301 "/>
<linearGradient id="triangle36_111_" gradientUnits="userSpaceOnUse" x1="103.8629" y1="808.0444" x2="104.863" y2="807.0444" gradientTransform="matrix(227 0 0 -113 -23370.0566 91421.0234)">
	<stop  offset="0" style="stop-color:#6A83A4"/>
	<stop  offset="1" style="stop-color:#85A2B0"/>
</linearGradient>
<polygon id="triangle36_12_" fill="url(#triangle36_111_)" points="247,205 260,92 474,172 "/>
<linearGradient id="triangle36_112_" gradientUnits="userSpaceOnUse" x1="104.226" y1="808.194" x2="105.226" y2="807.194" gradientTransform="matrix(227 0 0 -129 -23370.0566 104405.0391)">
	<stop  offset="0" style="stop-color:#6680A5"/>
	<stop  offset="1" style="stop-color:#889FAF"/>
</linearGradient>
<polygon id="triangle36_13_" fill="url(#triangle36_112_)" points="247,205 433,301 474,172 "/>
<linearGradient id="triangle36_113_" gradientUnits="userSpaceOnUse" x1="104.1587" y1="808.722" x2="105.1587" y2="807.722" gradientTransform="matrix(245 0 0 -91 -25321.0586 73587.0234)">
	<stop  offset="0" style="stop-color:#6C89A9"/>
	<stop  offset="1" style="stop-color:#7E9BB2"/>
</linearGradient>
<polygon id="triangle36_14_" fill="url(#triangle36_113_)" points="177,5 260,92 422,1 "/>
<linearGradient id="triangle36_114_" gradientUnits="userSpaceOnUse" x1="104.0683" y1="807.6937" x2="105.0683" y2="806.6937" gradientTransform="matrix(214 0 0 -171 -21998.5449 138107.0469)">
	<stop  offset="0" style="stop-color:#83A0AF"/>
	<stop  offset="1" style="stop-color:#829EB1"/>
</linearGradient>
<polygon id="triangle36_15_" fill="url(#triangle36_114_)" points="260,92 474,172 422,1 "/>
<linearGradient id="triangle36_115_" gradientUnits="userSpaceOnUse" x1="104.2488" y1="855.1248" x2="105.2488" y2="854.1249" gradientTransform="matrix(415 0 0 -4 -43256.1914 3421.5)">
	<stop  offset="0" style="stop-color:#3F6A9B"/>
	<stop  offset="1" style="stop-color:#587CA2"/>
</linearGradient>
<polygon id="triangle36_16_" fill="url(#triangle36_115_)" points="7,5 177,5 422,1 "/>
<linearGradient id="triangle36_116_" gradientUnits="userSpaceOnUse" x1="103.7824" y1="807.6662" x2="104.7823" y2="806.6662" gradientTransform="matrix(140 0 0 -171 -14103.5361 138107.0469)">
	<stop  offset="0" style="stop-color:#6882AB"/>
	<stop  offset="1" style="stop-color:#657FA8"/>
</linearGradient>
<polygon id="triangle36_17_" fill="url(#triangle36_116_)" points="422,1 474,172 562,45 "/>
<linearGradient id="triangle36_117_" gradientUnits="userSpaceOnUse" x1="103.551" y1="807.9683" x2="104.551" y2="806.9683" gradientTransform="matrix(118 0 0 -127 -11752.5234 102665.0391)">
	<stop  offset="0" style="stop-color:#6B86A8"/>
	<stop  offset="1" style="stop-color:#536C9E"/>
</linearGradient>
<polygon id="triangle36_18_" fill="url(#triangle36_117_)" points="474,172 562,45 592,135 "/>
<linearGradient id="triangle36_118_" gradientUnits="userSpaceOnUse" x1="103.6816" y1="807.7562" x2="104.6816" y2="806.7562" gradientTransform="matrix(162 0 0 -136 -16391.5371 110050.5391)">
	<stop  offset="0" style="stop-color:#7888A4"/>
	<stop  offset="1" style="stop-color:#7590AA"/>
</linearGradient>
<polygon id="triangle36_19_" fill="url(#triangle36_118_)" points="433,301 474,172 595,308 "/>
<linearGradient id="triangle36_119_" gradientUnits="userSpaceOnUse" x1="103.8274" y1="807.8144" x2="104.8273" y2="806.8144" gradientTransform="matrix(121 0 0 -173 -12066.0234 139854.0469)">
	<stop  offset="0" style="stop-color:#738DA9"/>
	<stop  offset="1" style="stop-color:#6680A4"/>
</linearGradient>
<polygon id="triangle36_20_" fill="url(#triangle36_119_)" points="474,172 592,135 595,308 "/>
<linearGradient id="triangle36_120_" gradientUnits="userSpaceOnUse" x1="103.9798" y1="808.0344" x2="104.9798" y2="807.0344" gradientTransform="matrix(162 0 0 -138 -16391.5371 111792.5391)">
	<stop  offset="0" style="stop-color:#899BB0"/>
	<stop  offset="1" style="stop-color:#7D99B1"/>
</linearGradient>
<polygon id="triangle36_21_" fill="url(#triangle36_120_)" points="433,301 595,308 522,439 "/>
<linearGradient id="triangle36_121_" gradientUnits="userSpaceOnUse" x1="104.0316" y1="807.5112" x2="105.0316" y2="806.5112" gradientTransform="matrix(173 0 0 -222 -17714.0391 179538.5625)">
	<stop  offset="0" style="stop-color:#809AAC"/>
	<stop  offset="1" style="stop-color:#8297AE"/>
</linearGradient>
<polygon id="triangle36_22_" fill="url(#triangle36_121_)" points="260,403 433,301 419,523 "/>
<linearGradient id="triangle36_122_" gradientUnits="userSpaceOnUse" x1="103.3308" y1="807.2205" x2="104.3307" y2="806.2205" gradientTransform="matrix(103 0 0 -222 -10240.0215 179538.5625)">
	<stop  offset="0" style="stop-color:#8598AD"/>
	<stop  offset="1" style="stop-color:#7996B0"/>
</linearGradient>
<polygon id="triangle36_23_" fill="url(#triangle36_122_)" points="433,301 522,439 419,523 "/>
<linearGradient id="triangle36_123_" gradientUnits="userSpaceOnUse" x1="103.6872" y1="807.548" x2="104.6871" y2="806.548" gradientTransform="matrix(168 0 0 -157 -17200.5391 127218.0391)">
	<stop  offset="0" style="stop-color:#87A2AE"/>
	<stop  offset="1" style="stop-color:#7F9CAF"/>
</linearGradient>
<polygon id="triangle36_24_" fill="url(#triangle36_123_)" points="260,403 419,523 251,560 "/>
<linearGradient id="triangle36_124_" gradientUnits="userSpaceOnUse" x1="104.2293" y1="807.9219" x2="105.2293" y2="806.9219" gradientTransform="matrix(230 0 0 -157 -23900.5566 127218.0391)">
	<stop  offset="0" style="stop-color:#637EAA"/>
	<stop  offset="1" style="stop-color:#738DA7"/>
</linearGradient>
<polygon id="triangle36_25_" fill="url(#triangle36_124_)" points="30,445 260,403 251,560 "/>
<linearGradient id="triangle36_125_" gradientUnits="userSpaceOnUse" x1="103.8447" y1="807.8137" x2="104.8447" y2="806.8138" gradientTransform="matrix(221 0 0 -130 -22960.0547 105484.5391)">
	<stop  offset="0" style="stop-color:#7D9AB7"/>
	<stop  offset="1" style="stop-color:#668DA6"/>
</linearGradient>
<polygon id="triangle36_26_" fill="url(#triangle36_125_)" points="30,445 251,560 64,575 "/>
<linearGradient id="triangle36_126_" gradientUnits="userSpaceOnUse" x1="100.6521" y1="806.9424" x2="101.6521" y2="805.9424" gradientTransform="matrix(28 0 0 -348 -2819.5 281139.6875)">
	<stop  offset="0" style="stop-color:#5F7AA4"/>
	<stop  offset="1" style="stop-color:#5F79A5"/>
</linearGradient>
<polygon id="triangle36_27_" fill="url(#triangle36_126_)" points="13,283 30,445 2,631 "/>
<linearGradient id="triangle36_127_" gradientUnits="userSpaceOnUse" x1="102.6774" y1="807.4091" x2="103.6774" y2="806.4091" gradientTransform="matrix(62 0 0 -186 -6372.5171 150648.5469)">
	<stop  offset="0" style="stop-color:#6181AD"/>
	<stop  offset="1" style="stop-color:#476E9B"/>
</linearGradient>
<polygon id="triangle36_28_" fill="url(#triangle36_127_)" points="30,445 64,575 2,631 "/>
<linearGradient id="triangle36_128_" gradientUnits="userSpaceOnUse" x1="94.8887" y1="806.7003" x2="95.8887" y2="805.7003" gradientTransform="matrix(11 0 0 -626 -1043 505068.75)">
	<stop  offset="0" style="stop-color:#6081A7"/>
	<stop  offset="1" style="stop-color:#6A85A9"/>
</linearGradient>
<polygon id="triangle36_29_" fill="url(#triangle36_128_)" points="7,5 13,283 2,631 "/>
<linearGradient id="triangle36_129_" gradientUnits="userSpaceOnUse" x1="103.3716" y1="807.8917" x2="104.3716" y2="806.8917" gradientTransform="matrix(86 0 0 -149 -8880.5186 120938.0391)">
	<stop  offset="0" style="stop-color:#627AA4"/>
	<stop  offset="1" style="stop-color:#4D739E"/>
</linearGradient>
<polygon id="triangle36_30_" fill="url(#triangle36_129_)" points="2,631 64,575 88,724 "/>
<linearGradient id="triangle36_130_" gradientUnits="userSpaceOnUse" x1="103.9739" y1="807.718" x2="104.9739" y2="806.718" gradientTransform="matrix(187 0 0 -164 -19373.041 133020.5469)">
	<stop  offset="0" style="stop-color:#5A87A6"/>
	<stop  offset="1" style="stop-color:#6F8DAB"/>
</linearGradient>
<polygon id="triangle36_31_" fill="url(#triangle36_130_)" points="64,575 251,560 88,724 "/>
<linearGradient id="triangle36_131_" gradientUnits="userSpaceOnUse" x1="103.9721" y1="807.7655" x2="104.9721" y2="806.7655" gradientTransform="matrix(168 0 0 -166 -17200.5391 134596.5469)">
	<stop  offset="0" style="stop-color:#728CA8"/>
	<stop  offset="1" style="stop-color:#6983A7"/>
</linearGradient>
<polygon id="triangle36_32_" fill="url(#triangle36_131_)" points="251,560 419,523 314,689 "/>
<linearGradient id="triangle36_132_" gradientUnits="userSpaceOnUse" x1="103.9686" y1="807.6161" x2="104.9686" y2="806.6161" gradientTransform="matrix(226 0 0 -164 -23424.5566 133020.5469)">
	<stop  offset="0" style="stop-color:#4C679A"/>
	<stop  offset="1" style="stop-color:#6179A0"/>
</linearGradient>
<polygon id="triangle36_33_" fill="url(#triangle36_132_)" points="88,724 251,560 314,689 "/>
<linearGradient id="triangle36_133_" gradientUnits="userSpaceOnUse" x1="103.7645" y1="807.5847" x2="104.7645" y2="806.5847" gradientTransform="matrix(161 0 0 -166 -16406.0371 134596.5469)">
	<stop  offset="0" style="stop-color:#607BA7"/>
	<stop  offset="1" style="stop-color:#657FA8"/>
</linearGradient>
<polygon id="triangle36_34_" fill="url(#triangle36_133_)" points="314,689 419,523 475,658 "/>
<linearGradient id="triangle36_134_" gradientUnits="userSpaceOnUse" x1="103.8758" y1="807.8815" x2="104.8759" y2="806.8815" gradientTransform="matrix(185 0 0 -135 -18809.041 109595.0391)">
	<stop  offset="0" style="stop-color:#6A85A9"/>
	<stop  offset="1" style="stop-color:#496C9E"/>
</linearGradient>
<polygon id="triangle36_35_" fill="url(#triangle36_134_)" points="419,523 475,658 604,596 "/>
<linearGradient id="triangle36_135_" gradientUnits="userSpaceOnUse" x1="103.9408" y1="807.7446" x2="104.9408" y2="806.7446" gradientTransform="matrix(185 0 0 -157 -18809.041 127254.0391)">
	<stop  offset="0" style="stop-color:#7996B1"/>
	<stop  offset="1" style="stop-color:#6389AB"/>
</linearGradient>
<polygon id="triangle36_36_" fill="url(#triangle36_135_)" points="419,523 522,439 604,596 "/>
<linearGradient id="triangle36_136_" gradientUnits="userSpaceOnUse" x1="103.8731" y1="807.5175" x2="104.8731" y2="806.5175" gradientTransform="matrix(196 0 0 -175 -19855.543 141640.0469)">
	<stop  offset="0" style="stop-color:#7592AC"/>
	<stop  offset="1" style="stop-color:#758FAE"/>
</linearGradient>
<polygon id="triangle36_37_" fill="url(#triangle36_136_)" points="522,439 595,308 718,483 "/>
<linearGradient id="triangle36_137_" gradientUnits="userSpaceOnUse" x1="104.0016" y1="807.7736" x2="105.0016" y2="806.7736" gradientTransform="matrix(196 0 0 -157 -19855.543 127254.0391)">
	<stop  offset="0" style="stop-color:#6782A9"/>
	<stop  offset="1" style="stop-color:#5376A7"/>
</linearGradient>
<polygon id="triangle36_38_" fill="url(#triangle36_137_)" points="522,439 604,596 718,483 "/>
<linearGradient id="triangle36_138_" gradientUnits="userSpaceOnUse" x1="104.1231" y1="807.7183" x2="105.123" y2="806.7183" gradientTransform="matrix(216 0 0 -175 -21872.5449 141640.0469)">
	<stop  offset="0" style="stop-color:#5983A7"/>
	<stop  offset="1" style="stop-color:#436EA1"/>
</linearGradient>
<polygon id="triangle36_39_" fill="url(#triangle36_138_)" points="595,308 718,483 811,333 "/>
<linearGradient id="triangle36_139_" gradientUnits="userSpaceOnUse" x1="103.9362" y1="807.5558" x2="104.9362" y2="806.5558" gradientTransform="matrix(211 0 0 -173 -21353.0449 139854.0469)">
	<stop  offset="0" style="stop-color:#516CA0"/>
	<stop  offset="1" style="stop-color:#6885AB"/>
</linearGradient>
<polygon id="triangle36_40_" fill="url(#triangle36_139_)" points="592,135 595,308 803,185 "/>
<linearGradient id="triangle36_140_" gradientUnits="userSpaceOnUse" x1="104.0493" y1="807.8475" x2="105.0493" y2="806.8475" gradientTransform="matrix(216 0 0 -148 -21872.5449 119741.5391)">
	<stop  offset="0" style="stop-color:#6882A7"/>
	<stop  offset="1" style="stop-color:#4B6EA0"/>
</linearGradient>
<polygon id="triangle36_41_" fill="url(#triangle36_140_)" points="595,308 811,333 803,185 "/>
<linearGradient id="triangle36_141_" gradientUnits="userSpaceOnUse" x1="104.2883" y1="811.0106" x2="105.2883" y2="810.0106" gradientTransform="matrix(346 0 0 -44 -35630.6797 35681.5156)">
	<stop  offset="0" style="stop-color:#6B84A9"/>
	<stop  offset="1" style="stop-color:#516FA1"/>
</linearGradient>
<polygon id="triangle36_42_" fill="url(#triangle36_141_)" points="422,1 562,45 768,3 "/>
<linearGradient id="triangle36_142_" gradientUnits="userSpaceOnUse" x1="104.0294" y1="808.0101" x2="105.0294" y2="807.0101" gradientTransform="matrix(206 0 0 -132 -20860.543 106655.5391)">
	<stop  offset="0" style="stop-color:#5A74A4"/>
	<stop  offset="1" style="stop-color:#5372A2"/>
</linearGradient>
<polygon id="triangle36_43_" fill="url(#triangle36_142_)" points="562,45 592,135 768,3 "/>
<linearGradient id="triangle36_143_" gradientUnits="userSpaceOnUse" x1="104.0324" y1="807.5959" x2="105.0324" y2="806.5958" gradientTransform="matrix(211 0 0 -182 -21353.0449 146980.5469)">
	<stop  offset="0" style="stop-color:#396996"/>
	<stop  offset="1" style="stop-color:#4475A1"/>
</linearGradient>
<polygon id="triangle36_44_" fill="url(#triangle36_143_)" points="592,135 803,185 768,3 "/>
<linearGradient id="triangle36_144_" gradientUnits="userSpaceOnUse" x1="103.4315" y1="807.6486" x2="104.4315" y2="806.6486" gradientTransform="matrix(91 0 0 -182 -8637.0195 146980.5469)">
	<stop  offset="0" style="stop-color:#5173A3"/>
	<stop  offset="1" style="stop-color:#6782AA"/>
</linearGradient>
<polygon id="triangle36_45_" fill="url(#triangle36_144_)" points="768,3 803,185 859,15 "/>
<linearGradient id="triangle36_145_" gradientUnits="userSpaceOnUse" x1="103.3964" y1="807.5265" x2="104.3963" y2="806.5266" gradientTransform="matrix(106 0 0 -170 -10169.5225 137314.5469)">
	<stop  offset="0" style="stop-color:#627EA8"/>
	<stop  offset="1" style="stop-color:#45709E"/>
</linearGradient>
<polygon id="triangle36_46_" fill="url(#triangle36_145_)" points="803,185 859,15 909,146 "/>
<linearGradient id="triangle36_146_" gradientUnits="userSpaceOnUse" x1="103.2719" y1="807.6008" x2="104.272" y2="806.6008" gradientTransform="matrix(103 0 0 -148 -9856.0215 119741.5391)">
	<stop  offset="0" style="stop-color:#6681AB"/>
	<stop  offset="1" style="stop-color:#46669C"/>
</linearGradient>
<polygon id="triangle36_47_" fill="url(#triangle36_146_)" points="803,185 811,333 906,323 "/>
<linearGradient id="triangle36_147_" gradientUnits="userSpaceOnUse" x1="103.7092" y1="807.7941" x2="104.7092" y2="806.7941" gradientTransform="matrix(106 0 0 -177 -10169.5225 143091.0469)">
	<stop  offset="0" style="stop-color:#46769F"/>
	<stop  offset="1" style="stop-color:#2D6495"/>
</linearGradient>
<polygon id="triangle36_48_" fill="url(#triangle36_147_)" points="803,185 909,146 906,323 "/>
<linearGradient id="triangle36_148_" gradientUnits="userSpaceOnUse" x1="103.666" y1="807.7139" x2="104.666" y2="806.714" gradientTransform="matrix(139 0 0 -150 -13703.0361 121502.5391)">
	<stop  offset="0" style="stop-color:#6C85AF"/>
	<stop  offset="1" style="stop-color:#4A72A0"/>
</linearGradient>
<polygon id="triangle36_49_" fill="url(#triangle36_148_)" points="718,483 811,333 857,474 "/>
<linearGradient id="triangle36_149_" gradientUnits="userSpaceOnUse" x1="103.521" y1="807.9096" x2="104.521" y2="806.9096" gradientTransform="matrix(95 0 0 -151 -9012.0195 122299.0391)">
	<stop  offset="0" style="stop-color:#32578E"/>
	<stop  offset="1" style="stop-color:#4D6D9C"/>
</linearGradient>
<polygon id="triangle36_50_" fill="url(#triangle36_149_)" points="811,333 906,323 857,474 "/>
<linearGradient id="triangle36_150_" gradientUnits="userSpaceOnUse" x1="103.8682" y1="808.1147" x2="104.8682" y2="807.1147" gradientTransform="matrix(199 0 0 -113 -20087.043 91812.0234)">
	<stop  offset="0" style="stop-color:#517CAA"/>
	<stop  offset="1" style="stop-color:#718BB3"/>
</linearGradient>
<polygon id="triangle36_51_" fill="url(#triangle36_150_)" points="604,596 718,483 803,593 "/>
<linearGradient id="triangle36_151_" gradientUnits="userSpaceOnUse" x1="103.9013" y1="808.2876" x2="104.9014" y2="807.2876" gradientTransform="matrix(139 0 0 -119 -13703.0361 96642.0313)">
	<stop  offset="0" style="stop-color:#6880AA"/>
	<stop  offset="1" style="stop-color:#6281A8"/>
</linearGradient>
<polygon id="triangle36_52_" fill="url(#triangle36_151_)" points="718,483 857,474 803,593 "/>
<linearGradient id="triangle36_152_" gradientUnits="userSpaceOnUse" x1="104.1171" y1="808.1858" x2="105.1171" y2="807.1858" gradientTransform="matrix(199 0 0 -126 -20087.043 102406.5391)">
	<stop  offset="0" style="stop-color:#366D9C"/>
	<stop  offset="1" style="stop-color:#5579A3"/>
</linearGradient>
<polygon id="triangle36_53_" fill="url(#triangle36_152_)" points="604,596 803,593 717,719 "/>
<linearGradient id="triangle36_153_" gradientUnits="userSpaceOnUse" x1="103.828" y1="807.6833" x2="104.8279" y2="806.6833" gradientTransform="matrix(129 0 0 -186 -12901.0244 150799.5469)">
	<stop  offset="0" style="stop-color:#3A548C"/>
	<stop  offset="1" style="stop-color:#385D92"/>
</linearGradient>
<polygon id="triangle36_54_" fill="url(#triangle36_153_)" points="475,658 604,596 546,782 "/>
<linearGradient id="triangle36_154_" gradientUnits="userSpaceOnUse" x1="103.7242" y1="807.3804" x2="104.7242" y2="806.3804" gradientTransform="matrix(171 0 0 -186 -17219.0391 150799.5469)">
	<stop  offset="0" style="stop-color:#3D6E9D"/>
	<stop  offset="1" style="stop-color:#4A6C9A"/>
</linearGradient>
<polygon id="triangle36_55_" fill="url(#triangle36_154_)" points="604,596 717,719 546,782 "/>
<linearGradient id="triangle36_155_" gradientUnits="userSpaceOnUse" x1="103.9804" y1="807.7214" x2="104.9804" y2="806.7214" gradientTransform="matrix(161 0 0 -178 -16406.0371 144409.5469)">
	<stop  offset="0" style="stop-color:#6781A4"/>
	<stop  offset="1" style="stop-color:#4A7299"/>
</linearGradient>
<polygon id="triangle36_56_" fill="url(#triangle36_155_)" points="314,689 475,658 397,836 "/>
<linearGradient id="triangle36_156_" gradientUnits="userSpaceOnUse" x1="103.6799" y1="807.4736" x2="104.6799" y2="806.4736" gradientTransform="matrix(149 0 0 -178 -15069.0371 144409.5469)">
	<stop  offset="0" style="stop-color:#3C6797"/>
	<stop  offset="1" style="stop-color:#316591"/>
</linearGradient>
<polygon id="triangle36_57_" fill="url(#triangle36_156_)" points="475,658 546,782 397,836 "/>
<linearGradient id="triangle36_157_" gradientUnits="userSpaceOnUse" x1="103.7505" y1="807.6899" x2="104.7506" y2="806.6899" gradientTransform="matrix(167 0 0 -148 -17117.0391 120245.5391)">
	<stop  offset="0" style="stop-color:#526C9D"/>
	<stop  offset="1" style="stop-color:#4A739D"/>
</linearGradient>
<polygon id="triangle36_58_" fill="url(#triangle36_157_)" points="314,689 397,836 230,837 "/>
<linearGradient id="triangle36_158_" gradientUnits="userSpaceOnUse" x1="104.1954" y1="807.9711" x2="105.1954" y2="806.9711" gradientTransform="matrix(226 0 0 -148 -23424.5566 120245.5391)">
	<stop  offset="0" style="stop-color:#607BA6"/>
	<stop  offset="1" style="stop-color:#6B86AA"/>
</linearGradient>
<polygon id="triangle36_59_" fill="url(#triangle36_158_)" points="88,724 314,689 230,837 "/>
<linearGradient id="triangle36_159_" gradientUnits="userSpaceOnUse" x1="103.3291" y1="807.4164" x2="104.3291" y2="806.4164" gradientTransform="matrix(86 0 0 -223 -8880.5186 180675.0625)">
	<stop  offset="0" style="stop-color:#5B729E"/>
	<stop  offset="1" style="stop-color:#5972A2"/>
</linearGradient>
<polygon id="triangle36_60_" fill="url(#triangle36_159_)" points="2,631 88,724 53,854 "/>
<linearGradient id="triangle36_160_" gradientUnits="userSpaceOnUse" x1="103.7099" y1="807.7953" x2="104.7098" y2="806.7953" gradientTransform="matrix(177 0 0 -130 -18339.0391 105763.5391)">
	<stop  offset="0" style="stop-color:#4C699E"/>
	<stop  offset="1" style="stop-color:#627CA9"/>
</linearGradient>
<polygon id="triangle36_61_" fill="url(#triangle36_160_)" points="88,724 230,837 53,854 "/>
<linearGradient id="triangle36_161_" gradientUnits="userSpaceOnUse" x1="102.3401" y1="807.051" x2="103.3401" y2="806.051" gradientTransform="matrix(51 0 0 -294 -5223.0151 237936.6719)">
	<stop  offset="0" style="stop-color:#5775A2"/>
	<stop  offset="1" style="stop-color:#4C74A3"/>
</linearGradient>
<polygon id="triangle36_62_" fill="url(#triangle36_161_)" points="2,631 53,854 18,925 "/>
<linearGradient id="triangle36_162_" gradientUnits="userSpaceOnUse" x1="103.3386" y1="809.0728" x2="104.3386" y2="808.0727" gradientTransform="matrix(105 0 0 -71 -10850.0225 58310.0195)">
	<stop  offset="0" style="stop-color:#246797"/>
	<stop  offset="1" style="stop-color:#466EA0"/>
</linearGradient>
<polygon id="triangle36_63_" fill="url(#triangle36_162_)" points="18,925 53,854 123,924 "/>
<linearGradient id="triangle36_163_" gradientUnits="userSpaceOnUse" x1="104.0086" y1="808.8348" x2="105.0086" y2="807.8348" gradientTransform="matrix(177 0 0 -87 -18339.0391 71197.0234)">
	<stop  offset="0" style="stop-color:#476197"/>
	<stop  offset="1" style="stop-color:#516B9C"/>
</linearGradient>
<polygon id="triangle36_64_" fill="url(#triangle36_163_)" points="53,854 230,837 123,924 "/>
<linearGradient id="triangle36_164_" gradientUnits="userSpaceOnUse" x1="103.9474" y1="807.7498" x2="104.9473" y2="806.7498" gradientTransform="matrix(188 0 0 -156 -19418.541 126845.5391)">
	<stop  offset="0" style="stop-color:#3B6495"/>
	<stop  offset="1" style="stop-color:#4C719F"/>
</linearGradient>
<polygon id="triangle36_65_" fill="url(#triangle36_164_)" points="123,924 230,837 311,993 "/>
<linearGradient id="triangle36_165_" gradientUnits="userSpaceOnUse" x1="103.9964" y1="807.8597" x2="104.9964" y2="806.8597" gradientTransform="matrix(167 0 0 -157 -17117.0391 127651.0391)">
	<stop  offset="0" style="stop-color:#4E7AA1"/>
	<stop  offset="1" style="stop-color:#316494"/>
</linearGradient>
<polygon id="triangle36_66_" fill="url(#triangle36_165_)" points="230,837 397,836 311,993 "/>
<linearGradient id="triangle36_166_" gradientUnits="userSpaceOnUse" x1="104.0047" y1="807.6557" x2="105.0048" y2="806.6557" gradientTransform="matrix(171 0 0 -187 -17219.0391 151729.0469)">
	<stop  offset="0" style="stop-color:#3A6797"/>
	<stop  offset="1" style="stop-color:#356392"/>
</linearGradient>
<polygon id="triangle36_67_" fill="url(#triangle36_166_)" points="546,782 717,719 625,906 "/>
<linearGradient id="triangle36_167_" gradientUnits="userSpaceOnUse" x1="103.7843" y1="807.4219" x2="104.7843" y2="806.422" gradientTransform="matrix(175 0 0 -187 -17558.0391 151729.0469)">
	<stop  offset="0" style="stop-color:#2E4E86"/>
	<stop  offset="1" style="stop-color:#3E6595"/>
</linearGradient>
<polygon id="triangle36_68_" fill="url(#triangle36_167_)" points="625,906 717,719 800,866 "/>
<linearGradient id="triangle36_168_" gradientUnits="userSpaceOnUse" x1="103.9777" y1="807.834" x2="104.9777" y2="806.834" gradientTransform="matrix(196 0 0 -147 -19660.543 119469.0391)">
	<stop  offset="0" style="stop-color:#486A9A"/>
	<stop  offset="1" style="stop-color:#356193"/>
</linearGradient>
<polygon id="triangle36_69_" fill="url(#triangle36_168_)" points="717,719 800,866 913,775 "/>
<linearGradient id="triangle36_169_" gradientUnits="userSpaceOnUse" x1="103.9036" y1="807.5056" x2="104.9036" y2="806.5056" gradientTransform="matrix(196 0 0 -182 -19660.543 147570.5469)">
	<stop  offset="0" style="stop-color:#3A6C9A"/>
	<stop  offset="1" style="stop-color:#406E9C"/>
</linearGradient>
<polygon id="triangle36_70_" fill="url(#triangle36_169_)" points="717,719 803,593 913,775 "/>
<linearGradient id="triangle36_170_" gradientUnits="userSpaceOnUse" x1="103.8682" y1="807.3501" x2="104.8683" y2="806.3501" gradientTransform="matrix(185 0 0 -212 -18425.041 171646.5625)">
	<stop  offset="0" style="stop-color:#4876A1"/>
	<stop  offset="1" style="stop-color:#306D98"/>
</linearGradient>
<polygon id="triangle36_71_" fill="url(#triangle36_170_)" points="803,593 857,474 988,686 "/>
<linearGradient id="triangle36_171_" gradientUnits="userSpaceOnUse" x1="103.9563" y1="807.5898" x2="104.9563" y2="806.5898" gradientTransform="matrix(185 0 0 -182 -18425.041 147570.5469)">
	<stop  offset="0" style="stop-color:#748DAF"/>
	<stop  offset="1" style="stop-color:#3F6D99"/>
</linearGradient>
<polygon id="triangle36_72_" fill="url(#triangle36_171_)" points="803,593 913,775 988,686 "/>
<linearGradient id="triangle36_172_" gradientUnits="userSpaceOnUse" x1="103.5515" y1="807.631" x2="104.5515" y2="806.631" gradientTransform="matrix(132 0 0 -151 -12832.5352 122299.0391)">
	<stop  offset="0" style="stop-color:#6488AC"/>
	<stop  offset="1" style="stop-color:#5B78A4"/>
</linearGradient>
<polygon id="triangle36_73_" fill="url(#triangle36_172_)" points="857,474 906,323 989,420 "/>
<linearGradient id="triangle36_173_" gradientUnits="userSpaceOnUse" x1="103.9084" y1="807.4305" x2="104.9084" y2="806.4305" gradientTransform="matrix(132 0 0 -266 -12832.5352 215143.6563)">
	<stop  offset="0" style="stop-color:#406A9A"/>
	<stop  offset="1" style="stop-color:#326293"/>
</linearGradient>
<polygon id="triangle36_74_" fill="url(#triangle36_173_)" points="857,474 988,686 989,420 "/>
<linearGradient id="triangle36_174_" gradientUnits="userSpaceOnUse" x1="103.2364" y1="807.4829" x2="104.2364" y2="806.4829" gradientTransform="matrix(91 0 0 -177 -8499.0195 143091.0469)">
	<stop  offset="0" style="stop-color:#536CA0"/>
	<stop  offset="1" style="stop-color:#2E6797"/>
</linearGradient>
<polygon id="triangle36_75_" fill="url(#triangle36_174_)" points="906,323 909,146 997,228 "/>
<linearGradient id="triangle36_175_" gradientUnits="userSpaceOnUse" x1="103.4784" y1="807.6393" x2="104.4784" y2="806.6393" gradientTransform="matrix(91 0 0 -192 -8499.0195 155270.5469)">
	<stop  offset="0" style="stop-color:#5F7BAC"/>
	<stop  offset="1" style="stop-color:#4B75A1"/>
</linearGradient>
<polygon id="triangle36_76_" fill="url(#triangle36_175_)" points="906,323 989,420 997,228 "/>
<linearGradient id="triangle36_176_" gradientUnits="userSpaceOnUse" x1="92.8893" y1="806.9245" x2="93.8894" y2="805.9244" gradientTransform="matrix(9 0 0 -458 152 369799.625)">
	<stop  offset="0" style="stop-color:#336498"/>
	<stop  offset="1" style="stop-color:#3E6899"/>
</linearGradient>
<polygon id="triangle36_77_" fill="url(#triangle36_176_)" points="988,686 989,420 997,228 "/>
<linearGradient id="triangle36_177_" gradientUnits="userSpaceOnUse" x1="103.402" y1="807.9868" x2="104.402" y2="806.9868" gradientTransform="matrix(95 0 0 -131 -8964.0195 105861.0391)">
	<stop  offset="0" style="stop-color:#5873A1"/>
	<stop  offset="1" style="stop-color:#2F5E90"/>
</linearGradient>
<polygon id="triangle36_78_" fill="url(#triangle36_177_)" points="859,15 909,146 954,83 "/>
<linearGradient id="triangle36_178_" gradientUnits="userSpaceOnUse" x1="103.3321" y1="807.8608" x2="104.3321" y2="806.8608" gradientTransform="matrix(88 0 0 -145 -8182.52 117220.0391)">
	<stop  offset="0" style="stop-color:#36739C"/>
	<stop  offset="1" style="stop-color:#396894"/>
</linearGradient>
<polygon id="triangle36_79_" fill="url(#triangle36_178_)" points="909,146 997,228 954,83 "/>
<linearGradient id="triangle36_179_" gradientUnits="userSpaceOnUse" x1="104.0311" y1="822.7057" x2="105.0312" y2="821.7057" gradientTransform="matrix(224 0 0 -12 -22535.5547 9875.5)">
	<stop  offset="0" style="stop-color:#355E95"/>
	<stop  offset="1" style="stop-color:#3B6798"/>
</linearGradient>
<polygon id="triangle36_80_" fill="url(#triangle36_179_)" points="768,3 859,15 992,8 "/>
<linearGradient id="triangle36_180_" gradientUnits="userSpaceOnUse" x1="103.8931" y1="809.2722" x2="104.8931" y2="808.2722" gradientTransform="matrix(133 0 0 -75 -12935.0352 60690.0195)">
	<stop  offset="0" style="stop-color:#4A74A2"/>
	<stop  offset="1" style="stop-color:#2A5F91"/>
</linearGradient>
<polygon id="triangle36_81_" fill="url(#triangle36_180_)" points="859,15 954,83 992,8 "/>
<linearGradient id="triangle36_181_" gradientUnits="userSpaceOnUse" x1="102.2055" y1="807.5201" x2="103.2055" y2="806.5201" gradientTransform="matrix(43 0 0 -220 -3435.0039 177632.5625)">
	<stop  offset="0" style="stop-color:#37588C"/>
	<stop  offset="1" style="stop-color:#2D6394"/>
</linearGradient>
<polygon id="triangle36_82_" fill="url(#triangle36_181_)" points="954,83 997,228 992,8 "/>
<linearGradient id="triangle36_182_" gradientUnits="userSpaceOnUse" x1="103.1129" y1="808.6426" x2="104.1129" y2="807.6426" gradientTransform="matrix(75 0 0 -91 -6820.0181 74272.0234)">
	<stop  offset="0" style="stop-color:#2F568D"/>
	<stop  offset="1" style="stop-color:#255F92"/>
</linearGradient>
<polygon id="triangle36_83_" fill="url(#triangle36_182_)" points="913,775 988,686 984,777 "/>
<linearGradient id="triangle36_183_" gradientUnits="userSpaceOnUse" x1="103.8781" y1="808.2861" x2="104.8781" y2="807.2861" gradientTransform="matrix(188 0 0 -105 -18741.541 85652.0234)">
	<stop  offset="0" style="stop-color:#2A6A96"/>
	<stop  offset="1" style="stop-color:#2A598C"/>
</linearGradient>
<polygon id="triangle36_84_" fill="url(#triangle36_183_)" points="800,866 913,775 988,880 "/>
<linearGradient id="triangle36_184_" gradientUnits="userSpaceOnUse" x1="103.3388" y1="808.5845" x2="104.3388" y2="807.5845" gradientTransform="matrix(75 0 0 -105 -6820.0181 85652.0234)">
	<stop  offset="0" style="stop-color:#2C5E90"/>
	<stop  offset="1" style="stop-color:#285D8E"/>
</linearGradient>
<polygon id="triangle36_85_" fill="url(#triangle36_184_)" points="913,775 984,777 988,880 "/>
<linearGradient id="triangle36_185_" gradientUnits="userSpaceOnUse" x1="78.508" y1="807.6353" x2="79.5079" y2="806.6353" gradientTransform="matrix(4 0 0 -194 670.5 157341.5469)">
	<stop  offset="0" style="stop-color:#216293"/>
	<stop  offset="1" style="stop-color:#265B8B"/>
</linearGradient>
<polygon id="triangle36_86_" fill="url(#triangle36_185_)" points="984,777 988,686 988,880 "/>
<linearGradient id="triangle36_186_" gradientUnits="userSpaceOnUse" x1="92.8892" y1="806.7984" x2="93.8893" y2="805.7983" gradientTransform="matrix(9 0 0 -652 152 526260.75)">
	<stop  offset="0" style="stop-color:#2E6C97"/>
	<stop  offset="1" style="stop-color:#306290"/>
</linearGradient>
<polygon id="triangle36_87_" fill="url(#triangle36_186_)" points="988,686 997,228 988,880 "/>
<linearGradient id="triangle36_187_" gradientUnits="userSpaceOnUse" x1="103.9987" y1="808.1891" x2="104.9987" y2="807.1891" gradientTransform="matrix(188 0 0 -119 -18741.541 97034.0313)">
	<stop  offset="0" style="stop-color:#276893"/>
	<stop  offset="1" style="stop-color:#235B8B"/>
</linearGradient>
<polygon id="triangle36_88_" fill="url(#triangle36_187_)" points="800,866 988,880 863,985 "/>
<linearGradient id="triangle36_188_" gradientUnits="userSpaceOnUse" x1="103.6649" y1="808.3519" x2="104.6649" y2="807.3519" gradientTransform="matrix(125 0 0 -105 -12095.0244 85757.0234)">
	<stop  offset="0" style="stop-color:#3B568A"/>
	<stop  offset="1" style="stop-color:#285385"/>
</linearGradient>
<polygon id="triangle36_89_" fill="url(#triangle36_188_)" points="982,972 988,880 863,985 "/>
<linearGradient id="triangle36_189_" gradientUnits="userSpaceOnUse" x1="103.9849" y1="808.1888" x2="104.9848" y2="807.1888" gradientTransform="matrix(175 0 0 -121 -17558.0391 98647.0313)">
	<stop  offset="0" style="stop-color:#1F5789"/>
	<stop  offset="1" style="stop-color:#2E6491"/>
</linearGradient>
<polygon id="triangle36_90_" fill="url(#triangle36_189_)" points="625,906 800,866 682,987 "/>
<linearGradient id="triangle36_190_" gradientUnits="userSpaceOnUse" x1="103.8361" y1="808.0204" x2="104.8362" y2="807.0204" gradientTransform="matrix(181 0 0 -121 -18128.0391 98647.0313)">
	<stop  offset="0" style="stop-color:#2D6494"/>
	<stop  offset="1" style="stop-color:#2C5D8F"/>
</linearGradient>
<polygon id="triangle36_91_" fill="url(#triangle36_190_)" points="800,866 863,985 682,987 "/>
<linearGradient id="triangle36_191_" gradientUnits="userSpaceOnUse" x1="103.7024" y1="807.625" x2="104.7024" y2="806.6251" gradientTransform="matrix(151 0 0 -158 -15364.0371 128457.5391)">
	<stop  offset="0" style="stop-color:#5A73A7"/>
	<stop  offset="1" style="stop-color:#376C99"/>
</linearGradient>
<polygon id="triangle36_92_" fill="url(#triangle36_191_)" points="311,993 397,836 462,994 "/>
<linearGradient id="triangle36_192_" gradientUnits="userSpaceOnUse" x1="103.9085" y1="807.5262" x2="104.9085" y2="806.5262" gradientTransform="matrix(149 0 0 -212 -15069.0371 171954.5625)">
	<stop  offset="0" style="stop-color:#32608D"/>
	<stop  offset="1" style="stop-color:#396293"/>
</linearGradient>
<polygon id="triangle36_93_" fill="url(#triangle36_192_)" points="397,836 546,782 462,994 "/>
<linearGradient id="triangle36_193_" gradientUnits="userSpaceOnUse" x1="103.7384" y1="807.2961" x2="104.7384" y2="806.2961" gradientTransform="matrix(163 0 0 -212 -16467.0371 171954.5625)">
	<stop  offset="0" style="stop-color:#506C99"/>
	<stop  offset="1" style="stop-color:#336090"/>
</linearGradient>
<polygon id="triangle36_94_" fill="url(#triangle36_193_)" points="546,782 625,906 462,994 "/>
<linearGradient id="triangle36_194_" gradientUnits="userSpaceOnUse" x1="103.9607" y1="808.6454" x2="104.9607" y2="807.6454" gradientTransform="matrix(220 0 0 -88 -22423.5547 72072.5234)">
	<stop  offset="0" style="stop-color:#274B82"/>
	<stop  offset="1" style="stop-color:#2E588C"/>
</linearGradient>
<polygon id="triangle36_95_" fill="url(#triangle36_194_)" points="625,906 682,987 462,994 "/>
<linearGradient id="triangle36_195_" gradientUnits="userSpaceOnUse" x1="104.2401" y1="828.1109" x2="105.24" y2="827.111" gradientTransform="matrix(401 0 0 -9 -41338.1914 8438)">
	<stop  offset="0" style="stop-color:#3C6996"/>
	<stop  offset="1" style="stop-color:#266796"/>
</linearGradient>
<polygon id="triangle36_96_" fill="url(#triangle36_195_)" points="682,987 863,985 462,994 "/>
<linearGradient id="triangle36_196_" gradientUnits="userSpaceOnUse" x1="103.9872" y1="809.1718" x2="104.9872" y2="808.1718" gradientTransform="matrix(285 0 0 -69 -29652.0605 56767.0195)">
	<stop  offset="0" style="stop-color:#38689D"/>
	<stop  offset="1" style="stop-color:#376099"/>
</linearGradient>
<polygon id="triangle36_97_" fill="url(#triangle36_196_)" points="123,924 311,993 26,988 "/>
<linearGradient id="triangle36_197_" gradientUnits="userSpaceOnUse" x1="103.5241" y1="809.5583" x2="104.5241" y2="808.5583" gradientTransform="matrix(105 0 0 -64 -10850.0225 52734.5195)">
	<stop  offset="0" style="stop-color:#39689F"/>
	<stop  offset="1" style="stop-color:#47619B"/>
</linearGradient>
<polygon id="triangle36_98_" fill="url(#triangle36_197_)" points="18,925 123,924 26,988 "/>
</svg>
