<svg id="Layer_1" data-name="Layer 1" xmlns="http://www.w3.org/2000/svg" xmlns:xlink="http://www.w3.org/1999/xlink" viewBox="0 0 995 993"><defs><style>.cls-1{fill:url(#linear-gradient);}.cls-2{fill:url(#linear-gradient-2);}.cls-3{fill:url(#linear-gradient-3);}.cls-4{fill:url(#linear-gradient-4);}.cls-5{fill:url(#linear-gradient-5);}.cls-6{fill:url(#linear-gradient-6);}.cls-7{fill:url(#linear-gradient-7);}.cls-8{fill:url(#linear-gradient-8);}.cls-9{fill:url(#linear-gradient-9);}.cls-10{fill:url(#linear-gradient-10);}.cls-11{fill:url(#linear-gradient-11);}.cls-12{fill:url(#linear-gradient-12);}.cls-13{fill:url(#linear-gradient-13);}.cls-14{fill:url(#linear-gradient-14);}.cls-15{fill:url(#linear-gradient-15);}.cls-16{fill:url(#linear-gradient-16);}.cls-17{fill:url(#linear-gradient-17);}.cls-18{fill:url(#linear-gradient-18);}.cls-19{fill:url(#linear-gradient-19);}.cls-20{fill:url(#linear-gradient-20);}.cls-21{fill:url(#linear-gradient-21);}.cls-22{fill:url(#linear-gradient-22);}.cls-23{fill:url(#linear-gradient-23);}.cls-24{fill:url(#linear-gradient-24);}.cls-25{fill:url(#linear-gradient-25);}.cls-26{fill:url(#linear-gradient-26);}.cls-27{fill:url(#linear-gradient-27);}.cls-28{fill:url(#linear-gradient-28);}.cls-29{fill:url(#linear-gradient-29);}.cls-30{fill:url(#linear-gradient-30);}.cls-31{fill:url(#linear-gradient-31);}.cls-32{fill:url(#linear-gradient-32);}.cls-33{fill:url(#linear-gradient-33);}.cls-34{fill:url(#linear-gradient-34);}.cls-35{fill:url(#linear-gradient-35);}.cls-36{fill:url(#linear-gradient-36);}.cls-37{fill:url(#linear-gradient-37);}.cls-38{fill:url(#linear-gradient-38);}.cls-39{fill:url(#linear-gradient-39);}.cls-40{fill:url(#linear-gradient-40);}.cls-41{fill:url(#linear-gradient-41);}.cls-42{fill:url(#linear-gradient-42);}.cls-43{fill:url(#linear-gradient-43);}.cls-44{fill:url(#linear-gradient-44);}.cls-45{fill:url(#linear-gradient-45);}.cls-46{fill:url(#linear-gradient-46);}.cls-47{fill:url(#linear-gradient-47);}.cls-48{fill:url(#linear-gradient-48);}.cls-49{fill:url(#linear-gradient-49);}.cls-50{fill:url(#linear-gradient-50);}.cls-51{fill:url(#linear-gradient-51);}.cls-52{fill:url(#linear-gradient-52);}.cls-53{fill:url(#linear-gradient-53);}.cls-54{fill:url(#linear-gradient-54);}.cls-55{fill:url(#linear-gradient-55);}.cls-56{fill:url(#linear-gradient-56);}.cls-57{fill:url(#linear-gradient-57);}.cls-58{fill:url(#linear-gradient-58);}.cls-59{fill:url(#linear-gradient-59);}.cls-60{fill:url(#linear-gradient-60);}.cls-61{fill:url(#linear-gradient-61);}.cls-62{fill:url(#linear-gradient-62);}.cls-63{fill:url(#linear-gradient-63);}.cls-64{fill:url(#linear-gradient-64);}.cls-65{fill:url(#linear-gradient-65);}.cls-66{fill:url(#linear-gradient-66);}.cls-67{fill:url(#linear-gradient-67);}.cls-68{fill:url(#linear-gradient-68);}.cls-69{fill:url(#linear-gradient-69);}.cls-70{fill:url(#linear-gradient-70);}.cls-71{fill:url(#linear-gradient-71);}.cls-72{fill:url(#linear-gradient-72);}.cls-73{fill:url(#linear-gradient-73);}.cls-74{fill:url(#linear-gradient-74);}.cls-75{fill:url(#linear-gradient-75);}.cls-76{fill:url(#linear-gradient-76);}.cls-77{fill:url(#linear-gradient-77);}.cls-78{fill:url(#linear-gradient-78);}.cls-79{fill:url(#linear-gradient-79);}.cls-80{fill:url(#linear-gradient-80);}.cls-81{fill:url(#linear-gradient-81);}.cls-82{fill:url(#linear-gradient-82);}.cls-83{fill:url(#linear-gradient-83);}.cls-84{fill:url(#linear-gradient-84);}.cls-85{fill:url(#linear-gradient-85);}.cls-86{fill:url(#linear-gradient-86);}.cls-87{fill:url(#linear-gradient-87);}.cls-88{fill:url(#linear-gradient-88);}.cls-89{fill:url(#linear-gradient-89);}.cls-90{fill:url(#linear-gradient-90);}.cls-91{fill:url(#linear-gradient-91);}.cls-92{fill:url(#linear-gradient-92);}.cls-93{fill:url(#linear-gradient-93);}.cls-94{fill:url(#linear-gradient-94);}.cls-95{fill:url(#linear-gradient-95);}.cls-96{fill:url(#linear-gradient-96);}.cls-97{fill:url(#linear-gradient-97);}.cls-98{fill:url(#linear-gradient-98);}.cls-99{fill:url(#linear-gradient-99);}</style><linearGradient id="linear-gradient" x1="103.78" y1="807.63" x2="104.78" y2="806.63" gradientTransform="matrix(174, 0, 0, -156, -18073.54, 126012.54)" gradientUnits="userSpaceOnUse"><stop offset="0" stop-color="#648ed5"/><stop offset="1" stop-color="#5e8fd3"/></linearGradient><linearGradient id="linear-gradient-2" x1="104.14" y1="809.21" x2="105.14" y2="808.21" gradientTransform="matrix(174, 0, 0, -79, -18073.54, 63912.02)" gradientUnits="userSpaceOnUse"><stop offset="0" stop-color="#7da6dd"/><stop offset="1" stop-color="#84a7db"/></linearGradient><linearGradient id="linear-gradient-3" x1="103.03" y1="808.52" x2="104.03" y2="807.52" gradientTransform="matrix(83, 0, 0, -87, -8394.02, 70364.02)" gradientUnits="userSpaceOnUse"><stop offset="0" stop-color="#88acde"/><stop offset="1" stop-color="#92b7e3"/></linearGradient><linearGradient id="linear-gradient-4" x1="103.37" y1="808.3" x2="104.37" y2="807.3" gradientTransform="matrix(79, 0, 0, -121, -7972.02, 97864.04)" gradientUnits="userSpaceOnUse"><stop offset="0" stop-color="#91b8e4"/><stop offset="1" stop-color="#98bce3"/></linearGradient><linearGradient id="linear-gradient-5" x1="104.02" y1="807.73" x2="105.02" y2="806.73" gradientTransform="matrix(169, 0, 0, -179, -17546.04, 144641.04)" gradientUnits="userSpaceOnUse"><stop offset="0" stop-color="#669fd4"/><stop offset="1" stop-color="#91b6df"/></linearGradient><linearGradient id="linear-gradient-6" x1="103.37" y1="807.43" x2="104.37" y2="806.43" gradientTransform="matrix(107, 0, 0, -179, -10939.02, 144641.04)" gradientUnits="userSpaceOnUse"><stop offset="0" stop-color="#90b7e4"/><stop offset="1" stop-color="#96bbe2"/></linearGradient><linearGradient id="linear-gradient-7" x1="103.48" y1="807.89" x2="104.48" y2="806.89" gradientTransform="matrix(128, 0, 0, -122, -13261.52, 98747.54)" gradientUnits="userSpaceOnUse"><stop offset="0" stop-color="#6ca1da"/><stop offset="1" stop-color="#9dc1e7"/></linearGradient><linearGradient id="linear-gradient-8" x1="87.15" y1="807.27" x2="88.15" y2="806.27" gradientTransform="matrix(6, 0, 0, -278, -517.5, 224405.67)" gradientUnits="userSpaceOnUse"><stop offset="0" stop-color="#709dda"/><stop offset="1" stop-color="#6fa2da"/></linearGradient><linearGradient id="linear-gradient-9" x1="103.71" y1="807.6" x2="104.71" y2="806.6" gradientTransform="matrix(127, 0, 0, -182, -13156.02, 147239.54)" gradientUnits="userSpaceOnUse"><stop offset="0" stop-color="#8aafe1"/><stop offset="1" stop-color="#98bce5"/></linearGradient><linearGradient id="linear-gradient-10" x1="103.78" y1="807.63" x2="104.78" y2="806.63" gradientTransform="matrix(120, 0, 0, -198, -12297.52, 160085.55)" gradientUnits="userSpaceOnUse"><stop offset="0" stop-color="#a2c4e2"/><stop offset="1" stop-color="#94b3dc"/></linearGradient><linearGradient id="linear-gradient-11" x1="103.92" y1="807.44" x2="104.92" y2="806.44" gradientTransform="matrix(230, 0, 0, -182, -23902.56, 147239.54)" gradientUnits="userSpaceOnUse"><stop offset="0" stop-color="#a5caee"/><stop offset="1" stop-color="#b1d6e7"/></linearGradient><linearGradient id="linear-gradient-12" x1="103.83" y1="807.38" x2="104.83" y2="806.38" gradientTransform="matrix(186, 0, 0, -198, -19087.54, 160085.55)" gradientUnits="userSpaceOnUse"><stop offset="0" stop-color="#a4b7dd"/><stop offset="1" stop-color="#c8dae5"/></linearGradient><linearGradient id="linear-gradient-13" x1="103.86" y1="808.04" x2="104.86" y2="807.04" gradientTransform="matrix(227, 0, 0, -113, -23372.06, 91420.02)" gradientUnits="userSpaceOnUse"><stop offset="0" stop-color="#8eb0dc"/><stop offset="1" stop-color="#afd6e8"/></linearGradient><linearGradient id="linear-gradient-14" x1="104.23" y1="808.19" x2="105.23" y2="807.19" gradientTransform="matrix(227, 0, 0, -129, -23372.06, 104404.04)" gradientUnits="userSpaceOnUse"><stop offset="0" stop-color="#88abdd"/><stop offset="1" stop-color="#b3d2e7"/></linearGradient><linearGradient id="linear-gradient-15" x1="104.16" y1="808.72" x2="105.16" y2="807.72" gradientTransform="matrix(245, 0, 0, -91, -25323.06, 73586.02)" gradientUnits="userSpaceOnUse"><stop offset="0" stop-color="#90b7e1"/><stop offset="1" stop-color="#a6ccea"/></linearGradient><linearGradient id="linear-gradient-16" x1="104.07" y1="807.69" x2="105.07" y2="806.69" gradientTransform="matrix(214, 0, 0, -171, -22000.54, 138106.04)" gradientUnits="userSpaceOnUse"><stop offset="0" stop-color="#add4e7"/><stop offset="1" stop-color="#abd0e9"/></linearGradient><linearGradient id="linear-gradient-17" x1="104.25" y1="855.12" x2="105.25" y2="854.12" gradientTransform="matrix(415, 0, 0, -4, -43258.19, 3420.5)" gradientUnits="userSpaceOnUse"><stop offset="0" stop-color="#5590d3"/><stop offset="1" stop-color="#77a7da"/></linearGradient><linearGradient id="linear-gradient-18" x1="103.78" y1="807.67" x2="104.78" y2="806.67" gradientTransform="matrix(140, 0, 0, -171, -14105.54, 138106.04)" gradientUnits="userSpaceOnUse"><stop offset="0" stop-color="#8aace3"/><stop offset="1" stop-color="#87aae0"/></linearGradient><linearGradient id="linear-gradient-19" x1="103.55" y1="807.97" x2="104.55" y2="806.97" gradientTransform="matrix(118, 0, 0, -127, -11754.52, 102664.04)" gradientUnits="userSpaceOnUse"><stop offset="0" stop-color="#8fb2e0"/><stop offset="1" stop-color="#7191d6"/></linearGradient><linearGradient id="linear-gradient-20" x1="103.68" y1="807.76" x2="104.68" y2="806.76" gradientTransform="matrix(162, 0, 0, -136, -16393.54, 110049.54)" gradientUnits="userSpaceOnUse"><stop offset="0" stop-color="#a0b6dc"/><stop offset="1" stop-color="#9bbfe2"/></linearGradient><linearGradient id="linear-gradient-21" x1="103.83" y1="807.81" x2="104.83" y2="806.81" gradientTransform="matrix(121, 0, 0, -173, -12068.02, 139853.04)" gradientUnits="userSpaceOnUse"><stop offset="0" stop-color="#98bbe1"/><stop offset="1" stop-color="#88abdc"/></linearGradient><linearGradient id="linear-gradient-22" x1="103.98" y1="808.03" x2="104.98" y2="807.03" gradientTransform="matrix(162, 0, 0, -138, -16393.54, 111791.54)" gradientUnits="userSpaceOnUse"><stop offset="0" stop-color="#b4cce8"/><stop offset="1" stop-color="#a4cae9"/></linearGradient><linearGradient id="linear-gradient-23" x1="104.03" y1="807.51" x2="105.03" y2="806.51" gradientTransform="matrix(173, 0, 0, -222, -17716.04, 179537.56)" gradientUnits="userSpaceOnUse"><stop offset="0" stop-color="#a9cbe4"/><stop offset="1" stop-color="#acc8e6"/></linearGradient><linearGradient id="linear-gradient-24" x1="103.33" y1="807.22" x2="104.33" y2="806.22" gradientTransform="matrix(103, 0, 0, -222, -10242.02, 179537.56)" gradientUnits="userSpaceOnUse"><stop offset="0" stop-color="#b0c9e5"/><stop offset="1" stop-color="#a0c6e8"/></linearGradient><linearGradient id="linear-gradient-25" x1="103.69" y1="807.55" x2="104.69" y2="806.55" gradientTransform="matrix(168, 0, 0, -157, -17202.54, 127217.04)" gradientUnits="userSpaceOnUse"><stop offset="0" stop-color="#b2d6e6"/><stop offset="1" stop-color="#a7cde7"/></linearGradient><linearGradient id="linear-gradient-26" x1="104.23" y1="807.92" x2="105.23" y2="806.92" gradientTransform="matrix(230, 0, 0, -157, -23902.56, 127217.04)" gradientUnits="userSpaceOnUse"><stop offset="0" stop-color="#84a7e2"/><stop offset="1" stop-color="#9abcdf"/></linearGradient><linearGradient id="linear-gradient-27" x1="103.84" y1="807.81" x2="104.84" y2="806.81" gradientTransform="matrix(221, 0, 0, -130, -22962.05, 105483.54)" gradientUnits="userSpaceOnUse"><stop offset="0" stop-color="#a3c9ef"/><stop offset="1" stop-color="#88bcde"/></linearGradient><linearGradient id="linear-gradient-28" x1="100.65" y1="806.94" x2="101.65" y2="805.94" gradientTransform="matrix(28, 0, 0, -348, -2821.5, 281138.68)" gradientUnits="userSpaceOnUse"><stop offset="0" stop-color="#7fa4dc"/><stop offset="1" stop-color="#7ea1dd"/></linearGradient><linearGradient id="linear-gradient-29" x1="102.68" y1="807.41" x2="103.68" y2="806.41" gradientTransform="matrix(62, 0, 0, -186, -6374.52, 150647.54)" gradientUnits="userSpaceOnUse"><stop offset="0" stop-color="#80abe5"/><stop offset="1" stop-color="#6096d3"/></linearGradient><linearGradient id="linear-gradient-30" x1="94.89" y1="806.7" x2="95.89" y2="805.7" gradientTransform="matrix(11, 0, 0, -626, -1045, 505067.75)" gradientUnits="userSpaceOnUse"><stop offset="0" stop-color="#80acdf"/><stop offset="1" stop-color="#8cb1e1"/></linearGradient><linearGradient id="linear-gradient-31" x1="103.37" y1="807.89" x2="104.37" y2="806.89" gradientTransform="matrix(86, 0, 0, -149, -8882.52, 120937.04)" gradientUnits="userSpaceOnUse"><stop offset="0" stop-color="#83a3dc"/><stop offset="1" stop-color="#689bd6"/></linearGradient><linearGradient id="linear-gradient-32" x1="103.97" y1="807.72" x2="104.97" y2="806.72" gradientTransform="matrix(187, 0, 0, -164, -19375.04, 133019.54)" gradientUnits="userSpaceOnUse"><stop offset="0" stop-color="#78b5de"/><stop offset="1" stop-color="#93bbe3"/></linearGradient><linearGradient id="linear-gradient-33" x1="103.97" y1="807.77" x2="104.97" y2="806.77" gradientTransform="matrix(168, 0, 0, -166, -17202.54, 134595.54)" gradientUnits="userSpaceOnUse"><stop offset="0" stop-color="#97bae0"/><stop offset="1" stop-color="#8baedf"/></linearGradient><linearGradient id="linear-gradient-34" x1="103.97" y1="807.62" x2="104.97" y2="806.62" gradientTransform="matrix(226, 0, 0, -164, -23426.56, 133019.54)" gradientUnits="userSpaceOnUse"><stop offset="0" stop-color="#688cd2"/><stop offset="1" stop-color="#83a4d8"/></linearGradient><linearGradient id="linear-gradient-35" x1="103.76" y1="807.58" x2="104.76" y2="806.58" gradientTransform="matrix(161, 0, 0, -166, -16408.04, 134595.54)" gradientUnits="userSpaceOnUse"><stop offset="0" stop-color="#81a3df"/><stop offset="1" stop-color="#86aae0"/></linearGradient><linearGradient id="linear-gradient-36" x1="103.88" y1="807.88" x2="104.88" y2="806.88" gradientTransform="matrix(185, 0, 0, -135, -18811.04, 109594.04)" gradientUnits="userSpaceOnUse"><stop offset="0" stop-color="#8db0e1"/><stop offset="1" stop-color="#6292d6"/></linearGradient><linearGradient id="linear-gradient-37" x1="103.94" y1="807.74" x2="104.94" y2="806.74" gradientTransform="matrix(185, 0, 0, -157, -18811.04, 127253.04)" gradientUnits="userSpaceOnUse"><stop offset="0" stop-color="#9fc5e9"/><stop offset="1" stop-color="#83b6e3"/></linearGradient><linearGradient id="linear-gradient-38" x1="103.87" y1="807.52" x2="104.87" y2="806.52" gradientTransform="matrix(196, 0, 0, -175, -19857.54, 141639.04)" gradientUnits="userSpaceOnUse"><stop offset="0" stop-color="#9bc1e4"/><stop offset="1" stop-color="#9abde6"/></linearGradient><linearGradient id="linear-gradient-39" x1="104" y1="807.77" x2="105" y2="806.77" gradientTransform="matrix(196, 0, 0, -157, -19857.54, 127253.04)" gradientUnits="userSpaceOnUse"><stop offset="0" stop-color="#89ade1"/><stop offset="1" stop-color="#6f9edf"/></linearGradient><linearGradient id="linear-gradient-40" x1="104.12" y1="807.72" x2="105.12" y2="806.72" gradientTransform="matrix(216, 0, 0, -175, -21874.54, 141639.04)" gradientUnits="userSpaceOnUse"><stop offset="0" stop-color="#77aedf"/><stop offset="1" stop-color="#5b94d9"/></linearGradient><linearGradient id="linear-gradient-41" x1="103.94" y1="807.56" x2="104.94" y2="806.56" gradientTransform="matrix(211, 0, 0, -173, -21355.04, 139853.04)" gradientUnits="userSpaceOnUse"><stop offset="0" stop-color="#6d91d8"/><stop offset="1" stop-color="#8ab0e3"/></linearGradient><linearGradient id="linear-gradient-42" x1="104.05" y1="807.85" x2="105.05" y2="806.85" gradientTransform="matrix(216, 0, 0, -148, -21874.54, 119740.54)" gradientUnits="userSpaceOnUse"><stop offset="0" stop-color="#8aaddf"/><stop offset="1" stop-color="#6695d8"/></linearGradient><linearGradient id="linear-gradient-43" x1="104.29" y1="811.01" x2="105.29" y2="810.01" gradientTransform="matrix(346, 0, 0, -44, -35632.68, 35680.52)" gradientUnits="userSpaceOnUse"><stop offset="0" stop-color="#8eafe1"/><stop offset="1" stop-color="#6d95d9"/></linearGradient><linearGradient id="linear-gradient-44" x1="104.03" y1="808.01" x2="105.03" y2="807.01" gradientTransform="matrix(206, 0, 0, -132, -20862.54, 106654.54)" gradientUnits="userSpaceOnUse"><stop offset="0" stop-color="#799bdc"/><stop offset="1" stop-color="#6f9ada"/></linearGradient><linearGradient id="linear-gradient-45" x1="104.03" y1="807.6" x2="105.03" y2="806.6" gradientTransform="matrix(211, 0, 0, -182, -21355.04, 146979.54)" gradientUnits="userSpaceOnUse"><stop offset="0" stop-color="#4e90ce"/><stop offset="1" stop-color="#5c9dd9"/></linearGradient><linearGradient id="linear-gradient-46" x1="103.43" y1="807.65" x2="104.43" y2="806.65" gradientTransform="matrix(91, 0, 0, -182, -8639.02, 146979.54)" gradientUnits="userSpaceOnUse"><stop offset="0" stop-color="#6d9adb"/><stop offset="1" stop-color="#89ade2"/></linearGradient><linearGradient id="linear-gradient-47" x1="103.4" y1="807.53" x2="104.4" y2="806.53" gradientTransform="matrix(106, 0, 0, -170, -10171.52, 137313.54)" gradientUnits="userSpaceOnUse"><stop offset="0" stop-color="#83a8e0"/><stop offset="1" stop-color="#5d98d6"/></linearGradient><linearGradient id="linear-gradient-48" x1="103.27" y1="807.6" x2="104.27" y2="806.6" gradientTransform="matrix(103, 0, 0, -148, -9858.02, 119740.54)" gradientUnits="userSpaceOnUse"><stop offset="0" stop-color="#87abe3"/><stop offset="1" stop-color="#5f8ad4"/></linearGradient><linearGradient id="linear-gradient-49" x1="103.71" y1="807.79" x2="104.71" y2="806.79" gradientTransform="matrix(106, 0, 0, -177, -10171.52, 143090.04)" gradientUnits="userSpaceOnUse"><stop offset="0" stop-color="#5e9fd7"/><stop offset="1" stop-color="#3d89cd"/></linearGradient><linearGradient id="linear-gradient-50" x1="103.67" y1="807.71" x2="104.67" y2="806.71" gradientTransform="matrix(139, 0, 0, -150, -13705.04, 121501.54)" gradientUnits="userSpaceOnUse"><stop offset="0" stop-color="#8eb0e7"/><stop offset="1" stop-color="#639ad8"/></linearGradient><linearGradient id="linear-gradient-51" x1="103.52" y1="807.91" x2="104.52" y2="806.91" gradientTransform="matrix(95, 0, 0, -151, -9014.02, 122298.04)" gradientUnits="userSpaceOnUse"><stop offset="0" stop-color="#4579c6"/><stop offset="1" stop-color="#6894d4"/></linearGradient><linearGradient id="linear-gradient-52" x1="103.87" y1="808.11" x2="104.87" y2="807.11" gradientTransform="matrix(199, 0, 0, -113, -20089.04, 91811.02)" gradientUnits="userSpaceOnUse"><stop offset="0" stop-color="#6ca4e2"/><stop offset="1" stop-color="#95b6eb"/></linearGradient><linearGradient id="linear-gradient-53" x1="103.9" y1="808.29" x2="104.9" y2="807.29" gradientTransform="matrix(139, 0, 0, -119, -13705.04, 96641.04)" gradientUnits="userSpaceOnUse"><stop offset="0" stop-color="#8aaae2"/><stop offset="1" stop-color="#83ace0"/></linearGradient><linearGradient id="linear-gradient-54" x1="104.12" y1="808.19" x2="105.12" y2="807.19" gradientTransform="matrix(199, 0, 0, -126, -20089.04, 102405.54)" gradientUnits="userSpaceOnUse"><stop offset="0" stop-color="#4994d4"/><stop offset="1" stop-color="#71a3db"/></linearGradient><linearGradient id="linear-gradient-55" x1="103.83" y1="807.68" x2="104.83" y2="806.68" gradientTransform="matrix(129, 0, 0, -186, -12903.02, 150798.54)" gradientUnits="userSpaceOnUse"><stop offset="0" stop-color="#5076c4"/><stop offset="1" stop-color="#4d81ca"/></linearGradient><linearGradient id="linear-gradient-56" x1="103.72" y1="807.38" x2="104.72" y2="806.38" gradientTransform="matrix(171, 0, 0, -186, -17221.04, 150798.54)" gradientUnits="userSpaceOnUse"><stop offset="0" stop-color="#5295d5"/><stop offset="1" stop-color="#6594d2"/></linearGradient><linearGradient id="linear-gradient-57" x1="103.98" y1="807.72" x2="104.98" y2="806.72" gradientTransform="matrix(161, 0, 0, -178, -16408.04, 144408.54)" gradientUnits="userSpaceOnUse"><stop offset="0" stop-color="#8aaddc"/><stop offset="1" stop-color="#659bd1"/></linearGradient><linearGradient id="linear-gradient-58" x1="103.68" y1="807.47" x2="104.68" y2="806.47" gradientTransform="matrix(149, 0, 0, -178, -15071.04, 144408.54)" gradientUnits="userSpaceOnUse"><stop offset="0" stop-color="#528dcf"/><stop offset="1" stop-color="#448cc9"/></linearGradient><linearGradient id="linear-gradient-59" x1="103.75" y1="807.69" x2="104.75" y2="806.69" gradientTransform="matrix(167, 0, 0, -148, -17119.04, 120244.54)" gradientUnits="userSpaceOnUse"><stop offset="0" stop-color="#7092d5"/><stop offset="1" stop-color="#659bd5"/></linearGradient><linearGradient id="linear-gradient-60" x1="104.2" y1="807.97" x2="105.2" y2="806.97" gradientTransform="matrix(226, 0, 0, -148, -23426.56, 120244.54)" gradientUnits="userSpaceOnUse"><stop offset="0" stop-color="#81a5de"/><stop offset="1" stop-color="#8fb1e2"/></linearGradient><linearGradient id="linear-gradient-61" x1="103.33" y1="807.42" x2="104.33" y2="806.42" gradientTransform="matrix(86, 0, 0, -223, -8882.52, 180674.06)" gradientUnits="userSpaceOnUse"><stop offset="0" stop-color="#7a9ad6"/><stop offset="1" stop-color="#789ada"/></linearGradient><linearGradient id="linear-gradient-62" x1="103.71" y1="807.8" x2="104.71" y2="806.8" gradientTransform="matrix(177, 0, 0, -130, -18341.04, 105762.54)" gradientUnits="userSpaceOnUse"><stop offset="0" stop-color="#678ed6"/><stop offset="1" stop-color="#82a4e1"/></linearGradient><linearGradient id="linear-gradient-63" x1="102.34" y1="807.05" x2="103.34" y2="806.05" gradientTransform="matrix(51, 0, 0, -294, -5225.02, 237935.67)" gradientUnits="userSpaceOnUse"><stop offset="0" stop-color="#759dda"/><stop offset="1" stop-color="#659cdb"/></linearGradient><linearGradient id="linear-gradient-64" x1="103.34" y1="809.07" x2="104.34" y2="808.07" gradientTransform="matrix(105, 0, 0, -71, -10852.02, 58309.02)" gradientUnits="userSpaceOnUse"><stop offset="0" stop-color="#318dcf"/><stop offset="1" stop-color="#5f94d8"/></linearGradient><linearGradient id="linear-gradient-65" x1="104.01" y1="808.83" x2="105.01" y2="807.83" gradientTransform="matrix(177, 0, 0, -87, -18341.04, 71196.02)" gradientUnits="userSpaceOnUse"><stop offset="0" stop-color="#6085cf"/><stop offset="1" stop-color="#6d91d4"/></linearGradient><linearGradient id="linear-gradient-66" x1="103.95" y1="807.75" x2="104.95" y2="806.75" gradientTransform="matrix(188, 0, 0, -156, -19420.54, 126844.54)" gradientUnits="userSpaceOnUse"><stop offset="0" stop-color="#5189cd"/><stop offset="1" stop-color="#6799d7"/></linearGradient><linearGradient id="linear-gradient-67" x1="104" y1="807.86" x2="105" y2="806.86" gradientTransform="matrix(167, 0, 0, -157, -17119.04, 127650.04)" gradientUnits="userSpaceOnUse"><stop offset="0" stop-color="#69a5d9"/><stop offset="1" stop-color="#4389cc"/></linearGradient><linearGradient id="linear-gradient-68" x1="104" y1="807.66" x2="105" y2="806.66" gradientTransform="matrix(171, 0, 0, -187, -17221.04, 151728.04)" gradientUnits="userSpaceOnUse"><stop offset="0" stop-color="#4f8ccf"/><stop offset="1" stop-color="#4a88ca"/></linearGradient><linearGradient id="linear-gradient-69" x1="103.78" y1="807.42" x2="104.78" y2="806.42" gradientTransform="matrix(175, 0, 0, -187, -17560.04, 151728.04)" gradientUnits="userSpaceOnUse"><stop offset="0" stop-color="#416fbe"/><stop offset="1" stop-color="#568bcd"/></linearGradient><linearGradient id="linear-gradient-70" x1="103.98" y1="807.83" x2="104.98" y2="806.83" gradientTransform="matrix(196, 0, 0, -147, -19662.54, 119468.04)" gradientUnits="userSpaceOnUse"><stop offset="0" stop-color="#6391d2"/><stop offset="1" stop-color="#4886cb"/></linearGradient><linearGradient id="linear-gradient-71" x1="103.9" y1="807.51" x2="104.9" y2="806.51" gradientTransform="matrix(196, 0, 0, -182, -19662.54, 147569.54)" gradientUnits="userSpaceOnUse"><stop offset="0" stop-color="#4f94d2"/><stop offset="1" stop-color="#5795d4"/></linearGradient><linearGradient id="linear-gradient-72" x1="103.87" y1="807.35" x2="104.87" y2="806.35" gradientTransform="matrix(185, 0, 0, -212, -18427.04, 171645.56)" gradientUnits="userSpaceOnUse"><stop offset="0" stop-color="#619fd9"/><stop offset="1" stop-color="#4295d0"/></linearGradient><linearGradient id="linear-gradient-73" x1="103.96" y1="807.59" x2="104.96" y2="806.59" gradientTransform="matrix(185, 0, 0, -182, -18427.04, 147569.54)" gradientUnits="userSpaceOnUse"><stop offset="0" stop-color="#99bae7"/><stop offset="1" stop-color="#5695d1"/></linearGradient><linearGradient id="linear-gradient-74" x1="103.55" y1="807.63" x2="104.55" y2="806.63" gradientTransform="matrix(132, 0, 0, -151, -12834.54, 122298.04)" gradientUnits="userSpaceOnUse"><stop offset="0" stop-color="#85b4e4"/><stop offset="1" stop-color="#7aa0dc"/></linearGradient><linearGradient id="linear-gradient-75" x1="103.91" y1="807.43" x2="104.91" y2="806.43" gradientTransform="matrix(132, 0, 0, -266, -12834.54, 215142.66)" gradientUnits="userSpaceOnUse"><stop offset="0" stop-color="#5690d2"/><stop offset="1" stop-color="#4587cb"/></linearGradient><linearGradient id="linear-gradient-76" x1="103.24" y1="807.48" x2="104.24" y2="806.48" gradientTransform="matrix(91, 0, 0, -177, -8501.02, 143090.04)" gradientUnits="userSpaceOnUse"><stop offset="0" stop-color="#6f91d8"/><stop offset="1" stop-color="#408ccf"/></linearGradient><linearGradient id="linear-gradient-77" x1="103.48" y1="807.64" x2="104.48" y2="806.64" gradientTransform="matrix(91, 0, 0, -192, -8501.02, 155269.54)" gradientUnits="userSpaceOnUse"><stop offset="0" stop-color="#7ea3e4"/><stop offset="1" stop-color="#649dd9"/></linearGradient><linearGradient id="linear-gradient-78" x1="92.89" y1="806.92" x2="93.89" y2="805.92" gradientTransform="matrix(9, 0, 0, -458, 150, 369798.61)" gradientUnits="userSpaceOnUse"><stop offset="0" stop-color="#4689d0"/><stop offset="1" stop-color="#548dd1"/></linearGradient><linearGradient id="linear-gradient-79" x1="103.4" y1="807.99" x2="104.4" y2="806.99" gradientTransform="matrix(95, 0, 0, -131, -8966.02, 105860.04)" gradientUnits="userSpaceOnUse"><stop offset="0" stop-color="#769bd9"/><stop offset="1" stop-color="#4182c8"/></linearGradient><linearGradient id="linear-gradient-80" x1="103.33" y1="807.86" x2="104.33" y2="806.86" gradientTransform="matrix(88, 0, 0, -145, -8184.52, 117219.04)" gradientUnits="userSpaceOnUse"><stop offset="0" stop-color="#499bd4"/><stop offset="1" stop-color="#4f8fcc"/></linearGradient><linearGradient id="linear-gradient-81" x1="104.03" y1="822.71" x2="105.03" y2="821.71" gradientTransform="matrix(224, 0, 0, -12, -22537.55, 9874.5)" gradientUnits="userSpaceOnUse"><stop offset="0" stop-color="#4a80cd"/><stop offset="1" stop-color="#508cd0"/></linearGradient><linearGradient id="linear-gradient-82" x1="103.89" y1="809.27" x2="104.89" y2="808.27" gradientTransform="matrix(133, 0, 0, -75, -12937.04, 60689.02)" gradientUnits="userSpaceOnUse"><stop offset="0" stop-color="#639cda"/><stop offset="1" stop-color="#3a84c9"/></linearGradient><linearGradient id="linear-gradient-83" x1="102.21" y1="807.52" x2="103.21" y2="806.52" gradientTransform="matrix(43, 0, 0, -220, -3437, 177631.56)" gradientUnits="userSpaceOnUse"><stop offset="0" stop-color="#4d7bc4"/><stop offset="1" stop-color="#3f88cc"/></linearGradient><linearGradient id="linear-gradient-84" x1="103.11" y1="808.64" x2="104.11" y2="807.64" gradientTransform="matrix(75, 0, 0, -91, -6822.02, 74271.02)" gradientUnits="userSpaceOnUse"><stop offset="0" stop-color="#4278c5"/><stop offset="1" stop-color="#3484ca"/></linearGradient><linearGradient id="linear-gradient-85" x1="103.88" y1="808.29" x2="104.88" y2="807.29" gradientTransform="matrix(188, 0, 0, -105, -18743.54, 85651.02)" gradientUnits="userSpaceOnUse"><stop offset="0" stop-color="#3a91ce"/><stop offset="1" stop-color="#3b7dc4"/></linearGradient><linearGradient id="linear-gradient-86" x1="103.34" y1="808.58" x2="104.34" y2="807.58" gradientTransform="matrix(75, 0, 0, -105, -6822.02, 85651.02)" gradientUnits="userSpaceOnUse"><stop offset="0" stop-color="#3d82c8"/><stop offset="1" stop-color="#3882c6"/></linearGradient><linearGradient id="linear-gradient-87" x1="78.51" y1="807.64" x2="79.51" y2="806.64" gradientTransform="matrix(4, 0, 0, -194, 668.5, 157340.54)" gradientUnits="userSpaceOnUse"><stop offset="0" stop-color="#2d87cb"/><stop offset="1" stop-color="#3580c3"/></linearGradient><linearGradient id="linear-gradient-88" x1="92.89" y1="806.8" x2="93.89" y2="805.8" gradientTransform="matrix(9, 0, 0, -652, 150, 526259.76)" gradientUnits="userSpaceOnUse"><stop offset="0" stop-color="#3f94cf"/><stop offset="1" stop-color="#4388c8"/></linearGradient><linearGradient id="linear-gradient-89" x1="104" y1="808.19" x2="105" y2="807.19" gradientTransform="matrix(188, 0, 0, -119, -18743.54, 97033.04)" gradientUnits="userSpaceOnUse"><stop offset="0" stop-color="#368fcb"/><stop offset="1" stop-color="#327fc3"/></linearGradient><linearGradient id="linear-gradient-90" x1="103.66" y1="808.35" x2="104.66" y2="807.35" gradientTransform="matrix(125, 0, 0, -105, -12097.02, 85756.02)" gradientUnits="userSpaceOnUse"><stop offset="0" stop-color="#5378c2"/><stop offset="1" stop-color="#3a75bd"/></linearGradient><linearGradient id="linear-gradient-91" x1="103.98" y1="808.19" x2="104.98" y2="807.19" gradientTransform="matrix(175, 0, 0, -121, -17560.04, 98646.04)" gradientUnits="userSpaceOnUse"><stop offset="0" stop-color="#2b7ac1"/><stop offset="1" stop-color="#408ac9"/></linearGradient><linearGradient id="linear-gradient-92" x1="103.84" y1="808.02" x2="104.84" y2="807.02" gradientTransform="matrix(181, 0, 0, -121, -18130.04, 98646.04)" gradientUnits="userSpaceOnUse"><stop offset="0" stop-color="#3e89cc"/><stop offset="1" stop-color="#3e81c7"/></linearGradient><linearGradient id="linear-gradient-93" x1="103.7" y1="807.63" x2="104.7" y2="806.63" gradientTransform="matrix(151, 0, 0, -158, -15366.04, 128456.54)" gradientUnits="userSpaceOnUse"><stop offset="0" stop-color="#789adf"/><stop offset="1" stop-color="#4b93d1"/></linearGradient><linearGradient id="linear-gradient-94" x1="103.91" y1="807.53" x2="104.91" y2="806.53" gradientTransform="matrix(149, 0, 0, -212, -15071.04, 171953.56)" gradientUnits="userSpaceOnUse"><stop offset="0" stop-color="#4686c5"/><stop offset="1" stop-color="#4f87cb"/></linearGradient><linearGradient id="linear-gradient-95" x1="103.74" y1="807.3" x2="104.74" y2="806.3" gradientTransform="matrix(163, 0, 0, -212, -16469.04, 171953.56)" gradientUnits="userSpaceOnUse"><stop offset="0" stop-color="#6c93d1"/><stop offset="1" stop-color="#4785c8"/></linearGradient><linearGradient id="linear-gradient-96" x1="103.96" y1="808.65" x2="104.96" y2="807.65" gradientTransform="matrix(220, 0, 0, -88, -22425.55, 72071.52)" gradientUnits="userSpaceOnUse"><stop offset="0" stop-color="#376aba"/><stop offset="1" stop-color="#407ac4"/></linearGradient><linearGradient id="linear-gradient-97" x1="104.24" y1="828.11" x2="105.24" y2="827.11" gradientTransform="matrix(401, 0, 0, -9, -41340.19, 8437)" gradientUnits="userSpaceOnUse"><stop offset="0" stop-color="#5290ce"/><stop offset="1" stop-color="#358dce"/></linearGradient><linearGradient id="linear-gradient-98" x1="103.99" y1="809.17" x2="104.99" y2="808.17" gradientTransform="matrix(285, 0, 0, -69, -29654.06, 56766.02)" gradientUnits="userSpaceOnUse"><stop offset="0" stop-color="#4d8dd5"/><stop offset="1" stop-color="#4a83d1"/></linearGradient><linearGradient id="linear-gradient-99" x1="103.52" y1="809.56" x2="104.52" y2="808.56" gradientTransform="matrix(105, 0, 0, -64, -10852.02, 52733.52)" gradientUnits="userSpaceOnUse"><stop offset="0" stop-color="#4e8cd7"/><stop offset="1" stop-color="#6084d3"/></linearGradient></defs><title>2</title><polygon id="triangle36" class="cls-1" points="5 4 10 160 179 83 5 4"/><polygon id="triangle36-2" data-name="triangle36" class="cls-2" points="5 4 179 83 175 4 5 4"/><polygon id="triangle36-3" data-name="triangle36" class="cls-3" points="175 4 179 83 258 91 175 4"/><polygon id="triangle36-4" data-name="triangle36" class="cls-4" points="179 83 258 91 245 204 179 83"/><polygon id="triangle36-5" data-name="triangle36" class="cls-5" points="10 160 179 83 138 262 10 160"/><polygon id="triangle36-6" data-name="triangle36" class="cls-6" points="179 83 245 204 138 262 179 83"/><polygon id="triangle36-7" data-name="triangle36" class="cls-7" points="10 160 138 262 11 282 10 160"/><polygon id="triangle36-8" data-name="triangle36" class="cls-8" points="5 4 10 160 11 282 5 4"/><polygon id="triangle36-9" data-name="triangle36" class="cls-9" points="11 282 138 262 28 444 11 282"/><polygon id="triangle36-10" data-name="triangle36" class="cls-10" points="138 262 245 204 258 402 138 262"/><polygon id="triangle36-11" data-name="triangle36" class="cls-11" points="28 444 138 262 258 402 28 444"/><polygon id="triangle36-12" data-name="triangle36" class="cls-12" points="245 204 258 402 431 300 245 204"/><polygon id="triangle36-13" data-name="triangle36" class="cls-13" points="245 204 258 91 472 171 245 204"/><polygon id="triangle36-14" data-name="triangle36" class="cls-14" points="245 204 431 300 472 171 245 204"/><polygon id="triangle36-15" data-name="triangle36" class="cls-15" points="175 4 258 91 420 0 175 4"/><polygon id="triangle36-16" data-name="triangle36" class="cls-16" points="258 91 472 171 420 0 258 91"/><polygon id="triangle36-17" data-name="triangle36" class="cls-17" points="5 4 175 4 420 0 5 4"/><polygon id="triangle36-18" data-name="triangle36" class="cls-18" points="420 0 472 171 560 44 420 0"/><polygon id="triangle36-19" data-name="triangle36" class="cls-19" points="472 171 560 44 590 134 472 171"/><polygon id="triangle36-20" data-name="triangle36" class="cls-20" points="431 300 472 171 593 307 431 300"/><polygon id="triangle36-21" data-name="triangle36" class="cls-21" points="472 171 590 134 593 307 472 171"/><polygon id="triangle36-22" data-name="triangle36" class="cls-22" points="431 300 593 307 520 438 431 300"/><polygon id="triangle36-23" data-name="triangle36" class="cls-23" points="258 402 431 300 417 522 258 402"/><polygon id="triangle36-24" data-name="triangle36" class="cls-24" points="431 300 520 438 417 522 431 300"/><polygon id="triangle36-25" data-name="triangle36" class="cls-25" points="258 402 417 522 249 559 258 402"/><polygon id="triangle36-26" data-name="triangle36" class="cls-26" points="28 444 258 402 249 559 28 444"/><polygon id="triangle36-27" data-name="triangle36" class="cls-27" points="28 444 249 559 62 574 28 444"/><polygon id="triangle36-28" data-name="triangle36" class="cls-28" points="11 282 28 444 0 630 11 282"/><polygon id="triangle36-29" data-name="triangle36" class="cls-29" points="28 444 62 574 0 630 28 444"/><polygon id="triangle36-30" data-name="triangle36" class="cls-30" points="5 4 11 282 0 630 5 4"/><polygon id="triangle36-31" data-name="triangle36" class="cls-31" points="0 630 62 574 86 723 0 630"/><polygon id="triangle36-32" data-name="triangle36" class="cls-32" points="62 574 249 559 86 723 62 574"/><polygon id="triangle36-33" data-name="triangle36" class="cls-33" points="249 559 417 522 312 688 249 559"/><polygon id="triangle36-34" data-name="triangle36" class="cls-34" points="86 723 249 559 312 688 86 723"/><polygon id="triangle36-35" data-name="triangle36" class="cls-35" points="312 688 417 522 473 657 312 688"/><polygon id="triangle36-36" data-name="triangle36" class="cls-36" points="417 522 473 657 602 595 417 522"/><polygon id="triangle36-37" data-name="triangle36" class="cls-37" points="417 522 520 438 602 595 417 522"/><polygon id="triangle36-38" data-name="triangle36" class="cls-38" points="520 438 593 307 716 482 520 438"/><polygon id="triangle36-39" data-name="triangle36" class="cls-39" points="520 438 602 595 716 482 520 438"/><polygon id="triangle36-40" data-name="triangle36" class="cls-40" points="593 307 716 482 809 332 593 307"/><polygon id="triangle36-41" data-name="triangle36" class="cls-41" points="590 134 593 307 801 184 590 134"/><polygon id="triangle36-42" data-name="triangle36" class="cls-42" points="593 307 809 332 801 184 593 307"/><polygon id="triangle36-43" data-name="triangle36" class="cls-43" points="420 0 560 44 766 2 420 0"/><polygon id="triangle36-44" data-name="triangle36" class="cls-44" points="560 44 590 134 766 2 560 44"/><polygon id="triangle36-45" data-name="triangle36" class="cls-45" points="590 134 801 184 766 2 590 134"/><polygon id="triangle36-46" data-name="triangle36" class="cls-46" points="766 2 801 184 857 14 766 2"/><polygon id="triangle36-47" data-name="triangle36" class="cls-47" points="801 184 857 14 907 145 801 184"/><polygon id="triangle36-48" data-name="triangle36" class="cls-48" points="801 184 809 332 904 322 801 184"/><polygon id="triangle36-49" data-name="triangle36" class="cls-49" points="801 184 907 145 904 322 801 184"/><polygon id="triangle36-50" data-name="triangle36" class="cls-50" points="716 482 809 332 855 473 716 482"/><polygon id="triangle36-51" data-name="triangle36" class="cls-51" points="809 332 904 322 855 473 809 332"/><polygon id="triangle36-52" data-name="triangle36" class="cls-52" points="602 595 716 482 801 592 602 595"/><polygon id="triangle36-53" data-name="triangle36" class="cls-53" points="716 482 855 473 801 592 716 482"/><polygon id="triangle36-54" data-name="triangle36" class="cls-54" points="602 595 801 592 715 718 602 595"/><polygon id="triangle36-55" data-name="triangle36" class="cls-55" points="473 657 602 595 544 781 473 657"/><polygon id="triangle36-56" data-name="triangle36" class="cls-56" points="602 595 715 718 544 781 602 595"/><polygon id="triangle36-57" data-name="triangle36" class="cls-57" points="312 688 473 657 395 835 312 688"/><polygon id="triangle36-58" data-name="triangle36" class="cls-58" points="473 657 544 781 395 835 473 657"/><polygon id="triangle36-59" data-name="triangle36" class="cls-59" points="312 688 395 835 228 836 312 688"/><polygon id="triangle36-60" data-name="triangle36" class="cls-60" points="86 723 312 688 228 836 86 723"/><polygon id="triangle36-61" data-name="triangle36" class="cls-61" points="0 630 86 723 51 853 0 630"/><polygon id="triangle36-62" data-name="triangle36" class="cls-62" points="86 723 228 836 51 853 86 723"/><polygon id="triangle36-63" data-name="triangle36" class="cls-63" points="0 630 51 853 16 924 0 630"/><polygon id="triangle36-64" data-name="triangle36" class="cls-64" points="16 924 51 853 121 923 16 924"/><polygon id="triangle36-65" data-name="triangle36" class="cls-65" points="51 853 228 836 121 923 51 853"/><polygon id="triangle36-66" data-name="triangle36" class="cls-66" points="121 923 228 836 309 992 121 923"/><polygon id="triangle36-67" data-name="triangle36" class="cls-67" points="228 836 395 835 309 992 228 836"/><polygon id="triangle36-68" data-name="triangle36" class="cls-68" points="544 781 715 718 623 905 544 781"/><polygon id="triangle36-69" data-name="triangle36" class="cls-69" points="623 905 715 718 798 865 623 905"/><polygon id="triangle36-70" data-name="triangle36" class="cls-70" points="715 718 798 865 911 774 715 718"/><polygon id="triangle36-71" data-name="triangle36" class="cls-71" points="715 718 801 592 911 774 715 718"/><polygon id="triangle36-72" data-name="triangle36" class="cls-72" points="801 592 855 473 986 685 801 592"/><polygon id="triangle36-73" data-name="triangle36" class="cls-73" points="801 592 911 774 986 685 801 592"/><polygon id="triangle36-74" data-name="triangle36" class="cls-74" points="855 473 904 322 987 419 855 473"/><polygon id="triangle36-75" data-name="triangle36" class="cls-75" points="855 473 986 685 987 419 855 473"/><polygon id="triangle36-76" data-name="triangle36" class="cls-76" points="904 322 907 145 995 227 904 322"/><polygon id="triangle36-77" data-name="triangle36" class="cls-77" points="904 322 987 419 995 227 904 322"/><polygon id="triangle36-78" data-name="triangle36" class="cls-78" points="986 685 987 419 995 227 986 685"/><polygon id="triangle36-79" data-name="triangle36" class="cls-79" points="857 14 907 145 952 82 857 14"/><polygon id="triangle36-80" data-name="triangle36" class="cls-80" points="907 145 995 227 952 82 907 145"/><polygon id="triangle36-81" data-name="triangle36" class="cls-81" points="766 2 857 14 990 7 766 2"/><polygon id="triangle36-82" data-name="triangle36" class="cls-82" points="857 14 952 82 990 7 857 14"/><polygon id="triangle36-83" data-name="triangle36" class="cls-83" points="952 82 995 227 990 7 952 82"/><polygon id="triangle36-84" data-name="triangle36" class="cls-84" points="911 774 986 685 982 776 911 774"/><polygon id="triangle36-85" data-name="triangle36" class="cls-85" points="798 865 911 774 986 879 798 865"/><polygon id="triangle36-86" data-name="triangle36" class="cls-86" points="911 774 982 776 986 879 911 774"/><polygon id="triangle36-87" data-name="triangle36" class="cls-87" points="982 776 986 685 986 879 982 776"/><polygon id="triangle36-88" data-name="triangle36" class="cls-88" points="986 685 995 227 986 879 986 685"/><polygon id="triangle36-89" data-name="triangle36" class="cls-89" points="798 865 986 879 861 984 798 865"/><polygon id="triangle36-90" data-name="triangle36" class="cls-90" points="980 971 986 879 861 984 980 971"/><polygon id="triangle36-91" data-name="triangle36" class="cls-91" points="623 905 798 865 680 986 623 905"/><polygon id="triangle36-92" data-name="triangle36" class="cls-92" points="798 865 861 984 680 986 798 865"/><polygon id="triangle36-93" data-name="triangle36" class="cls-93" points="309 992 395 835 460 993 309 992"/><polygon id="triangle36-94" data-name="triangle36" class="cls-94" points="395 835 544 781 460 993 395 835"/><polygon id="triangle36-95" data-name="triangle36" class="cls-95" points="544 781 623 905 460 993 544 781"/><polygon id="triangle36-96" data-name="triangle36" class="cls-96" points="623 905 680 986 460 993 623 905"/><polygon id="triangle36-97" data-name="triangle36" class="cls-97" points="680 986 861 984 460 993 680 986"/><polygon id="triangle36-98" data-name="triangle36" class="cls-98" points="121 923 309 992 24 987 121 923"/><polygon id="triangle36-99" data-name="triangle36" class="cls-99" points="16 924 121 923 24 987 16 924"/></svg>