<svg id="Layer_1" data-name="Layer 1" xmlns="http://www.w3.org/2000/svg" xmlns:xlink="http://www.w3.org/1999/xlink" viewBox="0 0 983 988"><defs><style>.cls-1{fill:url(#linear-gradient);}.cls-2{fill:url(#linear-gradient-2);}.cls-3{fill:url(#linear-gradient-3);}.cls-4{fill:url(#linear-gradient-4);}.cls-5{fill:url(#linear-gradient-5);}.cls-6{fill:url(#linear-gradient-6);}.cls-7{fill:url(#linear-gradient-7);}.cls-8{fill:url(#linear-gradient-8);}.cls-9{fill:url(#linear-gradient-9);}.cls-10{fill:url(#linear-gradient-10);}.cls-11{fill:url(#linear-gradient-11);}.cls-12{fill:url(#linear-gradient-12);}.cls-13{fill:url(#linear-gradient-13);}.cls-14{fill:url(#linear-gradient-14);}.cls-15{fill:url(#linear-gradient-15);}.cls-16{fill:url(#linear-gradient-16);}.cls-17{fill:url(#linear-gradient-17);}.cls-18{fill:url(#linear-gradient-18);}.cls-19{fill:url(#linear-gradient-19);}.cls-20{fill:url(#linear-gradient-20);}.cls-21{fill:url(#linear-gradient-21);}.cls-22{fill:url(#linear-gradient-22);}.cls-23{fill:url(#linear-gradient-23);}.cls-24{fill:url(#linear-gradient-24);}.cls-25{fill:url(#linear-gradient-25);}.cls-26{fill:url(#linear-gradient-26);}.cls-27{fill:url(#linear-gradient-27);}.cls-28{fill:url(#linear-gradient-28);}.cls-29{fill:url(#linear-gradient-29);}.cls-30{fill:url(#linear-gradient-30);}.cls-31{fill:url(#linear-gradient-31);}.cls-32{fill:url(#linear-gradient-32);}.cls-33{fill:url(#linear-gradient-33);}.cls-34{fill:url(#linear-gradient-34);}.cls-35{fill:url(#linear-gradient-35);}.cls-36{fill:url(#linear-gradient-36);}.cls-37{fill:url(#linear-gradient-37);}.cls-38{fill:url(#linear-gradient-38);}.cls-39{fill:url(#linear-gradient-39);}.cls-40{fill:url(#linear-gradient-40);}.cls-41{fill:url(#linear-gradient-41);}.cls-42{fill:url(#linear-gradient-42);}.cls-43{fill:url(#linear-gradient-43);}.cls-44{fill:url(#linear-gradient-44);}.cls-45{fill:url(#linear-gradient-45);}.cls-46{fill:url(#linear-gradient-46);}.cls-47{fill:url(#linear-gradient-47);}.cls-48{fill:url(#linear-gradient-48);}.cls-49{fill:url(#linear-gradient-49);}.cls-50{fill:url(#linear-gradient-50);}.cls-51{fill:url(#linear-gradient-51);}.cls-52{fill:url(#linear-gradient-52);}.cls-53{fill:url(#linear-gradient-53);}.cls-54{fill:url(#linear-gradient-54);}.cls-55{fill:url(#linear-gradient-55);}.cls-56{fill:url(#linear-gradient-56);}.cls-57{fill:url(#linear-gradient-57);}.cls-58{fill:url(#linear-gradient-58);}.cls-59{fill:url(#linear-gradient-59);}.cls-60{fill:url(#linear-gradient-60);}.cls-61{fill:url(#linear-gradient-61);}.cls-62{fill:url(#linear-gradient-62);}.cls-63{fill:url(#linear-gradient-63);}.cls-64{fill:url(#linear-gradient-64);}.cls-65{fill:url(#linear-gradient-65);}.cls-66{fill:url(#linear-gradient-66);}.cls-67{fill:url(#linear-gradient-67);}.cls-68{fill:url(#linear-gradient-68);}</style><linearGradient id="linear-gradient" x1="103.76" y1="807.11" x2="104.76" y2="806.11" gradientTransform="matrix(192, 0, 0, -240, -19957.54, 193761.56)" gradientUnits="userSpaceOnUse"><stop offset="0" stop-color="#475fb5"/><stop offset="1" stop-color="#5068ab"/></linearGradient><linearGradient id="linear-gradient-2" x1="104.23" y1="807.61" x2="105.23" y2="806.61" gradientTransform="matrix(263, 0, 0, -199, -27377.06, 160695.05)" gradientUnits="userSpaceOnUse"><stop offset="0" stop-color="#4e66ad"/><stop offset="1" stop-color="#627b97"/></linearGradient><linearGradient id="linear-gradient-3" x1="103.83" y1="807.58" x2="104.83" y2="806.58" gradientTransform="matrix(200, 0, 0, -158, -20601.54, 127669.54)" gradientUnits="userSpaceOnUse"><stop offset="0" stop-color="#678091"/><stop offset="1" stop-color="#738c84"/></linearGradient><linearGradient id="linear-gradient-4" x1="104.15" y1="807.65" x2="105.15" y2="806.65" gradientTransform="matrix(200, 0, 0, -198, -20601.54, 160024.55)" gradientUnits="userSpaceOnUse"><stop offset="0" stop-color="#6b838d"/><stop offset="1" stop-color="#7c9479"/></linearGradient><linearGradient id="linear-gradient-5" x1="103.86" y1="807.21" x2="104.86" y2="806.21" gradientTransform="matrix(199, 0, 0, -238, -20497.04, 192347.56)" gradientUnits="userSpaceOnUse"><stop offset="0" stop-color="#667f92"/><stop offset="1" stop-color="#708887"/></linearGradient><linearGradient id="linear-gradient-6" x1="104.18" y1="807.49" x2="105.18" y2="806.49" gradientTransform="matrix(209, 0, 0, -238, -21726.04, 192347.56)" gradientUnits="userSpaceOnUse"><stop offset="0" stop-color="#4e66ad"/><stop offset="1" stop-color="#5f779a"/></linearGradient><linearGradient id="linear-gradient-7" x1="93.92" y1="806.8" x2="94.92" y2="805.8" gradientTransform="matrix(10, 0, 0, -452, -940.5, 364739.61)" gradientUnits="userSpaceOnUse"><stop offset="0" stop-color="#425ab9"/><stop offset="1" stop-color="#425ab9"/></linearGradient><linearGradient id="linear-gradient-8" x1="103.79" y1="807.19" x2="104.79" y2="806.19" gradientTransform="matrix(219, 0, 0, -212, -22781.05, 171419.56)" gradientUnits="userSpaceOnUse"><stop offset="0" stop-color="#4861b3"/><stop offset="1" stop-color="#5169a9"/></linearGradient><linearGradient id="linear-gradient-9" x1="104.04" y1="807.63" x2="105.04" y2="806.63" gradientTransform="matrix(219, 0, 0, -175, -22781.05, 141776.04)" gradientUnits="userSpaceOnUse"><stop offset="0" stop-color="#4760b4"/><stop offset="1" stop-color="#516aa9"/></linearGradient><linearGradient id="linear-gradient-10" x1="104.02" y1="807.53" x2="105.02" y2="806.53" gradientTransform="matrix(207, 0, 0, -194, -21515.04, 157099.54)" gradientUnits="userSpaceOnUse"><stop offset="0" stop-color="#4e66ad"/><stop offset="1" stop-color="#5f789a"/></linearGradient><linearGradient id="linear-gradient-11" x1="104.08" y1="807.4" x2="105.08" y2="806.4" gradientTransform="matrix(238, 0, 0, -221, -24373.56, 178772.06)" gradientUnits="userSpaceOnUse"><stop offset="0" stop-color="#89a06d"/><stop offset="1" stop-color="#96ad5e"/></linearGradient><linearGradient id="linear-gradient-12" x1="103.97" y1="807.37" x2="104.97" y2="806.37" gradientTransform="matrix(253, 0, 0, -198, -25941.06, 160024.55)" gradientUnits="userSpaceOnUse"><stop offset="0" stop-color="#869e6f"/><stop offset="1" stop-color="#92a963"/></linearGradient><linearGradient id="linear-gradient-13" x1="104.16" y1="807.83" x2="105.16" y2="806.83" gradientTransform="matrix(253, 0, 0, -155, -25941.06, 125435.04)" gradientUnits="userSpaceOnUse"><stop offset="0" stop-color="#8da568"/><stop offset="1" stop-color="#a3ba50"/></linearGradient><linearGradient id="linear-gradient-14" x1="104.24" y1="808.02" x2="105.24" y2="807.02" gradientTransform="matrix(252, 0, 0, -143, -25835.56, 115614.04)" gradientUnits="userSpaceOnUse"><stop offset="0" stop-color="#8da567"/><stop offset="1" stop-color="#a4bb4f"/></linearGradient><linearGradient id="linear-gradient-15" x1="104.41" y1="810.7" x2="105.41" y2="809.7" gradientTransform="matrix(439, 0, 0, -48, -45769.1, 38906.52)" gradientUnits="userSpaceOnUse"><stop offset="0" stop-color="#546da6"/><stop offset="1" stop-color="#7e9292"/></linearGradient><linearGradient id="linear-gradient-16" x1="104.07" y1="808.03" x2="105.07" y2="807.03" gradientTransform="matrix(176, 0, 0, -143, -18022.54, 115524.04)" gradientUnits="userSpaceOnUse"><stop offset="0" stop-color="#748c84"/><stop offset="1" stop-color="#8b9f83"/></linearGradient><linearGradient id="linear-gradient-17" x1="103.93" y1="807.7" x2="104.93" y2="806.7" gradientTransform="matrix(250, 0, 0, -143, -25626.56, 115524.04)" gradientUnits="userSpaceOnUse"><stop offset="0" stop-color="#88a06d"/><stop offset="1" stop-color="#a0b36d"/></linearGradient><linearGradient id="linear-gradient-18" x1="103.88" y1="807.63" x2="104.88" y2="806.63" gradientTransform="matrix(168, 0, 0, -172, -16807.54, 138973.54)" gradientUnits="userSpaceOnUse"><stop offset="0" stop-color="#adc446"/><stop offset="1" stop-color="#b4cb3d"/></linearGradient><linearGradient id="linear-gradient-19" x1="103.98" y1="807.56" x2="104.98" y2="806.56" gradientTransform="matrix(230, 0, 0, -172, -23284.56, 138973.54)" gradientUnits="userSpaceOnUse"><stop offset="0" stop-color="#b4ca3f"/><stop offset="1" stop-color="#c5db2b"/></linearGradient><linearGradient id="linear-gradient-20" x1="103.82" y1="807.51" x2="104.82" y2="806.51" gradientTransform="matrix(232, 0, 0, -156, -23508.56, 126241.54)" gradientUnits="userSpaceOnUse"><stop offset="0" stop-color="#acc345"/><stop offset="1" stop-color="#b8ce39"/></linearGradient><linearGradient id="linear-gradient-21" x1="104.24" y1="807.69" x2="105.24" y2="806.69" gradientTransform="matrix(230, 0, 0, -196, -23284.56, 158461.54)" gradientUnits="userSpaceOnUse"><stop offset="0" stop-color="#b5cc3d"/><stop offset="1" stop-color="#c9df27"/></linearGradient><linearGradient id="linear-gradient-22" x1="104.19" y1="808.05" x2="105.19" y2="807.05" gradientTransform="matrix(232, 0, 0, -138, -23508.56, 111879.54)" gradientUnits="userSpaceOnUse"><stop offset="0" stop-color="#b0c742"/><stop offset="1" stop-color="#c0d730"/></linearGradient><linearGradient id="linear-gradient-23" x1="103.98" y1="807.29" x2="104.98" y2="806.29" gradientTransform="matrix(170, 0, 0, -281, -17199.54, 227209.17)" gradientUnits="userSpaceOnUse"><stop offset="0" stop-color="#94ab61"/><stop offset="1" stop-color="#a2ba51"/></linearGradient><linearGradient id="linear-gradient-24" x1="103.63" y1="807.07" x2="104.63" y2="806.07" gradientTransform="matrix(139, 0, 0, -281, -13798.04, 227209.17)" gradientUnits="userSpaceOnUse"><stop offset="0" stop-color="#a9c049"/><stop offset="1" stop-color="#aec643"/></linearGradient><linearGradient id="linear-gradient-25" x1="103.74" y1="807.58" x2="104.74" y2="806.58" gradientTransform="matrix(162, 0, 0, -164, -16363.54, 133022.54)" gradientUnits="userSpaceOnUse"><stop offset="0" stop-color="#90a864"/><stop offset="1" stop-color="#99b05b"/></linearGradient><linearGradient id="linear-gradient-26" x1="104.19" y1="807.43" x2="105.19" y2="806.43" gradientTransform="matrix(258, 0, 0, -233, -26653.56, 188671.06)" gradientUnits="userSpaceOnUse"><stop offset="0" stop-color="#6b848d"/><stop offset="1" stop-color="#7a937c"/></linearGradient><linearGradient id="linear-gradient-27" x1="103.93" y1="807.29" x2="104.93" y2="806.29" gradientTransform="matrix(197, 0, 0, -233, -20184.04, 188671.06)" gradientUnits="userSpaceOnUse"><stop offset="0" stop-color="#879f6e"/><stop offset="1" stop-color="#829975"/></linearGradient><linearGradient id="linear-gradient-28" x1="103.66" y1="807.41" x2="104.66" y2="806.41" gradientTransform="matrix(152, 0, 0, -182, -15633.54, 147615.54)" gradientUnits="userSpaceOnUse"><stop offset="0" stop-color="#627b96"/><stop offset="1" stop-color="#647d94"/></linearGradient><linearGradient id="linear-gradient-29" x1="104.1" y1="807.62" x2="105.1" y2="806.62" gradientTransform="matrix(191, 0, 0, -201, -19843.04, 162920.05)" gradientUnits="userSpaceOnUse"><stop offset="0" stop-color="#4b64af"/><stop offset="1" stop-color="#5a73a0"/></linearGradient><linearGradient id="linear-gradient-30" x1="97.14" y1="807.13" x2="98.14" y2="806.13" gradientTransform="matrix(14, 0, 0, -370, -1358.5, 299058.69)" gradientUnits="userSpaceOnUse"><stop offset="0" stop-color="#425bb9"/><stop offset="1" stop-color="#435cb9"/></linearGradient><linearGradient id="linear-gradient-31" x1="103.48" y1="807.19" x2="104.48" y2="806.19" gradientTransform="matrix(134, 0, 0, -210, -13886.54, 170178.56)" gradientUnits="userSpaceOnUse"><stop offset="0" stop-color="#4660b5"/><stop offset="1" stop-color="#4d66ae"/></linearGradient><linearGradient id="linear-gradient-32" x1="97.09" y1="806.93" x2="98.09" y2="805.93" gradientTransform="matrix(14, 0, 0, -521, -1358.5, 420840.13)" xlink:href="#linear-gradient-30"/><linearGradient id="linear-gradient-33" x1="103.71" y1="807.72" x2="104.71" y2="806.72" gradientTransform="matrix(133, 0, 0, -160, -13781.04, 130054.54)" gradientUnits="userSpaceOnUse"><stop offset="0" stop-color="#4760b5"/><stop offset="1" stop-color="#4d66ae"/></linearGradient><linearGradient id="linear-gradient-34" x1="103.96" y1="807.75" x2="104.96" y2="806.75" gradientTransform="matrix(240, 0, 0, -143, -24352.56, 116050.04)" gradientUnits="userSpaceOnUse"><stop offset="0" stop-color="#afc643"/><stop offset="1" stop-color="#bfd630"/></linearGradient><linearGradient id="linear-gradient-35" x1="104.13" y1="807.7" x2="105.13" y2="806.7" gradientTransform="matrix(197, 0, 0, -187, -20184.04, 151736.04)" gradientUnits="userSpaceOnUse"><stop offset="0" stop-color="#7c937b"/><stop offset="1" stop-color="#8ea468"/></linearGradient><linearGradient id="linear-gradient-36" x1="103.74" y1="807.33" x2="104.74" y2="806.33" gradientTransform="matrix(191, 0, 0, -187, -19362.04, 151736.04)" gradientUnits="userSpaceOnUse"><stop offset="0" stop-color="#95ad5f"/><stop offset="1" stop-color="#9eb555"/></linearGradient><linearGradient id="linear-gradient-37" x1="104.05" y1="807.52" x2="105.05" y2="806.52" gradientTransform="matrix(189, 0, 0, -213, -19151.04, 172648.06)" gradientUnits="userSpaceOnUse"><stop offset="0" stop-color="#9ab05b"/><stop offset="1" stop-color="#a7be4c"/></linearGradient><linearGradient id="linear-gradient-38" x1="103.96" y1="807.32" x2="104.96" y2="806.32" gradientTransform="matrix(232, 0, 0, -213, -23516.56, 172648.06)" gradientUnits="userSpaceOnUse"><stop offset="0" stop-color="#adc446"/><stop offset="1" stop-color="#bad137"/></linearGradient><linearGradient id="linear-gradient-39" x1="104.26" y1="807.82" x2="105.26" y2="806.82" gradientTransform="matrix(240, 0, 0, -173, -24352.56, 140351.04)" gradientUnits="userSpaceOnUse"><stop offset="0" stop-color="#b2c941"/><stop offset="1" stop-color="#c7dd29"/></linearGradient><linearGradient id="linear-gradient-40" x1="103.94" y1="808.99" x2="104.94" y2="807.99" gradientTransform="matrix(197, 0, 0, -77, -19798.04, 63100.02)" gradientUnits="userSpaceOnUse"><stop offset="0" stop-color="#b9cf38"/><stop offset="1" stop-color="#c9df27"/></linearGradient><linearGradient id="linear-gradient-41" x1="104.12" y1="808.36" x2="105.12" y2="807.36" gradientTransform="matrix(197, 0, 0, -114, -19798.04, 93009.52)" gradientUnits="userSpaceOnUse"><stop offset="0" stop-color="#b7ce3a"/><stop offset="1" stop-color="#c5dc2b"/></linearGradient><linearGradient id="linear-gradient-42" x1="104.02" y1="808.42" x2="105.02" y2="807.42" gradientTransform="matrix(191, 0, 0, -105, -19362.04, 85759.02)" gradientUnits="userSpaceOnUse"><stop offset="0" stop-color="#97ae5e"/><stop offset="1" stop-color="#a1b852"/></linearGradient><linearGradient id="linear-gradient-43" x1="103.99" y1="808.22" x2="104.99" y2="807.22" gradientTransform="matrix(263, 0, 0, -106, -26838.06, 86565.52)" gradientUnits="userSpaceOnUse"><stop offset="0" stop-color="#aec544"/><stop offset="1" stop-color="#adc445"/></linearGradient><linearGradient id="linear-gradient-44" x1="103.76" y1="808.07" x2="104.76" y2="807.07" gradientTransform="matrix(173, 0, 0, -114, -17170.04, 93009.52)" gradientUnits="userSpaceOnUse"><stop offset="0" stop-color="#c9df27"/><stop offset="1" stop-color="#d4ea1b"/></linearGradient><linearGradient id="linear-gradient-45" x1="103.35" y1="807.4" x2="104.35" y2="806.4" gradientTransform="matrix(113, 0, 0, -173, -10849.02, 140351.04)" gradientUnits="userSpaceOnUse"><stop offset="0" stop-color="#cde422"/><stop offset="1" stop-color="#d3e91c"/></linearGradient><linearGradient id="linear-gradient-46" x1="103.63" y1="808.79" x2="104.63" y2="807.79" gradientTransform="matrix(113, 0, 0, -87, -10849.02, 71147.02)" gradientUnits="userSpaceOnUse"><stop offset="0" stop-color="#cde421"/><stop offset="1" stop-color="#d4ea1a"/></linearGradient><linearGradient id="linear-gradient-47" x1="103.53" y1="807.61" x2="104.53" y2="806.61" gradientTransform="matrix(96, 0, 0, -196, -9046.52, 159055.54)" gradientUnits="userSpaceOnUse"><stop offset="0" stop-color="#d4ea1c"/><stop offset="1" stop-color="#dcf213"/></linearGradient><linearGradient id="linear-gradient-48" x1="103.92" y1="807.63" x2="104.92" y2="806.63" gradientTransform="matrix(221, 0, 0, -158, -22228.05, 128010.54)" gradientUnits="userSpaceOnUse"><stop offset="0" stop-color="#c3da2c"/><stop offset="1" stop-color="#d2e81c"/></linearGradient><linearGradient id="linear-gradient-49" x1="104.09" y1="808.4" x2="105.09" y2="807.4" gradientTransform="matrix(221, 0, 0, -106, -22228.05, 86209.52)" xlink:href="#linear-gradient-48"/><linearGradient id="linear-gradient-50" x1="103.79" y1="807.47" x2="104.79" y2="806.47" gradientTransform="matrix(120, 0, 0, -240, -11572.52, 194301.56)" gradientUnits="userSpaceOnUse"><stop offset="0" stop-color="#d1e81d"/><stop offset="1" stop-color="#dbf112"/></linearGradient><linearGradient id="linear-gradient-51" x1="97.65" y1="807.06" x2="98.65" y2="806.06" gradientTransform="matrix(15, 0, 0, -436, -495, 352375.61)" gradientUnits="userSpaceOnUse"><stop offset="0" stop-color="#ddf311"/><stop offset="1" stop-color="#def410"/></linearGradient><linearGradient id="linear-gradient-52" x1="103.41" y1="807.29" x2="104.41" y2="806.29" gradientTransform="matrix(118, 0, 0, -196, -11363.52, 158461.54)" gradientUnits="userSpaceOnUse"><stop offset="0" stop-color="#cfe520"/><stop offset="1" stop-color="#d5eb1a"/></linearGradient><linearGradient id="linear-gradient-53" x1="103.83" y1="807.71" x2="104.83" y2="806.71" gradientTransform="matrix(120, 0, 0, -193, -11572.52, 156203.04)" gradientUnits="userSpaceOnUse"><stop offset="0" stop-color="#d2e81d"/><stop offset="1" stop-color="#ddf211"/></linearGradient><linearGradient id="linear-gradient-54" x1="103.78" y1="807.87" x2="104.78" y2="806.87" gradientTransform="matrix(170, 0, 0, -132, -16848.54, 106713.54)" gradientUnits="userSpaceOnUse"><stop offset="0" stop-color="#c9df26"/><stop offset="1" stop-color="#d4ea1b"/></linearGradient><linearGradient id="linear-gradient-55" x1="103.73" y1="807.75" x2="104.73" y2="806.75" gradientTransform="matrix(106, 0, 0, -188, -10096.52, 151982.54)" gradientUnits="userSpaceOnUse"><stop offset="0" stop-color="#d3e91c"/><stop offset="1" stop-color="#dcf211"/></linearGradient><linearGradient id="linear-gradient-56" x1="52.25" y1="807.01" x2="53.25" y2="806.01" gradientTransform="matrix(2, 0, 0, -381, 876.5, 307637.19)" gradientUnits="userSpaceOnUse"><stop offset="0" stop-color="#dff40f"/><stop offset="1" stop-color="#dff40f"/></linearGradient><linearGradient id="linear-gradient-57" x1="104.05" y1="807.9" x2="105.05" y2="806.9" gradientTransform="matrix(170, 0, 0, -158, -16848.54, 127629.54)" gradientUnits="userSpaceOnUse"><stop offset="0" stop-color="#cce223"/><stop offset="1" stop-color="#dbf112"/></linearGradient><linearGradient id="linear-gradient-58" x1="104.29" y1="808.83" x2="105.29" y2="807.83" gradientTransform="matrix(280, 0, 0, -90, -28714.56, 72779.52)" gradientUnits="userSpaceOnUse"><stop offset="0" stop-color="#a4b575"/><stop offset="1" stop-color="#aac148"/></linearGradient><linearGradient id="linear-gradient-59" x1="103.74" y1="808.65" x2="104.74" y2="807.65" gradientTransform="matrix(168, 0, 0, -85, -16807.54, 68752.02)" gradientUnits="userSpaceOnUse"><stop offset="0" stop-color="#afc644"/><stop offset="1" stop-color="#b9d037"/></linearGradient><linearGradient id="linear-gradient-60" x1="104.17" y1="810.05" x2="105.17" y2="809.05" gradientTransform="matrix(261, 0, 0, -56, -26449.06, 45363.52)" gradientUnits="userSpaceOnUse"><stop offset="0" stop-color="#c6db2b"/><stop offset="1" stop-color="#c9df26"/></linearGradient><linearGradient id="linear-gradient-61" x1="103.61" y1="807.43" x2="104.61" y2="806.43" gradientTransform="matrix(128, 0, 0, -194, -13068.52, 157099.54)" gradientUnits="userSpaceOnUse"><stop offset="0" stop-color="#657e93"/><stop offset="1" stop-color="#6b848c"/></linearGradient><linearGradient id="linear-gradient-62" x1="103.98" y1="807.8" x2="104.98" y2="806.8" gradientTransform="matrix(258, 0, 0, -138, -26653.56, 111991.54)" gradientUnits="userSpaceOnUse"><stop offset="0" stop-color="#6c848c"/><stop offset="1" stop-color="#7d9579"/></linearGradient><linearGradient id="linear-gradient-63" x1="103.99" y1="807.81" x2="104.99" y2="806.81" gradientTransform="matrix(174, 0, 0, -159, -17859.54, 128769.04)" gradientUnits="userSpaceOnUse"><stop offset="0" stop-color="#6b848c"/><stop offset="1" stop-color="#78907e"/></linearGradient><linearGradient id="linear-gradient-64" x1="103.64" y1="807.32" x2="104.64" y2="806.32" gradientTransform="matrix(130, 0, 0, -221, -13149.52, 178772.06)" gradientUnits="userSpaceOnUse"><stop offset="0" stop-color="#809876"/><stop offset="1" stop-color="#809875"/></linearGradient><linearGradient id="linear-gradient-65" x1="104.03" y1="807.73" x2="105.03" y2="806.73" gradientTransform="matrix(152, 0, 0, -193, -15633.54, 156644.04)" gradientUnits="userSpaceOnUse"><stop offset="0" stop-color="#617999"/><stop offset="1" stop-color="#6e868a"/></linearGradient><linearGradient id="linear-gradient-66" x1="104.01" y1="807.54" x2="105.01" y2="806.54" gradientTransform="matrix(280, 0, 0, -168, -29142.56, 136506.54)" gradientUnits="userSpaceOnUse"><stop offset="0" stop-color="#4f67ad"/><stop offset="1" stop-color="#617998"/></linearGradient><linearGradient id="linear-gradient-67" x1="103.83" y1="807.35" x2="104.83" y2="806.35" gradientTransform="matrix(200, 0, 0, -193, -20502.54, 156644.04)" gradientUnits="userSpaceOnUse"><stop offset="0" stop-color="#768e81"/><stop offset="1" stop-color="#7e9678"/></linearGradient><linearGradient id="linear-gradient-68" x1="104.03" y1="809.04" x2="105.03" y2="808.04" gradientTransform="matrix(248, 0, 0, -75, -25518.56, 61595.02)" gradientUnits="userSpaceOnUse"><stop offset="0" stop-color="#8ca469"/><stop offset="1" stop-color="#859d70"/></linearGradient></defs><title>3</title><polygon id="triangle36" class="cls-1" points="2 7 10 247 194 206 2 7"/><polygon id="triangle36-2" data-name="triangle36" class="cls-2" points="2 7 194 206 265 48 2 7"/><polygon id="triangle36-3" data-name="triangle36" class="cls-3" points="194 206 265 48 394 143 194 206"/><polygon id="triangle36-4" data-name="triangle36" class="cls-4" points="194 206 394 143 393 341 194 206"/><polygon id="triangle36-5" data-name="triangle36" class="cls-5" points="194 206 393 341 219 444 194 206"/><polygon id="triangle36-6" data-name="triangle36" class="cls-6" points="10 247 194 206 219 444 10 247"/><polygon id="triangle36-7" data-name="triangle36" class="cls-7" points="2 7 10 247 0 459 2 7"/><polygon id="triangle36-8" data-name="triangle36" class="cls-8" points="10 247 219 444 0 459 10 247"/><polygon id="triangle36-9" data-name="triangle36" class="cls-9" points="0 459 219 444 12 619 0 459"/><polygon id="triangle36-10" data-name="triangle36" class="cls-10" points="12 619 219 444 203 638 12 619"/><polygon id="triangle36-11" data-name="triangle36" class="cls-11" points="393 341 461 562 631 388 393 341"/><polygon id="triangle36-12" data-name="triangle36" class="cls-12" points="393 341 394 143 646 233 393 341"/><polygon id="triangle36-13" data-name="triangle36" class="cls-13" points="393 341 631 388 646 233 393 341"/><polygon id="triangle36-14" data-name="triangle36" class="cls-14" points="394 143 646 233 644 90 394 143"/><polygon id="triangle36-15" data-name="triangle36" class="cls-15" points="2 7 265 48 441 0 2 7"/><polygon id="triangle36-16" data-name="triangle36" class="cls-16" points="265 48 394 143 441 0 265 48"/><polygon id="triangle36-17" data-name="triangle36" class="cls-17" points="394 143 644 90 441 0 394 143"/><polygon id="triangle36-18" data-name="triangle36" class="cls-18" points="644 90 646 233 812 61 644 90"/><polygon id="triangle36-19" data-name="triangle36" class="cls-19" points="646 233 812 61 876 193 646 233"/><polygon id="triangle36-20" data-name="triangle36" class="cls-20" points="631 388 646 233 863 389 631 388"/><polygon id="triangle36-21" data-name="triangle36" class="cls-21" points="646 233 876 193 863 389 646 233"/><polygon id="triangle36-22" data-name="triangle36" class="cls-22" points="631 388 863 389 762 526 631 388"/><polygon id="triangle36-23" data-name="triangle36" class="cls-23" points="461 562 631 388 623 669 461 562"/><polygon id="triangle36-24" data-name="triangle36" class="cls-24" points="631 388 762 526 623 669 631 388"/><polygon id="triangle36-25" data-name="triangle36" class="cls-25" points="461 562 623 669 495 726 461 562"/><polygon id="triangle36-26" data-name="triangle36" class="cls-26" points="203 638 461 562 298 795 203 638"/><polygon id="triangle36-27" data-name="triangle36" class="cls-27" points="461 562 495 726 298 795 461 562"/><polygon id="triangle36-28" data-name="triangle36" class="cls-28" points="203 638 298 795 146 820 203 638"/><polygon id="triangle36-29" data-name="triangle36" class="cls-29" points="12 619 203 638 146 820 12 619"/><polygon id="triangle36-30" data-name="triangle36" class="cls-30" points="0 459 12 619 14 829 0 459"/><polygon id="triangle36-31" data-name="triangle36" class="cls-31" points="12 619 146 820 14 829 12 619"/><polygon id="triangle36-32" data-name="triangle36" class="cls-32" points="0 459 14 829 13 980 0 459"/><polygon id="triangle36-33" data-name="triangle36" class="cls-33" points="14 829 146 820 13 980 14 829"/><polygon id="triangle36-34" data-name="triangle36" class="cls-34" points="623 669 762 526 863 632 623 669"/><polygon id="triangle36-35" data-name="triangle36" class="cls-35" points="298 795 495 726 493 913 298 795"/><polygon id="triangle36-36" data-name="triangle36" class="cls-36" points="493 913 495 726 684 882 493 913"/><polygon id="triangle36-37" data-name="triangle36" class="cls-37" points="495 726 623 669 684 882 495 726"/><polygon id="triangle36-38" data-name="triangle36" class="cls-38" points="623 669 684 882 855 805 623 669"/><polygon id="triangle36-39" data-name="triangle36" class="cls-39" points="623 669 863 632 855 805 623 669"/><polygon id="triangle36-40" data-name="triangle36" class="cls-40" points="684 882 855 805 881 874 684 882"/><polygon id="triangle36-41" data-name="triangle36" class="cls-41" points="684 882 881 874 804 988 684 882"/><polygon id="triangle36-42" data-name="triangle36" class="cls-42" points="493 913 684 882 541 987 493 913"/><polygon id="triangle36-43" data-name="triangle36" class="cls-43" points="684 882 804 988 541 987 684 882"/><polygon id="triangle36-44" data-name="triangle36" class="cls-44" points="804 988 881 874 977 983 804 988"/><polygon id="triangle36-45" data-name="triangle36" class="cls-45" points="855 805 863 632 968 787 855 805"/><polygon id="triangle36-46" data-name="triangle36" class="cls-46" points="855 805 881 874 968 787 855 805"/><polygon id="triangle36-47" data-name="triangle36" class="cls-47" points="881 874 977 983 968 787 881 874"/><polygon id="triangle36-48" data-name="triangle36" class="cls-48" points="762 526 863 389 983 547 762 526"/><polygon id="triangle36-49" data-name="triangle36" class="cls-49" points="762 526 863 632 983 547 762 526"/><polygon id="triangle36-50" data-name="triangle36" class="cls-50" points="863 632 968 787 983 547 863 632"/><polygon id="triangle36-51" data-name="triangle36" class="cls-51" points="968 787 977 983 983 547 968 787"/><polygon id="triangle36-52" data-name="triangle36" class="cls-52" points="863 389 876 193 981 354 863 389"/><polygon id="triangle36-53" data-name="triangle36" class="cls-53" points="863 389 983 547 981 354 863 389"/><polygon id="triangle36-54" data-name="triangle36" class="cls-54" points="812 61 876 193 982 166 812 61"/><polygon id="triangle36-55" data-name="triangle36" class="cls-55" points="876 193 981 354 982 166 876 193"/><polygon id="triangle36-56" data-name="triangle36" class="cls-56" points="981 354 983 547 982 166 981 354"/><polygon id="triangle36-57" data-name="triangle36" class="cls-57" points="812 61 982 166 982 8 812 61"/><polygon id="triangle36-58" data-name="triangle36" class="cls-58" points="441 0 644 90 721 5 441 0"/><polygon id="triangle36-59" data-name="triangle36" class="cls-59" points="644 90 812 61 721 5 644 90"/><polygon id="triangle36-60" data-name="triangle36" class="cls-60" points="812 61 982 8 721 5 812 61"/><polygon id="triangle36-61" data-name="triangle36" class="cls-61" points="203 638 219 444 331 500 203 638"/><polygon id="triangle36-62" data-name="triangle36" class="cls-62" points="203 638 461 562 331 500 203 638"/><polygon id="triangle36-63" data-name="triangle36" class="cls-63" points="219 444 393 341 331 500 219 444"/><polygon id="triangle36-64" data-name="triangle36" class="cls-64" points="393 341 461 562 331 500 393 341"/><polygon id="triangle36-65" data-name="triangle36" class="cls-65" points="146 820 298 795 293 988 146 820"/><polygon id="triangle36-66" data-name="triangle36" class="cls-66" points="13 980 146 820 293 988 13 980"/><polygon id="triangle36-67" data-name="triangle36" class="cls-67" points="298 795 493 913 293 988 298 795"/><polygon id="triangle36-68" data-name="triangle36" class="cls-68" points="493 913 541 987 293 988 493 913"/></svg>