<?xml version="1.0" encoding="utf-8"?>
<!-- Generator: Adobe Illustrator 21.1.0, SVG Export Plug-In . SVG Version: 6.00 Build 0)  -->
<svg version="1.1" id="Layer_1" xmlns="http://www.w3.org/2000/svg" xmlns:xlink="http://www.w3.org/1999/xlink" x="0px" y="0px"
	 viewBox="0 0 1000 1000" enable-background="new 0 0 1000 1000" xml:space="preserve">
<linearGradient id="triangle36_68_" gradientUnits="userSpaceOnUse" x1="103.7591" y1="807.1138" x2="104.7591" y2="806.1138" gradientTransform="matrix(192 0 0 -240 -19942.543 193767.5625)">
	<stop  offset="0" style="stop-color:#354787"/>
	<stop  offset="1" style="stop-color:#3B4C7D"/>
</linearGradient>
<polygon id="triangle36" fill="url(#triangle36_68_)" points="17,13 25,253 209,212 "/>
<linearGradient id="triangle36_69_" gradientUnits="userSpaceOnUse" x1="104.2339" y1="807.6086" x2="105.2339" y2="806.6086" gradientTransform="matrix(263 0 0 -199 -27362.0605 160701.0625)">
	<stop  offset="0" style="stop-color:#394B7F"/>
	<stop  offset="1" style="stop-color:#445669"/>
</linearGradient>
<polygon id="triangle36_1_" fill="url(#triangle36_69_)" points="17,13 209,212 280,54 "/>
<linearGradient id="triangle36_70_" gradientUnits="userSpaceOnUse" x1="103.8278" y1="807.5805" x2="104.8278" y2="806.5805" gradientTransform="matrix(200 0 0 -158 -20586.543 127675.5391)">
	<stop  offset="0" style="stop-color:#475863"/>
	<stop  offset="1" style="stop-color:#4E5E59"/>
</linearGradient>
<polygon id="triangle36_2_" fill="url(#triangle36_70_)" points="209,212 280,54 409,149 "/>
<linearGradient id="triangle36_71_" gradientUnits="userSpaceOnUse" x1="104.1486" y1="807.6526" x2="105.1486" y2="806.6526" gradientTransform="matrix(200 0 0 -198 -20586.543 160030.5625)">
	<stop  offset="0" style="stop-color:#48595F"/>
	<stop  offset="1" style="stop-color:#566654"/>
</linearGradient>
<polygon id="triangle36_3_" fill="url(#triangle36_71_)" points="209,212 409,149 408,347 "/>
<linearGradient id="triangle36_72_" gradientUnits="userSpaceOnUse" x1="103.8647" y1="807.2071" x2="104.8647" y2="806.2071" gradientTransform="matrix(199 0 0 -238 -20482.043 192353.5625)">
	<stop  offset="0" style="stop-color:#465764"/>
	<stop  offset="1" style="stop-color:#4B5A5A"/>
</linearGradient>
<polygon id="triangle36_4_" fill="url(#triangle36_72_)" points="209,212 408,347 234,450 "/>
<linearGradient id="triangle36_73_" gradientUnits="userSpaceOnUse" x1="104.1775" y1="807.4943" x2="105.1775" y2="806.4943" gradientTransform="matrix(209 0 0 -238 -21711.0449 192353.5625)">
	<stop  offset="0" style="stop-color:#394B7F"/>
	<stop  offset="1" style="stop-color:#43546C"/>
</linearGradient>
<polygon id="triangle36_5_" fill="url(#triangle36_73_)" points="25,253 209,212 234,450 "/>
<linearGradient id="triangle36_74_" gradientUnits="userSpaceOnUse" x1="93.9172" y1="806.7979" x2="94.9172" y2="805.7979" gradientTransform="matrix(10 0 0 -452 -925.5 364745.625)">
	<stop  offset="0" style="stop-color:#32448B"/>
	<stop  offset="1" style="stop-color:#32448B"/>
</linearGradient>
<polygon id="triangle36_6_" fill="url(#triangle36_74_)" points="17,13 25,253 15,465 "/>
<linearGradient id="triangle36_75_" gradientUnits="userSpaceOnUse" x1="103.7909" y1="807.1853" x2="104.7909" y2="806.1853" gradientTransform="matrix(219 0 0 -212 -22766.0547 171425.5625)">
	<stop  offset="0" style="stop-color:#364885"/>
	<stop  offset="1" style="stop-color:#3B4D7B"/>
</linearGradient>
<polygon id="triangle36_7_" fill="url(#triangle36_75_)" points="25,253 234,450 15,465 "/>
<linearGradient id="triangle36_76_" gradientUnits="userSpaceOnUse" x1="104.0369" y1="807.6252" x2="105.0369" y2="806.6252" gradientTransform="matrix(219 0 0 -175 -22766.0547 141782.0469)">
	<stop  offset="0" style="stop-color:#354886"/>
	<stop  offset="1" style="stop-color:#3B4D7B"/>
</linearGradient>
<polygon id="triangle36_8_" fill="url(#triangle36_76_)" points="15,465 234,450 27,625 "/>
<linearGradient id="triangle36_77_" gradientUnits="userSpaceOnUse" x1="104.0199" y1="807.5273" x2="105.0199" y2="806.5273" gradientTransform="matrix(207 0 0 -194 -21500.043 157105.5469)">
	<stop  offset="0" style="stop-color:#394B7F"/>
	<stop  offset="1" style="stop-color:#43556C"/>
</linearGradient>
<polygon id="triangle36_9_" fill="url(#triangle36_77_)" points="27,625 234,450 218,644 "/>
<linearGradient id="triangle36_78_" gradientUnits="userSpaceOnUse" x1="104.0794" y1="807.3986" x2="105.0794" y2="806.3986" gradientTransform="matrix(238 0 0 -221 -24358.5566 178778.0625)">
	<stop  offset="0" style="stop-color:#62724E"/>
	<stop  offset="1" style="stop-color:#6F7F45"/>
</linearGradient>
<polygon id="triangle36_10_" fill="url(#triangle36_78_)" points="408,347 476,568 646,394 "/>
<linearGradient id="triangle36_79_" gradientUnits="userSpaceOnUse" x1="103.9738" y1="807.3688" x2="104.9738" y2="806.3688" gradientTransform="matrix(253 0 0 -198 -25926.0586 160030.5625)">
	<stop  offset="0" style="stop-color:#5F704F"/>
	<stop  offset="1" style="stop-color:#6B7B48"/>
</linearGradient>
<polygon id="triangle36_11_" fill="url(#triangle36_79_)" points="408,347 409,149 661,239 "/>
<linearGradient id="triangle36_80_" gradientUnits="userSpaceOnUse" x1="104.1632" y1="807.8307" x2="105.1632" y2="806.8307" gradientTransform="matrix(253 0 0 -155 -25926.0586 125441.0391)">
	<stop  offset="0" style="stop-color:#66774B"/>
	<stop  offset="1" style="stop-color:#7B8C3C"/>
</linearGradient>
<polygon id="triangle36_12_" fill="url(#triangle36_80_)" points="408,347 646,394 661,239 "/>
<linearGradient id="triangle36_81_" gradientUnits="userSpaceOnUse" x1="104.2414" y1="808.0153" x2="105.2414" y2="807.0153" gradientTransform="matrix(252 0 0 -143 -25820.5586 115620.0391)">
	<stop  offset="0" style="stop-color:#66774B"/>
	<stop  offset="1" style="stop-color:#7C8D3C"/>
</linearGradient>
<polygon id="triangle36_13_" fill="url(#triangle36_81_)" points="409,149 661,239 659,96 "/>
<linearGradient id="triangle36_82_" gradientUnits="userSpaceOnUse" x1="104.4123" y1="810.7018" x2="105.4123" y2="809.7018" gradientTransform="matrix(439 0 0 -48 -45754.1016 38912.5156)">
	<stop  offset="0" style="stop-color:#3D4F78"/>
	<stop  offset="1" style="stop-color:#576464"/>
</linearGradient>
<polygon id="triangle36_14_" fill="url(#triangle36_82_)" points="17,13 280,54 456,6 "/>
<linearGradient id="triangle36_83_" gradientUnits="userSpaceOnUse" x1="104.0727" y1="808.0263" x2="105.0727" y2="807.0263" gradientTransform="matrix(176 0 0 -143 -18007.5391 115530.0391)">
	<stop  offset="0" style="stop-color:#4E5E59"/>
	<stop  offset="1" style="stop-color:#63715E"/>
</linearGradient>
<polygon id="triangle36_15_" fill="url(#triangle36_83_)" points="280,54 409,149 456,6 "/>
<linearGradient id="triangle36_84_" gradientUnits="userSpaceOnUse" x1="103.9255" y1="807.7025" x2="104.9255" y2="806.7025" gradientTransform="matrix(250 0 0 -143 -25611.5586 115530.0391)">
	<stop  offset="0" style="stop-color:#61724E"/>
	<stop  offset="1" style="stop-color:#778551"/>
</linearGradient>
<polygon id="triangle36_16_" fill="url(#triangle36_84_)" points="409,149 659,96 456,6 "/>
<linearGradient id="triangle36_85_" gradientUnits="userSpaceOnUse" x1="103.8815" y1="807.6337" x2="104.8815" y2="806.6337" gradientTransform="matrix(168 0 0 -172 -16792.5391 138979.5469)">
	<stop  offset="0" style="stop-color:#859636"/>
	<stop  offset="1" style="stop-color:#8C9D2F"/>
</linearGradient>
<polygon id="triangle36_17_" fill="url(#triangle36_85_)" points="659,96 661,239 827,67 "/>
<linearGradient id="triangle36_86_" gradientUnits="userSpaceOnUse" x1="103.9762" y1="807.5616" x2="104.9762" y2="806.5616" gradientTransform="matrix(230 0 0 -172 -23269.5566 138979.5469)">
	<stop  offset="0" style="stop-color:#8B9C31"/>
	<stop  offset="1" style="stop-color:#9CAD22"/>
</linearGradient>
<polygon id="triangle36_18_" fill="url(#triangle36_86_)" points="661,239 827,67 891,199 "/>
<linearGradient id="triangle36_87_" gradientUnits="userSpaceOnUse" x1="103.8182" y1="807.5142" x2="104.8182" y2="806.5142" gradientTransform="matrix(232 0 0 -156 -23493.5566 126247.5391)">
	<stop  offset="0" style="stop-color:#849535"/>
	<stop  offset="1" style="stop-color:#8FA02C"/>
</linearGradient>
<polygon id="triangle36_19_" fill="url(#triangle36_87_)" points="646,394 661,239 878,395 "/>
<linearGradient id="triangle36_88_" gradientUnits="userSpaceOnUse" x1="104.2447" y1="807.6917" x2="105.2447" y2="806.6917" gradientTransform="matrix(230 0 0 -196 -23269.5566 158467.5469)">
	<stop  offset="0" style="stop-color:#8D9E2F"/>
	<stop  offset="1" style="stop-color:#A0B11F"/>
</linearGradient>
<polygon id="triangle36_20_" fill="url(#triangle36_88_)" points="661,239 891,199 878,395 "/>
<linearGradient id="triangle36_89_" gradientUnits="userSpaceOnUse" x1="104.1892" y1="808.049" x2="105.1892" y2="807.0491" gradientTransform="matrix(232 0 0 -138 -23493.5566 111885.5391)">
	<stop  offset="0" style="stop-color:#889933"/>
	<stop  offset="1" style="stop-color:#97A926"/>
</linearGradient>
<polygon id="triangle36_21_" fill="url(#triangle36_89_)" points="646,394 878,395 777,532 "/>
<linearGradient id="triangle36_90_" gradientUnits="userSpaceOnUse" x1="103.981" y1="807.2877" x2="104.981" y2="806.2877" gradientTransform="matrix(170 0 0 -281 -17184.5391 227215.1719)">
	<stop  offset="0" style="stop-color:#6D7D47"/>
	<stop  offset="1" style="stop-color:#7A8C3D"/>
</linearGradient>
<polygon id="triangle36_22_" fill="url(#triangle36_90_)" points="476,568 646,394 638,675 "/>
<linearGradient id="triangle36_91_" gradientUnits="userSpaceOnUse" x1="103.626" y1="807.0697" x2="104.626" y2="806.0697" gradientTransform="matrix(139 0 0 -281 -13783.0361 227215.1719)">
	<stop  offset="0" style="stop-color:#819238"/>
	<stop  offset="1" style="stop-color:#869834"/>
</linearGradient>
<polygon id="triangle36_23_" fill="url(#triangle36_91_)" points="646,394 777,532 638,675 "/>
<linearGradient id="triangle36_92_" gradientUnits="userSpaceOnUse" x1="103.7445" y1="807.5756" x2="104.7445" y2="806.5756" gradientTransform="matrix(162 0 0 -164 -16348.5381 133028.5469)">
	<stop  offset="0" style="stop-color:#697A49"/>
	<stop  offset="1" style="stop-color:#718243"/>
</linearGradient>
<polygon id="triangle36_24_" fill="url(#triangle36_92_)" points="476,568 638,675 510,732 "/>
<linearGradient id="triangle36_93_" gradientUnits="userSpaceOnUse" x1="104.1875" y1="807.4269" x2="105.1875" y2="806.4268" gradientTransform="matrix(258 0 0 -233 -26638.5586 188677.0625)">
	<stop  offset="0" style="stop-color:#48595F"/>
	<stop  offset="1" style="stop-color:#546556"/>
</linearGradient>
<polygon id="triangle36_25_" fill="url(#triangle36_93_)" points="218,644 476,568 313,801 "/>
<linearGradient id="triangle36_94_" gradientUnits="userSpaceOnUse" x1="103.9268" y1="807.2916" x2="104.9268" y2="806.2916" gradientTransform="matrix(197 0 0 -233 -20169.043 188677.0625)">
	<stop  offset="0" style="stop-color:#60714F"/>
	<stop  offset="1" style="stop-color:#5B6B52"/>
</linearGradient>
<polygon id="triangle36_26_" fill="url(#triangle36_94_)" points="476,568 510,732 313,801 "/>
<linearGradient id="triangle36_95_" gradientUnits="userSpaceOnUse" x1="103.6567" y1="807.4124" x2="104.6567" y2="806.4124" gradientTransform="matrix(152 0 0 -182 -15618.5371 147621.5469)">
	<stop  offset="0" style="stop-color:#445668"/>
	<stop  offset="1" style="stop-color:#455766"/>
</linearGradient>
<polygon id="triangle36_27_" fill="url(#triangle36_95_)" points="218,644 313,801 161,826 "/>
<linearGradient id="triangle36_96_" gradientUnits="userSpaceOnUse" x1="104.1049" y1="807.6197" x2="105.1049" y2="806.6197" gradientTransform="matrix(191 0 0 -201 -19828.043 162926.0625)">
	<stop  offset="0" style="stop-color:#374A81"/>
	<stop  offset="1" style="stop-color:#405272"/>
</linearGradient>
<polygon id="triangle36_28_" fill="url(#triangle36_96_)" points="27,625 218,644 161,826 "/>
<linearGradient id="triangle36_97_" gradientUnits="userSpaceOnUse" x1="97.1419" y1="807.1324" x2="98.1419" y2="806.1324" gradientTransform="matrix(14 0 0 -370 -1343.5 299064.6875)">
	<stop  offset="0" style="stop-color:#32458B"/>
	<stop  offset="1" style="stop-color:#33458B"/>
</linearGradient>
<polygon id="triangle36_29_" fill="url(#triangle36_97_)" points="15,465 27,625 29,835 "/>
<linearGradient id="triangle36_98_" gradientUnits="userSpaceOnUse" x1="103.4849" y1="807.1909" x2="104.4849" y2="806.1909" gradientTransform="matrix(134 0 0 -210 -13871.5352 170184.5625)">
	<stop  offset="0" style="stop-color:#344887"/>
	<stop  offset="1" style="stop-color:#394B80"/>
</linearGradient>
<polygon id="triangle36_30_" fill="url(#triangle36_98_)" points="27,625 161,826 29,835 "/>
<linearGradient id="triangle36_99_" gradientUnits="userSpaceOnUse" x1="97.0903" y1="806.9282" x2="98.0903" y2="805.9282" gradientTransform="matrix(14 0 0 -521 -1343.5 420846.125)">
	<stop  offset="0" style="stop-color:#32458B"/>
	<stop  offset="1" style="stop-color:#33458B"/>
</linearGradient>
<polygon id="triangle36_31_" fill="url(#triangle36_99_)" points="15,465 29,835 28,986 "/>
<linearGradient id="triangle36_100_" gradientUnits="userSpaceOnUse" x1="103.7146" y1="807.7158" x2="104.7146" y2="806.7158" gradientTransform="matrix(133 0 0 -160 -13766.0352 130060.5391)">
	<stop  offset="0" style="stop-color:#354887"/>
	<stop  offset="1" style="stop-color:#394B80"/>
</linearGradient>
<polygon id="triangle36_32_" fill="url(#triangle36_100_)" points="29,835 161,826 28,986 "/>
<linearGradient id="triangle36_101_" gradientUnits="userSpaceOnUse" x1="103.9599" y1="807.7549" x2="104.9599" y2="806.7549" gradientTransform="matrix(240 0 0 -143 -24337.5566 116056.0391)">
	<stop  offset="0" style="stop-color:#879834"/>
	<stop  offset="1" style="stop-color:#96A826"/>
</linearGradient>
<polygon id="triangle36_33_" fill="url(#triangle36_101_)" points="638,675 777,532 878,638 "/>
<linearGradient id="triangle36_102_" gradientUnits="userSpaceOnUse" x1="104.1273" y1="807.6983" x2="105.1273" y2="806.6983" gradientTransform="matrix(197 0 0 -187 -20169.043 151742.0469)">
	<stop  offset="0" style="stop-color:#566555"/>
	<stop  offset="1" style="stop-color:#67764B"/>
</linearGradient>
<polygon id="triangle36_34_" fill="url(#triangle36_102_)" points="313,801 510,732 508,919 "/>
<linearGradient id="triangle36_103_" gradientUnits="userSpaceOnUse" x1="103.7443" y1="807.332" x2="104.7443" y2="806.332" gradientTransform="matrix(191 0 0 -187 -19347.043 151742.0469)">
	<stop  offset="0" style="stop-color:#6E7F46"/>
	<stop  offset="1" style="stop-color:#768740"/>
</linearGradient>
<polygon id="triangle36_35_" fill="url(#triangle36_103_)" points="508,919 510,732 699,888 "/>
<linearGradient id="triangle36_104_" gradientUnits="userSpaceOnUse" x1="104.0497" y1="807.5159" x2="105.0497" y2="806.5159" gradientTransform="matrix(189 0 0 -213 -19136.041 172654.0625)">
	<stop  offset="0" style="stop-color:#728243"/>
	<stop  offset="1" style="stop-color:#7F903A"/>
</linearGradient>
<polygon id="triangle36_36_" fill="url(#triangle36_104_)" points="510,732 638,675 699,888 "/>
<linearGradient id="triangle36_105_" gradientUnits="userSpaceOnUse" x1="103.9559" y1="807.3195" x2="104.9559" y2="806.3195" gradientTransform="matrix(232 0 0 -213 -23501.5566 172654.0625)">
	<stop  offset="0" style="stop-color:#859636"/>
	<stop  offset="1" style="stop-color:#92A32B"/>
</linearGradient>
<polygon id="triangle36_37_" fill="url(#triangle36_105_)" points="638,675 699,888 870,811 "/>
<linearGradient id="triangle36_106_" gradientUnits="userSpaceOnUse" x1="104.2615" y1="807.8209" x2="105.2615" y2="806.8209" gradientTransform="matrix(240 0 0 -173 -24337.5566 140357.0469)">
	<stop  offset="0" style="stop-color:#8A9B32"/>
	<stop  offset="1" style="stop-color:#9EAF21"/>
</linearGradient>
<polygon id="triangle36_38_" fill="url(#triangle36_106_)" points="638,675 878,638 870,811 "/>
<linearGradient id="triangle36_107_" gradientUnits="userSpaceOnUse" x1="103.9373" y1="808.9927" x2="104.9373" y2="807.9927" gradientTransform="matrix(197 0 0 -77 -19783.043 63106.0195)">
	<stop  offset="0" style="stop-color:#90A12C"/>
	<stop  offset="1" style="stop-color:#A0B11F"/>
</linearGradient>
<polygon id="triangle36_39_" fill="url(#triangle36_107_)" points="699,888 870,811 896,880 "/>
<linearGradient id="triangle36_108_" gradientUnits="userSpaceOnUse" x1="104.1225" y1="808.3582" x2="105.1225" y2="807.3582" gradientTransform="matrix(197 0 0 -114 -19783.043 93015.5234)">
	<stop  offset="0" style="stop-color:#8FA02D"/>
	<stop  offset="1" style="stop-color:#9CAE22"/>
</linearGradient>
<polygon id="triangle36_40_" fill="url(#triangle36_108_)" points="699,888 896,880 819,994 "/>
<linearGradient id="triangle36_109_" gradientUnits="userSpaceOnUse" x1="104.0162" y1="808.4152" x2="105.0162" y2="807.4151" gradientTransform="matrix(191 0 0 -105 -19347.043 85765.0234)">
	<stop  offset="0" style="stop-color:#708045"/>
	<stop  offset="1" style="stop-color:#798A3E"/>
</linearGradient>
<polygon id="triangle36_41_" fill="url(#triangle36_109_)" points="508,919 699,888 556,993 "/>
<linearGradient id="triangle36_110_" gradientUnits="userSpaceOnUse" x1="103.9914" y1="808.2232" x2="104.9913" y2="807.2233" gradientTransform="matrix(263 0 0 -106 -26823.0605 86571.5234)">
	<stop  offset="0" style="stop-color:#869734"/>
	<stop  offset="1" style="stop-color:#859635"/>
</linearGradient>
<polygon id="triangle36_42_" fill="url(#triangle36_110_)" points="699,888 819,994 556,993 "/>
<linearGradient id="triangle36_111_" gradientUnits="userSpaceOnUse" x1="103.7577" y1="808.0673" x2="104.7577" y2="807.0673" gradientTransform="matrix(173 0 0 -114 -17155.0391 93015.5234)">
	<stop  offset="0" style="stop-color:#A0B11F"/>
	<stop  offset="1" style="stop-color:#ABBC16"/>
</linearGradient>
<polygon id="triangle36_43_" fill="url(#triangle36_111_)" points="819,994 896,880 992,989 "/>
<linearGradient id="triangle36_112_" gradientUnits="userSpaceOnUse" x1="103.3517" y1="807.4003" x2="104.3516" y2="806.4003" gradientTransform="matrix(113 0 0 -173 -10834.0225 140357.0469)">
	<stop  offset="0" style="stop-color:#A4B61B"/>
	<stop  offset="1" style="stop-color:#AABB17"/>
</linearGradient>
<polygon id="triangle36_44_" fill="url(#triangle36_112_)" points="870,811 878,638 983,793 "/>
<linearGradient id="triangle36_113_" gradientUnits="userSpaceOnUse" x1="103.6335" y1="808.7928" x2="104.6335" y2="807.7928" gradientTransform="matrix(113 0 0 -87 -10834.0225 71153.0234)">
	<stop  offset="0" style="stop-color:#A4B61A"/>
	<stop  offset="1" style="stop-color:#ABBC15"/>
</linearGradient>
<polygon id="triangle36_45_" fill="url(#triangle36_113_)" points="870,811 896,880 983,793 "/>
<linearGradient id="triangle36_114_" gradientUnits="userSpaceOnUse" x1="103.5274" y1="807.608" x2="104.5274" y2="806.608" gradientTransform="matrix(96 0 0 -196 -9031.5215 159061.5469)">
	<stop  offset="0" style="stop-color:#ABBC17"/>
	<stop  offset="1" style="stop-color:#B3C40F"/>
</linearGradient>
<polygon id="triangle36_46_" fill="url(#triangle36_114_)" points="896,880 992,989 983,793 "/>
<linearGradient id="triangle36_115_" gradientUnits="userSpaceOnUse" x1="103.9247" y1="807.6289" x2="104.9247" y2="806.6289" gradientTransform="matrix(221 0 0 -158 -22213.0547 128016.5391)">
	<stop  offset="0" style="stop-color:#9AAC23"/>
	<stop  offset="1" style="stop-color:#A9BA17"/>
</linearGradient>
<polygon id="triangle36_47_" fill="url(#triangle36_115_)" points="777,532 878,395 998,553 "/>
<linearGradient id="triangle36_116_" gradientUnits="userSpaceOnUse" x1="104.0921" y1="808.3998" x2="105.0921" y2="807.3998" gradientTransform="matrix(221 0 0 -106 -22213.0547 86215.5234)">
	<stop  offset="0" style="stop-color:#9AAC23"/>
	<stop  offset="1" style="stop-color:#A9BA17"/>
</linearGradient>
<polygon id="triangle36_48_" fill="url(#triangle36_116_)" points="777,532 878,638 998,553 "/>
<linearGradient id="triangle36_117_" gradientUnits="userSpaceOnUse" x1="103.7911" y1="807.4719" x2="104.7911" y2="806.4719" gradientTransform="matrix(120 0 0 -240 -11557.5234 194307.5625)">
	<stop  offset="0" style="stop-color:#A8BA17"/>
	<stop  offset="1" style="stop-color:#B2C30F"/>
</linearGradient>
<polygon id="triangle36_49_" fill="url(#triangle36_117_)" points="878,638 983,793 998,553 "/>
<linearGradient id="triangle36_118_" gradientUnits="userSpaceOnUse" x1="97.6459" y1="807.0585" x2="98.6459" y2="806.0585" gradientTransform="matrix(15 0 0 -436 -480 352381.625)">
	<stop  offset="0" style="stop-color:#B4C50E"/>
	<stop  offset="1" style="stop-color:#B5C60D"/>
</linearGradient>
<polygon id="triangle36_50_" fill="url(#triangle36_118_)" points="983,793 992,989 998,553 "/>
<linearGradient id="triangle36_119_" gradientUnits="userSpaceOnUse" x1="103.4096" y1="807.2869" x2="104.4096" y2="806.2869" gradientTransform="matrix(118 0 0 -196 -11348.5234 158467.5469)">
	<stop  offset="0" style="stop-color:#A6B71A"/>
	<stop  offset="1" style="stop-color:#ACBD15"/>
</linearGradient>
<polygon id="triangle36_51_" fill="url(#triangle36_119_)" points="878,395 891,199 996,360 "/>
<linearGradient id="triangle36_120_" gradientUnits="userSpaceOnUse" x1="103.8304" y1="807.7079" x2="104.8304" y2="806.7079" gradientTransform="matrix(120 0 0 -193 -11557.5234 156209.0469)">
	<stop  offset="0" style="stop-color:#A9BA17"/>
	<stop  offset="1" style="stop-color:#B3C40E"/>
</linearGradient>
<polygon id="triangle36_52_" fill="url(#triangle36_120_)" points="878,395 998,553 996,360 "/>
<linearGradient id="triangle36_121_" gradientUnits="userSpaceOnUse" x1="103.7808" y1="807.869" x2="104.7808" y2="806.869" gradientTransform="matrix(170 0 0 -132 -16833.5391 106719.5391)">
	<stop  offset="0" style="stop-color:#A0B11E"/>
	<stop  offset="1" style="stop-color:#ABBC16"/>
</linearGradient>
<polygon id="triangle36_53_" fill="url(#triangle36_121_)" points="827,67 891,199 997,172 "/>
<linearGradient id="triangle36_122_" gradientUnits="userSpaceOnUse" x1="103.7289" y1="807.7485" x2="104.7289" y2="806.7485" gradientTransform="matrix(106 0 0 -188 -10081.5225 151988.5469)">
	<stop  offset="0" style="stop-color:#AABB17"/>
	<stop  offset="1" style="stop-color:#B3C40E"/>
</linearGradient>
<polygon id="triangle36_54_" fill="url(#triangle36_122_)" points="891,199 996,360 997,172 "/>
<linearGradient id="triangle36_123_" gradientUnits="userSpaceOnUse" x1="52.252" y1="807.0123" x2="53.2521" y2="806.0122" gradientTransform="matrix(2 0 0 -381 891.5 307643.1875)">
	<stop  offset="0" style="stop-color:#B5C60C"/>
	<stop  offset="1" style="stop-color:#B5C60C"/>
</linearGradient>
<polygon id="triangle36_55_" fill="url(#triangle36_123_)" points="996,360 998,553 997,172 "/>
<linearGradient id="triangle36_124_" gradientUnits="userSpaceOnUse" x1="104.0519" y1="807.8972" x2="105.0519" y2="806.8972" gradientTransform="matrix(170 0 0 -158 -16833.5391 127635.5391)">
	<stop  offset="0" style="stop-color:#A3B41C"/>
	<stop  offset="1" style="stop-color:#B2C30F"/>
</linearGradient>
<polygon id="triangle36_56_" fill="url(#triangle36_124_)" points="827,67 997,172 997,14 "/>
<linearGradient id="triangle36_125_" gradientUnits="userSpaceOnUse" x1="104.2944" y1="808.8287" x2="105.2944" y2="807.8287" gradientTransform="matrix(280 0 0 -90 -28699.5605 72785.5234)">
	<stop  offset="0" style="stop-color:#7B8758"/>
	<stop  offset="1" style="stop-color:#829337"/>
</linearGradient>
<polygon id="triangle36_57_" fill="url(#triangle36_125_)" points="456,6 659,96 736,11 "/>
<linearGradient id="triangle36_126_" gradientUnits="userSpaceOnUse" x1="103.7428" y1="808.653" x2="104.7428" y2="807.653" gradientTransform="matrix(168 0 0 -85 -16792.5391 68758.0234)">
	<stop  offset="0" style="stop-color:#879834"/>
	<stop  offset="1" style="stop-color:#91A22B"/>
</linearGradient>
<polygon id="triangle36_58_" fill="url(#triangle36_126_)" points="659,96 827,67 736,11 "/>
<linearGradient id="triangle36_127_" gradientUnits="userSpaceOnUse" x1="104.1736" y1="810.0473" x2="105.1736" y2="809.0473" gradientTransform="matrix(261 0 0 -56 -26434.0605 45369.5156)">
	<stop  offset="0" style="stop-color:#9DAD22"/>
	<stop  offset="1" style="stop-color:#A0B11E"/>
</linearGradient>
<polygon id="triangle36_59_" fill="url(#triangle36_127_)" points="827,67 997,14 736,11 "/>
<linearGradient id="triangle36_128_" gradientUnits="userSpaceOnUse" x1="103.6116" y1="807.4306" x2="104.6116" y2="806.4306" gradientTransform="matrix(128 0 0 -194 -13053.5244 157105.5469)">
	<stop  offset="0" style="stop-color:#465765"/>
	<stop  offset="1" style="stop-color:#48595E"/>
</linearGradient>
<polygon id="triangle36_60_" fill="url(#triangle36_128_)" points="218,644 234,450 346,506 "/>
<linearGradient id="triangle36_129_" gradientUnits="userSpaceOnUse" x1="103.9828" y1="807.7974" x2="104.9828" y2="806.7975" gradientTransform="matrix(258 0 0 -138 -26638.5586 111997.5391)">
	<stop  offset="0" style="stop-color:#49595E"/>
	<stop  offset="1" style="stop-color:#576754"/>
</linearGradient>
<polygon id="triangle36_61_" fill="url(#triangle36_129_)" points="218,644 476,568 346,506 "/>
<linearGradient id="triangle36_130_" gradientUnits="userSpaceOnUse" x1="103.9878" y1="807.8115" x2="104.9878" y2="806.8115" gradientTransform="matrix(174 0 0 -159 -17844.5391 128775.0391)">
	<stop  offset="0" style="stop-color:#48595E"/>
	<stop  offset="1" style="stop-color:#526256"/>
</linearGradient>
<polygon id="triangle36_62_" fill="url(#triangle36_130_)" points="234,450 408,347 346,506 "/>
<linearGradient id="triangle36_131_" gradientUnits="userSpaceOnUse" x1="103.6358" y1="807.3196" x2="104.6358" y2="806.3196" gradientTransform="matrix(130 0 0 -221 -13134.5244 178778.0625)">
	<stop  offset="0" style="stop-color:#5A6A53"/>
	<stop  offset="1" style="stop-color:#5A6A52"/>
</linearGradient>
<polygon id="triangle36_63_" fill="url(#triangle36_131_)" points="408,347 476,568 346,506 "/>
<linearGradient id="triangle36_132_" gradientUnits="userSpaceOnUse" x1="104.0307" y1="807.7253" x2="105.0307" y2="806.7253" gradientTransform="matrix(152 0 0 -193 -15618.5371 156650.0469)">
	<stop  offset="0" style="stop-color:#44556B"/>
	<stop  offset="1" style="stop-color:#4A5A5C"/>
</linearGradient>
<polygon id="triangle36_64_" fill="url(#triangle36_132_)" points="161,826 313,801 308,994 "/>
<linearGradient id="triangle36_133_" gradientUnits="userSpaceOnUse" x1="104.0081" y1="807.5382" x2="105.0081" y2="806.5382" gradientTransform="matrix(280 0 0 -168 -29127.5605 136512.5469)">
	<stop  offset="0" style="stop-color:#3A4C7F"/>
	<stop  offset="1" style="stop-color:#44556A"/>
</linearGradient>
<polygon id="triangle36_65_" fill="url(#triangle36_133_)" points="28,986 161,826 308,994 "/>
<linearGradient id="triangle36_134_" gradientUnits="userSpaceOnUse" x1="103.8255" y1="807.3545" x2="104.8255" y2="806.3546" gradientTransform="matrix(200 0 0 -193 -20487.543 156650.0469)">
	<stop  offset="0" style="stop-color:#506058"/>
	<stop  offset="1" style="stop-color:#586854"/>
</linearGradient>
<polygon id="triangle36_66_" fill="url(#triangle36_134_)" points="313,801 508,919 308,994 "/>
<linearGradient id="triangle36_135_" gradientUnits="userSpaceOnUse" x1="104.0307" y1="809.0449" x2="105.0307" y2="808.045" gradientTransform="matrix(248 0 0 -75 -25503.5586 61601.0195)">
	<stop  offset="0" style="stop-color:#65764C"/>
	<stop  offset="1" style="stop-color:#5E6F50"/>
</linearGradient>
<polygon id="triangle36_67_" fill="url(#triangle36_135_)" points="508,919 556,993 308,994 "/>
</svg>
