<svg id="Layer_1" data-name="Layer 1" xmlns="http://www.w3.org/2000/svg" xmlns:xlink="http://www.w3.org/1999/xlink" viewBox="0 0 993 997"><defs><style>.cls-1{fill:url(#linear-gradient);}.cls-2{fill:url(#linear-gradient-2);}.cls-3{fill:url(#linear-gradient-3);}.cls-4{fill:url(#linear-gradient-4);}.cls-5{fill:url(#linear-gradient-5);}.cls-6{fill:url(#linear-gradient-6);}.cls-7{fill:url(#linear-gradient-7);}.cls-8{fill:url(#linear-gradient-8);}.cls-9{fill:url(#linear-gradient-9);}.cls-10{fill:url(#linear-gradient-10);}.cls-11{fill:url(#linear-gradient-11);}.cls-12{fill:url(#linear-gradient-12);}.cls-13{fill:url(#linear-gradient-13);}.cls-14{fill:url(#linear-gradient-14);}.cls-15{fill:url(#linear-gradient-15);}.cls-16{fill:url(#linear-gradient-16);}.cls-17{fill:url(#linear-gradient-17);}.cls-18{fill:url(#linear-gradient-18);}.cls-19{fill:url(#linear-gradient-19);}.cls-20{fill:url(#linear-gradient-20);}.cls-21{fill:url(#linear-gradient-21);}.cls-22{fill:url(#linear-gradient-22);}.cls-23{fill:url(#linear-gradient-23);}.cls-24{fill:url(#linear-gradient-24);}.cls-25{fill:url(#linear-gradient-25);}.cls-26{fill:url(#linear-gradient-26);}.cls-27{fill:url(#linear-gradient-27);}.cls-28{fill:url(#linear-gradient-28);}.cls-29{fill:url(#linear-gradient-29);}.cls-30{fill:url(#linear-gradient-30);}.cls-31{fill:url(#linear-gradient-31);}.cls-32{fill:url(#linear-gradient-32);}.cls-33{fill:url(#linear-gradient-33);}.cls-34{fill:url(#linear-gradient-34);}.cls-35{fill:url(#linear-gradient-35);}.cls-36{fill:url(#linear-gradient-36);}.cls-37{fill:url(#linear-gradient-37);}.cls-38{fill:url(#linear-gradient-38);}.cls-39{fill:url(#linear-gradient-39);}.cls-40{fill:url(#linear-gradient-40);}.cls-41{fill:url(#linear-gradient-41);}.cls-42{fill:url(#linear-gradient-42);}.cls-43{fill:url(#linear-gradient-43);}.cls-44{fill:url(#linear-gradient-44);}.cls-45{fill:url(#linear-gradient-45);}.cls-46{fill:url(#linear-gradient-46);}.cls-47{fill:url(#linear-gradient-47);}.cls-48{fill:url(#linear-gradient-48);}.cls-49{fill:url(#linear-gradient-49);}.cls-50{fill:url(#linear-gradient-50);}.cls-51{fill:url(#linear-gradient-51);}.cls-52{fill:url(#linear-gradient-52);}.cls-53{fill:url(#linear-gradient-53);}.cls-54{fill:url(#linear-gradient-54);}.cls-55{fill:url(#linear-gradient-55);}.cls-56{fill:url(#linear-gradient-56);}.cls-57{fill:url(#linear-gradient-57);}.cls-58{fill:url(#linear-gradient-58);}.cls-59{fill:url(#linear-gradient-59);}.cls-60{fill:url(#linear-gradient-60);}.cls-61{fill:url(#linear-gradient-61);}.cls-62{fill:url(#linear-gradient-62);}.cls-63{fill:url(#linear-gradient-63);}.cls-64{fill:url(#linear-gradient-64);}.cls-65{fill:url(#linear-gradient-65);}.cls-66{fill:url(#linear-gradient-66);}.cls-67{fill:url(#linear-gradient-67);}.cls-68{fill:url(#linear-gradient-68);}.cls-69{fill:url(#linear-gradient-69);}.cls-70{fill:url(#linear-gradient-70);}.cls-71{fill:url(#linear-gradient-71);}.cls-72{fill:url(#linear-gradient-72);}.cls-73{fill:url(#linear-gradient-73);}.cls-74{fill:url(#linear-gradient-74);}.cls-75{fill:url(#linear-gradient-75);}.cls-76{fill:url(#linear-gradient-76);}.cls-77{fill:url(#linear-gradient-77);}.cls-78{fill:url(#linear-gradient-78);}.cls-79{fill:url(#linear-gradient-79);}.cls-80{fill:url(#linear-gradient-80);}.cls-81{fill:url(#linear-gradient-81);}.cls-82{fill:url(#linear-gradient-82);}.cls-83{fill:url(#linear-gradient-83);}.cls-84{fill:url(#linear-gradient-84);}.cls-85{fill:url(#linear-gradient-85);}.cls-86{fill:url(#linear-gradient-86);}.cls-87{fill:url(#linear-gradient-87);}.cls-88{fill:url(#linear-gradient-88);}.cls-89{fill:url(#linear-gradient-89);}.cls-90{fill:url(#linear-gradient-90);}.cls-91{fill:url(#linear-gradient-91);}.cls-92{fill:url(#linear-gradient-92);}.cls-93{fill:url(#linear-gradient-93);}</style><linearGradient id="linear-gradient" x1="103.57" y1="807.51" x2="104.57" y2="806.51" gradientTransform="matrix(142, 0, 0, -162, -14732.54, 130852.54)" gradientUnits="userSpaceOnUse"><stop offset="0" stop-color="#fbd469"/><stop offset="1" stop-color="#f8db6d"/></linearGradient><linearGradient id="linear-gradient-2" x1="104.12" y1="808.19" x2="105.12" y2="807.19" gradientTransform="matrix(197, 0, 0, -126, -20479.04, 101818.54)" gradientUnits="userSpaceOnUse"><stop offset="0" stop-color="#f6b36d"/><stop offset="1" stop-color="#f8d07e"/></linearGradient><linearGradient id="linear-gradient-3" x1="103.61" y1="808.15" x2="104.61" y2="807.15" gradientTransform="matrix(135, 0, 0, -110, -13859.04, 88930.52)" gradientUnits="userSpaceOnUse"><stop offset="0" stop-color="#f9f688"/><stop offset="1" stop-color="#f7a58c"/></linearGradient><linearGradient id="linear-gradient-4" x1="103.87" y1="808.17" x2="104.87" y2="807.17" gradientTransform="matrix(136, 0, 0, -127, -13963.53, 102694.04)" gradientUnits="userSpaceOnUse"><stop offset="0" stop-color="#f3bd73"/><stop offset="1" stop-color="#f36a6a"/></linearGradient><linearGradient id="linear-gradient-5" x1="103.68" y1="807.85" x2="104.68" y2="806.85" gradientTransform="matrix(136, 0, 0, -138, -13963.53, 111622.54)" gradientUnits="userSpaceOnUse"><stop offset="0" stop-color="#fbf686"/><stop offset="1" stop-color="#f8a970"/></linearGradient><linearGradient id="linear-gradient-6" x1="104.05" y1="808.04" x2="105.05" y2="807.04" gradientTransform="matrix(181, 0, 0, -138, -18808.04, 111622.54)" gradientUnits="userSpaceOnUse"><stop offset="0" stop-color="#fcf386"/><stop offset="1" stop-color="#f6be83"/></linearGradient><linearGradient id="linear-gradient-7" x1="103.71" y1="807.93" x2="104.71" y2="806.93" gradientTransform="matrix(182, 0, 0, -118, -18913.54, 95528.54)" gradientUnits="userSpaceOnUse"><stop offset="0" stop-color="#fbd46e"/><stop offset="1" stop-color="#f5a972"/></linearGradient><linearGradient id="linear-gradient-8" x1="104.01" y1="808.21" x2="105.01" y2="807.21" gradientTransform="matrix(182, 0, 0, -120, -18913.54, 97243.54)" gradientUnits="userSpaceOnUse"><stop offset="0" stop-color="#f7d661"/><stop offset="1" stop-color="#f49258"/></linearGradient><linearGradient id="linear-gradient-9" x1="103.66" y1="807.91" x2="104.66" y2="806.91" gradientTransform="matrix(119, 0, 0, -142, -12267.02, 114986.54)" gradientUnits="userSpaceOnUse"><stop offset="0" stop-color="#f5a457"/><stop offset="1" stop-color="#f48863"/></linearGradient><linearGradient id="linear-gradient-10" x1="103.66" y1="807.7" x2="104.66" y2="806.7" gradientTransform="matrix(155, 0, 0, -142, -15931.04, 114986.54)" gradientUnits="userSpaceOnUse"><stop offset="0" stop-color="#f99f59"/><stop offset="1" stop-color="#f2726e"/></linearGradient><linearGradient id="linear-gradient-11" x1="103.8" y1="807.76" x2="104.8" y2="806.76" gradientTransform="matrix(134, 0, 0, -164, -13715.54, 132661.54)" gradientUnits="userSpaceOnUse"><stop offset="0" stop-color="#f48e61"/><stop offset="1" stop-color="#f7af54"/></linearGradient><linearGradient id="linear-gradient-12" x1="103.38" y1="807.66" x2="104.38" y2="806.66" gradientTransform="matrix(96, 0, 0, -164, -9647.52, 132661.54)" gradientUnits="userSpaceOnUse"><stop offset="0" stop-color="#f69c5b"/><stop offset="1" stop-color="#f59b5d"/></linearGradient><linearGradient id="linear-gradient-13" x1="103.73" y1="807.94" x2="104.73" y2="806.94" gradientTransform="matrix(153, 0, 0, -127, -15605.04, 102694.04)" gradientUnits="userSpaceOnUse"><stop offset="0" stop-color="#f47c8c"/><stop offset="1" stop-color="#fae273"/></linearGradient><linearGradient id="linear-gradient-14" x1="103.94" y1="807.83" x2="104.94" y2="806.83" gradientTransform="matrix(152, 0, 0, -162, -15499.54, 130968.54)" gradientUnits="userSpaceOnUse"><stop offset="0" stop-color="#f9c04a"/><stop offset="1" stop-color="#f9d95b"/></linearGradient><linearGradient id="linear-gradient-15" x1="103.94" y1="808.45" x2="104.94" y2="807.45" gradientTransform="matrix(156, 0, 0, -106, -15918.54, 85698.52)" gradientUnits="userSpaceOnUse"><stop offset="0" stop-color="#ec1589"/><stop offset="1" stop-color="#ef6f84"/></linearGradient><linearGradient id="linear-gradient-16" x1="103.59" y1="807.87" x2="104.59" y2="806.87" gradientTransform="matrix(150, 0, 0, -123, -15138.54, 99409.03)" gradientUnits="userSpaceOnUse"><stop offset="0" stop-color="#fad257"/><stop offset="1" stop-color="#d3556b"/></linearGradient><linearGradient id="linear-gradient-17" x1="104.02" y1="808.13" x2="105.02" y2="807.13" gradientTransform="matrix(149, 0, 0, -138, -15031.04, 111491.54)" gradientUnits="userSpaceOnUse"><stop offset="0" stop-color="#c52588"/><stop offset="1" stop-color="#68165d"/></linearGradient><linearGradient id="linear-gradient-18" x1="103.81" y1="807.52" x2="104.81" y2="806.52" gradientTransform="matrix(204, 0, 0, -162, -20837.54, 130968.54)" gradientUnits="userSpaceOnUse"><stop offset="0" stop-color="#f5686b"/><stop offset="1" stop-color="#d45f89"/></linearGradient><linearGradient id="linear-gradient-19" x1="104.02" y1="808.02" x2="105.02" y2="807.02" gradientTransform="matrix(150, 0, 0, -150, -15138.54, 121290.54)" gradientUnits="userSpaceOnUse"><stop offset="0" stop-color="#f37b87"/><stop offset="1" stop-color="#b2188c"/></linearGradient><linearGradient id="linear-gradient-20" x1="103.9" y1="808.26" x2="104.9" y2="807.26" gradientTransform="matrix(222, 0, 0, -103, -22777.55, 83547.02)" gradientUnits="userSpaceOnUse"><stop offset="0" stop-color="#ee457e"/><stop offset="1" stop-color="#eb547b"/></linearGradient><linearGradient id="linear-gradient-21" x1="104.19" y1="808.39" x2="105.19" y2="807.39" gradientTransform="matrix(204, 0, 0, -115, -20837.54, 93213.02)" gradientUnits="userSpaceOnUse"><stop offset="0" stop-color="#fbe5a2"/><stop offset="1" stop-color="#ce6eb3"/></linearGradient><linearGradient id="linear-gradient-22" x1="104.11" y1="807.98" x2="105.11" y2="806.98" gradientTransform="matrix(222, 0, 0, -139, -22777.55, 112663.04)" gradientUnits="userSpaceOnUse"><stop offset="0" stop-color="#ecb37a"/><stop offset="1" stop-color="#e3a591"/></linearGradient><linearGradient id="linear-gradient-23" x1="104.01" y1="807.63" x2="105.01" y2="806.63" gradientTransform="matrix(155, 0, 0, -207, -15931.04, 167505.06)" gradientUnits="userSpaceOnUse"><stop offset="0" stop-color="#f55f6e"/><stop offset="1" stop-color="#dd4165"/></linearGradient><linearGradient id="linear-gradient-24" x1="103.63" y1="807.27" x2="104.63" y2="806.27" gradientTransform="matrix(148, 0, 0, -207, -15083.54, 167505.06)" gradientUnits="userSpaceOnUse"><stop offset="0" stop-color="#ec8770"/><stop offset="1" stop-color="#d68e6c"/></linearGradient><linearGradient id="linear-gradient-25" x1="103.59" y1="807.43" x2="104.59" y2="806.43" gradientTransform="matrix(147, 0, 0, -172, -15126.04, 139323.54)" gradientUnits="userSpaceOnUse"><stop offset="0" stop-color="#fcdca4"/><stop offset="1" stop-color="#cd6e82"/></linearGradient><linearGradient id="linear-gradient-26" x1="103.58" y1="807.65" x2="104.58" y2="806.65" gradientTransform="matrix(98, 0, 0, -194, -10072.52, 157044.54)" gradientUnits="userSpaceOnUse"><stop offset="0" stop-color="#f47866"/><stop offset="1" stop-color="#e1575e"/></linearGradient><linearGradient id="linear-gradient-27" x1="102.78" y1="807.07" x2="103.78" y2="806.07" gradientTransform="matrix(64, 0, 0, -298, -6583.52, 240816.67)" gradientUnits="userSpaceOnUse"><stop offset="0" stop-color="#fbf784"/><stop offset="1" stop-color="#f58f76"/></linearGradient><linearGradient id="linear-gradient-28" x1="103.58" y1="807.37" x2="104.58" y2="806.37" gradientTransform="matrix(131, 0, 0, -194, -13585.04, 157044.54)" gradientUnits="userSpaceOnUse"><stop offset="0" stop-color="#f9d8a5"/><stop offset="1" stop-color="#de599f"/></linearGradient><linearGradient id="linear-gradient-29" x1="103.74" y1="808.16" x2="104.74" y2="807.16" gradientTransform="matrix(131, 0, 0, -120, -13585.04, 97557.54)" gradientUnits="userSpaceOnUse"><stop offset="0" stop-color="#ba0d5e"/><stop offset="1" stop-color="#bc2351"/></linearGradient><linearGradient id="linear-gradient-30" x1="103.86" y1="808.11" x2="104.86" y2="807.11" gradientTransform="matrix(147, 0, 0, -126, -15126.04, 102385.54)" gradientUnits="userSpaceOnUse"><stop offset="0" stop-color="#d9812a"/><stop offset="1" stop-color="#c46c23"/></linearGradient><linearGradient id="linear-gradient-31" x1="103.75" y1="808.05" x2="104.75" y2="807.05" gradientTransform="matrix(152, 0, 0, -120, -15759.54, 97557.54)" gradientUnits="userSpaceOnUse"><stop offset="0" stop-color="#f59a3c"/><stop offset="1" stop-color="#c25e2a"/></linearGradient><linearGradient id="linear-gradient-32" x1="103.95" y1="807.9" x2="104.95" y2="806.9" gradientTransform="matrix(259, 0, 0, -126, -26789.06, 102385.54)" gradientUnits="userSpaceOnUse"><stop offset="0" stop-color="#bf1f2e"/><stop offset="1" stop-color="#dd7223"/></linearGradient><linearGradient id="linear-gradient-33" x1="103.94" y1="807.99" x2="104.94" y2="806.99" gradientTransform="matrix(153, 0, 0, -142, -15606.04, 115221.54)" gradientUnits="userSpaceOnUse"><stop offset="0" stop-color="#a62c33"/><stop offset="1" stop-color="#d3a63f"/></linearGradient><linearGradient id="linear-gradient-34" x1="103.72" y1="807.72" x2="104.72" y2="806.72" gradientTransform="matrix(164, 0, 0, -142, -16607.54, 115221.54)" gradientUnits="userSpaceOnUse"><stop offset="0" stop-color="#bd8663"/><stop offset="1" stop-color="#939530"/></linearGradient><linearGradient id="linear-gradient-35" x1="103.89" y1="807.47" x2="104.89" y2="806.47" gradientTransform="matrix(164, 0, 0, -206, -16607.54, 166719.56)" gradientUnits="userSpaceOnUse"><stop offset="0" stop-color="#d48c94"/><stop offset="1" stop-color="#975681"/></linearGradient><linearGradient id="linear-gradient-36" x1="103.81" y1="807.37" x2="104.81" y2="806.37" gradientTransform="matrix(173, 0, 0, -204, -17435.04, 164991.55)" gradientUnits="userSpaceOnUse"><stop offset="0" stop-color="#77154f"/><stop offset="1" stop-color="#870d62"/></linearGradient><linearGradient id="linear-gradient-37" x1="103.86" y1="807.41" x2="104.86" y2="806.41" gradientTransform="matrix(173, 0, 0, -206, -17435.04, 166719.56)" gradientUnits="userSpaceOnUse"><stop offset="0" stop-color="#e01991"/><stop offset="1" stop-color="#a9397e"/></linearGradient><linearGradient id="linear-gradient-38" x1="104.1" y1="807.48" x2="105.1" y2="806.48" gradientTransform="matrix(246, 0, 0, -204, -25022.56, 164991.55)" gradientUnits="userSpaceOnUse"><stop offset="0" stop-color="#c1148b"/><stop offset="1" stop-color="#ee028d"/></linearGradient><linearGradient id="linear-gradient-39" x1="103.97" y1="807.82" x2="104.97" y2="806.82" gradientTransform="matrix(263, 0, 0, -133, -26799.06, 107597.04)" gradientUnits="userSpaceOnUse"><stop offset="0" stop-color="#4a5cb2"/><stop offset="1" stop-color="#323e7a"/></linearGradient><linearGradient id="linear-gradient-40" x1="104.25" y1="807.95" x2="105.25" y2="806.95" gradientTransform="matrix(263, 0, 0, -150, -26799.06, 121380.54)" gradientUnits="userSpaceOnUse"><stop offset="0" stop-color="#a11f8a"/><stop offset="1" stop-color="#8a095e"/></linearGradient><linearGradient id="linear-gradient-41" x1="104.22" y1="807.95" x2="105.22" y2="806.95" gradientTransform="matrix(261, 0, 0, -146, -26588.06, 118008.54)" gradientUnits="userSpaceOnUse"><stop offset="0" stop-color="#ac1989"/><stop offset="1" stop-color="#57063c"/></linearGradient><linearGradient id="linear-gradient-42" x1="103.91" y1="807.9" x2="104.91" y2="806.9" gradientTransform="matrix(180, 0, 0, -138, -18123.54, 111491.54)" gradientUnits="userSpaceOnUse"><stop offset="0" stop-color="#96258e"/><stop offset="1" stop-color="#323e78"/></linearGradient><linearGradient id="linear-gradient-43" x1="104.02" y1="807.91" x2="105.02" y2="806.91" gradientTransform="matrix(253, 0, 0, -131, -25752.06, 105853.04)" gradientUnits="userSpaceOnUse"><stop offset="0" stop-color="#c1138d"/><stop offset="1" stop-color="#643285"/></linearGradient><linearGradient id="linear-gradient-44" x1="104.32" y1="834.36" x2="105.32" y2="833.36" gradientTransform="matrix(402, 0, 0, -7, -41320.69, 5840)" gradientUnits="userSpaceOnUse"><stop offset="0" stop-color="#025478"/><stop offset="1" stop-color="#029adf"/></linearGradient><linearGradient id="linear-gradient-45" x1="104.12" y1="809.62" x2="105.12" y2="808.62" gradientTransform="matrix(224, 0, 0, -64, -22541.55, 51811.52)" gradientUnits="userSpaceOnUse"><stop offset="0" stop-color="#495db4"/><stop offset="1" stop-color="#483e84"/></linearGradient><linearGradient id="linear-gradient-46" x1="103.73" y1="807.73" x2="104.73" y2="806.73" gradientTransform="matrix(157, 0, 0, -146, -15467.04, 118008.54)" gradientUnits="userSpaceOnUse"><stop offset="0" stop-color="#710f58"/><stop offset="1" stop-color="#373b78"/></linearGradient><linearGradient id="linear-gradient-47" x1="103.95" y1="808.09" x2="104.95" y2="807.09" gradientTransform="matrix(157, 0, 0, -132, -15467.04, 106653.54)" gradientUnits="userSpaceOnUse"><stop offset="0" stop-color="#280318"/><stop offset="1" stop-color="#086392"/></linearGradient><linearGradient id="linear-gradient-48" x1="103.74" y1="807.67" x2="104.74" y2="806.67" gradientTransform="matrix(167, 0, 0, -150, -16521.04, 121380.54)" gradientUnits="userSpaceOnUse"><stop offset="0" stop-color="#784ab2"/><stop offset="1" stop-color="#2e437e"/></linearGradient><linearGradient id="linear-gradient-49" x1="103.93" y1="807.86" x2="104.93" y2="806.86" gradientTransform="matrix(150, 0, 0, -157, -14727.54, 126948.04)" gradientUnits="userSpaceOnUse"><stop offset="0" stop-color="#020106"/><stop offset="1" stop-color="#2f437d"/></linearGradient><linearGradient id="linear-gradient-50" x1="103.91" y1="808.08" x2="104.91" y2="807.08" gradientTransform="matrix(224, 0, 0, -114, -22591.55, 92496.52)" gradientUnits="userSpaceOnUse"><stop offset="0" stop-color="#78034c"/><stop offset="1" stop-color="#9f025d"/></linearGradient><linearGradient id="linear-gradient-51" x1="104.02" y1="807.78" x2="105.02" y2="806.78" gradientTransform="matrix(167, 0, 0, -172, -16521.04, 139202.54)" gradientUnits="userSpaceOnUse"><stop offset="0" stop-color="#ed008b"/><stop offset="1" stop-color="#ca128f"/></linearGradient><linearGradient id="linear-gradient-52" x1="104.24" y1="807.96" x2="105.24" y2="806.96" gradientTransform="matrix(224, 0, 0, -155, -22591.55, 125664.04)" gradientUnits="userSpaceOnUse"><stop offset="0" stop-color="#f57fc5"/><stop offset="1" stop-color="#f5a781"/></linearGradient><linearGradient id="linear-gradient-53" x1="103.94" y1="807.54" x2="104.94" y2="806.54" gradientTransform="matrix(181, 0, 0, -190, -18220.04, 153904.54)" gradientUnits="userSpaceOnUse"><stop offset="0" stop-color="#14a456"/><stop offset="1" stop-color="#506e65"/></linearGradient><linearGradient id="linear-gradient-54" x1="103.82" y1="807.42" x2="104.82" y2="806.42" gradientTransform="matrix(183, 0, 0, -190, -18307.04, 153904.54)" gradientUnits="userSpaceOnUse"><stop offset="0" stop-color="#785372"/><stop offset="1" stop-color="#54bf35"/></linearGradient><linearGradient id="linear-gradient-55" x1="104.11" y1="807.83" x2="105.11" y2="806.83" gradientTransform="matrix(211, 0, 0, -159, -21514.04, 129020.04)" gradientUnits="userSpaceOnUse"><stop offset="0" stop-color="#93cc33"/><stop offset="1" stop-color="#70c187"/></linearGradient><linearGradient id="linear-gradient-56" x1="103.88" y1="807.68" x2="104.88" y2="806.68" gradientTransform="matrix(181, 0, 0, -159, -18220.04, 129020.04)" gradientUnits="userSpaceOnUse"><stop offset="0" stop-color="#189d5c"/><stop offset="1" stop-color="#57bc7f"/></linearGradient><linearGradient id="linear-gradient-57" x1="103.93" y1="807.52" x2="104.93" y2="806.52" gradientTransform="matrix(211, 0, 0, -178, -21514.04, 144397.54)" gradientUnits="userSpaceOnUse"><stop offset="0" stop-color="#e6ed68"/><stop offset="1" stop-color="#eef5e0"/></linearGradient><linearGradient id="linear-gradient-58" x1="104.25" y1="807.57" x2="105.25" y2="806.57" gradientTransform="matrix(259, 0, 0, -211, -26789.06, 171012.06)" gradientUnits="userSpaceOnUse"><stop offset="0" stop-color="#c8801a"/><stop offset="1" stop-color="#faef03"/></linearGradient><linearGradient id="linear-gradient-59" x1="103.76" y1="807.33" x2="104.76" y2="806.33" gradientTransform="matrix(162, 0, 0, -211, -16494.54, 171012.06)" gradientUnits="userSpaceOnUse"><stop offset="0" stop-color="#f67947"/><stop offset="1" stop-color="#f7a584"/></linearGradient><linearGradient id="linear-gradient-60" x1="103.65" y1="807.37" x2="104.65" y2="806.37" gradientTransform="matrix(158, 0, 0, -184, -16234.54, 149288.54)" gradientUnits="userSpaceOnUse"><stop offset="0" stop-color="#ca811b"/><stop offset="1" stop-color="#daa714"/></linearGradient><linearGradient id="linear-gradient-61" x1="103.65" y1="807.5" x2="104.65" y2="806.5" gradientTransform="matrix(128, 0, 0, -189, -13212.52, 153321.04)" gradientUnits="userSpaceOnUse"><stop offset="0" stop-color="#97192c"/><stop offset="1" stop-color="#98192d"/></linearGradient><linearGradient id="linear-gradient-62" x1="103.88" y1="807.59" x2="104.88" y2="806.59" gradientTransform="matrix(152, 0, 0, -189, -15759.54, 153321.04)" gradientUnits="userSpaceOnUse"><stop offset="0" stop-color="#f89a3b"/><stop offset="1" stop-color="#ba611e"/></linearGradient><linearGradient id="linear-gradient-63" x1="102.42" y1="807.33" x2="103.42" y2="806.33" gradientTransform="matrix(55, 0, 0, -194, -5639.02, 157358.54)" gradientUnits="userSpaceOnUse"><stop offset="0" stop-color="#ec2f50"/><stop offset="1" stop-color="#ce124b"/></linearGradient><linearGradient id="linear-gradient-64" x1="99.23" y1="807.07" x2="100.23" y2="806.07" gradientTransform="matrix(20, 0, 0, -314, -1985.5, 254018.67)" gradientUnits="userSpaceOnUse"><stop offset="0" stop-color="#f47a48"/><stop offset="1" stop-color="#f46655"/></linearGradient><linearGradient id="linear-gradient-65" x1="102.63" y1="808.4" x2="103.63" y2="807.4" gradientTransform="matrix(55, 0, 0, -104, -5639.02, 84957.52)" gradientUnits="userSpaceOnUse"><stop offset="0" stop-color="#f57845"/><stop offset="1" stop-color="#d6583d"/></linearGradient><linearGradient id="linear-gradient-66" x1="103.73" y1="808.11" x2="104.73" y2="807.11" gradientTransform="matrix(175, 0, 0, -109, -18172.04, 88990.02)" gradientUnits="userSpaceOnUse"><stop offset="0" stop-color="#f47845"/><stop offset="1" stop-color="#d55a41"/></linearGradient><linearGradient id="linear-gradient-67" x1="103.77" y1="807.9" x2="104.77" y2="806.9" gradientTransform="matrix(144, 0, 0, -139, -14757.54, 113155.04)" gradientUnits="userSpaceOnUse"><stop offset="0" stop-color="#c30e5c"/><stop offset="1" stop-color="#ef5361"/></linearGradient><linearGradient id="linear-gradient-68" x1="103.92" y1="808.45" x2="104.92" y2="807.45" gradientTransform="matrix(128, 0, 0, -114, -13212.52, 93017.52)" gradientUnits="userSpaceOnUse"><stop offset="0" stop-color="#c21a2a"/><stop offset="1" stop-color="#ce124e"/></linearGradient><linearGradient id="linear-gradient-69" x1="103.86" y1="807.85" x2="104.86" y2="806.85" gradientTransform="matrix(175, 0, 0, -140, -17997.04, 113961.54)" gradientUnits="userSpaceOnUse"><stop offset="0" stop-color="#ec4756"/><stop offset="1" stop-color="#d68718"/></linearGradient><linearGradient id="linear-gradient-70" x1="103.94" y1="807.64" x2="104.94" y2="806.64" gradientTransform="matrix(150, 0, 0, -192, -15078.54, 155793.54)" gradientUnits="userSpaceOnUse"><stop offset="0" stop-color="#fbf87f"/><stop offset="1" stop-color="#fcf548"/></linearGradient><linearGradient id="linear-gradient-71" x1="103.72" y1="807.37" x2="104.72" y2="806.37" gradientTransform="matrix(163, 0, 0, -192, -16358.04, 155793.54)" gradientUnits="userSpaceOnUse"><stop offset="0" stop-color="#fbf102"/><stop offset="1" stop-color="#a8dc96"/></linearGradient><linearGradient id="linear-gradient-72" x1="103.84" y1="807.54" x2="104.84" y2="806.54" gradientTransform="matrix(129, 0, 0, -220, -12734.02, 178289.56)" gradientUnits="userSpaceOnUse"><stop offset="0" stop-color="#f5f9d2"/><stop offset="1" stop-color="#4fc1ac"/></linearGradient><linearGradient id="linear-gradient-73" x1="103.56" y1="807.2" x2="104.56" y2="806.2" gradientTransform="matrix(138, 0, 0, -220, -13582.53, 178289.56)" gradientUnits="userSpaceOnUse"><stop offset="0" stop-color="#00a79e"/><stop offset="1" stop-color="#54be34"/></linearGradient><linearGradient id="linear-gradient-74" x1="103.85" y1="807.62" x2="104.85" y2="806.62" gradientTransform="matrix(124, 0, 0, -209, -12082.52, 169370.06)" gradientUnits="userSpaceOnUse"><stop offset="0" stop-color="#02a699"/><stop offset="1" stop-color="#a8da4f"/></linearGradient><linearGradient id="linear-gradient-75" x1="103.45" y1="807.26" x2="104.45" y2="806.26" gradientTransform="matrix(118, 0, 0, -209, -11354.52, 169370.06)" gradientUnits="userSpaceOnUse"><stop offset="0" stop-color="#fbf86c"/><stop offset="1" stop-color="#a9db63"/></linearGradient><linearGradient id="linear-gradient-76" x1="103.31" y1="807.5" x2="104.31" y2="806.5" gradientTransform="matrix(98, 0, 0, -173, -9241.52, 140181.04)" gradientUnits="userSpaceOnUse"><stop offset="0" stop-color="#7cd077"/><stop offset="1" stop-color="#a38a7b"/></linearGradient><linearGradient id="linear-gradient-77" x1="103.64" y1="808.11" x2="104.64" y2="807.11" gradientTransform="matrix(98, 0, 0, -139, -9241.52, 112915.04)" gradientUnits="userSpaceOnUse"><stop offset="0" stop-color="#d9ec0e"/><stop offset="1" stop-color="#93d323"/></linearGradient><linearGradient id="linear-gradient-78" x1="102.79" y1="807.19" x2="103.79" y2="806.19" gradientTransform="matrix(57, 0, 0, -345, -4916.02, 278727.18)" gradientUnits="userSpaceOnUse"><stop offset="0" stop-color="#bf148a"/><stop offset="1" stop-color="#b26e62"/></linearGradient><linearGradient id="linear-gradient-79" x1="103.73" y1="808.1" x2="104.73" y2="807.1" gradientTransform="matrix(118, 0, 0, -131, -11354.52, 106602.04)" gradientUnits="userSpaceOnUse"><stop offset="0" stop-color="#fbf66d"/><stop offset="1" stop-color="#54c27e"/></linearGradient><linearGradient id="linear-gradient-80" x1="103.9" y1="807.87" x2="104.9" y2="806.87" gradientTransform="matrix(138, 0, 0, -160, -13582.53, 130060.54)" gradientUnits="userSpaceOnUse"><stop offset="0" stop-color="#00a9eb"/><stop offset="1" stop-color="#54c067"/></linearGradient><linearGradient id="linear-gradient-81" x1="103.58" y1="807.62" x2="104.58" y2="806.62" gradientTransform="matrix(127, 0, 0, -160, -12309.02, 130060.54)" gradientUnits="userSpaceOnUse"><stop offset="0" stop-color="#7fcd76"/><stop offset="1" stop-color="#01a781"/></linearGradient><linearGradient id="linear-gradient-82" x1="103.68" y1="808.46" x2="104.68" y2="807.46" gradientTransform="matrix(127, 0, 0, -99, -12309.02, 80925.02)" gradientUnits="userSpaceOnUse"><stop offset="0" stop-color="#7fd2e5"/><stop offset="1" stop-color="#54c27a"/></linearGradient><linearGradient id="linear-gradient-83" x1="103.97" y1="808.46" x2="104.97" y2="807.46" gradientTransform="matrix(163, 0, 0, -105, -16358.04, 85762.02)" gradientUnits="userSpaceOnUse"><stop offset="0" stop-color="#fdf100"/><stop offset="1" stop-color="#64c099"/></linearGradient><linearGradient id="linear-gradient-84" x1="103.64" y1="808.15" x2="104.64" y2="807.15" gradientTransform="matrix(157, 0, 0, -105, -15601.04, 85762.02)" gradientUnits="userSpaceOnUse"><stop offset="0" stop-color="#7fcd75"/><stop offset="1" stop-color="#64c063"/></linearGradient><linearGradient id="linear-gradient-85" x1="103.59" y1="807.7" x2="104.59" y2="806.7" gradientTransform="matrix(145, 0, 0, -140, -14718.04, 113961.54)" gradientUnits="userSpaceOnUse"><stop offset="0" stop-color="#f48613"/><stop offset="1" stop-color="#b7192b"/></linearGradient><linearGradient id="linear-gradient-86" x1="104.06" y1="807.85" x2="105.06" y2="806.85" gradientTransform="matrix(162, 0, 0, -169, -16494.54, 137317.04)" gradientUnits="userSpaceOnUse"><stop offset="0" stop-color="#f57949"/><stop offset="1" stop-color="#d85b93"/></linearGradient><linearGradient id="linear-gradient-87" x1="104.19" y1="834.29" x2="105.19" y2="833.29" gradientTransform="matrix(340, 0, 0, -7, -35064.67, 6830)" gradientUnits="userSpaceOnUse"><stop offset="0" stop-color="#4f538b"/><stop offset="1" stop-color="#466ea8"/></linearGradient><linearGradient id="linear-gradient-88" x1="103.24" y1="807.48" x2="104.24" y2="806.48" gradientTransform="matrix(96, 0, 0, -169, -9452.52, 137317.04)" gradientUnits="userSpaceOnUse"><stop offset="0" stop-color="#fcfbe5"/><stop offset="1" stop-color="#ddab54"/></linearGradient><linearGradient id="linear-gradient-89" x1="103.89" y1="810.25" x2="104.89" y2="809.25" gradientTransform="matrix(226, 0, 0, -50, -23037.56, 41462.52)" gradientUnits="userSpaceOnUse"><stop offset="0" stop-color="#81ca2b"/><stop offset="1" stop-color="#467577"/></linearGradient><linearGradient id="linear-gradient-90" x1="103.71" y1="809.35" x2="104.71" y2="808.35" gradientTransform="matrix(107, 0, 0, -73, -10877.02, 59070.02)" gradientUnits="userSpaceOnUse"><stop offset="0" stop-color="#fbd96d"/><stop offset="1" stop-color="#f89076"/></linearGradient><linearGradient id="linear-gradient-91" x1="103.78" y1="809.12" x2="104.78" y2="808.12" gradientTransform="matrix(156, 0, 0, -73, -15918.54, 59070.02)" gradientUnits="userSpaceOnUse"><stop offset="0" stop-color="#f04076"/><stop offset="1" stop-color="#f38c78"/></linearGradient><linearGradient id="linear-gradient-92" x1="104.24" y1="819.58" x2="105.24" y2="818.58" gradientTransform="matrix(277, 0, 0, -15, -28535.06, 12292)" gradientUnits="userSpaceOnUse"><stop offset="0" stop-color="#f28065"/><stop offset="1" stop-color="#a99843"/></linearGradient><linearGradient id="linear-gradient-93" x1="104.32" y1="816.39" x2="105.32" y2="815.39" gradientTransform="matrix(304, 0, 0, -20, -31660.67, 16325.5)" gradientUnits="userSpaceOnUse"><stop offset="0" stop-color="#faed7e"/><stop offset="1" stop-color="#fdf788"/></linearGradient></defs><title>4</title><polygon id="triangle36" class="cls-1" points="2 167 3 5 144 131 2 167"/><polygon id="triangle36-2" data-name="triangle36" class="cls-2" points="3 5 144 131 200 21 3 5"/><polygon id="triangle36-3" data-name="triangle36" class="cls-3" points="144 131 200 21 279 74 144 131"/><polygon id="triangle36-4" data-name="triangle36" class="cls-4" points="144 131 279 74 280 201 144 131"/><polygon id="triangle36-5" data-name="triangle36" class="cls-5" points="144 131 280 201 183 269 144 131"/><polygon id="triangle36-6" data-name="triangle36" class="cls-6" points="2 167 144 131 183 269 2 167"/><polygon id="triangle36-7" data-name="triangle36" class="cls-7" points="2 167 183 269 1 285 2 167"/><polygon id="triangle36-8" data-name="triangle36" class="cls-8" points="1 285 183 269 64 389 1 285"/><polygon id="triangle36-9" data-name="triangle36" class="cls-9" points="64 389 183 269 162 411 64 389"/><polygon id="triangle36-10" data-name="triangle36" class="cls-10" points="162 411 183 269 317 365 162 411"/><polygon id="triangle36-11" data-name="triangle36" class="cls-11" points="183 269 280 201 317 365 183 269"/><polygon id="triangle36-12" data-name="triangle36" class="cls-12" points="280 201 317 365 376 283 280 201"/><polygon id="triangle36-13" data-name="triangle36" class="cls-13" points="279 74 280 201 432 121 279 74"/><polygon id="triangle36-14" data-name="triangle36" class="cls-14" points="280 201 376 283 432 121 280 201"/><polygon id="triangle36-15" data-name="triangle36" class="cls-15" points="279 74 432 121 435 15 279 74"/><polygon id="triangle36-16" data-name="triangle36" class="cls-16" points="432 121 435 15 582 138 432 121"/><polygon id="triangle36-17" data-name="triangle36" class="cls-17" points="435 15 584 0 582 138 435 15"/><polygon id="triangle36-18" data-name="triangle36" class="cls-18" points="376 283 432 121 580 271 376 283"/><polygon id="triangle36-19" data-name="triangle36" class="cls-19" points="432 121 582 138 580 271 432 121"/><polygon id="triangle36-20" data-name="triangle36" class="cls-20" points="317 365 376 283 539 386 317 365"/><polygon id="triangle36-21" data-name="triangle36" class="cls-21" points="376 283 580 271 539 386 376 283"/><polygon id="triangle36-22" data-name="triangle36" class="cls-22" points="317 365 539 386 426 504 317 365"/><polygon id="triangle36-23" data-name="triangle36" class="cls-23" points="162 411 317 365 278 572 162 411"/><polygon id="triangle36-24" data-name="triangle36" class="cls-24" points="317 365 426 504 278 572 317 365"/><polygon id="triangle36-25" data-name="triangle36" class="cls-25" points="162 411 278 572 131 583 162 411"/><polygon id="triangle36-26" data-name="triangle36" class="cls-26" points="64 389 162 411 131 583 64 389"/><polygon id="triangle36-27" data-name="triangle36" class="cls-27" points="1 285 64 389 0 583 1 285"/><polygon id="triangle36-28" data-name="triangle36" class="cls-28" points="64 389 131 583 0 583 64 389"/><polygon id="triangle36-29" data-name="triangle36" class="cls-29" points="0 583 131 583 20 703 0 583"/><polygon id="triangle36-30" data-name="triangle36" class="cls-30" points="131 583 278 572 172 698 131 583"/><polygon id="triangle36-31" data-name="triangle36" class="cls-31" points="20 703 131 583 172 698 20 703"/><polygon id="triangle36-32" data-name="triangle36" class="cls-32" points="172 698 278 572 431 646 172 698"/><polygon id="triangle36-33" data-name="triangle36" class="cls-33" points="278 572 426 504 431 646 278 572"/><polygon id="triangle36-34" data-name="triangle36" class="cls-34" points="426 504 431 646 590 592 426 504"/><polygon id="triangle36-35" data-name="triangle36" class="cls-35" points="426 504 539 386 590 592 426 504"/><polygon id="triangle36-36" data-name="triangle36" class="cls-36" points="539 386 580 271 712 475 539 386"/><polygon id="triangle36-37" data-name="triangle36" class="cls-37" points="539 386 590 592 712 475 539 386"/><polygon id="triangle36-38" data-name="triangle36" class="cls-38" points="580 271 712 475 826 361 580 271"/><polygon id="triangle36-39" data-name="triangle36" class="cls-39" points="580 271 582 138 843 211 580 271"/><polygon id="triangle36-40" data-name="triangle36" class="cls-40" points="580 271 826 361 843 211 580 271"/><polygon id="triangle36-41" data-name="triangle36" class="cls-41" points="582 138 843 211 835 65 582 138"/><polygon id="triangle36-42" data-name="triangle36" class="cls-42" points="582 138 584 0 762 7 582 138"/><polygon id="triangle36-43" data-name="triangle36" class="cls-43" points="582 138 835 65 762 7 582 138"/><polygon id="triangle36-44" data-name="triangle36" class="cls-44" points="584 0 762 7 986 1 584 0"/><polygon id="triangle36-45" data-name="triangle36" class="cls-45" points="762 7 835 65 986 1 762 7"/><polygon id="triangle36-46" data-name="triangle36" class="cls-46" points="835 65 843 211 992 133 835 65"/><polygon id="triangle36-47" data-name="triangle36" class="cls-47" points="835 65 986 1 992 133 835 65"/><polygon id="triangle36-48" data-name="triangle36" class="cls-48" points="826 361 843 211 993 290 826 361"/><polygon id="triangle36-49" data-name="triangle36" class="cls-49" points="843 211 992 133 993 290 843 211"/><polygon id="triangle36-50" data-name="triangle36" class="cls-50" points="712 475 826 361 936 462 712 475"/><polygon id="triangle36-51" data-name="triangle36" class="cls-51" points="826 361 993 290 936 462 826 361"/><polygon id="triangle36-52" data-name="triangle36" class="cls-52" points="712 475 936 462 895 617 712 475"/><polygon id="triangle36-53" data-name="triangle36" class="cls-53" points="590 592 712 475 771 665 590 592"/><polygon id="triangle36-54" data-name="triangle36" class="cls-54" points="712 475 895 617 771 665 712 475"/><polygon id="triangle36-55" data-name="triangle36" class="cls-55" points="431 646 590 592 642 751 431 646"/><polygon id="triangle36-56" data-name="triangle36" class="cls-56" points="590 592 771 665 642 751 590 592"/><polygon id="triangle36-57" data-name="triangle36" class="cls-57" points="431 646 642 751 492 824 431 646"/><polygon id="triangle36-58" data-name="triangle36" class="cls-58" points="172 698 431 646 330 857 172 698"/><polygon id="triangle36-59" data-name="triangle36" class="cls-59" points="431 646 492 824 330 857 431 646"/><polygon id="triangle36-60" data-name="triangle36" class="cls-60" points="172 698 330 857 187 882 172 698"/><polygon id="triangle36-61" data-name="triangle36" class="cls-61" points="172 698 187 882 59 887 172 698"/><polygon id="triangle36-62" data-name="triangle36" class="cls-62" points="20 703 172 698 59 887 20 703"/><polygon id="triangle36-63" data-name="triangle36" class="cls-63" points="20 703 59 887 4 897 20 703"/><polygon id="triangle36-64" data-name="triangle36" class="cls-64" points="0 583 20 703 4 897 0 583"/><polygon id="triangle36-65" data-name="triangle36" class="cls-65" points="4 897 59 887 11 991 4 897"/><polygon id="triangle36-66" data-name="triangle36" class="cls-66" points="11 991 59 887 186 996 11 991"/><polygon id="triangle36-67" data-name="triangle36" class="cls-67" points="187 882 330 857 186 996 187 882"/><polygon id="triangle36-68" data-name="triangle36" class="cls-68" points="59 887 187 882 186 996 59 887"/><polygon id="triangle36-69" data-name="triangle36" class="cls-69" points="186 996 330 857 361 997 186 996"/><polygon id="triangle36-70" data-name="triangle36" class="cls-70" points="492 824 642 751 571 943 492 824"/><polygon id="triangle36-71" data-name="triangle36" class="cls-71" points="571 943 642 751 734 885 571 943"/><polygon id="triangle36-72" data-name="triangle36" class="cls-72" points="642 751 771 665 734 885 642 751"/><polygon id="triangle36-73" data-name="triangle36" class="cls-73" points="734 885 771 665 872 826 734 885"/><polygon id="triangle36-74" data-name="triangle36" class="cls-74" points="771 665 895 617 872 826 771 665"/><polygon id="triangle36-75" data-name="triangle36" class="cls-75" points="895 617 990 756 872 826 895 617"/><polygon id="triangle36-76" data-name="triangle36" class="cls-76" points="895 617 936 462 993 635 895 617"/><polygon id="triangle36-77" data-name="triangle36" class="cls-77" points="895 617 990 756 993 635 895 617"/><polygon id="triangle36-78" data-name="triangle36" class="cls-78" points="936 462 993 290 993 635 936 462"/><polygon id="triangle36-79" data-name="triangle36" class="cls-79" points="872 826 990 756 985 887 872 826"/><polygon id="triangle36-80" data-name="triangle36" class="cls-80" points="734 885 872 826 858 986 734 885"/><polygon id="triangle36-81" data-name="triangle36" class="cls-81" points="872 826 985 887 858 986 872 826"/><polygon id="triangle36-82" data-name="triangle36" class="cls-82" points="969 977 985 887 858 986 969 977"/><polygon id="triangle36-83" data-name="triangle36" class="cls-83" points="571 943 734 885 701 990 571 943"/><polygon id="triangle36-84" data-name="triangle36" class="cls-84" points="734 885 858 986 701 990 734 885"/><polygon id="triangle36-85" data-name="triangle36" class="cls-85" points="330 857 361 997 475 993 330 857"/><polygon id="triangle36-86" data-name="triangle36" class="cls-86" points="330 857 492 824 475 993 330 857"/><polygon id="triangle36-87" data-name="triangle36" class="cls-87" points="361 997 701 990 475 993 361 997"/><polygon id="triangle36-88" data-name="triangle36" class="cls-88" points="492 824 571 943 475 993 492 824"/><polygon id="triangle36-89" data-name="triangle36" class="cls-89" points="571 943 701 990 475 993 571 943"/><polygon id="triangle36-90" data-name="triangle36" class="cls-90" points="200 21 279 74 307 1 200 21"/><polygon id="triangle36-91" data-name="triangle36" class="cls-91" points="279 74 435 15 307 1 279 74"/><polygon id="triangle36-92" data-name="triangle36" class="cls-92" points="435 15 584 0 307 1 435 15"/><polygon id="triangle36-93" data-name="triangle36" class="cls-93" points="3 5 200 21 307 1 3 5"/></svg>