<?xml version="1.0" encoding="utf-8"?>
<!-- Generator: Adobe Illustrator 21.1.0, SVG Export Plug-In . SVG Version: 6.00 Build 0)  -->
<svg version="1.1" id="Layer_1" xmlns="http://www.w3.org/2000/svg" xmlns:xlink="http://www.w3.org/1999/xlink" x="0px" y="0px"
	 viewBox="0 0 1000 1000" enable-background="new 0 0 1000 1000" xml:space="preserve">
<linearGradient id="triangle36_93_" gradientUnits="userSpaceOnUse" x1="103.5695" y1="807.5068" x2="104.5695" y2="806.5068" gradientTransform="matrix(142 0 0 -162 -14729.5361 130853.5391)">
	<stop  offset="0" style="stop-color:#A38A44"/>
	<stop  offset="1" style="stop-color:#A18E47"/>
</linearGradient>
<polygon id="triangle36" fill="url(#triangle36_93_)" points="5,168 6,6 147,132 "/>
<linearGradient id="triangle36_94_" gradientUnits="userSpaceOnUse" x1="104.1169" y1="808.1911" x2="105.117" y2="807.1911" gradientTransform="matrix(197 0 0 -126 -20476.043 101819.5391)">
	<stop  offset="0" style="stop-color:#9F7447"/>
	<stop  offset="1" style="stop-color:#A18752"/>
</linearGradient>
<polygon id="triangle36_1_" fill="url(#triangle36_94_)" points="6,6 147,132 203,22 "/>
<linearGradient id="triangle36_95_" gradientUnits="userSpaceOnUse" x1="103.6056" y1="808.1481" x2="104.6056" y2="807.1481" gradientTransform="matrix(135 0 0 -110 -13856.0352 88931.5234)">
	<stop  offset="0" style="stop-color:#A2A059"/>
	<stop  offset="1" style="stop-color:#A06B5B"/>
</linearGradient>
<polygon id="triangle36_2_" fill="url(#triangle36_95_)" points="147,132 203,22 282,75 "/>
<linearGradient id="triangle36_96_" gradientUnits="userSpaceOnUse" x1="103.8681" y1="808.1675" x2="104.8681" y2="807.1675" gradientTransform="matrix(136 0 0 -127 -13960.5352 102695.0391)">
	<stop  offset="0" style="stop-color:#9E7A4A"/>
	<stop  offset="1" style="stop-color:#A54848"/>
</linearGradient>
<polygon id="triangle36_3_" fill="url(#triangle36_96_)" points="147,132 282,75 283,202 "/>
<linearGradient id="triangle36_97_" gradientUnits="userSpaceOnUse" x1="103.6768" y1="807.8546" x2="104.6767" y2="806.8546" gradientTransform="matrix(136 0 0 -138 -13960.5352 111623.5391)">
	<stop  offset="0" style="stop-color:#A3A057"/>
	<stop  offset="1" style="stop-color:#A16E49"/>
</linearGradient>
<polygon id="triangle36_4_" fill="url(#triangle36_97_)" points="147,132 283,202 186,270 "/>
<linearGradient id="triangle36_98_" gradientUnits="userSpaceOnUse" x1="104.0539" y1="808.0405" x2="105.0539" y2="807.0405" gradientTransform="matrix(181 0 0 -138 -18805.0391 111623.5391)">
	<stop  offset="0" style="stop-color:#A49E57"/>
	<stop  offset="1" style="stop-color:#9F7B55"/>
</linearGradient>
<polygon id="triangle36_5_" fill="url(#triangle36_98_)" points="5,168 147,132 186,270 "/>
<linearGradient id="triangle36_99_" gradientUnits="userSpaceOnUse" x1="103.7101" y1="807.9323" x2="104.7101" y2="806.9323" gradientTransform="matrix(182 0 0 -118 -18910.541 95529.5313)">
	<stop  offset="0" style="stop-color:#A38A48"/>
	<stop  offset="1" style="stop-color:#9F6E4A"/>
</linearGradient>
<polygon id="triangle36_6_" fill="url(#triangle36_99_)" points="5,168 186,270 4,286 "/>
<linearGradient id="triangle36_100_" gradientUnits="userSpaceOnUse" x1="104.0129" y1="808.2073" x2="105.0129" y2="807.2073" gradientTransform="matrix(182 0 0 -120 -18910.541 97244.5313)">
	<stop  offset="0" style="stop-color:#A08B3F"/>
	<stop  offset="1" style="stop-color:#9F5F39"/>
</linearGradient>
<polygon id="triangle36_7_" fill="url(#triangle36_100_)" points="4,286 186,270 67,390 "/>
<linearGradient id="triangle36_101_" gradientUnits="userSpaceOnUse" x1="103.6612" y1="807.9083" x2="104.6612" y2="806.9083" gradientTransform="matrix(119 0 0 -142 -12264.0234 114987.5391)">
	<stop  offset="0" style="stop-color:#9F6B38"/>
	<stop  offset="1" style="stop-color:#9F5840"/>
</linearGradient>
<polygon id="triangle36_8_" fill="url(#triangle36_101_)" points="67,390 186,270 165,412 "/>
<linearGradient id="triangle36_102_" gradientUnits="userSpaceOnUse" x1="103.657" y1="807.701" x2="104.657" y2="806.701" gradientTransform="matrix(155 0 0 -142 -15928.0371 114987.5391)">
	<stop  offset="0" style="stop-color:#A2673A"/>
	<stop  offset="1" style="stop-color:#9D4A48"/>
</linearGradient>
<polygon id="triangle36_9_" fill="url(#triangle36_102_)" points="165,412 186,270 320,366 "/>
<linearGradient id="triangle36_103_" gradientUnits="userSpaceOnUse" x1="103.7976" y1="807.7636" x2="104.7977" y2="806.7636" gradientTransform="matrix(134 0 0 -164 -13712.5352 132662.5469)">
	<stop  offset="0" style="stop-color:#9F5C3F"/>
	<stop  offset="1" style="stop-color:#A07136"/>
</linearGradient>
<polygon id="triangle36_10_" fill="url(#triangle36_103_)" points="186,270 283,202 320,366 "/>
<linearGradient id="triangle36_104_" gradientUnits="userSpaceOnUse" x1="103.383" y1="807.6576" x2="104.383" y2="806.6576" gradientTransform="matrix(96 0 0 -164 -9644.5215 132662.5469)">
	<stop  offset="0" style="stop-color:#9F653B"/>
	<stop  offset="1" style="stop-color:#9F653D"/>
</linearGradient>
<polygon id="triangle36_11_" fill="url(#triangle36_104_)" points="283,202 320,366 379,284 "/>
<linearGradient id="triangle36_105_" gradientUnits="userSpaceOnUse" x1="103.7263" y1="807.9409" x2="104.7264" y2="806.9409" gradientTransform="matrix(153 0 0 -127 -15602.0371 102695.0391)">
	<stop  offset="0" style="stop-color:#9F515B"/>
	<stop  offset="1" style="stop-color:#A2934A"/>
</linearGradient>
<polygon id="triangle36_12_" fill="url(#triangle36_105_)" points="282,75 283,202 435,122 "/>
<linearGradient id="triangle36_106_" gradientUnits="userSpaceOnUse" x1="103.9394" y1="807.8273" x2="104.9394" y2="806.8273" gradientTransform="matrix(152 0 0 -162 -15496.5371 130969.5391)">
	<stop  offset="0" style="stop-color:#A27D30"/>
	<stop  offset="1" style="stop-color:#A28D3B"/>
</linearGradient>
<polygon id="triangle36_13_" fill="url(#triangle36_106_)" points="283,202 379,284 435,122 "/>
<linearGradient id="triangle36_107_" gradientUnits="userSpaceOnUse" x1="103.9411" y1="808.446" x2="104.9411" y2="807.446" gradientTransform="matrix(156 0 0 -106 -15915.5381 85699.5234)">
	<stop  offset="0" style="stop-color:#990E59"/>
	<stop  offset="1" style="stop-color:#9B4856"/>
</linearGradient>
<polygon id="triangle36_14_" fill="url(#triangle36_107_)" points="282,75 435,122 438,16 "/>
<linearGradient id="triangle36_108_" gradientUnits="userSpaceOnUse" x1="103.5931" y1="807.8712" x2="104.5931" y2="806.8712" gradientTransform="matrix(150 0 0 -123 -15135.5371 99410.0313)">
	<stop  offset="0" style="stop-color:#A28938"/>
	<stop  offset="1" style="stop-color:#883744"/>
</linearGradient>
<polygon id="triangle36_15_" fill="url(#triangle36_108_)" points="435,122 438,16 585,139 "/>
<linearGradient id="triangle36_109_" gradientUnits="userSpaceOnUse" x1="104.0218" y1="808.1324" x2="105.0218" y2="807.1324" gradientTransform="matrix(149 0 0 -138 -15028.0371 111492.5391)">
	<stop  offset="0" style="stop-color:#7E1757"/>
	<stop  offset="1" style="stop-color:#3E0D37"/>
</linearGradient>
<polygon id="triangle36_16_" fill="url(#triangle36_109_)" points="438,16 587,1 585,139 "/>
<linearGradient id="triangle36_110_" gradientUnits="userSpaceOnUse" x1="103.8069" y1="807.5192" x2="104.8069" y2="806.5192" gradientTransform="matrix(204 0 0 -162 -20834.543 130969.5391)">
	<stop  offset="0" style="stop-color:#9F4446"/>
	<stop  offset="1" style="stop-color:#883D58"/>
</linearGradient>
<polygon id="triangle36_17_" fill="url(#triangle36_110_)" points="379,284 435,122 583,272 "/>
<linearGradient id="triangle36_111_" gradientUnits="userSpaceOnUse" x1="104.0219" y1="808.0153" x2="105.0219" y2="807.0153" gradientTransform="matrix(150 0 0 -150 -15135.5371 121291.5391)">
	<stop  offset="0" style="stop-color:#9E5058"/>
	<stop  offset="1" style="stop-color:#710F58"/>
</linearGradient>
<polygon id="triangle36_18_" fill="url(#triangle36_111_)" points="435,122 585,139 583,272 "/>
<linearGradient id="triangle36_112_" gradientUnits="userSpaceOnUse" x1="103.8971" y1="808.2559" x2="104.8971" y2="807.2559" gradientTransform="matrix(222 0 0 -103 -22774.5547 83548.0234)">
	<stop  offset="0" style="stop-color:#9A2C51"/>
	<stop  offset="1" style="stop-color:#983650"/>
</linearGradient>
<polygon id="triangle36_19_" fill="url(#triangle36_112_)" points="320,366 379,284 542,387 "/>
<linearGradient id="triangle36_113_" gradientUnits="userSpaceOnUse" x1="104.1879" y1="808.3911" x2="105.1879" y2="807.3911" gradientTransform="matrix(204 0 0 -115 -20834.543 93214.0234)">
	<stop  offset="0" style="stop-color:#A39569"/>
	<stop  offset="1" style="stop-color:#844673"/>
</linearGradient>
<polygon id="triangle36_20_" fill="url(#triangle36_113_)" points="379,284 583,272 542,387 "/>
<linearGradient id="triangle36_114_" gradientUnits="userSpaceOnUse" x1="104.1145" y1="807.9845" x2="105.1145" y2="806.9846" gradientTransform="matrix(222 0 0 -139 -22774.5547 112664.0391)">
	<stop  offset="0" style="stop-color:#99744F"/>
	<stop  offset="1" style="stop-color:#926B5E"/>
</linearGradient>
<polygon id="triangle36_21_" fill="url(#triangle36_114_)" points="320,366 542,387 429,505 "/>
<linearGradient id="triangle36_115_" gradientUnits="userSpaceOnUse" x1="104.0137" y1="807.6265" x2="105.0137" y2="806.6265" gradientTransform="matrix(155 0 0 -207 -15928.0371 167506.0625)">
	<stop  offset="0" style="stop-color:#9F3E48"/>
	<stop  offset="1" style="stop-color:#8F2A41"/>
</linearGradient>
<polygon id="triangle36_22_" fill="url(#triangle36_115_)" points="165,412 320,366 281,573 "/>
<linearGradient id="triangle36_116_" gradientUnits="userSpaceOnUse" x1="103.6268" y1="807.2715" x2="104.6269" y2="806.2714" gradientTransform="matrix(148 0 0 -207 -15080.5371 167506.0625)">
	<stop  offset="0" style="stop-color:#995848"/>
	<stop  offset="1" style="stop-color:#8A5B45"/>
</linearGradient>
<polygon id="triangle36_23_" fill="url(#triangle36_116_)" points="320,366 429,505 281,573 "/>
<linearGradient id="triangle36_117_" gradientUnits="userSpaceOnUse" x1="103.5922" y1="807.4337" x2="104.5922" y2="806.4336" gradientTransform="matrix(147 0 0 -172 -15123.0361 139324.5469)">
	<stop  offset="0" style="stop-color:#A48F6B"/>
	<stop  offset="1" style="stop-color:#834654"/>
</linearGradient>
<polygon id="triangle36_24_" fill="url(#triangle36_117_)" points="165,412 281,573 134,584 "/>
<linearGradient id="triangle36_118_" gradientUnits="userSpaceOnUse" x1="103.5765" y1="807.6454" x2="104.5764" y2="806.6454" gradientTransform="matrix(98 0 0 -194 -10069.5215 157045.5469)">
	<stop  offset="0" style="stop-color:#9F4E42"/>
	<stop  offset="1" style="stop-color:#91383D"/>
</linearGradient>
<polygon id="triangle36_25_" fill="url(#triangle36_118_)" points="67,390 165,412 134,584 "/>
<linearGradient id="triangle36_119_" gradientUnits="userSpaceOnUse" x1="102.7803" y1="807.0659" x2="103.7803" y2="806.0659" gradientTransform="matrix(64 0 0 -298 -6580.5171 240817.6719)">
	<stop  offset="0" style="stop-color:#A3A156"/>
	<stop  offset="1" style="stop-color:#9F5D4D"/>
</linearGradient>
<polygon id="triangle36_26_" fill="url(#triangle36_119_)" points="4,286 67,390 3,584 "/>
<linearGradient id="triangle36_120_" gradientUnits="userSpaceOnUse" x1="103.5751" y1="807.3746" x2="104.5751" y2="806.3746" gradientTransform="matrix(131 0 0 -194 -13582.0352 157045.5469)">
	<stop  offset="0" style="stop-color:#A28D6B"/>
	<stop  offset="1" style="stop-color:#903A67"/>
</linearGradient>
<polygon id="triangle36_27_" fill="url(#triangle36_120_)" points="67,390 134,584 3,584 "/>
<linearGradient id="triangle36_121_" gradientUnits="userSpaceOnUse" x1="103.7407" y1="808.1593" x2="104.7407" y2="807.1593" gradientTransform="matrix(131 0 0 -120 -13582.0352 97558.5313)">
	<stop  offset="0" style="stop-color:#76083C"/>
	<stop  offset="1" style="stop-color:#781634"/>
</linearGradient>
<polygon id="triangle36_28_" fill="url(#triangle36_121_)" points="3,584 134,584 23,704 "/>
<linearGradient id="triangle36_122_" gradientUnits="userSpaceOnUse" x1="103.8593" y1="808.1134" x2="104.8593" y2="807.1134" gradientTransform="matrix(147 0 0 -126 -15123.0361 102386.5391)">
	<stop  offset="0" style="stop-color:#8C531B"/>
	<stop  offset="1" style="stop-color:#7E4516"/>
</linearGradient>
<polygon id="triangle36_29_" fill="url(#triangle36_122_)" points="134,584 281,573 175,699 "/>
<linearGradient id="triangle36_123_" gradientUnits="userSpaceOnUse" x1="103.7457" y1="808.0533" x2="104.7457" y2="807.0533" gradientTransform="matrix(152 0 0 -120 -15756.5371 97558.5313)">
	<stop  offset="0" style="stop-color:#9F6427"/>
	<stop  offset="1" style="stop-color:#7C3C1B"/>
</linearGradient>
<polygon id="triangle36_30_" fill="url(#triangle36_123_)" points="23,704 134,584 175,699 "/>
<linearGradient id="triangle36_124_" gradientUnits="userSpaceOnUse" x1="103.9502" y1="807.8969" x2="104.9502" y2="806.8969" gradientTransform="matrix(259 0 0 -126 -26786.0586 102386.5391)">
	<stop  offset="0" style="stop-color:#7A141E"/>
	<stop  offset="1" style="stop-color:#8F4A17"/>
</linearGradient>
<polygon id="triangle36_31_" fill="url(#triangle36_124_)" points="175,699 281,573 434,647 "/>
<linearGradient id="triangle36_125_" gradientUnits="userSpaceOnUse" x1="103.9393" y1="807.9921" x2="104.9393" y2="806.9921" gradientTransform="matrix(153 0 0 -142 -15603.0371 115222.5391)">
	<stop  offset="0" style="stop-color:#691C20"/>
	<stop  offset="1" style="stop-color:#886B29"/>
</linearGradient>
<polygon id="triangle36_32_" fill="url(#triangle36_125_)" points="281,573 429,505 434,647 "/>
<linearGradient id="triangle36_126_" gradientUnits="userSpaceOnUse" x1="103.7157" y1="807.7227" x2="104.7157" y2="806.7227" gradientTransform="matrix(164 0 0 -142 -16604.5371 115222.5391)">
	<stop  offset="0" style="stop-color:#78553F"/>
	<stop  offset="1" style="stop-color:#5C5D1E"/>
</linearGradient>
<polygon id="triangle36_33_" fill="url(#triangle36_126_)" points="429,505 434,647 593,593 "/>
<linearGradient id="triangle36_127_" gradientUnits="userSpaceOnUse" x1="103.8919" y1="807.4737" x2="104.8919" y2="806.4738" gradientTransform="matrix(164 0 0 -206 -16604.5371 166720.5625)">
	<stop  offset="0" style="stop-color:#885A60"/>
	<stop  offset="1" style="stop-color:#5F3651"/>
</linearGradient>
<polygon id="triangle36_34_" fill="url(#triangle36_127_)" points="429,505 542,387 593,593 "/>
<linearGradient id="triangle36_128_" gradientUnits="userSpaceOnUse" x1="103.8145" y1="807.372" x2="104.8145" y2="806.372" gradientTransform="matrix(173 0 0 -204 -17432.0391 164992.5625)">
	<stop  offset="0" style="stop-color:#480D30"/>
	<stop  offset="1" style="stop-color:#54083D"/>
</linearGradient>
<polygon id="triangle36_35_" fill="url(#triangle36_128_)" points="542,387 583,272 715,476 "/>
<linearGradient id="triangle36_129_" gradientUnits="userSpaceOnUse" x1="103.8619" y1="807.4102" x2="104.8619" y2="806.4102" gradientTransform="matrix(173 0 0 -206 -17432.0391 166720.5625)">
	<stop  offset="0" style="stop-color:#90105E"/>
	<stop  offset="1" style="stop-color:#6B244F"/>
</linearGradient>
<polygon id="triangle36_36_" fill="url(#triangle36_129_)" points="542,387 593,593 715,476 "/>
<linearGradient id="triangle36_130_" gradientUnits="userSpaceOnUse" x1="104.0993" y1="807.4775" x2="105.0993" y2="806.4775" gradientTransform="matrix(246 0 0 -204 -25019.5586 164992.5625)">
	<stop  offset="0" style="stop-color:#7B0D59"/>
	<stop  offset="1" style="stop-color:#9A015B"/>
</linearGradient>
<polygon id="triangle36_37_" fill="url(#triangle36_130_)" points="583,272 715,476 829,362 "/>
<linearGradient id="triangle36_131_" gradientUnits="userSpaceOnUse" x1="103.9662" y1="807.825" x2="104.9662" y2="806.825" gradientTransform="matrix(263 0 0 -133 -26796.0605 107598.0391)">
	<stop  offset="0" style="stop-color:#2F3A71"/>
	<stop  offset="1" style="stop-color:#1F254A"/>
</linearGradient>
<polygon id="triangle36_38_" fill="url(#triangle36_131_)" points="583,272 585,139 846,212 "/>
<linearGradient id="triangle36_132_" gradientUnits="userSpaceOnUse" x1="104.2535" y1="807.9463" x2="105.2535" y2="806.9463" gradientTransform="matrix(263 0 0 -150 -26796.0605 121381.5391)">
	<stop  offset="0" style="stop-color:#651457"/>
	<stop  offset="1" style="stop-color:#55053A"/>
</linearGradient>
<polygon id="triangle36_39_" fill="url(#triangle36_132_)" points="583,272 829,362 846,212 "/>
<linearGradient id="triangle36_133_" gradientUnits="userSpaceOnUse" x1="104.2176" y1="807.9493" x2="105.2176" y2="806.9493" gradientTransform="matrix(261 0 0 -146 -26585.0605 118009.5391)">
	<stop  offset="0" style="stop-color:#6D1057"/>
	<stop  offset="1" style="stop-color:#330323"/>
</linearGradient>
<polygon id="triangle36_40_" fill="url(#triangle36_133_)" points="585,139 846,212 838,66 "/>
<linearGradient id="triangle36_134_" gradientUnits="userSpaceOnUse" x1="103.9074" y1="807.8966" x2="104.9074" y2="806.8966" gradientTransform="matrix(180 0 0 -138 -18120.5391 111492.5391)">
	<stop  offset="0" style="stop-color:#5E1759"/>
	<stop  offset="1" style="stop-color:#1E2549"/>
</linearGradient>
<polygon id="triangle36_41_" fill="url(#triangle36_134_)" points="585,139 587,1 765,8 "/>
<linearGradient id="triangle36_135_" gradientUnits="userSpaceOnUse" x1="104.0152" y1="807.9127" x2="105.0153" y2="806.9127" gradientTransform="matrix(253 0 0 -131 -25749.0586 105854.0391)">
	<stop  offset="0" style="stop-color:#7B0D5A"/>
	<stop  offset="1" style="stop-color:#3D1F52"/>
</linearGradient>
<polygon id="triangle36_42_" fill="url(#triangle36_135_)" points="585,139 838,66 765,8 "/>
<linearGradient id="triangle36_136_" gradientUnits="userSpaceOnUse" x1="104.3155" y1="834.3607" x2="105.3156" y2="833.3607" gradientTransform="matrix(402 0 0 -7 -41317.6914 5841)">
	<stop  offset="0" style="stop-color:#013349"/>
	<stop  offset="1" style="stop-color:#016390"/>
</linearGradient>
<polygon id="triangle36_43_" fill="url(#triangle36_136_)" points="587,1 765,8 989,2 "/>
<linearGradient id="triangle36_137_" gradientUnits="userSpaceOnUse" x1="104.1153" y1="809.6207" x2="105.1153" y2="808.6207" gradientTransform="matrix(224 0 0 -64 -22538.5547 51812.5195)">
	<stop  offset="0" style="stop-color:#2F3B72"/>
	<stop  offset="1" style="stop-color:#2D2652"/>
</linearGradient>
<polygon id="triangle36_44_" fill="url(#triangle36_137_)" points="765,8 838,66 989,2 "/>
<linearGradient id="triangle36_138_" gradientUnits="userSpaceOnUse" x1="103.7309" y1="807.7288" x2="104.7309" y2="806.7288" gradientTransform="matrix(157 0 0 -146 -15464.0381 118009.5391)">
	<stop  offset="0" style="stop-color:#440935"/>
	<stop  offset="1" style="stop-color:#212449"/>
</linearGradient>
<polygon id="triangle36_45_" fill="url(#triangle36_138_)" points="838,66 846,212 995,134 "/>
<linearGradient id="triangle36_139_" gradientUnits="userSpaceOnUse" x1="103.954" y1="808.0928" x2="104.954" y2="807.0928" gradientTransform="matrix(157 0 0 -132 -15464.0381 106654.5391)">
	<stop  offset="0" style="stop-color:#12010B"/>
	<stop  offset="1" style="stop-color:#053E5B"/>
</linearGradient>
<polygon id="triangle36_46_" fill="url(#triangle36_139_)" points="838,66 989,2 995,134 "/>
<linearGradient id="triangle36_140_" gradientUnits="userSpaceOnUse" x1="103.743" y1="807.6651" x2="104.743" y2="806.6651" gradientTransform="matrix(167 0 0 -150 -16518.0391 121381.5391)">
	<stop  offset="0" style="stop-color:#4C2F71"/>
	<stop  offset="1" style="stop-color:#1C294D"/>
</linearGradient>
<polygon id="triangle36_47_" fill="url(#triangle36_140_)" points="829,362 846,212 996,291 "/>
<linearGradient id="triangle36_141_" gradientUnits="userSpaceOnUse" x1="103.9278" y1="807.8632" x2="104.9278" y2="806.8632" gradientTransform="matrix(150 0 0 -157 -14724.5371 126949.0391)">
	<stop  offset="0" style="stop-color:#020106"/>
	<stop  offset="1" style="stop-color:#1D294C"/>
</linearGradient>
<polygon id="triangle36_48_" fill="url(#triangle36_141_)" points="846,212 995,134 996,291 "/>
<linearGradient id="triangle36_142_" gradientUnits="userSpaceOnUse" x1="103.9114" y1="808.0831" x2="104.9114" y2="807.0831" gradientTransform="matrix(224 0 0 -114 -22588.5547 92497.5234)">
	<stop  offset="0" style="stop-color:#49022E"/>
	<stop  offset="1" style="stop-color:#63013B"/>
</linearGradient>
<polygon id="triangle36_49_" fill="url(#triangle36_142_)" points="715,476 829,362 939,463 "/>
<linearGradient id="triangle36_143_" gradientUnits="userSpaceOnUse" x1="104.0214" y1="807.7778" x2="105.0214" y2="806.7778" gradientTransform="matrix(167 0 0 -172 -16518.0391 139203.5469)">
	<stop  offset="0" style="stop-color:#9A005B"/>
	<stop  offset="1" style="stop-color:#810C5C"/>
</linearGradient>
<polygon id="triangle36_50_" fill="url(#triangle36_143_)" points="829,362 996,291 939,463 "/>
<linearGradient id="triangle36_144_" gradientUnits="userSpaceOnUse" x1="104.2385" y1="807.9588" x2="105.2385" y2="806.9589" gradientTransform="matrix(224 0 0 -155 -22588.5547 125665.0391)">
	<stop  offset="0" style="stop-color:#9F5280"/>
	<stop  offset="1" style="stop-color:#9F6D53"/>
</linearGradient>
<polygon id="triangle36_51_" fill="url(#triangle36_144_)" points="715,476 939,463 898,618 "/>
<linearGradient id="triangle36_145_" gradientUnits="userSpaceOnUse" x1="103.9373" y1="807.5386" x2="104.9374" y2="806.5386" gradientTransform="matrix(181 0 0 -190 -18217.0391 153905.5469)">
	<stop  offset="0" style="stop-color:#0C6736"/>
	<stop  offset="1" style="stop-color:#30423C"/>
</linearGradient>
<polygon id="triangle36_52_" fill="url(#triangle36_145_)" points="593,593 715,476 774,666 "/>
<linearGradient id="triangle36_146_" gradientUnits="userSpaceOnUse" x1="103.8229" y1="807.4177" x2="104.823" y2="806.4177" gradientTransform="matrix(183 0 0 -190 -18304.041 153905.5469)">
	<stop  offset="0" style="stop-color:#493346"/>
	<stop  offset="1" style="stop-color:#367A22"/>
</linearGradient>
<polygon id="triangle36_53_" fill="url(#triangle36_146_)" points="715,476 898,618 774,666 "/>
<linearGradient id="triangle36_147_" gradientUnits="userSpaceOnUse" x1="104.1085" y1="807.8269" x2="105.1085" y2="806.8269" gradientTransform="matrix(211 0 0 -159 -21511.0449 129021.0391)">
	<stop  offset="0" style="stop-color:#5E8320"/>
	<stop  offset="1" style="stop-color:#487B56"/>
</linearGradient>
<polygon id="triangle36_54_" fill="url(#triangle36_147_)" points="434,647 593,593 645,752 "/>
<linearGradient id="triangle36_148_" gradientUnits="userSpaceOnUse" x1="103.8799" y1="807.6805" x2="104.8799" y2="806.6805" gradientTransform="matrix(181 0 0 -159 -18217.0391 129021.0391)">
	<stop  offset="0" style="stop-color:#0F633A"/>
	<stop  offset="1" style="stop-color:#387851"/>
</linearGradient>
<polygon id="triangle36_55_" fill="url(#triangle36_148_)" points="593,593 774,666 645,752 "/>
<linearGradient id="triangle36_149_" gradientUnits="userSpaceOnUse" x1="103.9297" y1="807.5178" x2="104.9298" y2="806.5177" gradientTransform="matrix(211 0 0 -178 -21511.0449 144398.5469)">
	<stop  offset="0" style="stop-color:#959A43"/>
	<stop  offset="1" style="stop-color:#9B9F92"/>
</linearGradient>
<polygon id="triangle36_56_" fill="url(#triangle36_149_)" points="434,647 645,752 495,825 "/>
<linearGradient id="triangle36_150_" gradientUnits="userSpaceOnUse" x1="104.2496" y1="807.5742" x2="105.2496" y2="806.5742" gradientTransform="matrix(259 0 0 -211 -26786.0586 171013.0625)">
	<stop  offset="0" style="stop-color:#815211"/>
	<stop  offset="1" style="stop-color:#A29B02"/>
</linearGradient>
<polygon id="triangle36_57_" fill="url(#triangle36_150_)" points="175,699 434,647 333,858 "/>
<linearGradient id="triangle36_151_" gradientUnits="userSpaceOnUse" x1="103.7612" y1="807.3278" x2="104.7612" y2="806.3278" gradientTransform="matrix(162 0 0 -211 -16491.5371 171013.0625)">
	<stop  offset="0" style="stop-color:#9F4F2E"/>
	<stop  offset="1" style="stop-color:#A06B56"/>
</linearGradient>
<polygon id="triangle36_58_" fill="url(#triangle36_151_)" points="434,647 495,825 333,858 "/>
<linearGradient id="triangle36_152_" gradientUnits="userSpaceOnUse" x1="103.6466" y1="807.365" x2="104.6465" y2="806.3651" gradientTransform="matrix(158 0 0 -184 -16231.5381 149289.5469)">
	<stop  offset="0" style="stop-color:#815311"/>
	<stop  offset="1" style="stop-color:#8D6B0D"/>
</linearGradient>
<polygon id="triangle36_59_" fill="url(#triangle36_152_)" points="175,699 333,858 190,883 "/>
<linearGradient id="triangle36_153_" gradientUnits="userSpaceOnUse" x1="103.6548" y1="807.4997" x2="104.6548" y2="806.4997" gradientTransform="matrix(128 0 0 -189 -13209.5244 153322.0469)">
	<stop  offset="0" style="stop-color:#5F101B"/>
	<stop  offset="1" style="stop-color:#5F101C"/>
</linearGradient>
<polygon id="triangle36_60_" fill="url(#triangle36_153_)" points="175,699 190,883 62,888 "/>
<linearGradient id="triangle36_154_" gradientUnits="userSpaceOnUse" x1="103.8775" y1="807.5928" x2="104.8775" y2="806.5928" gradientTransform="matrix(152 0 0 -189 -15756.5371 153322.0469)">
	<stop  offset="0" style="stop-color:#A16426"/>
	<stop  offset="1" style="stop-color:#763E13"/>
</linearGradient>
<polygon id="triangle36_61_" fill="url(#triangle36_154_)" points="23,704 175,699 62,888 "/>
<linearGradient id="triangle36_155_" gradientUnits="userSpaceOnUse" x1="102.4235" y1="807.325" x2="103.4235" y2="806.325" gradientTransform="matrix(55 0 0 -194 -5636.0161 157359.5469)">
	<stop  offset="0" style="stop-color:#991F34"/>
	<stop  offset="1" style="stop-color:#840C31"/>
</linearGradient>
<polygon id="triangle36_62_" fill="url(#triangle36_155_)" points="23,704 62,888 7,898 "/>
<linearGradient id="triangle36_156_" gradientUnits="userSpaceOnUse" x1="99.2295" y1="807.0744" x2="100.2294" y2="806.0745" gradientTransform="matrix(20 0 0 -314 -1982.5 254019.6719)">
	<stop  offset="0" style="stop-color:#9F4F2F"/>
	<stop  offset="1" style="stop-color:#9F4237"/>
</linearGradient>
<polygon id="triangle36_63_" fill="url(#triangle36_156_)" points="3,584 23,704 7,898 "/>
<linearGradient id="triangle36_157_" gradientUnits="userSpaceOnUse" x1="102.6325" y1="808.4018" x2="103.6325" y2="807.4018" gradientTransform="matrix(55 0 0 -104 -5636.0161 84958.5234)">
	<stop  offset="0" style="stop-color:#9F4E2C"/>
	<stop  offset="1" style="stop-color:#8A3928"/>
</linearGradient>
<polygon id="triangle36_64_" fill="url(#triangle36_157_)" points="7,898 62,888 14,992 "/>
<linearGradient id="triangle36_158_" gradientUnits="userSpaceOnUse" x1="103.7332" y1="808.1146" x2="104.7332" y2="807.1146" gradientTransform="matrix(175 0 0 -109 -18169.0391 88991.0234)">
	<stop  offset="0" style="stop-color:#9F4E2C"/>
	<stop  offset="1" style="stop-color:#893A29"/>
</linearGradient>
<polygon id="triangle36_65_" fill="url(#triangle36_158_)" points="14,992 62,888 189,997 "/>
<linearGradient id="triangle36_159_" gradientUnits="userSpaceOnUse" x1="103.7747" y1="807.8994" x2="104.7747" y2="806.8994" gradientTransform="matrix(144 0 0 -139 -14754.5361 113156.0391)">
	<stop  offset="0" style="stop-color:#7D093B"/>
	<stop  offset="1" style="stop-color:#9B353E"/>
</linearGradient>
<polygon id="triangle36_66_" fill="url(#triangle36_159_)" points="190,883 333,858 189,997 "/>
<linearGradient id="triangle36_160_" gradientUnits="userSpaceOnUse" x1="103.9229" y1="808.4453" x2="104.9229" y2="807.4453" gradientTransform="matrix(128 0 0 -114 -13209.5244 93018.5234)">
	<stop  offset="0" style="stop-color:#7C111B"/>
	<stop  offset="1" style="stop-color:#840C32"/>
</linearGradient>
<polygon id="triangle36_67_" fill="url(#triangle36_160_)" points="62,888 190,883 189,997 "/>
<linearGradient id="triangle36_161_" gradientUnits="userSpaceOnUse" x1="103.861" y1="807.8466" x2="104.861" y2="806.8466" gradientTransform="matrix(175 0 0 -140 -17994.0391 113962.5391)">
	<stop  offset="0" style="stop-color:#992E38"/>
	<stop  offset="1" style="stop-color:#8A570F"/>
</linearGradient>
<polygon id="triangle36_68_" fill="url(#triangle36_161_)" points="189,997 333,858 364,998 "/>
<linearGradient id="triangle36_162_" gradientUnits="userSpaceOnUse" x1="103.9355" y1="807.6447" x2="104.9355" y2="806.6447" gradientTransform="matrix(150 0 0 -192 -15075.5371 155794.5469)">
	<stop  offset="0" style="stop-color:#A3A153"/>
	<stop  offset="1" style="stop-color:#A4A02F"/>
</linearGradient>
<polygon id="triangle36_69_" fill="url(#triangle36_162_)" points="495,825 645,752 574,944 "/>
<linearGradient id="triangle36_163_" gradientUnits="userSpaceOnUse" x1="103.7179" y1="807.3723" x2="104.718" y2="806.3722" gradientTransform="matrix(163 0 0 -192 -16355.0381 155794.5469)">
	<stop  offset="0" style="stop-color:#A39D01"/>
	<stop  offset="1" style="stop-color:#6C8E61"/>
</linearGradient>
<polygon id="triangle36_70_" fill="url(#triangle36_163_)" points="574,944 645,752 737,886 "/>
<linearGradient id="triangle36_164_" gradientUnits="userSpaceOnUse" x1="103.8429" y1="807.5361" x2="104.8429" y2="806.5361" gradientTransform="matrix(129 0 0 -220 -12731.0244 178290.5625)">
	<stop  offset="0" style="stop-color:#A0A289"/>
	<stop  offset="1" style="stop-color:#327B6D"/>
</linearGradient>
<polygon id="triangle36_71_" fill="url(#triangle36_164_)" points="645,752 774,666 737,886 "/>
<linearGradient id="triangle36_165_" gradientUnits="userSpaceOnUse" x1="103.5604" y1="807.201" x2="104.5604" y2="806.201" gradientTransform="matrix(138 0 0 -220 -13579.5352 178290.5625)">
	<stop  offset="0" style="stop-color:#006964"/>
	<stop  offset="1" style="stop-color:#367921"/>
</linearGradient>
<polygon id="triangle36_72_" fill="url(#triangle36_165_)" points="737,886 774,666 875,827 "/>
<linearGradient id="triangle36_166_" gradientUnits="userSpaceOnUse" x1="103.8503" y1="807.6232" x2="104.8503" y2="806.6232" gradientTransform="matrix(124 0 0 -209 -12079.5244 169371.0625)">
	<stop  offset="0" style="stop-color:#016960"/>
	<stop  offset="1" style="stop-color:#6C8D33"/>
</linearGradient>
<polygon id="triangle36_73_" fill="url(#triangle36_166_)" points="774,666 898,618 875,827 "/>
<linearGradient id="triangle36_167_" gradientUnits="userSpaceOnUse" x1="103.4487" y1="807.2642" x2="104.4488" y2="806.2642" gradientTransform="matrix(118 0 0 -209 -11351.5234 169371.0625)">
	<stop  offset="0" style="stop-color:#A3A146"/>
	<stop  offset="1" style="stop-color:#6D8E40"/>
</linearGradient>
<polygon id="triangle36_74_" fill="url(#triangle36_167_)" points="898,618 993,757 875,827 "/>
<linearGradient id="triangle36_168_" gradientUnits="userSpaceOnUse" x1="103.3148" y1="807.5048" x2="104.3148" y2="806.5048" gradientTransform="matrix(98 0 0 -173 -9238.5215 140182.0469)">
	<stop  offset="0" style="stop-color:#4F854D"/>
	<stop  offset="1" style="stop-color:#66574D"/>
</linearGradient>
<polygon id="triangle36_75_" fill="url(#triangle36_168_)" points="898,618 939,463 996,636 "/>
<linearGradient id="triangle36_169_" gradientUnits="userSpaceOnUse" x1="103.6439" y1="808.1095" x2="104.6439" y2="807.1095" gradientTransform="matrix(98 0 0 -139 -9238.5215 112916.0391)">
	<stop  offset="0" style="stop-color:#8C9909"/>
	<stop  offset="1" style="stop-color:#5F8817"/>
</linearGradient>
<polygon id="triangle36_76_" fill="url(#triangle36_169_)" points="898,618 993,757 996,636 "/>
<linearGradient id="triangle36_170_" gradientUnits="userSpaceOnUse" x1="102.7924" y1="807.1896" x2="103.7924" y2="806.1895" gradientTransform="matrix(57 0 0 -345 -4913.0161 278728.1875)">
	<stop  offset="0" style="stop-color:#7A0D58"/>
	<stop  offset="1" style="stop-color:#71463F"/>
</linearGradient>
<polygon id="triangle36_77_" fill="url(#triangle36_170_)" points="939,463 996,291 996,636 "/>
<linearGradient id="triangle36_171_" gradientUnits="userSpaceOnUse" x1="103.7314" y1="808.101" x2="104.7314" y2="807.101" gradientTransform="matrix(118 0 0 -131 -11351.5234 106603.0391)">
	<stop  offset="0" style="stop-color:#A3A047"/>
	<stop  offset="1" style="stop-color:#367C51"/>
</linearGradient>
<polygon id="triangle36_78_" fill="url(#triangle36_171_)" points="875,827 993,757 988,888 "/>
<linearGradient id="triangle36_172_" gradientUnits="userSpaceOnUse" x1="103.9007" y1="807.8738" x2="104.9007" y2="806.8738" gradientTransform="matrix(138 0 0 -160 -13579.5352 130061.5391)">
	<stop  offset="0" style="stop-color:#006D98"/>
	<stop  offset="1" style="stop-color:#367B41"/>
</linearGradient>
<polygon id="triangle36_79_" fill="url(#triangle36_172_)" points="737,886 875,827 861,987 "/>
<linearGradient id="triangle36_173_" gradientUnits="userSpaceOnUse" x1="103.582" y1="807.6206" x2="104.582" y2="806.6206" gradientTransform="matrix(127 0 0 -160 -12306.0244 130061.5391)">
	<stop  offset="0" style="stop-color:#52834C"/>
	<stop  offset="1" style="stop-color:#016951"/>
</linearGradient>
<polygon id="triangle36_80_" fill="url(#triangle36_173_)" points="875,827 988,888 861,987 "/>
<linearGradient id="triangle36_174_" gradientUnits="userSpaceOnUse" x1="103.6776" y1="808.4647" x2="104.6775" y2="807.4647" gradientTransform="matrix(127 0 0 -99 -12306.0244 80926.0234)">
	<stop  offset="0" style="stop-color:#528894"/>
	<stop  offset="1" style="stop-color:#367C4E"/>
</linearGradient>
<polygon id="triangle36_81_" fill="url(#triangle36_174_)" points="972,978 988,888 861,987 "/>
<linearGradient id="triangle36_175_" gradientUnits="userSpaceOnUse" x1="103.9713" y1="808.4643" x2="104.9713" y2="807.4642" gradientTransform="matrix(163 0 0 -105 -16355.0381 85763.0234)">
	<stop  offset="0" style="stop-color:#A59D00"/>
	<stop  offset="1" style="stop-color:#407B62"/>
</linearGradient>
<polygon id="triangle36_82_" fill="url(#triangle36_175_)" points="574,944 737,886 704,991 "/>
<linearGradient id="triangle36_176_" gradientUnits="userSpaceOnUse" x1="103.6375" y1="808.1549" x2="104.6374" y2="807.1549" gradientTransform="matrix(157 0 0 -105 -15598.0381 85763.0234)">
	<stop  offset="0" style="stop-color:#52834B"/>
	<stop  offset="1" style="stop-color:#407B3F"/>
</linearGradient>
<polygon id="triangle36_83_" fill="url(#triangle36_176_)" points="737,886 861,987 704,991 "/>
<linearGradient id="triangle36_177_" gradientUnits="userSpaceOnUse" x1="103.5901" y1="807.7001" x2="104.5901" y2="806.7001" gradientTransform="matrix(145 0 0 -140 -14715.0361 113962.5391)">
	<stop  offset="0" style="stop-color:#9F570D"/>
	<stop  offset="1" style="stop-color:#74101C"/>
</linearGradient>
<polygon id="triangle36_84_" fill="url(#triangle36_177_)" points="333,858 364,998 478,994 "/>
<linearGradient id="triangle36_178_" gradientUnits="userSpaceOnUse" x1="104.0566" y1="807.8521" x2="105.0566" y2="806.8521" gradientTransform="matrix(162 0 0 -169 -16491.5371 137318.0469)">
	<stop  offset="0" style="stop-color:#9F4F2F"/>
	<stop  offset="1" style="stop-color:#8B3B5F"/>
</linearGradient>
<polygon id="triangle36_85_" fill="url(#triangle36_178_)" points="333,858 495,825 478,994 "/>
<linearGradient id="triangle36_179_" gradientUnits="userSpaceOnUse" x1="104.1933" y1="834.2856" x2="105.1932" y2="833.2857" gradientTransform="matrix(340 0 0 -7 -35061.6719 6831)">
	<stop  offset="0" style="stop-color:#313356"/>
	<stop  offset="1" style="stop-color:#2D456A"/>
</linearGradient>
<polygon id="triangle36_86_" fill="url(#triangle36_179_)" points="364,998 704,991 478,994 "/>
<linearGradient id="triangle36_180_" gradientUnits="userSpaceOnUse" x1="103.2356" y1="807.4751" x2="104.2356" y2="806.4751" gradientTransform="matrix(96 0 0 -169 -9449.5215 137318.0469)">
	<stop  offset="0" style="stop-color:#A4A395"/>
	<stop  offset="1" style="stop-color:#8F6E36"/>
</linearGradient>
<polygon id="triangle36_87_" fill="url(#triangle36_180_)" points="495,825 574,944 478,994 "/>
<linearGradient id="triangle36_181_" gradientUnits="userSpaceOnUse" x1="103.8944" y1="810.2462" x2="104.8944" y2="809.2462" gradientTransform="matrix(226 0 0 -50 -23034.5566 41463.5156)">
	<stop  offset="0" style="stop-color:#53811C"/>
	<stop  offset="1" style="stop-color:#2B4748"/>
</linearGradient>
<polygon id="triangle36_88_" fill="url(#triangle36_181_)" points="574,944 704,991 478,994 "/>
<linearGradient id="triangle36_182_" gradientUnits="userSpaceOnUse" x1="103.7052" y1="809.3461" x2="104.7052" y2="808.3461" gradientTransform="matrix(107 0 0 -73 -10874.0225 59071.0195)">
	<stop  offset="0" style="stop-color:#A38D47"/>
	<stop  offset="1" style="stop-color:#A15D4D"/>
</linearGradient>
<polygon id="triangle36_89_" fill="url(#triangle36_182_)" points="203,22 282,75 310,2 "/>
<linearGradient id="triangle36_183_" gradientUnits="userSpaceOnUse" x1="103.7823" y1="809.1168" x2="104.7822" y2="808.1169" gradientTransform="matrix(156 0 0 -73 -15915.5381 59071.0195)">
	<stop  offset="0" style="stop-color:#9C2A4D"/>
	<stop  offset="1" style="stop-color:#9E5B4E"/>
</linearGradient>
<polygon id="triangle36_90_" fill="url(#triangle36_183_)" points="282,75 438,16 310,2 "/>
<linearGradient id="triangle36_184_" gradientUnits="userSpaceOnUse" x1="104.2389" y1="819.5818" x2="105.2389" y2="818.5818" gradientTransform="matrix(277 0 0 -15 -28532.0605 12293)">
	<stop  offset="0" style="stop-color:#9D5341"/>
	<stop  offset="1" style="stop-color:#6B602A"/>
</linearGradient>
<polygon id="triangle36_91_" fill="url(#triangle36_184_)" points="438,16 587,1 310,2 "/>
<linearGradient id="triangle36_185_" gradientUnits="userSpaceOnUse" x1="104.319" y1="816.3868" x2="105.319" y2="815.3868" gradientTransform="matrix(304 0 0 -20 -31657.6699 16326.5)">
	<stop  offset="0" style="stop-color:#A29A52"/>
	<stop  offset="1" style="stop-color:#A5A159"/>
</linearGradient>
<polygon id="triangle36_92_" fill="url(#triangle36_185_)" points="6,6 203,22 310,2 "/>
</svg>
