<svg id="Layer_1" data-name="Layer 1" xmlns="http://www.w3.org/2000/svg" xmlns:xlink="http://www.w3.org/1999/xlink" viewBox="0 0 995 991"><defs><style>.cls-1{fill:url(#linear-gradient);}.cls-2{fill:url(#linear-gradient-2);}.cls-3{fill:url(#linear-gradient-3);}.cls-4{fill:url(#linear-gradient-4);}.cls-5{fill:url(#linear-gradient-5);}.cls-6{fill:url(#linear-gradient-6);}.cls-7{fill:url(#linear-gradient-7);}.cls-8{fill:url(#linear-gradient-8);}.cls-9{fill:url(#linear-gradient-9);}.cls-10{fill:url(#linear-gradient-10);}.cls-11{fill:url(#linear-gradient-11);}.cls-12{fill:url(#linear-gradient-12);}.cls-13{fill:url(#linear-gradient-13);}.cls-14{fill:url(#linear-gradient-14);}.cls-15{fill:url(#linear-gradient-15);}.cls-16{fill:url(#linear-gradient-16);}.cls-17{fill:url(#linear-gradient-17);}.cls-18{fill:url(#linear-gradient-18);}.cls-19{fill:url(#linear-gradient-19);}.cls-20{fill:url(#linear-gradient-20);}.cls-21{fill:url(#linear-gradient-21);}.cls-22{fill:url(#linear-gradient-22);}.cls-23{fill:url(#linear-gradient-23);}.cls-24{fill:url(#linear-gradient-24);}.cls-25{fill:url(#linear-gradient-25);}.cls-26{fill:url(#linear-gradient-26);}.cls-27{fill:url(#linear-gradient-27);}.cls-28{fill:url(#linear-gradient-28);}.cls-29{fill:url(#linear-gradient-29);}.cls-30{fill:url(#linear-gradient-30);}.cls-31{fill:url(#linear-gradient-31);}.cls-32{fill:url(#linear-gradient-32);}.cls-33{fill:url(#linear-gradient-33);}.cls-34{fill:url(#linear-gradient-34);}.cls-35{fill:url(#linear-gradient-35);}.cls-36{fill:url(#linear-gradient-36);}.cls-37{fill:url(#linear-gradient-37);}.cls-38{fill:url(#linear-gradient-38);}.cls-39{fill:url(#linear-gradient-39);}.cls-40{fill:url(#linear-gradient-40);}.cls-41{fill:url(#linear-gradient-41);}.cls-42{fill:url(#linear-gradient-42);}.cls-43{fill:url(#linear-gradient-43);}.cls-44{fill:url(#linear-gradient-44);}.cls-45{fill:url(#linear-gradient-45);}.cls-46{fill:url(#linear-gradient-46);}.cls-47{fill:url(#linear-gradient-47);}.cls-48{fill:url(#linear-gradient-48);}.cls-49{fill:url(#linear-gradient-49);}.cls-50{fill:url(#linear-gradient-50);}.cls-51{fill:url(#linear-gradient-51);}.cls-52{fill:url(#linear-gradient-52);}.cls-53{fill:url(#linear-gradient-53);}.cls-54{fill:url(#linear-gradient-54);}.cls-55{fill:url(#linear-gradient-55);}.cls-56{fill:url(#linear-gradient-56);}.cls-57{fill:url(#linear-gradient-57);}.cls-58{fill:url(#linear-gradient-58);}.cls-59{fill:url(#linear-gradient-59);}.cls-60{fill:url(#linear-gradient-60);}.cls-61{fill:url(#linear-gradient-61);}.cls-62{fill:url(#linear-gradient-62);}.cls-63{fill:url(#linear-gradient-63);}.cls-64{fill:url(#linear-gradient-64);}.cls-65{fill:url(#linear-gradient-65);}.cls-66{fill:url(#linear-gradient-66);}.cls-67{fill:url(#linear-gradient-67);}.cls-68{fill:url(#linear-gradient-68);}.cls-69{fill:url(#linear-gradient-69);}.cls-70{fill:url(#linear-gradient-70);}.cls-71{fill:url(#linear-gradient-71);}.cls-72{fill:url(#linear-gradient-72);}</style><linearGradient id="linear-gradient" x1="103.82" y1="807.58" x2="104.82" y2="806.58" gradientTransform="matrix(223, 0, 0, -151, -23192.05, 121979.04)" gradientUnits="userSpaceOnUse"><stop offset="0" stop-color="#9ca0ae"/><stop offset="1" stop-color="#c2c2c2"/></linearGradient><linearGradient id="linear-gradient-2" x1="104.29" y1="808.24" x2="105.29" y2="807.24" gradientTransform="matrix(236, 0, 0, -129, -24550.56, 104233.04)" gradientUnits="userSpaceOnUse"><stop offset="0" stop-color="#bfc2d0"/><stop offset="1" stop-color="#c1c3c5"/></linearGradient><linearGradient id="linear-gradient-3" x1="103.31" y1="807.87" x2="104.31" y2="806.87" gradientTransform="matrix(99, 0, 0, -129, -10011.02, 104233.04)" gradientUnits="userSpaceOnUse"><stop offset="0" stop-color="#bebebe"/><stop offset="1" stop-color="#c9cbcd"/></linearGradient><linearGradient id="linear-gradient-4" x1="103.63" y1="807.83" x2="104.63" y2="806.83" gradientTransform="matrix(102, 0, 0, -166, -10324.52, 134145.54)" gradientUnits="userSpaceOnUse"><stop offset="0" stop-color="#dedede"/><stop offset="1" stop-color="#e4e4e4"/></linearGradient><linearGradient id="linear-gradient-5" x1="103.41" y1="807.44" x2="104.41" y2="806.44" gradientTransform="matrix(102, 0, 0, -192, -10324.52, 155171.54)" gradientUnits="userSpaceOnUse"><stop offset="0" stop-color="#bcbcbc"/><stop offset="1" stop-color="#cdcdcd"/></linearGradient><linearGradient id="linear-gradient-6" x1="104.11" y1="807.52" x2="105.11" y2="806.52" gradientTransform="matrix(223, 0, 0, -208, -23192.05, 168075.56)" gradientUnits="userSpaceOnUse"><stop offset="0" stop-color="#cfcfcf"/><stop offset="1" stop-color="#a4a4a4"/></linearGradient><linearGradient id="linear-gradient-7" x1="103.88" y1="807.39" x2="104.88" y2="806.39" gradientTransform="matrix(181, 0, 0, -208, -18731.04, 168075.56)" gradientUnits="userSpaceOnUse"><stop offset="0" stop-color="#929292"/><stop offset="1" stop-color="#9f9f9f"/></linearGradient><linearGradient id="linear-gradient-8" x1="102.85" y1="807.2" x2="103.85" y2="806.2" gradientTransform="matrix(72, 0, 0, -215, -7412.52, 173746.06)" gradientUnits="userSpaceOnUse"><stop offset="0" stop-color="#f4f4f4"/><stop offset="1" stop-color="#c1c1c1"/></linearGradient><linearGradient id="linear-gradient-9" x1="103.18" y1="807.84" x2="104.18" y2="806.84" gradientTransform="matrix(69, 0, 0, -170, -7096.02, 137636.54)" gradientUnits="userSpaceOnUse"><stop offset="0" stop-color="#bdbdbd"/><stop offset="1" stop-color="#9a9a9a"/></linearGradient><linearGradient id="linear-gradient-10" x1="103.63" y1="807.44" x2="104.63" y2="806.44" gradientTransform="matrix(156, 0, 0, -170, -16133.54, 137636.54)" gradientUnits="userSpaceOnUse"><stop offset="0" stop-color="#939393"/><stop offset="1" stop-color="#919191"/></linearGradient><linearGradient id="linear-gradient-11" x1="104.12" y1="807.96" x2="105.12" y2="806.96" gradientTransform="matrix(181, 0, 0, -154, -18731.04, 124716.54)" gradientUnits="userSpaceOnUse"><stop offset="0" stop-color="#858585"/><stop offset="1" stop-color="#bcbcbc"/></linearGradient><linearGradient id="linear-gradient-12" x1="103.75" y1="807.58" x2="104.75" y2="806.58" gradientTransform="matrix(183, 0, 0, -154, -18799.04, 124716.54)" gradientUnits="userSpaceOnUse"><stop offset="0" stop-color="#a8a8a8"/><stop offset="1" stop-color="#c3c3c3"/></linearGradient><linearGradient id="linear-gradient-13" x1="103.79" y1="807.52" x2="104.79" y2="806.52" gradientTransform="matrix(143, 0, 0, -195, -14579.04, 157700.04)" gradientUnits="userSpaceOnUse"><stop offset="0" stop-color="#d9d9d9"/><stop offset="1" stop-color="#b4b4b4"/></linearGradient><linearGradient id="linear-gradient-14" x1="103.95" y1="807.49" x2="104.95" y2="806.49" gradientTransform="matrix(193, 0, 0, -195, -19732.04, 157700.04)" gradientUnits="userSpaceOnUse"><stop offset="0" stop-color="#c8c8c8"/><stop offset="1" stop-color="#969696"/></linearGradient><linearGradient id="linear-gradient-15" x1="103.87" y1="807.47" x2="104.87" y2="806.47" gradientTransform="matrix(243, 0, 0, -166, -24960.06, 134145.54)" gradientUnits="userSpaceOnUse"><stop offset="0" stop-color="#d3d3d3"/><stop offset="1" stop-color="#757676"/></linearGradient><linearGradient id="linear-gradient-16" x1="104.25" y1="808.47" x2="105.25" y2="807.47" gradientTransform="matrix(240, 0, 0, -109, -24643.56, 88312.02)" gradientUnits="userSpaceOnUse"><stop offset="0" stop-color="#b6b6b6"/><stop offset="1" stop-color="#4f5051"/></linearGradient><linearGradient id="linear-gradient-17" x1="104.12" y1="809.24" x2="105.12" y2="808.24" gradientTransform="matrix(248, 0, 0, -72, -25568.56, 58262.52)" gradientUnits="userSpaceOnUse"><stop offset="0" stop-color="#9a9d9f"/><stop offset="1" stop-color="#d6d6d6"/></linearGradient><linearGradient id="linear-gradient-18" x1="104.16" y1="807.58" x2="105.16" y2="806.58" gradientTransform="matrix(243, 0, 0, -196, -24960.06, 158281.54)" gradientUnits="userSpaceOnUse"><stop offset="0" stop-color="#d3d3d3"/><stop offset="1" stop-color="#8c8d8d"/></linearGradient><linearGradient id="linear-gradient-19" x1="103.42" y1="807.67" x2="104.42" y2="806.67" gradientTransform="matrix(83, 0, 0, -196, -8078.02, 158281.54)" gradientUnits="userSpaceOnUse"><stop offset="0" stop-color="#363639"/><stop offset="1" stop-color="#777779"/></linearGradient><linearGradient id="linear-gradient-20" x1="104.18" y1="821.36" x2="105.18" y2="820.36" gradientTransform="matrix(484, 0, 0, -13, -50230.61, 10679)" gradientUnits="userSpaceOnUse"><stop offset="0" stop-color="#ced1d3"/><stop offset="1" stop-color="#afafb0"/></linearGradient><linearGradient id="linear-gradient-21" x1="104.15" y1="810.12" x2="105.15" y2="809.12" gradientTransform="matrix(236, 0, 0, -55, -24066.56, 44564.02)" gradientUnits="userSpaceOnUse"><stop offset="0" stop-color="#9e9fa0"/><stop offset="1" stop-color="#222325"/></linearGradient><linearGradient id="linear-gradient-22" x1="103.89" y1="807.76" x2="104.89" y2="806.76" gradientTransform="matrix(209, 0, 0, -142, -21164.04, 114784.54)" gradientUnits="userSpaceOnUse"><stop offset="0" stop-color="#1e1e20"/><stop offset="1" stop-color="#161719"/></linearGradient><linearGradient id="linear-gradient-23" x1="104.06" y1="808.2" x2="105.06" y2="807.2" gradientTransform="matrix(207, 0, 0, -119, -20953.04, 96180.04)" gradientUnits="userSpaceOnUse"><stop offset="0" stop-color="#07080a"/><stop offset="1" stop-color="#0f1012"/></linearGradient><linearGradient id="linear-gradient-24" x1="103.91" y1="807.63" x2="104.91" y2="806.63" gradientTransform="matrix(224, 0, 0, -155, -22778.55, 125411.04)" gradientUnits="userSpaceOnUse"><stop offset="0" stop-color="#4e4e4e"/><stop offset="1" stop-color="#38393a"/></linearGradient><linearGradient id="linear-gradient-25" x1="104.08" y1="807.51" x2="105.08" y2="806.51" gradientTransform="matrix(282, 0, 0, -183, -28961.56, 148102.04)" gradientUnits="userSpaceOnUse"><stop offset="0" stop-color="#737374"/><stop offset="1" stop-color="#272729"/></linearGradient><linearGradient id="linear-gradient-26" x1="104.15" y1="807.68" x2="105.15" y2="806.68" gradientTransform="matrix(224, 0, 0, -183, -22778.55, 148102.04)" gradientUnits="userSpaceOnUse"><stop offset="0" stop-color="#383839"/><stop offset="1" stop-color="#2d2d2f"/></linearGradient><linearGradient id="linear-gradient-27" x1="104.19" y1="807.71" x2="105.19" y2="806.71" gradientTransform="matrix(282, 0, 0, -170, -28961.56, 137732.54)" gradientUnits="userSpaceOnUse"><stop offset="0" stop-color="#727273"/><stop offset="1" stop-color="#69696b"/></linearGradient><linearGradient id="linear-gradient-28" x1="104.18" y1="807.55" x2="105.18" y2="806.55" gradientTransform="matrix(213, 0, 0, -221, -21934.04, 178864.06)" gradientUnits="userSpaceOnUse"><stop offset="0" stop-color="#a2a2a2"/><stop offset="1" stop-color="#8c8c8d"/></linearGradient><linearGradient id="linear-gradient-29" x1="103.78" y1="807.23" x2="104.78" y2="806.23" gradientTransform="matrix(184, 0, 0, -221, -18720.54, 178864.06)" gradientUnits="userSpaceOnUse"><stop offset="0" stop-color="#5a5b5b"/><stop offset="1" stop-color="#767677"/></linearGradient><linearGradient id="linear-gradient-30" x1="103.87" y1="807.21" x2="104.87" y2="806.21" gradientTransform="matrix(213, 0, 0, -229, -21934.04, 185358.06)" gradientUnits="userSpaceOnUse"><stop offset="0" stop-color="#5a5b5c"/><stop offset="1" stop-color="#3a3a3b"/></linearGradient><linearGradient id="linear-gradient-31" x1="103.85" y1="807.22" x2="104.85" y2="806.22" gradientTransform="matrix(179, 0, 0, -246, -18510.04, 199068.56)" gradientUnits="userSpaceOnUse"><stop offset="0" stop-color="#7e7f80"/><stop offset="1" stop-color="#666667"/></linearGradient><linearGradient id="linear-gradient-32" x1="103.87" y1="807.33" x2="104.87" y2="806.33" gradientTransform="matrix(156, 0, 0, -246, -16133.54, 199068.56)" gradientUnits="userSpaceOnUse"><stop offset="0" stop-color="#525253"/><stop offset="1" stop-color="#707071"/></linearGradient><linearGradient id="linear-gradient-33" x1="93.97" y1="806.77" x2="94.98" y2="805.77" gradientTransform="matrix(10, 0, 0, -566, -940.5, 456827.74)" gradientUnits="userSpaceOnUse"><stop offset="0" stop-color="#ccc"/><stop offset="1" stop-color="#969796"/></linearGradient><linearGradient id="linear-gradient-34" x1="102.77" y1="806.96" x2="103.77" y2="805.96" gradientTransform="matrix(64, 0, 0, -351, -6583.52, 283645.18)" gradientUnits="userSpaceOnUse"><stop offset="0" stop-color="#c5c5c5"/><stop offset="1" stop-color="#8f8f8f"/></linearGradient><linearGradient id="linear-gradient-35" x1="103.28" y1="807.34" x2="104.28" y2="806.34" gradientTransform="matrix(91, 0, 0, -214, -9405.02, 173292.56)" gradientUnits="userSpaceOnUse"><stop offset="0" stop-color="#7a7a7b"/><stop offset="1" stop-color="#6a6b6b"/></linearGradient><linearGradient id="linear-gradient-36" x1="103.38" y1="807.86" x2="104.38" y2="806.86" gradientTransform="matrix(91, 0, 0, -146, -9405.02, 118663.54)" gradientUnits="userSpaceOnUse"><stop offset="0" stop-color="#424444"/><stop offset="1" stop-color="#616263"/></linearGradient><linearGradient id="linear-gradient-37" x1="103.86" y1="807.63" x2="104.86" y2="806.63" gradientTransform="matrix(212, 0, 0, -153, -22037.54, 124310.04)" gradientUnits="userSpaceOnUse"><stop offset="0" stop-color="#2b2c2e"/><stop offset="1" stop-color="#535454"/></linearGradient><linearGradient id="linear-gradient-38" x1="104.1" y1="807.83" x2="105.1" y2="806.83" gradientTransform="matrix(179, 0, 0, -170, -18510.04, 138003.54)" gradientUnits="userSpaceOnUse"><stop offset="0" stop-color="#727273"/><stop offset="1" stop-color="#4d4e4f"/></linearGradient><linearGradient id="linear-gradient-39" x1="103.95" y1="807.47" x2="104.95" y2="806.47" gradientTransform="matrix(273, 0, 0, -170, -28200.06, 138003.54)" gradientUnits="userSpaceOnUse"><stop offset="0" stop-color="#646564"/><stop offset="1" stop-color="#545454"/></linearGradient><linearGradient id="linear-gradient-40" x1="104.14" y1="807.77" x2="105.14" y2="806.77" gradientTransform="matrix(227, 0, 0, -167, -23347.06, 135534.04)" gradientUnits="userSpaceOnUse"><stop offset="0" stop-color="#555"/><stop offset="1" stop-color="#575758"/></linearGradient><linearGradient id="linear-gradient-41" x1="103.93" y1="807.5" x2="104.93" y2="806.5" gradientTransform="matrix(154, 0, 0, -218, -15555.54, 176614.56)" gradientUnits="userSpaceOnUse"><stop offset="0" stop-color="#adadae"/><stop offset="1" stop-color="#bebebe"/></linearGradient><linearGradient id="linear-gradient-42" x1="103.86" y1="807.25" x2="104.86" y2="806.25" gradientTransform="matrix(208, 0, 0, -218, -21134.54, 176614.56)" gradientUnits="userSpaceOnUse"><stop offset="0" stop-color="#606060"/><stop offset="1" stop-color="silver"/></linearGradient><linearGradient id="linear-gradient-43" x1="103.72" y1="807.38" x2="104.72" y2="806.38" gradientTransform="matrix(118, 0, 0, -251, -11639.52, 203127.06)" gradientUnits="userSpaceOnUse"><stop offset="0" stop-color="#f0f0f0"/><stop offset="1" stop-color="#919192"/></linearGradient><linearGradient id="linear-gradient-44" x1="103.7" y1="807.12" x2="104.7" y2="806.12" gradientTransform="matrix(162, 0, 0, -251, -16139.54, 203127.06)" gradientUnits="userSpaceOnUse"><stop offset="0" stop-color="#828283"/><stop offset="1" stop-color="#d9d9d9"/></linearGradient><linearGradient id="linear-gradient-45" x1="104.03" y1="807.79" x2="105.03" y2="806.79" gradientTransform="matrix(310, 0, 0, -137, -31605.67, 111049.04)" gradientUnits="userSpaceOnUse"><stop offset="0" stop-color="#3b3a3d"/><stop offset="1" stop-color="#3b3a3d"/></linearGradient><linearGradient id="linear-gradient-46" x1="104.29" y1="807.41" x2="105.29" y2="806.41" gradientTransform="matrix(310, 0, 0, -251, -31605.67, 203062.06)" gradientUnits="userSpaceOnUse"><stop offset="0" stop-color="#828283"/><stop offset="1" stop-color="#989899"/></linearGradient><linearGradient id="linear-gradient-47" x1="103.79" y1="807.27" x2="104.79" y2="806.27" gradientTransform="matrix(148, 0, 0, -251, -14514.54, 203062.06)" gradientUnits="userSpaceOnUse"><stop offset="0" stop-color="#e3e3e3"/><stop offset="1" stop-color="#878788"/></linearGradient><linearGradient id="linear-gradient-48" x1="104.15" y1="808.18" x2="105.15" y2="807.18" gradientTransform="matrix(261, 0, 0, -119, -26443.06, 96180.04)" gradientUnits="userSpaceOnUse"><stop offset="0" stop-color="#333335"/><stop offset="1" stop-color="#252527"/></linearGradient><linearGradient id="linear-gradient-49" x1="104.08" y1="807.66" x2="105.08" y2="806.66" gradientTransform="matrix(207, 0, 0, -181, -20746.04, 146184.04)" gradientUnits="userSpaceOnUse"><stop offset="0" stop-color="#1d1d1f"/><stop offset="1" stop-color="#262728"/></linearGradient><linearGradient id="linear-gradient-50" x1="100.71" y1="807.04" x2="101.71" y2="806.04" gradientTransform="matrix(27, 0, 0, -423, -1749, 341357.1)" gradientUnits="userSpaceOnUse"><stop offset="0" stop-color="#121314"/><stop offset="1" stop-color="#0f0f11"/></linearGradient><linearGradient id="linear-gradient-51" x1="103.83" y1="808.52" x2="104.83" y2="807.52" gradientTransform="matrix(141, 0, 0, -100, -13783.04, 81461.52)" gradientUnits="userSpaceOnUse"><stop offset="0" stop-color="#e3e3e3"/><stop offset="1" stop-color="#d9d9d9"/></linearGradient><linearGradient id="linear-gradient-52" x1="89.72" y1="807.17" x2="90.72" y2="806.17" gradientTransform="matrix(7, 0, 0, -368, 355, 297603.69)" gradientUnits="userSpaceOnUse"><stop offset="0" stop-color="#d9d9d9"/><stop offset="1" stop-color="#a3a3a3"/></linearGradient><linearGradient id="linear-gradient-53" x1="89.61" y1="806.89" x2="90.61" y2="805.89" gradientTransform="matrix(7, 0, 0, -549, 361, 443399.23)" gradientUnits="userSpaceOnUse"><stop offset="0" stop-color="#c7c7c7"/><stop offset="1" stop-color="#8a8a8b"/></linearGradient><linearGradient id="linear-gradient-54" x1="104.11" y1="807.61" x2="105.11" y2="806.61" gradientTransform="matrix(227, 0, 0, -187, -22912.06, 151697.04)" gradientUnits="userSpaceOnUse"><stop offset="0" stop-color="#e1e1e1"/><stop offset="1" stop-color="#e4e4e4"/></linearGradient><linearGradient id="linear-gradient-55" x1="103.84" y1="807.66" x2="104.84" y2="806.66" gradientTransform="matrix(135, 0, 0, -187, -13156.04, 151697.04)" gradientUnits="userSpaceOnUse"><stop offset="0" stop-color="#dadada"/><stop offset="1" stop-color="#eee"/></linearGradient><linearGradient id="linear-gradient-56" x1="102.74" y1="807.3" x2="103.74" y2="806.3" gradientTransform="matrix(57, 0, 0, -268, -4920.02, 217053.66)" gradientUnits="userSpaceOnUse"><stop offset="0" stop-color="#fbfbfb"/><stop offset="1" stop-color="#d5d5d5"/></linearGradient><linearGradient id="linear-gradient-57" x1="104.02" y1="807.31" x2="105.02" y2="806.31" gradientTransform="matrix(227, 0, 0, -236, -22912.06, 191280.56)" gradientUnits="userSpaceOnUse"><stop offset="0" stop-color="#d4d4d4"/><stop offset="1" stop-color="#d4d4d4"/></linearGradient><linearGradient id="linear-gradient-58" x1="103.86" y1="808.13" x2="104.86" y2="807.13" gradientTransform="matrix(184, 0, 0, -114, -18318.54, 93009.52)" gradientUnits="userSpaceOnUse"><stop offset="0" stop-color="#f0f0f0"/><stop offset="1" stop-color="#c3c3c3"/></linearGradient><linearGradient id="linear-gradient-59" x1="104.13" y1="807.46" x2="105.13" y2="806.46" gradientTransform="matrix(208, 0, 0, -235, -21134.54, 190474.06)" gradientUnits="userSpaceOnUse"><stop offset="0" stop-color="#a0a0a0"/><stop offset="1" stop-color="#eaeaea"/></linearGradient><linearGradient id="linear-gradient-60" x1="103.85" y1="807.2" x2="104.85" y2="806.2" gradientTransform="matrix(199, 0, 0, -236, -20085.04, 191280.56)" gradientUnits="userSpaceOnUse"><stop offset="0" stop-color="#b5b5b5"/><stop offset="1" stop-color="#c5c5c5"/></linearGradient><linearGradient id="linear-gradient-61" x1="104.28" y1="807.81" x2="105.28" y2="806.81" gradientTransform="matrix(273, 0, 0, -170, -28200.06, 138120.54)" gradientUnits="userSpaceOnUse"><stop offset="0" stop-color="#38393a"/><stop offset="1" stop-color="#212223"/></linearGradient><linearGradient id="linear-gradient-62" x1="103.86" y1="807.51" x2="104.86" y2="806.51" gradientTransform="matrix(205, 0, 0, -170, -20917.04, 138120.54)" gradientUnits="userSpaceOnUse"><stop offset="0" stop-color="#909090"/><stop offset="1" stop-color="#a0a0a0"/></linearGradient><linearGradient id="linear-gradient-63" x1="104.18" y1="855.06" x2="105.18" y2="854.06" gradientTransform="matrix(404, 0, 0, -4, -41712.69, 4407.5)" gradientUnits="userSpaceOnUse"><stop offset="0" stop-color="#fafafa"/><stop offset="1" stop-color="#929292"/></linearGradient><linearGradient id="linear-gradient-64" x1="104.16" y1="808.26" x2="105.16" y2="807.26" gradientTransform="matrix(212, 0, 0, -121, -22037.54, 98647.04)" gradientUnits="userSpaceOnUse"><stop offset="0" stop-color="#424345"/><stop offset="1" stop-color="#595a5a"/></linearGradient><linearGradient id="linear-gradient-65" x1="103.9" y1="807.99" x2="104.9" y2="806.99" gradientTransform="matrix(246, 0, 0, -117, -25447.56, 95429.02)" gradientUnits="userSpaceOnUse"><stop offset="0" stop-color="#303132"/><stop offset="1" stop-color="#303032"/></linearGradient><linearGradient id="linear-gradient-66" x1="103.58" y1="807.88" x2="104.58" y2="806.88" gradientTransform="matrix(151, 0, 0, -121, -15671.04, 98647.04)" gradientUnits="userSpaceOnUse"><stop offset="0" stop-color="#2d2d2e"/><stop offset="1" stop-color="#4f4f4f"/></linearGradient><linearGradient id="linear-gradient-67" x1="95.74" y1="807.18" x2="96.74" y2="806.18" gradientTransform="matrix(12, 0, 0, -264, -1149.5, 213830.66)" gradientUnits="userSpaceOnUse"><stop offset="0" stop-color="#636464"/><stop offset="1" stop-color="#646566"/></linearGradient><linearGradient id="linear-gradient-68" x1="104.17" y1="807.89" x2="105.17" y2="806.89" gradientTransform="matrix(224, 0, 0, -155, -22731.55, 125411.04)" gradientUnits="userSpaceOnUse"><stop offset="0" stop-color="#38393b"/><stop offset="1" stop-color="#3d3d3f"/></linearGradient><linearGradient id="linear-gradient-69" x1="104.1" y1="808.2" x2="105.1" y2="807.2" gradientTransform="matrix(224, 0, 0, -119, -22731.55, 96299.04)" gradientUnits="userSpaceOnUse"><stop offset="0" stop-color="#040507"/><stop offset="1" stop-color="#070709"/></linearGradient><linearGradient id="linear-gradient-70" x1="103.97" y1="807.44" x2="104.97" y2="806.44" gradientTransform="matrix(246, 0, 0, -186, -24853.56, 150453.54)" gradientUnits="userSpaceOnUse"><stop offset="0" stop-color="#515253"/><stop offset="1" stop-color="#252627"/></linearGradient><linearGradient id="linear-gradient-71" x1="103.83" y1="808.02" x2="104.83" y2="807.02" gradientTransform="matrix(187, 0, 0, -119, -18656.04, 96299.04)" gradientUnits="userSpaceOnUse"><stop offset="0" stop-color="#070709"/><stop offset="1" stop-color="#0f1011"/></linearGradient><linearGradient id="linear-gradient-72" x1="104.13" y1="807.46" x2="105.13" y2="806.46" gradientTransform="matrix(199, 0, 0, -242, -19895.04, 195561.56)" gradientUnits="userSpaceOnUse"><stop offset="0" stop-color="#262728"/><stop offset="1" stop-color="#141416"/></linearGradient></defs><title>5</title><polygon id="triangle36" class="cls-1" points="7 3 7 154 230 129 7 3"/><polygon id="triangle36-2" data-name="triangle36" class="cls-2" points="7 3 230 129 243 0 7 3"/><polygon id="triangle36-3" data-name="triangle36" class="cls-3" points="230 129 243 0 329 72 230 129"/><polygon id="triangle36-4" data-name="triangle36" class="cls-4" points="230 129 329 72 332 238 230 129"/><polygon id="triangle36-5" data-name="triangle36" class="cls-5" points="230 129 332 238 260 321 230 129"/><polygon id="triangle36-6" data-name="triangle36" class="cls-6" points="7 154 230 129 79 337 7 154"/><polygon id="triangle36-7" data-name="triangle36" class="cls-7" points="230 129 260 321 79 337 230 129"/><polygon id="triangle36-8" data-name="triangle36" class="cls-8" points="7 154 79 337 10 369 7 154"/><polygon id="triangle36-9" data-name="triangle36" class="cls-9" points="10 369 79 337 64 507 10 369"/><polygon id="triangle36-10" data-name="triangle36" class="cls-10" points="64 507 79 337 220 475 64 507"/><polygon id="triangle36-11" data-name="triangle36" class="cls-11" points="79 337 260 321 220 475 79 337"/><polygon id="triangle36-12" data-name="triangle36" class="cls-12" points="220 475 260 321 403 433 220 475"/><polygon id="triangle36-13" data-name="triangle36" class="cls-13" points="260 321 332 238 403 433 260 321"/><polygon id="triangle36-14" data-name="triangle36" class="cls-14" points="332 238 403 433 525 318 332 238"/><polygon id="triangle36-15" data-name="triangle36" class="cls-15" points="329 72 332 238 572 209 329 72"/><polygon id="triangle36-16" data-name="triangle36" class="cls-16" points="332 238 525 318 572 209 332 238"/><polygon id="triangle36-17" data-name="triangle36" class="cls-17" points="243 0 329 72 491 13 243 0"/><polygon id="triangle36-18" data-name="triangle36" class="cls-18" points="329 72 572 209 491 13 329 72"/><polygon id="triangle36-19" data-name="triangle36" class="cls-19" points="572 209 574 67 491 13 572 209"/><polygon id="triangle36-20" data-name="triangle36" class="cls-20" points="243 0 491 13 727 12 243 0"/><polygon id="triangle36-21" data-name="triangle36" class="cls-21" points="491 13 574 67 727 12 491 13"/><polygon id="triangle36-22" data-name="triangle36" class="cls-22" points="572 209 574 67 781 131 572 209"/><polygon id="triangle36-23" data-name="triangle36" class="cls-23" points="574 67 727 12 781 131 574 67"/><polygon id="triangle36-24" data-name="triangle36" class="cls-24" points="525 318 572 209 749 364 525 318"/><polygon id="triangle36-25" data-name="triangle36" class="cls-25" points="403 433 525 318 685 501 403 433"/><polygon id="triangle36-26" data-name="triangle36" class="cls-26" points="525 318 749 364 685 501 525 318"/><polygon id="triangle36-27" data-name="triangle36" class="cls-27" points="403 433 685 501 587 603 403 433"/><polygon id="triangle36-28" data-name="triangle36" class="cls-28" points="220 475 403 433 433 654 220 475"/><polygon id="triangle36-29" data-name="triangle36" class="cls-29" points="403 433 587 603 433 654 403 433"/><polygon id="triangle36-30" data-name="triangle36" class="cls-30" points="220 475 433 654 270 704 220 475"/><polygon id="triangle36-31" data-name="triangle36" class="cls-31" points="220 475 270 704 91 721 220 475"/><polygon id="triangle36-32" data-name="triangle36" class="cls-32" points="64 507 220 475 91 721 64 507"/><polygon id="triangle36-33" data-name="triangle36" class="cls-33" points="7 154 10 369 0 720 7 154"/><polygon id="triangle36-34" data-name="triangle36" class="cls-34" points="10 369 64 507 0 720 10 369"/><polygon id="triangle36-35" data-name="triangle36" class="cls-35" points="64 507 91 721 0 720 64 507"/><polygon id="triangle36-36" data-name="triangle36" class="cls-36" points="0 720 91 721 12 866 0 720"/><polygon id="triangle36-37" data-name="triangle36" class="cls-37" points="12 866 91 721 224 874 12 866"/><polygon id="triangle36-38" data-name="triangle36" class="cls-38" points="91 721 270 704 224 874 91 721"/><polygon id="triangle36-39" data-name="triangle36" class="cls-39" points="224 874 270 704 497 821 224 874"/><polygon id="triangle36-40" data-name="triangle36" class="cls-40" points="270 704 433 654 497 821 270 704"/><polygon id="triangle36-41" data-name="triangle36" class="cls-41" points="433 654 587 603 497 821 433 654"/><polygon id="triangle36-42" data-name="triangle36" class="cls-42" points="497 821 587 603 705 752 497 821"/><polygon id="triangle36-43" data-name="triangle36" class="cls-43" points="587 603 685 501 705 752 587 603"/><polygon id="triangle36-44" data-name="triangle36" class="cls-44" points="685 501 705 752 847 687 685 501"/><polygon id="triangle36-45" data-name="triangle36" class="cls-45" points="685 501 749 364 995 436 685 501"/><polygon id="triangle36-46" data-name="triangle36" class="cls-46" points="685 501 847 687 995 436 685 501"/><polygon id="triangle36-47" data-name="triangle36" class="cls-47" points="847 687 988 617 995 436 847 687"/><polygon id="triangle36-48" data-name="triangle36" class="cls-48" points="727 12 781 131 988 13 727 12"/><polygon id="triangle36-49" data-name="triangle36" class="cls-49" points="781 131 968 194 988 13 781 131"/><polygon id="triangle36-50" data-name="triangle36" class="cls-50" points="968 194 995 436 988 13 968 194"/><polygon id="triangle36-51" data-name="triangle36" class="cls-51" points="847 687 988 617 982 717 847 687"/><polygon id="triangle36-52" data-name="triangle36" class="cls-52" points="982 717 988 617 989 985 982 717"/><polygon id="triangle36-53" data-name="triangle36" class="cls-53" points="988 617 995 436 989 985 988 617"/><polygon id="triangle36-54" data-name="triangle36" class="cls-54" points="705 752 847 687 932 874 705 752"/><polygon id="triangle36-55" data-name="triangle36" class="cls-55" points="847 687 982 717 932 874 847 687"/><polygon id="triangle36-56" data-name="triangle36" class="cls-56" points="982 717 989 985 932 874 982 717"/><polygon id="triangle36-57" data-name="triangle36" class="cls-57" points="705 752 932 874 805 988 705 752"/><polygon id="triangle36-58" data-name="triangle36" class="cls-58" points="932 874 989 985 805 988 932 874"/><polygon id="triangle36-59" data-name="triangle36" class="cls-59" points="497 821 705 752 606 987 497 821"/><polygon id="triangle36-60" data-name="triangle36" class="cls-60" points="705 752 805 988 606 987 705 752"/><polygon id="triangle36-61" data-name="triangle36" class="cls-61" points="224 874 497 821 401 991 224 874"/><polygon id="triangle36-62" data-name="triangle36" class="cls-62" points="497 821 606 987 401 991 497 821"/><polygon id="triangle36-63" data-name="triangle36" class="cls-63" points="606 987 805 988 401 991 606 987"/><polygon id="triangle36-64" data-name="triangle36" class="cls-64" points="12 866 224 874 155 987 12 866"/><polygon id="triangle36-65" data-name="triangle36" class="cls-65" points="224 874 401 991 155 987 224 874"/><polygon id="triangle36-66" data-name="triangle36" class="cls-66" points="12 866 155 987 4 984 12 866"/><polygon id="triangle36-67" data-name="triangle36" class="cls-67" points="0 720 12 866 4 984 0 720"/><polygon id="triangle36-68" data-name="triangle36" class="cls-68" points="572 209 749 364 796 250 572 209"/><polygon id="triangle36-69" data-name="triangle36" class="cls-69" points="572 209 781 131 796 250 572 209"/><polygon id="triangle36-70" data-name="triangle36" class="cls-70" points="749 364 995 436 796 250 749 364"/><polygon id="triangle36-71" data-name="triangle36" class="cls-71" points="781 131 968 194 796 250 781 131"/><polygon id="triangle36-72" data-name="triangle36" class="cls-72" points="968 194 995 436 796 250 968 194"/></svg>