<?xml version="1.0" encoding="utf-8"?>
<!-- Generator: Adobe Illustrator 21.1.0, SVG Export Plug-In . SVG Version: 6.00 Build 0)  -->
<svg version="1.1" id="Layer_1" xmlns="http://www.w3.org/2000/svg" xmlns:xlink="http://www.w3.org/1999/xlink" x="0px" y="0px"
	 viewBox="0 0 1000 1000" enable-background="new 0 0 1000 1000" xml:space="preserve">
<linearGradient id="triangle36_72_" gradientUnits="userSpaceOnUse" x1="103.823" y1="807.5797" x2="104.823" y2="806.5797" gradientTransform="matrix(223 0 0 -151 -23189.0547 121985.0391)">
	<stop  offset="0" style="stop-color:#6A6D77"/>
	<stop  offset="1" style="stop-color:#767676"/>
</linearGradient>
<polygon id="triangle36" fill="url(#triangle36_72_)" points="10,9 10,160 233,135 "/>
<linearGradient id="triangle36_73_" gradientUnits="userSpaceOnUse" x1="104.294" y1="808.244" x2="105.2939" y2="807.244" gradientTransform="matrix(236 0 0 -129 -24547.5566 104239.0391)">
	<stop  offset="0" style="stop-color:#7A7C84"/>
	<stop  offset="1" style="stop-color:#777879"/>
</linearGradient>
<polygon id="triangle36_1_" fill="url(#triangle36_73_)" points="10,9 233,135 246,6 "/>
<linearGradient id="triangle36_74_" gradientUnits="userSpaceOnUse" x1="103.3053" y1="807.8683" x2="104.3053" y2="806.8683" gradientTransform="matrix(99 0 0 -129 -10008.0215 104239.0391)">
	<stop  offset="0" style="stop-color:#747474"/>
	<stop  offset="1" style="stop-color:#7F8081"/>
</linearGradient>
<polygon id="triangle36_2_" fill="url(#triangle36_74_)" points="233,135 246,6 332,78 "/>
<linearGradient id="triangle36_75_" gradientUnits="userSpaceOnUse" x1="103.6329" y1="807.8284" x2="104.6328" y2="806.8284" gradientTransform="matrix(102 0 0 -166 -10321.5215 134151.5469)">
	<stop  offset="0" style="stop-color:#929292"/>
	<stop  offset="1" style="stop-color:#989898"/>
</linearGradient>
<polygon id="triangle36_3_" fill="url(#triangle36_75_)" points="233,135 332,78 335,244 "/>
<linearGradient id="triangle36_76_" gradientUnits="userSpaceOnUse" x1="103.4073" y1="807.4448" x2="104.4073" y2="806.4449" gradientTransform="matrix(102 0 0 -192 -10321.5215 155177.5469)">
	<stop  offset="0" style="stop-color:#737373"/>
	<stop  offset="1" style="stop-color:#818181"/>
</linearGradient>
<polygon id="triangle36_4_" fill="url(#triangle36_76_)" points="233,135 335,244 263,327 "/>
<linearGradient id="triangle36_77_" gradientUnits="userSpaceOnUse" x1="104.1126" y1="807.5159" x2="105.1126" y2="806.5159" gradientTransform="matrix(223 0 0 -208 -23189.0547 168081.5625)">
	<stop  offset="0" style="stop-color:#838383"/>
	<stop  offset="1" style="stop-color:#636363"/>
</linearGradient>
<polygon id="triangle36_5_" fill="url(#triangle36_77_)" points="10,160 233,135 82,343 "/>
<linearGradient id="triangle36_78_" gradientUnits="userSpaceOnUse" x1="103.8824" y1="807.3929" x2="104.8824" y2="806.3929" gradientTransform="matrix(181 0 0 -208 -18728.0391 168081.5625)">
	<stop  offset="0" style="stop-color:#585858"/>
	<stop  offset="1" style="stop-color:#606060"/>
</linearGradient>
<polygon id="triangle36_6_" fill="url(#triangle36_78_)" points="233,135 263,327 82,343 "/>
<linearGradient id="triangle36_79_" gradientUnits="userSpaceOnUse" x1="102.8465" y1="807.2025" x2="103.8465" y2="806.2026" gradientTransform="matrix(72 0 0 -215 -7409.5181 173752.0625)">
	<stop  offset="0" style="stop-color:#A8A8A8"/>
	<stop  offset="1" style="stop-color:#767676"/>
</linearGradient>
<polygon id="triangle36_7_" fill="url(#triangle36_79_)" points="10,160 82,343 13,375 "/>
<linearGradient id="triangle36_80_" gradientUnits="userSpaceOnUse" x1="103.1812" y1="807.8402" x2="104.1812" y2="806.8402" gradientTransform="matrix(69 0 0 -170 -7093.0171 137642.5469)">
	<stop  offset="0" style="stop-color:#737373"/>
	<stop  offset="1" style="stop-color:#5D5D5D"/>
</linearGradient>
<polygon id="triangle36_8_" fill="url(#triangle36_80_)" points="13,375 82,343 67,513 "/>
<linearGradient id="triangle36_81_" gradientUnits="userSpaceOnUse" x1="103.6275" y1="807.4413" x2="104.6275" y2="806.4413" gradientTransform="matrix(156 0 0 -170 -16130.5381 137642.5469)">
	<stop  offset="0" style="stop-color:#585858"/>
	<stop  offset="1" style="stop-color:#575757"/>
</linearGradient>
<polygon id="triangle36_9_" fill="url(#triangle36_81_)" points="67,513 82,343 223,481 "/>
<linearGradient id="triangle36_82_" gradientUnits="userSpaceOnUse" x1="104.1181" y1="807.9575" x2="105.1181" y2="806.9575" gradientTransform="matrix(181 0 0 -154 -18728.0391 124722.5391)">
	<stop  offset="0" style="stop-color:#4F4F4F"/>
	<stop  offset="1" style="stop-color:#737373"/>
</linearGradient>
<polygon id="triangle36_10_" fill="url(#triangle36_82_)" points="82,343 263,327 223,481 "/>
<linearGradient id="triangle36_83_" gradientUnits="userSpaceOnUse" x1="103.7476" y1="807.5812" x2="104.7476" y2="806.5812" gradientTransform="matrix(183 0 0 -154 -18796.041 124722.5391)">
	<stop  offset="0" style="stop-color:#666666"/>
	<stop  offset="1" style="stop-color:#777777"/>
</linearGradient>
<polygon id="triangle36_11_" fill="url(#triangle36_83_)" points="223,481 263,327 406,439 "/>
<linearGradient id="triangle36_84_" gradientUnits="userSpaceOnUse" x1="103.7893" y1="807.5168" x2="104.7893" y2="806.5168" gradientTransform="matrix(143 0 0 -195 -14576.0361 157706.0469)">
	<stop  offset="0" style="stop-color:#8D8D8D"/>
	<stop  offset="1" style="stop-color:#6D6D6D"/>
</linearGradient>
<polygon id="triangle36_12_" fill="url(#triangle36_84_)" points="263,327 335,244 406,439 "/>
<linearGradient id="triangle36_85_" gradientUnits="userSpaceOnUse" x1="103.9482" y1="807.4871" x2="104.9482" y2="806.4871" gradientTransform="matrix(193 0 0 -195 -19729.043 157706.0469)">
	<stop  offset="0" style="stop-color:#7C7C7C"/>
	<stop  offset="1" style="stop-color:#5A5A5A"/>
</linearGradient>
<polygon id="triangle36_13_" fill="url(#triangle36_85_)" points="335,244 406,439 528,324 "/>
<linearGradient id="triangle36_86_" gradientUnits="userSpaceOnUse" x1="103.867" y1="807.4687" x2="104.867" y2="806.4687" gradientTransform="matrix(243 0 0 -166 -24957.0586 134151.5469)">
	<stop  offset="0" style="stop-color:#878787"/>
	<stop  offset="1" style="stop-color:#454646"/>
</linearGradient>
<polygon id="triangle36_14_" fill="url(#triangle36_86_)" points="332,78 335,244 575,215 "/>
<linearGradient id="triangle36_87_" gradientUnits="userSpaceOnUse" x1="104.2484" y1="808.468" x2="105.2484" y2="807.468" gradientTransform="matrix(240 0 0 -109 -24640.5566 88318.0234)">
	<stop  offset="0" style="stop-color:#6F6F6F"/>
	<stop  offset="1" style="stop-color:#2D2E2E"/>
</linearGradient>
<polygon id="triangle36_15_" fill="url(#triangle36_87_)" points="335,244 528,324 575,215 "/>
<linearGradient id="triangle36_88_" gradientUnits="userSpaceOnUse" x1="104.1204" y1="809.2432" x2="105.1204" y2="808.2432" gradientTransform="matrix(248 0 0 -72 -25565.5586 58268.5195)">
	<stop  offset="0" style="stop-color:#5D5F60"/>
	<stop  offset="1" style="stop-color:#8A8A8A"/>
</linearGradient>
<polygon id="triangle36_16_" fill="url(#triangle36_88_)" points="246,6 332,78 494,19 "/>
<linearGradient id="triangle36_89_" gradientUnits="userSpaceOnUse" x1="104.1619" y1="807.5837" x2="105.1619" y2="806.5837" gradientTransform="matrix(243 0 0 -196 -24957.0586 158287.5469)">
	<stop  offset="0" style="stop-color:#878787"/>
	<stop  offset="1" style="stop-color:#545555"/>
</linearGradient>
<polygon id="triangle36_17_" fill="url(#triangle36_89_)" points="332,78 575,215 494,19 "/>
<linearGradient id="triangle36_90_" gradientUnits="userSpaceOnUse" x1="103.4163" y1="807.6677" x2="104.4163" y2="806.6677" gradientTransform="matrix(83 0 0 -196 -8075.019 158287.5469)">
	<stop  offset="0" style="stop-color:#1D1D1F"/>
	<stop  offset="1" style="stop-color:#474748"/>
</linearGradient>
<polygon id="triangle36_18_" fill="url(#triangle36_90_)" points="575,215 577,73 494,19 "/>
<linearGradient id="triangle36_91_" gradientUnits="userSpaceOnUse" x1="104.1816" y1="821.3589" x2="105.1817" y2="820.3589" gradientTransform="matrix(484 0 0 -13 -50227.6094 10685)">
	<stop  offset="0" style="stop-color:#848687"/>
	<stop  offset="1" style="stop-color:#6A6A6B"/>
</linearGradient>
<polygon id="triangle36_19_" fill="url(#triangle36_91_)" points="246,6 494,19 730,18 "/>
<linearGradient id="triangle36_92_" gradientUnits="userSpaceOnUse" x1="104.1455" y1="810.1244" x2="105.1455" y2="809.1244" gradientTransform="matrix(236 0 0 -55 -24063.5566 44570.0156)">
	<stop  offset="0" style="stop-color:#5F6061"/>
	<stop  offset="1" style="stop-color:#101112"/>
</linearGradient>
<polygon id="triangle36_20_" fill="url(#triangle36_92_)" points="494,19 577,73 730,18 "/>
<linearGradient id="triangle36_93_" gradientUnits="userSpaceOnUse" x1="103.8877" y1="807.7571" x2="104.8877" y2="806.7571" gradientTransform="matrix(209 0 0 -142 -21161.0449 114790.5391)">
	<stop  offset="0" style="stop-color:#1E1E20"/>
	<stop  offset="1" style="stop-color:#161719"/>
</linearGradient>
<polygon id="triangle36_21_" fill="url(#triangle36_93_)" points="575,215 577,73 784,137 "/>
<linearGradient id="triangle36_94_" gradientUnits="userSpaceOnUse" x1="104.0644" y1="808.2042" x2="105.0644" y2="807.2042" gradientTransform="matrix(207 0 0 -119 -20950.043 96186.0313)">
	<stop  offset="0" style="stop-color:#07080A"/>
	<stop  offset="1" style="stop-color:#0F1012"/>
</linearGradient>
<polygon id="triangle36_22_" fill="url(#triangle36_94_)" points="577,73 730,18 784,137 "/>
<linearGradient id="triangle36_95_" gradientUnits="userSpaceOnUse" x1="103.9109" y1="807.6312" x2="104.9109" y2="806.6312" gradientTransform="matrix(224 0 0 -155 -22775.5547 125417.0391)">
	<stop  offset="0" style="stop-color:#2C2C2C"/>
	<stop  offset="1" style="stop-color:#1E1F1F"/>
</linearGradient>
<polygon id="triangle36_23_" fill="url(#triangle36_95_)" points="528,324 575,215 752,370 "/>
<linearGradient id="triangle36_96_" gradientUnits="userSpaceOnUse" x1="104.0807" y1="807.5141" x2="105.0807" y2="806.5141" gradientTransform="matrix(282 0 0 -183 -28958.5605 148108.0469)">
	<stop  offset="0" style="stop-color:#444445"/>
	<stop  offset="1" style="stop-color:#131314"/>
</linearGradient>
<polygon id="triangle36_24_" fill="url(#triangle36_96_)" points="406,439 528,324 688,507 "/>
<linearGradient id="triangle36_97_" gradientUnits="userSpaceOnUse" x1="104.1495" y1="807.6788" x2="105.1495" y2="806.6788" gradientTransform="matrix(224 0 0 -183 -22775.5547 148108.0469)">
	<stop  offset="0" style="stop-color:#1E1E1F"/>
	<stop  offset="1" style="stop-color:#171718"/>
</linearGradient>
<polygon id="triangle36_25_" fill="url(#triangle36_97_)" points="528,324 752,370 688,507 "/>
<linearGradient id="triangle36_98_" gradientUnits="userSpaceOnUse" x1="104.1928" y1="807.7075" x2="105.1928" y2="806.7075" gradientTransform="matrix(282 0 0 -170 -28958.5605 137738.5469)">
	<stop  offset="0" style="stop-color:#434344"/>
	<stop  offset="1" style="stop-color:#3E3E3F"/>
</linearGradient>
<polygon id="triangle36_26_" fill="url(#triangle36_98_)" points="406,439 688,507 590,609 "/>
<linearGradient id="triangle36_99_" gradientUnits="userSpaceOnUse" x1="104.1767" y1="807.5478" x2="105.1767" y2="806.5478" gradientTransform="matrix(213 0 0 -221 -21931.0449 178870.0625)">
	<stop  offset="0" style="stop-color:#626262"/>
	<stop  offset="1" style="stop-color:#545455"/>
</linearGradient>
<polygon id="triangle36_27_" fill="url(#triangle36_99_)" points="223,481 406,439 436,660 "/>
<linearGradient id="triangle36_100_" gradientUnits="userSpaceOnUse" x1="103.7807" y1="807.2288" x2="104.7807" y2="806.2288" gradientTransform="matrix(184 0 0 -221 -18717.541 178870.0625)">
	<stop  offset="0" style="stop-color:#343535"/>
	<stop  offset="1" style="stop-color:#464646"/>
</linearGradient>
<polygon id="triangle36_28_" fill="url(#triangle36_100_)" points="406,439 590,609 436,660 "/>
<linearGradient id="triangle36_101_" gradientUnits="userSpaceOnUse" x1="103.8729" y1="807.2129" x2="104.8729" y2="806.2129" gradientTransform="matrix(213 0 0 -229 -21931.0449 185364.0625)">
	<stop  offset="0" style="stop-color:#343535"/>
	<stop  offset="1" style="stop-color:#1F1F20"/>
</linearGradient>
<polygon id="triangle36_29_" fill="url(#triangle36_101_)" points="223,481 436,660 273,710 "/>
<linearGradient id="triangle36_102_" gradientUnits="userSpaceOnUse" x1="103.8466" y1="807.2211" x2="104.8466" y2="806.2211" gradientTransform="matrix(179 0 0 -246 -18507.0391 199074.5625)">
	<stop  offset="0" style="stop-color:#4B4C4C"/>
	<stop  offset="1" style="stop-color:#3C3C3C"/>
</linearGradient>
<polygon id="triangle36_30_" fill="url(#triangle36_102_)" points="223,481 273,710 94,727 "/>
<linearGradient id="triangle36_103_" gradientUnits="userSpaceOnUse" x1="103.8738" y1="807.334" x2="104.8738" y2="806.334" gradientTransform="matrix(156 0 0 -246 -16130.5381 199074.5625)">
	<stop  offset="0" style="stop-color:#2F2F2F"/>
	<stop  offset="1" style="stop-color:#424243"/>
</linearGradient>
<polygon id="triangle36_31_" fill="url(#triangle36_103_)" points="67,513 223,481 94,727 "/>
<linearGradient id="triangle36_104_" gradientUnits="userSpaceOnUse" x1="93.9748" y1="806.7692" x2="94.975" y2="805.769" gradientTransform="matrix(10 0 0 -566 -937.5 456833.75)">
	<stop  offset="0" style="stop-color:#808080"/>
	<stop  offset="1" style="stop-color:#5A5B5A"/>
</linearGradient>
<polygon id="triangle36_32_" fill="url(#triangle36_104_)" points="10,160 13,375 3,726 "/>
<linearGradient id="triangle36_105_" gradientUnits="userSpaceOnUse" x1="102.7697" y1="806.9558" x2="103.7697" y2="805.9558" gradientTransform="matrix(64 0 0 -351 -6580.5171 283651.1875)">
	<stop  offset="0" style="stop-color:#797979"/>
	<stop  offset="1" style="stop-color:#565656"/>
</linearGradient>
<polygon id="triangle36_33_" fill="url(#triangle36_105_)" points="13,375 67,513 3,726 "/>
<linearGradient id="triangle36_106_" gradientUnits="userSpaceOnUse" x1="103.2791" y1="807.3359" x2="104.2791" y2="806.3359" gradientTransform="matrix(91 0 0 -214 -9402.0195 173298.5625)">
	<stop  offset="0" style="stop-color:#484849"/>
	<stop  offset="1" style="stop-color:#3E3F3F"/>
</linearGradient>
<polygon id="triangle36_34_" fill="url(#triangle36_106_)" points="67,513 94,727 3,726 "/>
<linearGradient id="triangle36_107_" gradientUnits="userSpaceOnUse" x1="103.3831" y1="807.8637" x2="104.3831" y2="806.8637" gradientTransform="matrix(91 0 0 -146 -9402.0195 118669.5391)">
	<stop  offset="0" style="stop-color:#252626"/>
	<stop  offset="1" style="stop-color:#38393A"/>
</linearGradient>
<polygon id="triangle36_35_" fill="url(#triangle36_107_)" points="3,726 94,727 15,872 "/>
<linearGradient id="triangle36_108_" gradientUnits="userSpaceOnUse" x1="103.8639" y1="807.6274" x2="104.8639" y2="806.6274" gradientTransform="matrix(212 0 0 -153 -22034.5449 124316.0391)">
	<stop  offset="0" style="stop-color:#161718"/>
	<stop  offset="1" style="stop-color:#2F3030"/>
</linearGradient>
<polygon id="triangle36_36_" fill="url(#triangle36_108_)" points="15,872 94,727 227,880 "/>
<linearGradient id="triangle36_109_" gradientUnits="userSpaceOnUse" x1="104.102" y1="807.8303" x2="105.102" y2="806.8303" gradientTransform="matrix(179 0 0 -170 -18507.0391 138009.5469)">
	<stop  offset="0" style="stop-color:#434344"/>
	<stop  offset="1" style="stop-color:#2C2C2D"/>
</linearGradient>
<polygon id="triangle36_37_" fill="url(#triangle36_109_)" points="94,727 273,710 227,880 "/>
<linearGradient id="triangle36_110_" gradientUnits="userSpaceOnUse" x1="103.9453" y1="807.4724" x2="104.9453" y2="806.4724" gradientTransform="matrix(273 0 0 -170 -28197.0605 138009.5469)">
	<stop  offset="0" style="stop-color:#3A3B3A"/>
	<stop  offset="1" style="stop-color:#303030"/>
</linearGradient>
<polygon id="triangle36_38_" fill="url(#triangle36_110_)" points="227,880 273,710 500,827 "/>
<linearGradient id="triangle36_111_" gradientUnits="userSpaceOnUse" x1="104.1446" y1="807.7695" x2="105.1446" y2="806.7695" gradientTransform="matrix(227 0 0 -167 -23344.0566 135540.0469)">
	<stop  offset="0" style="stop-color:#313131"/>
	<stop  offset="1" style="stop-color:#323233"/>
</linearGradient>
<polygon id="triangle36_39_" fill="url(#triangle36_111_)" points="273,710 436,660 500,827 "/>
<linearGradient id="triangle36_112_" gradientUnits="userSpaceOnUse" x1="103.9256" y1="807.4963" x2="104.9256" y2="806.4964" gradientTransform="matrix(154 0 0 -218 -15552.5371 176620.5625)">
	<stop  offset="0" style="stop-color:#69696A"/>
	<stop  offset="1" style="stop-color:#747474"/>
</linearGradient>
<polygon id="triangle36_40_" fill="url(#triangle36_112_)" points="436,660 590,609 500,827 "/>
<linearGradient id="triangle36_113_" gradientUnits="userSpaceOnUse" x1="103.8558" y1="807.2509" x2="104.8558" y2="806.2509" gradientTransform="matrix(208 0 0 -218 -21131.5449 176620.5625)">
	<stop  offset="0" style="stop-color:#383838"/>
	<stop  offset="1" style="stop-color:#757575"/>
</linearGradient>
<polygon id="triangle36_41_" fill="url(#triangle36_113_)" points="500,827 590,609 708,758 "/>
<linearGradient id="triangle36_114_" gradientUnits="userSpaceOnUse" x1="103.721" y1="807.3808" x2="104.721" y2="806.3808" gradientTransform="matrix(118 0 0 -251 -11636.5234 203133.0625)">
	<stop  offset="0" style="stop-color:#A4A4A4"/>
	<stop  offset="1" style="stop-color:#575758"/>
</linearGradient>
<polygon id="triangle36_42_" fill="url(#triangle36_114_)" points="590,609 688,507 708,758 "/>
<linearGradient id="triangle36_115_" gradientUnits="userSpaceOnUse" x1="103.7008" y1="807.1207" x2="104.7008" y2="806.1208" gradientTransform="matrix(162 0 0 -251 -16136.5381 203133.0625)">
	<stop  offset="0" style="stop-color:#4E4E4E"/>
	<stop  offset="1" style="stop-color:#8D8D8D"/>
</linearGradient>
<polygon id="triangle36_43_" fill="url(#triangle36_115_)" points="688,507 708,758 850,693 "/>
<linearGradient id="triangle36_116_" gradientUnits="userSpaceOnUse" x1="104.0326" y1="807.7881" x2="105.0326" y2="806.7881" gradientTransform="matrix(310 0 0 -137 -31602.6699 111055.0391)">
	<stop  offset="0" style="stop-color:#202021"/>
	<stop  offset="1" style="stop-color:#202021"/>
</linearGradient>
<polygon id="triangle36_44_" fill="url(#triangle36_116_)" points="688,507 752,370 998,442 "/>
<linearGradient id="triangle36_117_" gradientUnits="userSpaceOnUse" x1="104.2946" y1="807.4053" x2="105.2946" y2="806.4053" gradientTransform="matrix(310 0 0 -251 -31602.6699 203068.0625)">
	<stop  offset="0" style="stop-color:#4E4E4E"/>
	<stop  offset="1" style="stop-color:#5C5C5C"/>
</linearGradient>
<polygon id="triangle36_45_" fill="url(#triangle36_117_)" points="688,507 850,693 998,442 "/>
<linearGradient id="triangle36_118_" gradientUnits="userSpaceOnUse" x1="103.7944" y1="807.2749" x2="104.7944" y2="806.2749" gradientTransform="matrix(148 0 0 -251 -14511.5371 203068.0625)">
	<stop  offset="0" style="stop-color:#979797"/>
	<stop  offset="1" style="stop-color:#515151"/>
</linearGradient>
<polygon id="triangle36_46_" fill="url(#triangle36_118_)" points="850,693 991,623 998,442 "/>
<linearGradient id="triangle36_119_" gradientUnits="userSpaceOnUse" x1="104.1495" y1="808.1844" x2="105.1495" y2="807.1844" gradientTransform="matrix(261 0 0 -119 -26440.0605 96186.0313)">
	<stop  offset="0" style="stop-color:#1B1B1C"/>
	<stop  offset="1" style="stop-color:#121213"/>
</linearGradient>
<polygon id="triangle36_47_" fill="url(#triangle36_119_)" points="730,18 784,137 991,19 "/>
<linearGradient id="triangle36_120_" gradientUnits="userSpaceOnUse" x1="104.0818" y1="807.6624" x2="105.0818" y2="806.6624" gradientTransform="matrix(207 0 0 -181 -20743.043 146190.0469)">
	<stop  offset="0" style="stop-color:#1D1D1F"/>
	<stop  offset="1" style="stop-color:#131314"/>
</linearGradient>
<polygon id="triangle36_48_" fill="url(#triangle36_120_)" points="784,137 971,200 991,19 "/>
<linearGradient id="triangle36_121_" gradientUnits="userSpaceOnUse" x1="100.7078" y1="807.0383" x2="101.7078" y2="806.0383" gradientTransform="matrix(27 0 0 -423 -1746 341363.0938)">
	<stop  offset="0" style="stop-color:#121314"/>
	<stop  offset="1" style="stop-color:#0F0F11"/>
</linearGradient>
<polygon id="triangle36_49_" fill="url(#triangle36_121_)" points="971,200 998,442 991,19 "/>
<linearGradient id="triangle36_122_" gradientUnits="userSpaceOnUse" x1="103.8344" y1="808.5199" x2="104.8344" y2="807.5199" gradientTransform="matrix(141 0 0 -100 -13780.0361 81467.5234)">
	<stop  offset="0" style="stop-color:#979797"/>
	<stop  offset="1" style="stop-color:#8D8D8D"/>
</linearGradient>
<polygon id="triangle36_50_" fill="url(#triangle36_122_)" points="850,693 991,623 985,723 "/>
<linearGradient id="triangle36_123_" gradientUnits="userSpaceOnUse" x1="89.7184" y1="807.1748" x2="90.7184" y2="806.1748" gradientTransform="matrix(7 0 0 -368 358 297609.6875)">
	<stop  offset="0" style="stop-color:#8D8D8D"/>
	<stop  offset="1" style="stop-color:#636363"/>
</linearGradient>
<polygon id="triangle36_51_" fill="url(#triangle36_123_)" points="985,723 991,623 992,991 "/>
<linearGradient id="triangle36_124_" gradientUnits="userSpaceOnUse" x1="89.6077" y1="806.8899" x2="90.6077" y2="805.8898" gradientTransform="matrix(7 0 0 -549 364 443405.2188)">
	<stop  offset="0" style="stop-color:#7B7B7B"/>
	<stop  offset="1" style="stop-color:#535353"/>
</linearGradient>
<polygon id="triangle36_52_" fill="url(#triangle36_124_)" points="991,623 998,442 992,991 "/>
<linearGradient id="triangle36_125_" gradientUnits="userSpaceOnUse" x1="104.1088" y1="807.6104" x2="105.1088" y2="806.6104" gradientTransform="matrix(227 0 0 -187 -22909.0566 151703.0469)">
	<stop  offset="0" style="stop-color:#959595"/>
	<stop  offset="1" style="stop-color:#989898"/>
</linearGradient>
<polygon id="triangle36_53_" fill="url(#triangle36_125_)" points="708,758 850,693 935,880 "/>
<linearGradient id="triangle36_126_" gradientUnits="userSpaceOnUse" x1="103.8435" y1="807.6577" x2="104.8435" y2="806.6577" gradientTransform="matrix(135 0 0 -187 -13153.0352 151703.0469)">
	<stop  offset="0" style="stop-color:#8E8E8E"/>
	<stop  offset="1" style="stop-color:#A2A2A2"/>
</linearGradient>
<polygon id="triangle36_54_" fill="url(#triangle36_126_)" points="850,693 985,723 935,880 "/>
<linearGradient id="triangle36_127_" gradientUnits="userSpaceOnUse" x1="102.7398" y1="807.2992" x2="103.7398" y2="806.2992" gradientTransform="matrix(57 0 0 -268 -4917.0161 217059.6563)">
	<stop  offset="0" style="stop-color:#AFAFAF"/>
	<stop  offset="1" style="stop-color:#898989"/>
</linearGradient>
<polygon id="triangle36_55_" fill="url(#triangle36_127_)" points="985,723 992,991 935,880 "/>
<linearGradient id="triangle36_128_" gradientUnits="userSpaceOnUse" x1="104.0208" y1="807.3053" x2="105.0208" y2="806.3053" gradientTransform="matrix(227 0 0 -236 -22909.0566 191286.5625)">
	<stop  offset="0" style="stop-color:#888888"/>
	<stop  offset="1" style="stop-color:#888888"/>
</linearGradient>
<polygon id="triangle36_56_" fill="url(#triangle36_128_)" points="708,758 935,880 808,994 "/>
<linearGradient id="triangle36_129_" gradientUnits="userSpaceOnUse" x1="103.855" y1="808.1287" x2="104.855" y2="807.1287" gradientTransform="matrix(184 0 0 -114 -18315.541 93015.5234)">
	<stop  offset="0" style="stop-color:#A4A4A4"/>
	<stop  offset="1" style="stop-color:#777777"/>
</linearGradient>
<polygon id="triangle36_57_" fill="url(#triangle36_129_)" points="935,880 992,991 808,994 "/>
<linearGradient id="triangle36_130_" gradientUnits="userSpaceOnUse" x1="104.129" y1="807.4587" x2="105.129" y2="806.4587" gradientTransform="matrix(208 0 0 -235 -21131.5449 190480.0625)">
	<stop  offset="0" style="stop-color:#616161"/>
	<stop  offset="1" style="stop-color:#9E9E9E"/>
</linearGradient>
<polygon id="triangle36_58_" fill="url(#triangle36_130_)" points="500,827 708,758 609,993 "/>
<linearGradient id="triangle36_131_" gradientUnits="userSpaceOnUse" x1="103.8508" y1="807.1996" x2="104.8508" y2="806.1996" gradientTransform="matrix(199 0 0 -236 -20082.043 191286.5625)">
	<stop  offset="0" style="stop-color:#6E6E6E"/>
	<stop  offset="1" style="stop-color:#797979"/>
</linearGradient>
<polygon id="triangle36_59_" fill="url(#triangle36_131_)" points="708,758 808,994 609,993 "/>
<linearGradient id="triangle36_132_" gradientUnits="userSpaceOnUse" x1="104.2795" y1="807.8065" x2="105.2796" y2="806.8064" gradientTransform="matrix(273 0 0 -170 -28197.0605 138126.5469)">
	<stop  offset="0" style="stop-color:#1E1F1F"/>
	<stop  offset="1" style="stop-color:#101011"/>
</linearGradient>
<polygon id="triangle36_60_" fill="url(#triangle36_132_)" points="227,880 500,827 404,997 "/>
<linearGradient id="triangle36_133_" gradientUnits="userSpaceOnUse" x1="103.8581" y1="807.5109" x2="104.8581" y2="806.5109" gradientTransform="matrix(205 0 0 -170 -20914.043 138126.5469)">
	<stop  offset="0" style="stop-color:#565656"/>
	<stop  offset="1" style="stop-color:#616161"/>
</linearGradient>
<polygon id="triangle36_61_" fill="url(#triangle36_133_)" points="500,827 609,993 404,997 "/>
<linearGradient id="triangle36_134_" gradientUnits="userSpaceOnUse" x1="104.1795" y1="855.0623" x2="105.1794" y2="854.0624" gradientTransform="matrix(404 0 0 -4 -41709.6914 4413.5)">
	<stop  offset="0" style="stop-color:#AEAEAE"/>
	<stop  offset="1" style="stop-color:#585858"/>
</linearGradient>
<polygon id="triangle36_62_" fill="url(#triangle36_134_)" points="609,993 808,994 404,997 "/>
<linearGradient id="triangle36_135_" gradientUnits="userSpaceOnUse" x1="104.1594" y1="808.2598" x2="105.1594" y2="807.2598" gradientTransform="matrix(212 0 0 -121 -22034.5449 98653.0313)">
	<stop  offset="0" style="stop-color:#252526"/>
	<stop  offset="1" style="stop-color:#333434"/>
</linearGradient>
<polygon id="triangle36_63_" fill="url(#triangle36_135_)" points="15,872 227,880 158,993 "/>
<linearGradient id="triangle36_136_" gradientUnits="userSpaceOnUse" x1="103.9045" y1="807.9909" x2="104.9045" y2="806.9909" gradientTransform="matrix(246 0 0 -117 -25444.5586 95435.0234)">
	<stop  offset="0" style="stop-color:#191A1A"/>
	<stop  offset="1" style="stop-color:#19191A"/>
</linearGradient>
<polygon id="triangle36_64_" fill="url(#triangle36_136_)" points="227,880 404,997 158,993 "/>
<linearGradient id="triangle36_137_" gradientUnits="userSpaceOnUse" x1="103.5777" y1="807.8771" x2="104.5777" y2="806.8771" gradientTransform="matrix(151 0 0 -121 -15668.0371 98653.0313)">
	<stop  offset="0" style="stop-color:#171718"/>
	<stop  offset="1" style="stop-color:#2D2D2D"/>
</linearGradient>
<polygon id="triangle36_65_" fill="url(#triangle36_137_)" points="15,872 158,993 7,990 "/>
<linearGradient id="triangle36_138_" gradientUnits="userSpaceOnUse" x1="95.7367" y1="807.1824" x2="96.7368" y2="806.1824" gradientTransform="matrix(12 0 0 -264 -1146.5 213836.6563)">
	<stop  offset="0" style="stop-color:#3A3A3A"/>
	<stop  offset="1" style="stop-color:#3A3B3C"/>
</linearGradient>
<polygon id="triangle36_66_" fill="url(#triangle36_138_)" points="3,726 15,872 7,990 "/>
<linearGradient id="triangle36_139_" gradientUnits="userSpaceOnUse" x1="104.1651" y1="807.8865" x2="105.1651" y2="806.8865" gradientTransform="matrix(224 0 0 -155 -22728.5547 125417.0391)">
	<stop  offset="0" style="stop-color:#1E1F20"/>
	<stop  offset="1" style="stop-color:#212123"/>
</linearGradient>
<polygon id="triangle36_67_" fill="url(#triangle36_139_)" points="575,215 752,370 799,256 "/>
<linearGradient id="triangle36_140_" gradientUnits="userSpaceOnUse" x1="104.1034" y1="808.2039" x2="105.1034" y2="807.2039" gradientTransform="matrix(224 0 0 -119 -22728.5547 96305.0313)">
	<stop  offset="0" style="stop-color:#040507"/>
	<stop  offset="1" style="stop-color:#070709"/>
</linearGradient>
<polygon id="triangle36_68_" fill="url(#triangle36_140_)" points="575,215 784,137 799,256 "/>
<linearGradient id="triangle36_141_" gradientUnits="userSpaceOnUse" x1="103.9703" y1="807.4402" x2="104.9702" y2="806.4402" gradientTransform="matrix(246 0 0 -186 -24850.5586 150459.5469)">
	<stop  offset="0" style="stop-color:#2E2F2F"/>
	<stop  offset="1" style="stop-color:#121313"/>
</linearGradient>
<polygon id="triangle36_69_" fill="url(#triangle36_141_)" points="752,370 998,442 799,256 "/>
<linearGradient id="triangle36_142_" gradientUnits="userSpaceOnUse" x1="103.8291" y1="808.0225" x2="104.8291" y2="807.0225" gradientTransform="matrix(187 0 0 -119 -18653.041 96305.0313)">
	<stop  offset="0" style="stop-color:#070709"/>
	<stop  offset="1" style="stop-color:#0F1011"/>
</linearGradient>
<polygon id="triangle36_70_" fill="url(#triangle36_142_)" points="784,137 971,200 799,256 "/>
<linearGradient id="triangle36_143_" gradientUnits="userSpaceOnUse" x1="104.1334" y1="807.4621" x2="105.1334" y2="806.4621" gradientTransform="matrix(199 0 0 -242 -19892.043 195567.5625)">
	<stop  offset="0" style="stop-color:#131314"/>
	<stop  offset="1" style="stop-color:#141416"/>
</linearGradient>
<polygon id="triangle36_71_" fill="url(#triangle36_143_)" points="971,200 998,442 799,256 "/>
</svg>
