<?xml version="1.0" encoding="utf-8"?>
<!-- Generator: Adobe Illustrator 21.1.0, SVG Export Plug-In . SVG Version: 6.00 Build 0)  -->
<svg version="1.1" id="Layer_1" xmlns="http://www.w3.org/2000/svg" xmlns:xlink="http://www.w3.org/1999/xlink" x="0px" y="0px"
	 viewBox="0 0 1000 1000" enable-background="new 0 0 1000 1000" xml:space="preserve">
<linearGradient id="triangle36_71_" gradientUnits="userSpaceOnUse" x1="104.0099" y1="807.6669" x2="105.0099" y2="806.6669" gradientTransform="matrix(215 0 0 -166 -22348.0449 134127.5469)">
	<stop  offset="0" style="stop-color:#7A5409"/>
	<stop  offset="1" style="stop-color:#8C650A"/>
</linearGradient>
<polygon id="triangle36" fill="url(#triangle36_71_)" points="15,220 230,197 226,54 "/>
<linearGradient id="triangle36_72_" gradientUnits="userSpaceOnUse" x1="103.9686" y1="807.3549" x2="104.9686" y2="806.3549" gradientTransform="matrix(217 0 0 -215 -22563.0547 173597.0625)">
	<stop  offset="0" style="stop-color:#7C331A"/>
	<stop  offset="1" style="stop-color:#924418"/>
</linearGradient>
<polygon id="triangle36_1_" fill="url(#triangle36_72_)" points="9,5 15,220 226,54 "/>
<linearGradient id="triangle36_73_" gradientUnits="userSpaceOnUse" x1="103.7492" y1="807.814" x2="104.7492" y2="806.814" gradientTransform="matrix(148 0 0 -143 -15135.5371 115578.0391)">
	<stop  offset="0" style="stop-color:#8F4716"/>
	<stop  offset="1" style="stop-color:#7A3C15"/>
</linearGradient>
<polygon id="triangle36_2_" fill="url(#triangle36_73_)" points="226,54 230,197 374,84 "/>
<linearGradient id="triangle36_74_" gradientUnits="userSpaceOnUse" x1="103.9675" y1="807.6075" x2="104.9675" y2="806.6075" gradientTransform="matrix(181 0 0 -183 -18580.0391 147868.0469)">
	<stop  offset="0" style="stop-color:#674010"/>
	<stop  offset="1" style="stop-color:#39350A"/>
</linearGradient>
<polygon id="triangle36_3_" fill="url(#triangle36_74_)" points="230,197 374,84 411,267 "/>
<linearGradient id="triangle36_75_" gradientUnits="userSpaceOnUse" x1="104.2316" y1="807.8167" x2="105.2316" y2="806.8167" gradientTransform="matrix(215 0 0 -177 -22348.0449 143142.0469)">
	<stop  offset="0" style="stop-color:#7A5509"/>
	<stop  offset="1" style="stop-color:#814F0C"/>
</linearGradient>
<polygon id="triangle36_4_" fill="url(#triangle36_75_)" points="15,220 230,197 206,374 "/>
<linearGradient id="triangle36_76_" gradientUnits="userSpaceOnUse" x1="103.8923" y1="807.4995" x2="104.8923" y2="806.4995" gradientTransform="matrix(205 0 0 -177 -21112.043 143142.0469)">
	<stop  offset="0" style="stop-color:#6D271C"/>
	<stop  offset="1" style="stop-color:#461B14"/>
</linearGradient>
<polygon id="triangle36_5_" fill="url(#triangle36_76_)" points="230,197 411,267 206,374 "/>
<linearGradient id="triangle36_77_" gradientUnits="userSpaceOnUse" x1="103.7313" y1="807.4717" x2="104.7313" y2="806.4717" gradientTransform="matrix(191 0 0 -163 -19840.043 131874.0469)">
	<stop  offset="0" style="stop-color:#3E1E10"/>
	<stop  offset="1" style="stop-color:#541C17"/>
</linearGradient>
<polygon id="triangle36_6_" fill="url(#triangle36_77_)" points="15,220 206,374 26,383 "/>
<linearGradient id="triangle36_78_" gradientUnits="userSpaceOnUse" x1="95.0446" y1="807.2001" x2="96.0447" y2="806.2" gradientTransform="matrix(11 0 0 -297 -1030 239945.1719)">
	<stop  offset="0" style="stop-color:#793615"/>
	<stop  offset="1" style="stop-color:#751C22"/>
</linearGradient>
<polygon id="triangle36_7_" fill="url(#triangle36_78_)" points="15,220 26,383 23,517 "/>
<linearGradient id="triangle36_79_" gradientUnits="userSpaceOnUse" x1="103.9297" y1="807.8599" x2="104.9297" y2="806.8599" gradientTransform="matrix(183 0 0 -143 -18996.041 115898.0391)">
	<stop  offset="0" style="stop-color:#721A23"/>
	<stop  offset="1" style="stop-color:#73261B"/>
</linearGradient>
<polygon id="triangle36_8_" fill="url(#triangle36_79_)" points="26,383 206,374 23,517 "/>
<linearGradient id="triangle36_80_" gradientUnits="userSpaceOnUse" x1="103.9817" y1="807.6273" x2="104.9817" y2="806.6273" gradientTransform="matrix(183 0 0 -181 -18996.041 146545.0469)">
	<stop  offset="0" style="stop-color:#743815"/>
	<stop  offset="1" style="stop-color:#834B0B"/>
</linearGradient>
<polygon id="triangle36_9_" fill="url(#triangle36_80_)" points="23,517 206,374 186,555 "/>
<linearGradient id="triangle36_81_" gradientUnits="userSpaceOnUse" x1="103.9792" y1="807.4256" x2="104.9792" y2="806.4256" gradientTransform="matrix(281 0 0 -181 -29074.0605 146545.0469)">
	<stop  offset="0" style="stop-color:#8D2B1E"/>
	<stop  offset="1" style="stop-color:#842121"/>
</linearGradient>
<polygon id="triangle36_10_" fill="url(#triangle36_81_)" points="186,555 206,374 467,482 "/>
<linearGradient id="triangle36_82_" gradientUnits="userSpaceOnUse" x1="104.172" y1="807.4766" x2="105.172" y2="806.4766" gradientTransform="matrix(261 0 0 -215 -26964.0605 173859.0625)">
	<stop  offset="0" style="stop-color:#794B0C"/>
	<stop  offset="1" style="stop-color:#4C2415"/>
</linearGradient>
<polygon id="triangle36_11_" fill="url(#triangle36_82_)" points="206,374 411,267 467,482 "/>
<linearGradient id="triangle36_83_" gradientUnits="userSpaceOnUse" x1="103.9052" y1="807.3748" x2="104.9052" y2="806.3748" gradientTransform="matrix(185 0 0 -215 -18817.041 173859.0625)">
	<stop  offset="0" style="stop-color:#410E1B"/>
	<stop  offset="1" style="stop-color:#86321C"/>
</linearGradient>
<polygon id="triangle36_12_" fill="url(#triangle36_83_)" points="411,267 467,482 596,358 "/>
<linearGradient id="triangle36_84_" gradientUnits="userSpaceOnUse" x1="104.0031" y1="807.496" x2="105.0031" y2="806.496" gradientTransform="matrix(243 0 0 -183 -24915.0586 147868.0469)">
	<stop  offset="0" style="stop-color:#783C17"/>
	<stop  offset="1" style="stop-color:#532C13"/>
</linearGradient>
<polygon id="triangle36_13_" fill="url(#triangle36_84_)" points="374,84 411,267 617,161 "/>
<linearGradient id="triangle36_85_" gradientUnits="userSpaceOnUse" x1="104.1087" y1="807.6027" x2="105.1088" y2="806.6027" gradientTransform="matrix(206 0 0 -197 -21011.543 159236.0625)">
	<stop  offset="0" style="stop-color:#4E2813"/>
	<stop  offset="1" style="stop-color:#906708"/>
</linearGradient>
<polygon id="triangle36_14_" fill="url(#triangle36_85_)" points="411,267 596,358 617,161 "/>
<linearGradient id="triangle36_86_" gradientUnits="userSpaceOnUse" x1="104.2698" y1="808.9938" x2="105.2698" y2="807.9938" gradientTransform="matrix(323 0 0 -81 -33423.1719 65524.0195)">
	<stop  offset="0" style="stop-color:#6D5A0A"/>
	<stop  offset="1" style="stop-color:#5D5107"/>
</linearGradient>
<polygon id="triangle36_15_" fill="url(#triangle36_86_)" points="226,54 374,84 549,3 "/>
<linearGradient id="triangle36_87_" gradientUnits="userSpaceOnUse" x1="104.1221" y1="807.7831" x2="105.1221" y2="806.7831" gradientTransform="matrix(243 0 0 -158 -24915.0586 127624.5391)">
	<stop  offset="0" style="stop-color:#7F6D06"/>
	<stop  offset="1" style="stop-color:#7F6B04"/>
</linearGradient>
<polygon id="triangle36_16_" fill="url(#triangle36_87_)" points="374,84 617,161 549,3 "/>
<linearGradient id="triangle36_88_" gradientUnits="userSpaceOnUse" x1="104.4072" y1="810.4144" x2="105.4072" y2="809.4144" gradientTransform="matrix(540 0 0 -51 -56316.6211 41329.0156)">
	<stop  offset="0" style="stop-color:#6C5506"/>
	<stop  offset="1" style="stop-color:#816605"/>
</linearGradient>
<polygon id="triangle36_17_" fill="url(#triangle36_88_)" points="9,5 226,54 549,3 "/>
<linearGradient id="triangle36_89_" gradientUnits="userSpaceOnUse" x1="103.9536" y1="807.8337" x2="104.9536" y2="806.8337" gradientTransform="matrix(161 0 0 -158 -16171.0381 127624.5391)">
	<stop  offset="0" style="stop-color:#813919"/>
	<stop  offset="1" style="stop-color:#773F13"/>
</linearGradient>
<polygon id="triangle36_18_" fill="url(#triangle36_89_)" points="549,3 617,161 710,5 "/>
<linearGradient id="triangle36_90_" gradientUnits="userSpaceOnUse" x1="103.562" y1="807.6937" x2="104.562" y2="806.6937" gradientTransform="matrix(118 0 0 -156 -11609.5234 126013.5391)">
	<stop  offset="0" style="stop-color:#8D5F09"/>
	<stop  offset="1" style="stop-color:#8D4610"/>
</linearGradient>
<polygon id="triangle36_19_" fill="url(#triangle36_90_)" points="617,161 710,5 735,135 "/>
<linearGradient id="triangle36_91_" gradientUnits="userSpaceOnUse" x1="103.6937" y1="807.2457" x2="104.6937" y2="806.2457" gradientTransform="matrix(176 0 0 -203 -17691.5391 164075.0625)">
	<stop  offset="0" style="stop-color:#4A3A0B"/>
	<stop  offset="1" style="stop-color:#574A07"/>
</linearGradient>
<polygon id="triangle36_20_" fill="url(#triangle36_91_)" points="596,358 617,161 772,364 "/>
<linearGradient id="triangle36_92_" gradientUnits="userSpaceOnUse" x1="103.9885" y1="807.511" x2="104.9885" y2="806.511" gradientTransform="matrix(155 0 0 -229 -15476.0371 185018.0625)">
	<stop  offset="0" style="stop-color:#825907"/>
	<stop  offset="1" style="stop-color:#99570D"/>
</linearGradient>
<polygon id="triangle36_21_" fill="url(#triangle36_92_)" points="617,161 735,135 772,364 "/>
<linearGradient id="triangle36_93_" gradientUnits="userSpaceOnUse" x1="103.9984" y1="807.6313" x2="104.9984" y2="806.6312" gradientTransform="matrix(230 0 0 -165 -23463.5566 133625.0469)">
	<stop  offset="0" style="stop-color:#7A3A17"/>
	<stop  offset="1" style="stop-color:#834C11"/>
</linearGradient>
<polygon id="triangle36_22_" fill="url(#triangle36_93_)" points="467,482 596,358 697,523 "/>
<linearGradient id="triangle36_94_" gradientUnits="userSpaceOnUse" x1="104.0409" y1="807.8134" x2="105.0409" y2="806.8134" gradientTransform="matrix(176 0 0 -165 -17691.5391 133625.0469)">
	<stop  offset="0" style="stop-color:#904419"/>
	<stop  offset="1" style="stop-color:#85311C"/>
</linearGradient>
<polygon id="triangle36_23_" fill="url(#triangle36_94_)" points="596,358 772,364 697,523 "/>
<linearGradient id="triangle36_95_" gradientUnits="userSpaceOnUse" x1="104.0601" y1="807.6071" x2="105.06" y2="806.6071" gradientTransform="matrix(230 0 0 -178 -23463.5566 144233.5469)">
	<stop  offset="0" style="stop-color:#83291C"/>
	<stop  offset="1" style="stop-color:#812F17"/>
</linearGradient>
<polygon id="triangle36_24_" fill="url(#triangle36_95_)" points="467,482 697,523 533,660 "/>
<linearGradient id="triangle36_96_" gradientUnits="userSpaceOnUse" x1="104.2862" y1="807.5792" x2="105.2862" y2="806.5792" gradientTransform="matrix(281 0 0 -211 -29074.0605 170848.0625)">
	<stop  offset="0" style="stop-color:#7B5409"/>
	<stop  offset="1" style="stop-color:#7A3E13"/>
</linearGradient>
<polygon id="triangle36_25_" fill="url(#triangle36_96_)" points="186,555 467,482 363,693 "/>
<linearGradient id="triangle36_97_" gradientUnits="userSpaceOnUse" x1="103.7885" y1="807.325" x2="104.7885" y2="806.325" gradientTransform="matrix(170 0 0 -211 -17297.5391 170848.0625)">
	<stop  offset="0" style="stop-color:#6E3814"/>
	<stop  offset="1" style="stop-color:#7B4A0B"/>
</linearGradient>
<polygon id="triangle36_26_" fill="url(#triangle36_97_)" points="467,482 533,660 363,693 "/>
<linearGradient id="triangle36_98_" gradientUnits="userSpaceOnUse" x1="103.8884" y1="807.423" x2="104.8884" y2="806.423" gradientTransform="matrix(243 0 0 -176 -25169.0586 142693.5469)">
	<stop  offset="0" style="stop-color:#884010"/>
	<stop  offset="1" style="stop-color:#8B500D"/>
</linearGradient>
<polygon id="triangle36_27_" fill="url(#triangle36_98_)" points="186,555 363,693 120,731 "/>
<linearGradient id="triangle36_99_" gradientUnits="userSpaceOnUse" x1="103.9635" y1="807.5135" x2="104.9635" y2="806.5135" gradientTransform="matrix(163 0 0 -214 -16906.0371 173302.5625)">
	<stop  offset="0" style="stop-color:#623013"/>
	<stop  offset="1" style="stop-color:#795608"/>
</linearGradient>
<polygon id="triangle36_28_" fill="url(#triangle36_99_)" points="23,517 186,555 120,731 "/>
<linearGradient id="triangle36_100_" gradientUnits="userSpaceOnUse" x1="95.647" y1="806.7346" x2="96.647" y2="805.7346" gradientTransform="matrix(12 0 0 -513 -1138.5 414149.125)">
	<stop  offset="0" style="stop-color:#79251B"/>
	<stop  offset="1" style="stop-color:#4C0E1C"/>
</linearGradient>
<polygon id="triangle36_29_" fill="url(#triangle36_100_)" points="15,220 23,517 11,733 "/>
<linearGradient id="triangle36_101_" gradientUnits="userSpaceOnUse" x1="103.3188" y1="807.1785" x2="104.3188" y2="806.1785" gradientTransform="matrix(109 0 0 -216 -11275.0225 174915.5625)">
	<stop  offset="0" style="stop-color:#360B16"/>
	<stop  offset="1" style="stop-color:#2C230B"/>
</linearGradient>
<polygon id="triangle36_30_" fill="url(#triangle36_101_)" points="23,517 120,731 11,733 "/>
<linearGradient id="triangle36_102_" gradientUnits="userSpaceOnUse" x1="87.0928" y1="806.777" x2="88.0928" y2="805.777" gradientTransform="matrix(6 0 0 -728 -513.5 587331.75)">
	<stop  offset="0" style="stop-color:#7D6204"/>
	<stop  offset="1" style="stop-color:#59390D"/>
</linearGradient>
<polygon id="triangle36_31_" fill="url(#triangle36_102_)" points="9,5 15,220 11,733 "/>
<linearGradient id="triangle36_103_" gradientUnits="userSpaceOnUse" x1="103.5643" y1="808.1176" x2="104.5643" y2="807.1176" gradientTransform="matrix(109 0 0 -122 -11275.0225 99318.5313)">
	<stop  offset="0" style="stop-color:#16101A"/>
	<stop  offset="1" style="stop-color:#352A0B"/>
</linearGradient>
<polygon id="triangle36_32_" fill="url(#triangle36_103_)" points="11,733 120,731 21,853 "/>
<linearGradient id="triangle36_104_" gradientUnits="userSpaceOnUse" x1="104.1678" y1="807.6382" x2="105.1678" y2="806.6382" gradientTransform="matrix(243 0 0 -187 -25169.0586 151703.0469)">
	<stop  offset="0" style="stop-color:#45360A"/>
	<stop  offset="1" style="stop-color:#5D1E19"/>
</linearGradient>
<polygon id="triangle36_33_" fill="url(#triangle36_104_)" points="120,731 363,693 215,880 "/>
<linearGradient id="triangle36_105_" gradientUnits="userSpaceOnUse" x1="103.8845" y1="807.7284" x2="104.8845" y2="806.7284" gradientTransform="matrix(194 0 0 -149 -20147.543 121094.0391)">
	<stop  offset="0" style="stop-color:#423D0A"/>
	<stop  offset="1" style="stop-color:#824E11"/>
</linearGradient>
<polygon id="triangle36_34_" fill="url(#triangle36_105_)" points="21,853 120,731 215,880 "/>
<linearGradient id="triangle36_106_" gradientUnits="userSpaceOnUse" x1="104.0972" y1="807.6204" x2="105.0972" y2="806.6204" gradientTransform="matrix(170 0 0 -214 -17297.5391 173445.5625)">
	<stop  offset="0" style="stop-color:#462310"/>
	<stop  offset="1" style="stop-color:#581C18"/>
</linearGradient>
<polygon id="triangle36_35_" fill="url(#triangle36_106_)" points="363,693 533,660 511,874 "/>
<linearGradient id="triangle36_107_" gradientUnits="userSpaceOnUse" x1="103.6523" y1="807.2567" x2="104.6523" y2="806.2567" gradientTransform="matrix(150 0 0 -214 -15059.5371 173445.5625)">
	<stop  offset="0" style="stop-color:#883D19"/>
	<stop  offset="1" style="stop-color:#7B5A07"/>
</linearGradient>
<polygon id="triangle36_36_" fill="url(#triangle36_107_)" points="511,874 533,660 661,790 "/>
<linearGradient id="triangle36_108_" gradientUnits="userSpaceOnUse" x1="103.9853" y1="807.3503" x2="104.9853" y2="806.3503" gradientTransform="matrix(164 0 0 -267 -16500.5371 216053.1563)">
	<stop  offset="0" style="stop-color:#714D09"/>
	<stop  offset="1" style="stop-color:#6E480E"/>
</linearGradient>
<polygon id="triangle36_37_" fill="url(#triangle36_108_)" points="533,660 697,523 661,790 "/>
<linearGradient id="triangle36_109_" gradientUnits="userSpaceOnUse" x1="103.7008" y1="807.0469" x2="104.7008" y2="806.0469" gradientTransform="matrix(169 0 0 -267 -16895.0391 216053.1563)">
	<stop  offset="0" style="stop-color:#363309"/>
	<stop  offset="1" style="stop-color:#512813"/>
</linearGradient>
<polygon id="triangle36_38_" fill="url(#triangle36_109_)" points="661,790 697,523 830,717 "/>
<linearGradient id="triangle36_110_" gradientUnits="userSpaceOnUse" x1="104.0521" y1="807.5362" x2="105.0521" y2="806.5362" gradientTransform="matrix(217 0 0 -194 -21875.0547 157178.5469)">
	<stop  offset="0" style="stop-color:#7E271B"/>
	<stop  offset="1" style="stop-color:#56360C"/>
</linearGradient>
<polygon id="triangle36_39_" fill="url(#triangle36_110_)" points="697,523 830,717 914,616 "/>
<linearGradient id="triangle36_111_" gradientUnits="userSpaceOnUse" x1="103.9455" y1="807.6634" x2="104.9455" y2="806.6635" gradientTransform="matrix(211 0 0 -159 -21248.0449 128792.0391)">
	<stop  offset="0" style="stop-color:#633015"/>
	<stop  offset="1" style="stop-color:#69450D"/>
</linearGradient>
<polygon id="triangle36_40_" fill="url(#triangle36_111_)" points="697,523 772,364 908,402 "/>
<linearGradient id="triangle36_112_" gradientUnits="userSpaceOnUse" x1="104.1205" y1="807.5108" x2="105.1205" y2="806.5108" gradientTransform="matrix(217 0 0 -214 -21875.0547 173187.5625)">
	<stop  offset="0" style="stop-color:#5E2B14"/>
	<stop  offset="1" style="stop-color:#341D0E"/>
</linearGradient>
<polygon id="triangle36_41_" fill="url(#triangle36_112_)" points="697,523 914,616 908,402 "/>
<linearGradient id="triangle36_113_" gradientUnits="userSpaceOnUse" x1="103.8219" y1="807.2933" x2="104.8219" y2="806.2933" gradientTransform="matrix(168 0 0 -229 -16716.5391 185018.0625)">
	<stop  offset="0" style="stop-color:#8A5C0A"/>
	<stop  offset="1" style="stop-color:#564808"/>
</linearGradient>
<polygon id="triangle36_42_" fill="url(#triangle36_113_)" points="735,135 772,364 903,237 "/>
<linearGradient id="triangle36_114_" gradientUnits="userSpaceOnUse" x1="103.7803" y1="807.7274" x2="104.7803" y2="806.7274" gradientTransform="matrix(136 0 0 -165 -13335.5352 133504.0469)">
	<stop  offset="0" style="stop-color:#47380B"/>
	<stop  offset="1" style="stop-color:#1D0A0F"/>
</linearGradient>
<polygon id="triangle36_43_" fill="url(#triangle36_114_)" points="772,364 908,402 903,237 "/>
<linearGradient id="triangle36_115_" gradientUnits="userSpaceOnUse" x1="104.2091" y1="808.0496" x2="105.2091" y2="807.0496" gradientTransform="matrix(222 0 0 -142 -22359.5547 114812.5391)">
	<stop  offset="0" style="stop-color:#8C5E0A"/>
	<stop  offset="1" style="stop-color:#5A3D0C"/>
</linearGradient>
<polygon id="triangle36_44_" fill="url(#triangle36_115_)" points="735,135 903,237 957,95 "/>
<linearGradient id="triangle36_116_" gradientUnits="userSpaceOnUse" x1="103.8949" y1="808.0206" x2="104.8949" y2="807.0206" gradientTransform="matrix(166 0 0 -130 -16532.5391 105044.5391)">
	<stop  offset="0" style="stop-color:#805A09"/>
	<stop  offset="1" style="stop-color:#78430E"/>
</linearGradient>
<polygon id="triangle36_45_" fill="url(#triangle36_116_)" points="710,5 735,135 876,12 "/>
<linearGradient id="triangle36_117_" gradientUnits="userSpaceOnUse" x1="103.9385" y1="807.9902" x2="104.9384" y2="806.9902" gradientTransform="matrix(222 0 0 -123 -22359.5547 99406.0313)">
	<stop  offset="0" style="stop-color:#8E2D1D"/>
	<stop  offset="1" style="stop-color:#691E18"/>
</linearGradient>
<polygon id="triangle36_46_" fill="url(#triangle36_117_)" points="735,135 957,95 876,12 "/>
<linearGradient id="triangle36_118_" gradientUnits="userSpaceOnUse" x1="104.0596" y1="830.7399" x2="105.0596" y2="829.7399" gradientTransform="matrix(284 0 0 -8 -28863.5605 6651.5)">
	<stop  offset="0" style="stop-color:#461D0C"/>
	<stop  offset="1" style="stop-color:#260E09"/>
</linearGradient>
<polygon id="triangle36_47_" fill="url(#triangle36_118_)" points="710,5 876,12 994,13 "/>
<linearGradient id="triangle36_119_" gradientUnits="userSpaceOnUse" x1="103.7832" y1="809.0122" x2="104.7832" y2="808.0122" gradientTransform="matrix(118 0 0 -83 -11350.5234 67146.0234)">
	<stop  offset="0" style="stop-color:#632811"/>
	<stop  offset="1" style="stop-color:#723E0B"/>
</linearGradient>
<polygon id="triangle36_48_" fill="url(#triangle36_119_)" points="876,12 957,95 994,13 "/>
<linearGradient id="triangle36_120_" gradientUnits="userSpaceOnUse" x1="103.3022" y1="807.7607" x2="104.3022" y2="806.7607" gradientTransform="matrix(96 0 0 -142 -9024.5215 114812.5391)">
	<stop  offset="0" style="stop-color:#4C2610"/>
	<stop  offset="1" style="stop-color:#683310"/>
</linearGradient>
<polygon id="triangle36_49_" fill="url(#triangle36_120_)" points="903,237 957,95 999,169 "/>
<linearGradient id="triangle36_121_" gradientUnits="userSpaceOnUse" x1="102.1015" y1="807.8352" x2="103.1015" y2="806.8352" gradientTransform="matrix(42 0 0 -156 -3327.5039 126021.5391)">
	<stop  offset="0" style="stop-color:#865A09"/>
	<stop  offset="1" style="stop-color:#312D05"/>
</linearGradient>
<polygon id="triangle36_50_" fill="url(#triangle36_121_)" points="957,95 994,13 999,169 "/>
<linearGradient id="triangle36_122_" gradientUnits="userSpaceOnUse" x1="103.2452" y1="807.524" x2="104.2452" y2="806.524" gradientTransform="matrix(95 0 0 -165 -8920.0195 133504.0469)">
	<stop  offset="0" style="stop-color:#390D17"/>
	<stop  offset="1" style="stop-color:#702F17"/>
</linearGradient>
<polygon id="triangle36_51_" fill="url(#triangle36_122_)" points="903,237 908,402 998,348 "/>
<linearGradient id="triangle36_123_" gradientUnits="userSpaceOnUse" x1="103.5668" y1="807.7418" x2="104.5667" y2="806.7418" gradientTransform="matrix(96 0 0 -179 -9024.5215 144727.0469)">
	<stop  offset="0" style="stop-color:#41330A"/>
	<stop  offset="1" style="stop-color:#594608"/>
</linearGradient>
<polygon id="triangle36_52_" fill="url(#triangle36_123_)" points="903,237 999,169 998,348 "/>
<linearGradient id="triangle36_124_" gradientUnits="userSpaceOnUse" x1="103.0359" y1="807.2349" x2="104.0359" y2="806.2349" gradientTransform="matrix(81 0 0 -214 -7452.019 173187.5625)">
	<stop  offset="0" style="stop-color:#641120"/>
	<stop  offset="1" style="stop-color:#4C1A15"/>
</linearGradient>
<polygon id="triangle36_53_" fill="url(#triangle36_124_)" points="908,402 914,616 989,567 "/>
<linearGradient id="triangle36_125_" gradientUnits="userSpaceOnUse" x1="103.5276" y1="807.5766" x2="104.5276" y2="806.5766" gradientTransform="matrix(90 0 0 -219 -8392.5195 177166.0625)">
	<stop  offset="0" style="stop-color:#651120"/>
	<stop  offset="1" style="stop-color:#7A3C13"/>
</linearGradient>
<polygon id="triangle36_54_" fill="url(#triangle36_125_)" points="908,402 998,348 989,567 "/>
<linearGradient id="triangle36_126_" gradientUnits="userSpaceOnUse" x1="103.844" y1="807.5751" x2="104.8441" y2="806.5751" gradientTransform="matrix(162 0 0 -179 -15994.5381 145174.0469)">
	<stop  offset="0" style="stop-color:#863D19"/>
	<stop  offset="1" style="stop-color:#5E1F19"/>
</linearGradient>
<polygon id="triangle36_55_" fill="url(#triangle36_126_)" points="830,717 914,616 992,795 "/>
<linearGradient id="triangle36_127_" gradientUnits="userSpaceOnUse" x1="103.3481" y1="807.5391" x2="104.3481" y2="806.5391" gradientTransform="matrix(78 0 0 -228 -7132.5181 184643.5625)">
	<stop  offset="0" style="stop-color:#3C1E0E"/>
	<stop  offset="1" style="stop-color:#853F0F"/>
</linearGradient>
<polygon id="triangle36_56_" fill="url(#triangle36_127_)" points="914,616 989,567 992,795 "/>
<linearGradient id="triangle36_128_" gradientUnits="userSpaceOnUse" x1="92.9723" y1="807.0186" x2="93.9723" y2="806.0186" gradientTransform="matrix(9 0 0 -447 153 361048.125)">
	<stop  offset="0" style="stop-color:#75360E"/>
	<stop  offset="1" style="stop-color:#834C0C"/>
</linearGradient>
<polygon id="triangle36_57_" fill="url(#triangle36_128_)" points="989,567 998,348 992,795 "/>
<linearGradient id="triangle36_129_" gradientUnits="userSpaceOnUse" x1="104.0852" y1="807.3912" x2="105.0852" y2="806.3912" gradientTransform="matrix(179 0 0 -269 -17940.0391 217860.1563)">
	<stop  offset="0" style="stop-color:#773F15"/>
	<stop  offset="1" style="stop-color:#8D4316"/>
</linearGradient>
<polygon id="triangle36_58_" fill="url(#triangle36_129_)" points="661,790 830,717 840,986 "/>
<linearGradient id="triangle36_130_" gradientUnits="userSpaceOnUse" x1="103.7981" y1="807.1666" x2="104.7981" y2="806.1666" gradientTransform="matrix(162 0 0 -269 -15994.5381 217860.1563)">
	<stop  offset="0" style="stop-color:#796805"/>
	<stop  offset="1" style="stop-color:#91560D"/>
</linearGradient>
<polygon id="triangle36_59_" fill="url(#triangle36_130_)" points="830,717 992,795 840,986 "/>
<linearGradient id="triangle36_131_" gradientUnits="userSpaceOnUse" x1="103.813" y1="807.5182" x2="104.8131" y2="806.5182" gradientTransform="matrix(152 0 0 -191 -14939.5371 155031.0469)">
	<stop  offset="0" style="stop-color:#73490E"/>
	<stop  offset="1" style="stop-color:#814A0F"/>
</linearGradient>
<polygon id="triangle36_60_" fill="url(#triangle36_131_)" points="990,977 992,795 840,986 "/>
<linearGradient id="triangle36_132_" gradientUnits="userSpaceOnUse" x1="103.9472" y1="807.6308" x2="104.9472" y2="806.6308" gradientTransform="matrix(150 0 0 -197 -15059.5371 159865.0625)">
	<stop  offset="0" style="stop-color:#97481A"/>
	<stop  offset="1" style="stop-color:#827303"/>
</linearGradient>
<polygon id="triangle36_61_" fill="url(#triangle36_132_)" points="511,874 661,790 651,987 "/>
<linearGradient id="triangle36_133_" gradientUnits="userSpaceOnUse" x1="103.7108" y1="807.2505" x2="104.7108" y2="806.2505" gradientTransform="matrix(189 0 0 -197 -18995.041 159865.0625)">
	<stop  offset="0" style="stop-color:#3C350A"/>
	<stop  offset="1" style="stop-color:#62410C"/>
</linearGradient>
<polygon id="triangle36_62_" fill="url(#triangle36_133_)" points="661,790 840,986 651,987 "/>
<linearGradient id="triangle36_134_" gradientUnits="userSpaceOnUse" x1="103.9737" y1="807.2073" x2="104.9737" y2="806.2073" gradientTransform="matrix(184 0 0 -292 -18908.541 236385.6719)">
	<stop  offset="0" style="stop-color:#8D4219"/>
	<stop  offset="1" style="stop-color:#835F08"/>
</linearGradient>
<polygon id="triangle36_63_" fill="url(#triangle36_134_)" points="215,880 363,693 399,985 "/>
<linearGradient id="triangle36_135_" gradientUnits="userSpaceOnUse" x1="103.7" y1="807.0725" x2="104.7" y2="806.0726" gradientTransform="matrix(148 0 0 -292 -14998.5371 236385.6719)">
	<stop  offset="0" style="stop-color:#935D0C"/>
	<stop  offset="1" style="stop-color:#845111"/>
</linearGradient>
<polygon id="triangle36_64_" fill="url(#triangle36_135_)" points="363,693 511,874 399,985 "/>
<linearGradient id="triangle36_136_" gradientUnits="userSpaceOnUse" x1="103.9508" y1="808.0872" x2="104.9508" y2="807.0873" gradientTransform="matrix(252 0 0 -113 -25830.5586 92203.0234)">
	<stop  offset="0" style="stop-color:#86122A"/>
	<stop  offset="1" style="stop-color:#78500E"/>
</linearGradient>
<polygon id="triangle36_65_" fill="url(#triangle36_136_)" points="511,874 651,987 399,985 "/>
<linearGradient id="triangle36_137_" gradientUnits="userSpaceOnUse" x1="104.1387" y1="808.1076" x2="105.1387" y2="807.1076" gradientTransform="matrix(194 0 0 -136 -20147.543 110731.5391)">
	<stop  offset="0" style="stop-color:#443E08"/>
	<stop  offset="1" style="stop-color:#81311D"/>
</linearGradient>
<polygon id="triangle36_66_" fill="url(#triangle36_137_)" points="21,853 215,880 197,989 "/>
<linearGradient id="triangle36_138_" gradientUnits="userSpaceOnUse" x1="103.7552" y1="808.0569" x2="104.7552" y2="807.0569" gradientTransform="matrix(202 0 0 -109 -20807.543 88983.0234)">
	<stop  offset="0" style="stop-color:#783A17"/>
	<stop  offset="1" style="stop-color:#734A0F"/>
</linearGradient>
<polygon id="triangle36_67_" fill="url(#triangle36_138_)" points="215,880 399,985 197,989 "/>
<linearGradient id="triangle36_139_" gradientUnits="userSpaceOnUse" x1="104.1451" y1="855" x2="105.1451" y2="853.9999" gradientTransform="matrix(454 0 0 -4 -47141.6016 4405.5)">
	<stop  offset="0" style="stop-color:#7D6C03"/>
	<stop  offset="1" style="stop-color:#855210"/>
</linearGradient>
<polygon id="triangle36_68_" fill="url(#triangle36_139_)" points="399,985 651,987 197,989 "/>
<linearGradient id="triangle36_140_" gradientUnits="userSpaceOnUse" x1="99.4084" y1="807.1349" x2="100.4084" y2="806.135" gradientTransform="matrix(21 0 0 -259 -2090 209811.0625)">
	<stop  offset="0" style="stop-color:#400D1A"/>
	<stop  offset="1" style="stop-color:#671723"/>
</linearGradient>
<polygon id="triangle36_69_" fill="url(#triangle36_140_)" points="11,733 21,853 0,992 "/>
<linearGradient id="triangle36_141_" gradientUnits="userSpaceOnUse" x1="103.7465" y1="807.6761" x2="104.7464" y2="806.6762" gradientTransform="matrix(197 0 0 -139 -20482.043 113151.0391)">
	<stop  offset="0" style="stop-color:#46400A"/>
	<stop  offset="1" style="stop-color:#893320"/>
</linearGradient>
<polygon id="triangle36_70_" fill="url(#triangle36_141_)" points="21,853 197,989 0,992 "/>
</svg>
