<svg id="Layer_1" data-name="Layer 1" xmlns="http://www.w3.org/2000/svg" xmlns:xlink="http://www.w3.org/1999/xlink" viewBox="0 0 999 989"><defs><style>.cls-1{fill:url(#linear-gradient);}.cls-2{fill:url(#linear-gradient-2);}.cls-3{fill:url(#linear-gradient-3);}.cls-4{fill:url(#linear-gradient-4);}.cls-5{fill:url(#linear-gradient-5);}.cls-6{fill:url(#linear-gradient-6);}.cls-7{fill:url(#linear-gradient-7);}.cls-8{fill:url(#linear-gradient-8);}.cls-9{fill:url(#linear-gradient-9);}.cls-10{fill:url(#linear-gradient-10);}.cls-11{fill:url(#linear-gradient-11);}.cls-12{fill:url(#linear-gradient-12);}.cls-13{fill:url(#linear-gradient-13);}.cls-14{fill:url(#linear-gradient-14);}.cls-15{fill:url(#linear-gradient-15);}.cls-16{fill:url(#linear-gradient-16);}.cls-17{fill:url(#linear-gradient-17);}.cls-18{fill:url(#linear-gradient-18);}.cls-19{fill:url(#linear-gradient-19);}.cls-20{fill:url(#linear-gradient-20);}.cls-21{fill:url(#linear-gradient-21);}.cls-22{fill:url(#linear-gradient-22);}.cls-23{fill:url(#linear-gradient-23);}.cls-24{fill:url(#linear-gradient-24);}.cls-25{fill:url(#linear-gradient-25);}.cls-26{fill:url(#linear-gradient-26);}.cls-27{fill:url(#linear-gradient-27);}.cls-28{fill:url(#linear-gradient-28);}.cls-29{fill:url(#linear-gradient-29);}.cls-30{fill:url(#linear-gradient-30);}.cls-31{fill:url(#linear-gradient-31);}.cls-32{fill:url(#linear-gradient-32);}.cls-33{fill:url(#linear-gradient-33);}.cls-34{fill:url(#linear-gradient-34);}.cls-35{fill:url(#linear-gradient-35);}.cls-36{fill:url(#linear-gradient-36);}.cls-37{fill:url(#linear-gradient-37);}.cls-38{fill:url(#linear-gradient-38);}.cls-39{fill:url(#linear-gradient-39);}.cls-40{fill:url(#linear-gradient-40);}.cls-41{fill:url(#linear-gradient-41);}.cls-42{fill:url(#linear-gradient-42);}.cls-43{fill:url(#linear-gradient-43);}.cls-44{fill:url(#linear-gradient-44);}.cls-45{fill:url(#linear-gradient-45);}.cls-46{fill:url(#linear-gradient-46);}.cls-47{fill:url(#linear-gradient-47);}.cls-48{fill:url(#linear-gradient-48);}.cls-49{fill:url(#linear-gradient-49);}.cls-50{fill:url(#linear-gradient-50);}.cls-51{fill:url(#linear-gradient-51);}.cls-52{fill:url(#linear-gradient-52);}.cls-53{fill:url(#linear-gradient-53);}.cls-54{fill:url(#linear-gradient-54);}.cls-55{fill:url(#linear-gradient-55);}.cls-56{fill:url(#linear-gradient-56);}.cls-57{fill:url(#linear-gradient-57);}.cls-58{fill:url(#linear-gradient-58);}.cls-59{fill:url(#linear-gradient-59);}.cls-60{fill:url(#linear-gradient-60);}.cls-61{fill:url(#linear-gradient-61);}.cls-62{fill:url(#linear-gradient-62);}.cls-63{fill:url(#linear-gradient-63);}.cls-64{fill:url(#linear-gradient-64);}.cls-65{fill:url(#linear-gradient-65);}.cls-66{fill:url(#linear-gradient-66);}.cls-67{fill:url(#linear-gradient-67);}.cls-68{fill:url(#linear-gradient-68);}.cls-69{fill:url(#linear-gradient-69);}.cls-70{fill:url(#linear-gradient-70);}.cls-71{fill:url(#linear-gradient-71);}</style><linearGradient id="linear-gradient" x1="104.01" y1="807.67" x2="105.01" y2="806.67" gradientTransform="matrix(215, 0, 0, -166, -22348.04, 134124.54)" gradientUnits="userSpaceOnUse"><stop offset="0" stop-color="#aa750c"/><stop offset="1" stop-color="#bd890d"/></linearGradient><linearGradient id="linear-gradient-2" x1="103.97" y1="807.35" x2="104.97" y2="806.35" gradientTransform="matrix(217, 0, 0, -215, -22563.05, 173594.06)" gradientUnits="userSpaceOnUse"><stop offset="0" stop-color="#ac4724"/><stop offset="1" stop-color="#c35b20"/></linearGradient><linearGradient id="linear-gradient-3" x1="103.75" y1="807.81" x2="104.75" y2="806.81" gradientTransform="matrix(148, 0, 0, -143, -15135.54, 115575.04)" gradientUnits="userSpaceOnUse"><stop offset="0" stop-color="#c0601e"/><stop offset="1" stop-color="#aa541d"/></linearGradient><linearGradient id="linear-gradient-4" x1="103.97" y1="807.61" x2="104.97" y2="806.61" gradientTransform="matrix(181, 0, 0, -183, -18580.04, 147865.04)" gradientUnits="userSpaceOnUse"><stop offset="0" stop-color="#935c17"/><stop offset="1" stop-color="#5d5610"/></linearGradient><linearGradient id="linear-gradient-5" x1="104.23" y1="807.82" x2="105.23" y2="806.82" gradientTransform="matrix(215, 0, 0, -177, -22348.04, 143139.04)" gradientUnits="userSpaceOnUse"><stop offset="0" stop-color="#aa760c"/><stop offset="1" stop-color="#b26d11"/></linearGradient><linearGradient id="linear-gradient-6" x1="103.89" y1="807.5" x2="104.89" y2="806.5" gradientTransform="matrix(205, 0, 0, -177, -21112.04, 143139.04)" gradientUnits="userSpaceOnUse"><stop offset="0" stop-color="#9a3727"/><stop offset="1" stop-color="#6c2a1f"/></linearGradient><linearGradient id="linear-gradient-7" x1="103.73" y1="807.47" x2="104.73" y2="806.47" gradientTransform="matrix(191, 0, 0, -163, -19840.04, 131871.04)" gradientUnits="userSpaceOnUse"><stop offset="0" stop-color="#633019"/><stop offset="1" stop-color="#7d2a22"/></linearGradient><linearGradient id="linear-gradient-8" x1="95.04" y1="807.2" x2="96.04" y2="806.2" gradientTransform="matrix(11, 0, 0, -297, -1030, 239942.17)" gradientUnits="userSpaceOnUse"><stop offset="0" stop-color="#a84b1d"/><stop offset="1" stop-color="#a4272f"/></linearGradient><linearGradient id="linear-gradient-9" x1="103.93" y1="807.86" x2="104.93" y2="806.86" gradientTransform="matrix(183, 0, 0, -143, -18996.04, 115895.04)" gradientUnits="userSpaceOnUse"><stop offset="0" stop-color="#a02531"/><stop offset="1" stop-color="#a23526"/></linearGradient><linearGradient id="linear-gradient-10" x1="103.98" y1="807.63" x2="104.98" y2="806.63" gradientTransform="matrix(183, 0, 0, -181, -18996.04, 146542.04)" gradientUnits="userSpaceOnUse"><stop offset="0" stop-color="#a34e1d"/><stop offset="1" stop-color="#b4670f"/></linearGradient><linearGradient id="linear-gradient-11" x1="103.98" y1="807.43" x2="104.98" y2="806.43" gradientTransform="matrix(281, 0, 0, -181, -29074.06, 146542.04)" gradientUnits="userSpaceOnUse"><stop offset="0" stop-color="#be3a29"/><stop offset="1" stop-color="#b22d2c"/></linearGradient><linearGradient id="linear-gradient-12" x1="104.17" y1="807.48" x2="105.17" y2="806.48" gradientTransform="matrix(261, 0, 0, -215, -26964.06, 173856.06)" gradientUnits="userSpaceOnUse"><stop offset="0" stop-color="#a96811"/><stop offset="1" stop-color="#743720"/></linearGradient><linearGradient id="linear-gradient-13" x1="103.91" y1="807.37" x2="104.91" y2="806.37" gradientTransform="matrix(185, 0, 0, -215, -18817.04, 173856.06)" gradientUnits="userSpaceOnUse"><stop offset="0" stop-color="#66162b"/><stop offset="1" stop-color="#b74527"/></linearGradient><linearGradient id="linear-gradient-14" x1="104" y1="807.5" x2="105" y2="806.5" gradientTransform="matrix(243, 0, 0, -183, -24915.06, 147865.04)" gradientUnits="userSpaceOnUse"><stop offset="0" stop-color="#a75420"/><stop offset="1" stop-color="#7c421d"/></linearGradient><linearGradient id="linear-gradient-15" x1="104.11" y1="807.6" x2="105.11" y2="806.6" gradientTransform="matrix(206, 0, 0, -197, -21011.54, 159233.05)" gradientUnits="userSpaceOnUse"><stop offset="0" stop-color="#763c1c"/><stop offset="1" stop-color="#c18a0b"/></linearGradient><linearGradient id="linear-gradient-16" x1="104.27" y1="808.99" x2="105.27" y2="807.99" gradientTransform="matrix(323, 0, 0, -81, -33423.17, 65521.02)" gradientUnits="userSpaceOnUse"><stop offset="0" stop-color="#9a7f0e"/><stop offset="1" stop-color="#88760a"/></linearGradient><linearGradient id="linear-gradient-17" x1="104.12" y1="807.78" x2="105.12" y2="806.78" gradientTransform="matrix(243, 0, 0, -158, -24915.06, 127621.54)" gradientUnits="userSpaceOnUse"><stop offset="0" stop-color="#af9708"/><stop offset="1" stop-color="#b09405"/></linearGradient><linearGradient id="linear-gradient-18" x1="104.41" y1="810.41" x2="105.41" y2="809.41" gradientTransform="matrix(540, 0, 0, -51, -56316.62, 41326.02)" gradientUnits="userSpaceOnUse"><stop offset="0" stop-color="#997808"/><stop offset="1" stop-color="#b28c07"/></linearGradient><linearGradient id="linear-gradient-19" x1="103.95" y1="807.83" x2="104.95" y2="806.83" gradientTransform="matrix(161, 0, 0, -158, -16171.04, 127621.54)" gradientUnits="userSpaceOnUse"><stop offset="0" stop-color="#b24e22"/><stop offset="1" stop-color="#a6581a"/></linearGradient><linearGradient id="linear-gradient-20" x1="103.56" y1="807.69" x2="104.56" y2="806.69" gradientTransform="matrix(118, 0, 0, -156, -11609.52, 126010.54)" gradientUnits="userSpaceOnUse"><stop offset="0" stop-color="#be810c"/><stop offset="1" stop-color="#be5e15"/></linearGradient><linearGradient id="linear-gradient-21" x1="103.69" y1="807.25" x2="104.69" y2="806.25" gradientTransform="matrix(176, 0, 0, -203, -17691.54, 164072.05)" gradientUnits="userSpaceOnUse"><stop offset="0" stop-color="#715811"/><stop offset="1" stop-color="#806d0b"/></linearGradient><linearGradient id="linear-gradient-22" x1="103.99" y1="807.51" x2="104.99" y2="806.51" gradientTransform="matrix(155, 0, 0, -229, -15476.04, 185015.06)" gradientUnits="userSpaceOnUse"><stop offset="0" stop-color="#b37b0a"/><stop offset="1" stop-color="#ca7311"/></linearGradient><linearGradient id="linear-gradient-23" x1="104" y1="807.63" x2="105" y2="806.63" gradientTransform="matrix(230, 0, 0, -165, -23463.56, 133622.04)" gradientUnits="userSpaceOnUse"><stop offset="0" stop-color="#aa5020"/><stop offset="1" stop-color="#b46917"/></linearGradient><linearGradient id="linear-gradient-24" x1="104.04" y1="807.81" x2="105.04" y2="806.81" gradientTransform="matrix(176, 0, 0, -165, -17691.54, 133622.04)" gradientUnits="userSpaceOnUse"><stop offset="0" stop-color="#c15b21"/><stop offset="1" stop-color="#b64327"/></linearGradient><linearGradient id="linear-gradient-25" x1="104.06" y1="807.61" x2="105.06" y2="806.61" gradientTransform="matrix(230, 0, 0, -178, -23463.56, 144230.54)" gradientUnits="userSpaceOnUse"><stop offset="0" stop-color="#b43926"/><stop offset="1" stop-color="#b24120"/></linearGradient><linearGradient id="linear-gradient-26" x1="104.29" y1="807.58" x2="105.29" y2="806.58" gradientTransform="matrix(281, 0, 0, -211, -29074.06, 170845.06)" gradientUnits="userSpaceOnUse"><stop offset="0" stop-color="#ab740c"/><stop offset="1" stop-color="#aa561a"/></linearGradient><linearGradient id="linear-gradient-27" x1="103.79" y1="807.32" x2="104.79" y2="806.32" gradientTransform="matrix(170, 0, 0, -211, -17297.54, 170845.06)" gradientUnits="userSpaceOnUse"><stop offset="0" stop-color="#9b4f1c"/><stop offset="1" stop-color="#ab670f"/></linearGradient><linearGradient id="linear-gradient-28" x1="103.89" y1="807.42" x2="104.89" y2="806.42" gradientTransform="matrix(243, 0, 0, -176, -25169.06, 142690.54)" gradientUnits="userSpaceOnUse"><stop offset="0" stop-color="#b95716"/><stop offset="1" stop-color="#bc6d11"/></linearGradient><linearGradient id="linear-gradient-29" x1="103.96" y1="807.51" x2="104.96" y2="806.51" gradientTransform="matrix(163, 0, 0, -214, -16906.04, 173299.56)" gradientUnits="userSpaceOnUse"><stop offset="0" stop-color="#8d451c"/><stop offset="1" stop-color="#a9770b"/></linearGradient><linearGradient id="linear-gradient-30" x1="95.65" y1="806.73" x2="96.65" y2="805.73" gradientTransform="matrix(12, 0, 0, -513, -1138.5, 414146.13)" gradientUnits="userSpaceOnUse"><stop offset="0" stop-color="#a93325"/><stop offset="1" stop-color="#73152b"/></linearGradient><linearGradient id="linear-gradient-31" x1="103.32" y1="807.18" x2="104.32" y2="806.18" gradientTransform="matrix(109, 0, 0, -216, -11275.02, 174912.56)" gradientUnits="userSpaceOnUse"><stop offset="0" stop-color="#5a1225"/><stop offset="1" stop-color="#4e3d13"/></linearGradient><linearGradient id="linear-gradient-32" x1="87.09" y1="806.78" x2="88.09" y2="805.78" gradientTransform="matrix(6, 0, 0, -728, -513.5, 587328.78)" gradientUnits="userSpaceOnUse"><stop offset="0" stop-color="#ad8806"/><stop offset="1" stop-color="#835413"/></linearGradient><linearGradient id="linear-gradient-33" x1="103.56" y1="808.12" x2="104.56" y2="807.12" gradientTransform="matrix(109, 0, 0, -122, -11275.02, 99315.54)" gradientUnits="userSpaceOnUse"><stop offset="0" stop-color="#16101a"/><stop offset="1" stop-color="#594613"/></linearGradient><linearGradient id="linear-gradient-34" x1="104.17" y1="807.64" x2="105.17" y2="806.64" gradientTransform="matrix(243, 0, 0, -187, -25169.06, 151700.04)" gradientUnits="userSpaceOnUse"><stop offset="0" stop-color="#6b5410"/><stop offset="1" stop-color="#872c25"/></linearGradient><linearGradient id="linear-gradient-35" x1="103.88" y1="807.73" x2="104.88" y2="806.73" gradientTransform="matrix(194, 0, 0, -149, -20147.54, 121091.04)" gradientUnits="userSpaceOnUse"><stop offset="0" stop-color="#685f0f"/><stop offset="1" stop-color="#b36c18"/></linearGradient><linearGradient id="linear-gradient-36" x1="104.1" y1="807.62" x2="105.1" y2="806.62" gradientTransform="matrix(170, 0, 0, -214, -17297.54, 173442.56)" gradientUnits="userSpaceOnUse"><stop offset="0" stop-color="#6c3619"/><stop offset="1" stop-color="#822924"/></linearGradient><linearGradient id="linear-gradient-37" x1="103.65" y1="807.26" x2="104.65" y2="806.26" gradientTransform="matrix(150, 0, 0, -214, -15059.54, 173442.56)" gradientUnits="userSpaceOnUse"><stop offset="0" stop-color="#b95322"/><stop offset="1" stop-color="#ab7d0a"/></linearGradient><linearGradient id="linear-gradient-38" x1="103.99" y1="807.35" x2="104.99" y2="806.35" gradientTransform="matrix(164, 0, 0, -267, -16500.54, 216050.16)" gradientUnits="userSpaceOnUse"><stop offset="0" stop-color="#9f6c0d"/><stop offset="1" stop-color="#9b6614"/></linearGradient><linearGradient id="linear-gradient-39" x1="103.7" y1="807.05" x2="104.7" y2="806.05" gradientTransform="matrix(169, 0, 0, -267, -16895.04, 216050.16)" gradientUnits="userSpaceOnUse"><stop offset="0" stop-color="#5a540f"/><stop offset="1" stop-color="#793c1d"/></linearGradient><linearGradient id="linear-gradient-40" x1="104.05" y1="807.54" x2="105.05" y2="806.54" gradientTransform="matrix(217, 0, 0, -194, -21875.05, 157175.54)" gradientUnits="userSpaceOnUse"><stop offset="0" stop-color="#ae3625"/><stop offset="1" stop-color="#7f5012"/></linearGradient><linearGradient id="linear-gradient-41" x1="103.95" y1="807.66" x2="104.95" y2="806.66" gradientTransform="matrix(211, 0, 0, -159, -21248.04, 128789.04)" gradientUnits="userSpaceOnUse"><stop offset="0" stop-color="#8f451e"/><stop offset="1" stop-color="#966212"/></linearGradient><linearGradient id="linear-gradient-42" x1="104.12" y1="807.51" x2="105.12" y2="806.51" gradientTransform="matrix(217, 0, 0, -214, -21875.05, 173184.56)" gradientUnits="userSpaceOnUse"><stop offset="0" stop-color="#893f1d"/><stop offset="1" stop-color="#573018"/></linearGradient><linearGradient id="linear-gradient-43" x1="103.82" y1="807.29" x2="104.82" y2="806.29" gradientTransform="matrix(168, 0, 0, -229, -16716.54, 185015.06)" gradientUnits="userSpaceOnUse"><stop offset="0" stop-color="#bb7d0e"/><stop offset="1" stop-color="#7f6b0c"/></linearGradient><linearGradient id="linear-gradient-44" x1="103.78" y1="807.73" x2="104.78" y2="806.73" gradientTransform="matrix(136, 0, 0, -165, -13335.53, 133501.04)" gradientUnits="userSpaceOnUse"><stop offset="0" stop-color="#6e5611"/><stop offset="1" stop-color="#3c141f"/></linearGradient><linearGradient id="linear-gradient-45" x1="104.21" y1="808.05" x2="105.21" y2="807.05" gradientTransform="matrix(222, 0, 0, -142, -22359.55, 114809.54)" gradientUnits="userSpaceOnUse"><stop offset="0" stop-color="#bd7f0d"/><stop offset="1" stop-color="#845a11"/></linearGradient><linearGradient id="linear-gradient-46" x1="103.89" y1="808.02" x2="104.89" y2="807.02" gradientTransform="matrix(166, 0, 0, -130, -16532.54, 105041.54)" gradientUnits="userSpaceOnUse"><stop offset="0" stop-color="#b17c0d"/><stop offset="1" stop-color="#a75d14"/></linearGradient><linearGradient id="linear-gradient-47" x1="103.94" y1="807.99" x2="104.94" y2="806.99" gradientTransform="matrix(222, 0, 0, -123, -22359.55, 99403.03)" gradientUnits="userSpaceOnUse"><stop offset="0" stop-color="#bf3d27"/><stop offset="1" stop-color="#962b22"/></linearGradient><linearGradient id="linear-gradient-48" x1="104.06" y1="830.74" x2="105.06" y2="829.74" gradientTransform="matrix(284, 0, 0, -8, -28863.56, 6648.5)" gradientUnits="userSpaceOnUse"><stop offset="0" stop-color="#6c2d13"/><stop offset="1" stop-color="#471a10"/></linearGradient><linearGradient id="linear-gradient-49" x1="103.78" y1="809.01" x2="104.78" y2="808.01" gradientTransform="matrix(118, 0, 0, -83, -11350.52, 67143.02)" gradientUnits="userSpaceOnUse"><stop offset="0" stop-color="#8f3918"/><stop offset="1" stop-color="#a05710"/></linearGradient><linearGradient id="linear-gradient-50" x1="103.3" y1="807.76" x2="104.3" y2="806.76" gradientTransform="matrix(96, 0, 0, -142, -9024.52, 114809.54)" gradientUnits="userSpaceOnUse"><stop offset="0" stop-color="#733a19"/><stop offset="1" stop-color="#944917"/></linearGradient><linearGradient id="linear-gradient-51" x1="102.1" y1="807.84" x2="103.1" y2="806.84" gradientTransform="matrix(42, 0, 0, -156, -3327.5, 126018.54)" gradientUnits="userSpaceOnUse"><stop offset="0" stop-color="#b77b0c"/><stop offset="1" stop-color="#544d08"/></linearGradient><linearGradient id="linear-gradient-52" x1="103.25" y1="807.52" x2="104.25" y2="806.52" gradientTransform="matrix(95, 0, 0, -165, -8920.02, 133501.04)" gradientUnits="userSpaceOnUse"><stop offset="0" stop-color="#5d1626"/><stop offset="1" stop-color="#9e4221"/></linearGradient><linearGradient id="linear-gradient-53" x1="103.57" y1="807.74" x2="104.57" y2="806.74" gradientTransform="matrix(96, 0, 0, -179, -9024.52, 144724.04)" gradientUnits="userSpaceOnUse"><stop offset="0" stop-color="#665010"/><stop offset="1" stop-color="#83670c"/></linearGradient><linearGradient id="linear-gradient-54" x1="103.04" y1="807.23" x2="104.04" y2="806.23" gradientTransform="matrix(81, 0, 0, -214, -7452.02, 173184.56)" gradientUnits="userSpaceOnUse"><stop offset="0" stop-color="#90182e"/><stop offset="1" stop-color="#742720"/></linearGradient><linearGradient id="linear-gradient-55" x1="103.53" y1="807.58" x2="104.53" y2="806.58" gradientTransform="matrix(90, 0, 0, -219, -8392.52, 177163.06)" gradientUnits="userSpaceOnUse"><stop offset="0" stop-color="#91182e"/><stop offset="1" stop-color="#aa531a"/></linearGradient><linearGradient id="linear-gradient-56" x1="103.84" y1="807.58" x2="104.84" y2="806.58" gradientTransform="matrix(162, 0, 0, -179, -15994.54, 145171.04)" gradientUnits="userSpaceOnUse"><stop offset="0" stop-color="#b75322"/><stop offset="1" stop-color="#892d24"/></linearGradient><linearGradient id="linear-gradient-57" x1="103.35" y1="807.54" x2="104.35" y2="806.54" gradientTransform="matrix(78, 0, 0, -228, -7132.52, 184640.56)" gradientUnits="userSpaceOnUse"><stop offset="0" stop-color="#613116"/><stop offset="1" stop-color="#b65615"/></linearGradient><linearGradient id="linear-gradient-58" x1="92.97" y1="807.02" x2="93.97" y2="806.02" gradientTransform="matrix(9, 0, 0, -447, 153, 361045.11)" gradientUnits="userSpaceOnUse"><stop offset="0" stop-color="#a44c13"/><stop offset="1" stop-color="#b46810"/></linearGradient><linearGradient id="linear-gradient-59" x1="104.09" y1="807.39" x2="105.09" y2="806.39" gradientTransform="matrix(179, 0, 0, -269, -17940.04, 217857.16)" gradientUnits="userSpaceOnUse"><stop offset="0" stop-color="#a6581e"/><stop offset="1" stop-color="#be5a1e"/></linearGradient><linearGradient id="linear-gradient-60" x1="103.8" y1="807.17" x2="104.8" y2="806.17" gradientTransform="matrix(162, 0, 0, -269, -15994.54, 217857.16)" gradientUnits="userSpaceOnUse"><stop offset="0" stop-color="#a89107"/><stop offset="1" stop-color="#c27412"/></linearGradient><linearGradient id="linear-gradient-61" x1="103.81" y1="807.52" x2="104.81" y2="806.52" gradientTransform="matrix(152, 0, 0, -191, -14939.54, 155028.04)" gradientUnits="userSpaceOnUse"><stop offset="0" stop-color="#a26713"/><stop offset="1" stop-color="#b26614"/></linearGradient><linearGradient id="linear-gradient-62" x1="103.95" y1="807.63" x2="104.95" y2="806.63" gradientTransform="matrix(150, 0, 0, -197, -15059.54, 159862.05)" gradientUnits="userSpaceOnUse"><stop offset="0" stop-color="#c85f23"/><stop offset="1" stop-color="#b39f04"/></linearGradient><linearGradient id="linear-gradient-63" x1="103.71" y1="807.25" x2="104.71" y2="806.25" gradientTransform="matrix(189, 0, 0, -197, -18995.04, 159862.05)" gradientUnits="userSpaceOnUse"><stop offset="0" stop-color="#615510"/><stop offset="1" stop-color="#8e5e12"/></linearGradient><linearGradient id="linear-gradient-64" x1="103.97" y1="807.21" x2="104.97" y2="806.21" gradientTransform="matrix(184, 0, 0, -292, -18908.54, 236382.67)" gradientUnits="userSpaceOnUse"><stop offset="0" stop-color="#be5922"/><stop offset="1" stop-color="#b4830b"/></linearGradient><linearGradient id="linear-gradient-65" x1="103.7" y1="807.07" x2="104.7" y2="806.07" gradientTransform="matrix(148, 0, 0, -292, -14998.54, 236382.67)" gradientUnits="userSpaceOnUse"><stop offset="0" stop-color="#c47c10"/><stop offset="1" stop-color="#b56f18"/></linearGradient><linearGradient id="linear-gradient-66" x1="103.95" y1="808.09" x2="104.95" y2="807.09" gradientTransform="matrix(252, 0, 0, -113, -25830.56, 92200.02)" gradientUnits="userSpaceOnUse"><stop offset="0" stop-color="#b7193a"/><stop offset="1" stop-color="#a76f13"/></linearGradient><linearGradient id="linear-gradient-67" x1="104.14" y1="808.11" x2="105.14" y2="807.11" gradientTransform="matrix(194, 0, 0, -136, -20147.54, 110728.54)" gradientUnits="userSpaceOnUse"><stop offset="0" stop-color="#6a610d"/><stop offset="1" stop-color="#b24328"/></linearGradient><linearGradient id="linear-gradient-68" x1="103.76" y1="808.06" x2="104.76" y2="807.06" gradientTransform="matrix(202, 0, 0, -109, -20807.54, 88980.02)" gradientUnits="userSpaceOnUse"><stop offset="0" stop-color="#a75120"/><stop offset="1" stop-color="#a26815"/></linearGradient><linearGradient id="linear-gradient-69" x1="104.15" y1="855" x2="105.15" y2="854" gradientTransform="matrix(454, 0, 0, -4, -47141.6, 4402.5)" gradientUnits="userSpaceOnUse"><stop offset="0" stop-color="#ad9604"/><stop offset="1" stop-color="#b67016"/></linearGradient><linearGradient id="linear-gradient-70" x1="99.41" y1="807.13" x2="100.41" y2="806.13" gradientTransform="matrix(21, 0, 0, -259, -2090, 209808.06)" gradientUnits="userSpaceOnUse"><stop offset="0" stop-color="#65152a"/><stop offset="1" stop-color="#932132"/></linearGradient><linearGradient id="linear-gradient-71" x1="103.75" y1="807.68" x2="104.75" y2="806.68" gradientTransform="matrix(197, 0, 0, -139, -20482.04, 113148.04)" gradientUnits="userSpaceOnUse"><stop offset="0" stop-color="#6c630f"/><stop offset="1" stop-color="#ba452c"/></linearGradient></defs><title>6</title><polygon id="triangle36" class="cls-1" points="15 217 230 194 226 51 15 217"/><polygon id="triangle36-2" data-name="triangle36" class="cls-2" points="9 2 15 217 226 51 9 2"/><polygon id="triangle36-3" data-name="triangle36" class="cls-3" points="226 51 230 194 374 81 226 51"/><polygon id="triangle36-4" data-name="triangle36" class="cls-4" points="230 194 374 81 411 264 230 194"/><polygon id="triangle36-5" data-name="triangle36" class="cls-5" points="15 217 230 194 206 371 15 217"/><polygon id="triangle36-6" data-name="triangle36" class="cls-6" points="230 194 411 264 206 371 230 194"/><polygon id="triangle36-7" data-name="triangle36" class="cls-7" points="15 217 206 371 26 380 15 217"/><polygon id="triangle36-8" data-name="triangle36" class="cls-8" points="15 217 26 380 23 514 15 217"/><polygon id="triangle36-9" data-name="triangle36" class="cls-9" points="26 380 206 371 23 514 26 380"/><polygon id="triangle36-10" data-name="triangle36" class="cls-10" points="23 514 206 371 186 552 23 514"/><polygon id="triangle36-11" data-name="triangle36" class="cls-11" points="186 552 206 371 467 479 186 552"/><polygon id="triangle36-12" data-name="triangle36" class="cls-12" points="206 371 411 264 467 479 206 371"/><polygon id="triangle36-13" data-name="triangle36" class="cls-13" points="411 264 467 479 596 355 411 264"/><polygon id="triangle36-14" data-name="triangle36" class="cls-14" points="374 81 411 264 617 158 374 81"/><polygon id="triangle36-15" data-name="triangle36" class="cls-15" points="411 264 596 355 617 158 411 264"/><polygon id="triangle36-16" data-name="triangle36" class="cls-16" points="226 51 374 81 549 0 226 51"/><polygon id="triangle36-17" data-name="triangle36" class="cls-17" points="374 81 617 158 549 0 374 81"/><polygon id="triangle36-18" data-name="triangle36" class="cls-18" points="9 2 226 51 549 0 9 2"/><polygon id="triangle36-19" data-name="triangle36" class="cls-19" points="549 0 617 158 710 2 549 0"/><polygon id="triangle36-20" data-name="triangle36" class="cls-20" points="617 158 710 2 735 132 617 158"/><polygon id="triangle36-21" data-name="triangle36" class="cls-21" points="596 355 617 158 772 361 596 355"/><polygon id="triangle36-22" data-name="triangle36" class="cls-22" points="617 158 735 132 772 361 617 158"/><polygon id="triangle36-23" data-name="triangle36" class="cls-23" points="467 479 596 355 697 520 467 479"/><polygon id="triangle36-24" data-name="triangle36" class="cls-24" points="596 355 772 361 697 520 596 355"/><polygon id="triangle36-25" data-name="triangle36" class="cls-25" points="467 479 697 520 533 657 467 479"/><polygon id="triangle36-26" data-name="triangle36" class="cls-26" points="186 552 467 479 363 690 186 552"/><polygon id="triangle36-27" data-name="triangle36" class="cls-27" points="467 479 533 657 363 690 467 479"/><polygon id="triangle36-28" data-name="triangle36" class="cls-28" points="186 552 363 690 120 728 186 552"/><polygon id="triangle36-29" data-name="triangle36" class="cls-29" points="23 514 186 552 120 728 23 514"/><polygon id="triangle36-30" data-name="triangle36" class="cls-30" points="15 217 23 514 11 730 15 217"/><polygon id="triangle36-31" data-name="triangle36" class="cls-31" points="23 514 120 728 11 730 23 514"/><polygon id="triangle36-32" data-name="triangle36" class="cls-32" points="9 2 15 217 11 730 9 2"/><polygon id="triangle36-33" data-name="triangle36" class="cls-33" points="11 730 120 728 21 850 11 730"/><polygon id="triangle36-34" data-name="triangle36" class="cls-34" points="120 728 363 690 215 877 120 728"/><polygon id="triangle36-35" data-name="triangle36" class="cls-35" points="21 850 120 728 215 877 21 850"/><polygon id="triangle36-36" data-name="triangle36" class="cls-36" points="363 690 533 657 511 871 363 690"/><polygon id="triangle36-37" data-name="triangle36" class="cls-37" points="511 871 533 657 661 787 511 871"/><polygon id="triangle36-38" data-name="triangle36" class="cls-38" points="533 657 697 520 661 787 533 657"/><polygon id="triangle36-39" data-name="triangle36" class="cls-39" points="661 787 697 520 830 714 661 787"/><polygon id="triangle36-40" data-name="triangle36" class="cls-40" points="697 520 830 714 914 613 697 520"/><polygon id="triangle36-41" data-name="triangle36" class="cls-41" points="697 520 772 361 908 399 697 520"/><polygon id="triangle36-42" data-name="triangle36" class="cls-42" points="697 520 914 613 908 399 697 520"/><polygon id="triangle36-43" data-name="triangle36" class="cls-43" points="735 132 772 361 903 234 735 132"/><polygon id="triangle36-44" data-name="triangle36" class="cls-44" points="772 361 908 399 903 234 772 361"/><polygon id="triangle36-45" data-name="triangle36" class="cls-45" points="735 132 903 234 957 92 735 132"/><polygon id="triangle36-46" data-name="triangle36" class="cls-46" points="710 2 735 132 876 9 710 2"/><polygon id="triangle36-47" data-name="triangle36" class="cls-47" points="735 132 957 92 876 9 735 132"/><polygon id="triangle36-48" data-name="triangle36" class="cls-48" points="710 2 876 9 994 10 710 2"/><polygon id="triangle36-49" data-name="triangle36" class="cls-49" points="876 9 957 92 994 10 876 9"/><polygon id="triangle36-50" data-name="triangle36" class="cls-50" points="903 234 957 92 999 166 903 234"/><polygon id="triangle36-51" data-name="triangle36" class="cls-51" points="957 92 994 10 999 166 957 92"/><polygon id="triangle36-52" data-name="triangle36" class="cls-52" points="903 234 908 399 998 345 903 234"/><polygon id="triangle36-53" data-name="triangle36" class="cls-53" points="903 234 999 166 998 345 903 234"/><polygon id="triangle36-54" data-name="triangle36" class="cls-54" points="908 399 914 613 989 564 908 399"/><polygon id="triangle36-55" data-name="triangle36" class="cls-55" points="908 399 998 345 989 564 908 399"/><polygon id="triangle36-56" data-name="triangle36" class="cls-56" points="830 714 914 613 992 792 830 714"/><polygon id="triangle36-57" data-name="triangle36" class="cls-57" points="914 613 989 564 992 792 914 613"/><polygon id="triangle36-58" data-name="triangle36" class="cls-58" points="989 564 998 345 992 792 989 564"/><polygon id="triangle36-59" data-name="triangle36" class="cls-59" points="661 787 830 714 840 983 661 787"/><polygon id="triangle36-60" data-name="triangle36" class="cls-60" points="830 714 992 792 840 983 830 714"/><polygon id="triangle36-61" data-name="triangle36" class="cls-61" points="990 974 992 792 840 983 990 974"/><polygon id="triangle36-62" data-name="triangle36" class="cls-62" points="511 871 661 787 651 984 511 871"/><polygon id="triangle36-63" data-name="triangle36" class="cls-63" points="661 787 840 983 651 984 661 787"/><polygon id="triangle36-64" data-name="triangle36" class="cls-64" points="215 877 363 690 399 982 215 877"/><polygon id="triangle36-65" data-name="triangle36" class="cls-65" points="363 690 511 871 399 982 363 690"/><polygon id="triangle36-66" data-name="triangle36" class="cls-66" points="511 871 651 984 399 982 511 871"/><polygon id="triangle36-67" data-name="triangle36" class="cls-67" points="21 850 215 877 197 986 21 850"/><polygon id="triangle36-68" data-name="triangle36" class="cls-68" points="215 877 399 982 197 986 215 877"/><polygon id="triangle36-69" data-name="triangle36" class="cls-69" points="399 982 651 984 197 986 399 982"/><polygon id="triangle36-70" data-name="triangle36" class="cls-70" points="11 730 21 850 0 989 11 730"/><polygon id="triangle36-71" data-name="triangle36" class="cls-71" points="21 850 197 986 0 989 21 850"/></svg>