<svg id="Layer_1" data-name="Layer 1" xmlns="http://www.w3.org/2000/svg" xmlns:xlink="http://www.w3.org/1999/xlink" viewBox="0 0 984 993"><defs><style>.cls-1{fill:url(#linear-gradient);}.cls-2{fill:url(#linear-gradient-2);}.cls-3{fill:url(#linear-gradient-3);}.cls-4{fill:url(#linear-gradient-4);}.cls-5{fill:url(#linear-gradient-5);}.cls-6{fill:url(#linear-gradient-6);}.cls-7{fill:url(#linear-gradient-7);}.cls-8{fill:url(#linear-gradient-8);}.cls-9{fill:url(#linear-gradient-9);}.cls-10{fill:url(#linear-gradient-10);}.cls-11{fill:url(#linear-gradient-11);}.cls-12{fill:url(#linear-gradient-12);}.cls-13{fill:url(#linear-gradient-13);}.cls-14{fill:url(#linear-gradient-14);}.cls-15{fill:url(#linear-gradient-15);}.cls-16{fill:url(#linear-gradient-16);}.cls-17{fill:url(#linear-gradient-17);}.cls-18{fill:url(#linear-gradient-18);}.cls-19{fill:url(#linear-gradient-19);}.cls-20{fill:url(#linear-gradient-20);}.cls-21{fill:url(#linear-gradient-21);}.cls-22{fill:url(#linear-gradient-22);}.cls-23{fill:url(#linear-gradient-23);}.cls-24{fill:url(#linear-gradient-24);}.cls-25{fill:url(#linear-gradient-25);}.cls-26{fill:url(#linear-gradient-26);}.cls-27{fill:url(#linear-gradient-27);}.cls-28{fill:url(#linear-gradient-28);}.cls-29{fill:url(#linear-gradient-29);}.cls-30{fill:url(#linear-gradient-30);}.cls-31{fill:url(#linear-gradient-31);}.cls-32{fill:url(#linear-gradient-32);}.cls-33{fill:url(#linear-gradient-33);}.cls-34{fill:url(#linear-gradient-34);}.cls-35{fill:url(#linear-gradient-35);}.cls-36{fill:url(#linear-gradient-36);}.cls-37{fill:url(#linear-gradient-37);}.cls-38{fill:url(#linear-gradient-38);}.cls-39{fill:url(#linear-gradient-39);}.cls-40{fill:url(#linear-gradient-40);}.cls-41{fill:url(#linear-gradient-41);}.cls-42{fill:url(#linear-gradient-42);}.cls-43{fill:url(#linear-gradient-43);}.cls-44{fill:url(#linear-gradient-44);}.cls-45{fill:url(#linear-gradient-45);}.cls-46{fill:url(#linear-gradient-46);}.cls-47{fill:url(#linear-gradient-47);}.cls-48{fill:url(#linear-gradient-48);}.cls-49{fill:url(#linear-gradient-49);}.cls-50{fill:url(#linear-gradient-50);}.cls-51{fill:url(#linear-gradient-51);}.cls-52{fill:url(#linear-gradient-52);}.cls-53{fill:url(#linear-gradient-53);}.cls-54{fill:url(#linear-gradient-54);}.cls-55{fill:url(#linear-gradient-55);}.cls-56{fill:url(#linear-gradient-56);}.cls-57{fill:url(#linear-gradient-57);}.cls-58{fill:url(#linear-gradient-58);}.cls-59{fill:url(#linear-gradient-59);}.cls-60{fill:url(#linear-gradient-60);}.cls-61{fill:url(#linear-gradient-61);}.cls-62{fill:url(#linear-gradient-62);}.cls-63{fill:url(#linear-gradient-63);}.cls-64{fill:url(#linear-gradient-64);}.cls-65{fill:url(#linear-gradient-65);}.cls-66{fill:url(#linear-gradient-66);}.cls-67{fill:url(#linear-gradient-67);}.cls-68{fill:url(#linear-gradient-68);}.cls-69{fill:url(#linear-gradient-69);}.cls-70{fill:url(#linear-gradient-70);}.cls-71{fill:url(#linear-gradient-71);}.cls-72{fill:url(#linear-gradient-72);}.cls-73{fill:url(#linear-gradient-73);}.cls-74{fill:url(#linear-gradient-74);}.cls-75{fill:url(#linear-gradient-75);}.cls-76{fill:url(#linear-gradient-76);}.cls-77{fill:url(#linear-gradient-77);}.cls-78{fill:url(#linear-gradient-78);}.cls-79{fill:url(#linear-gradient-79);}.cls-80{fill:url(#linear-gradient-80);}</style><linearGradient id="linear-gradient" x1="103.72" y1="807.48" x2="104.72" y2="806.48" gradientTransform="matrix(164, 0, 0, -174, -17028.54, 140528.54)" gradientUnits="userSpaceOnUse"><stop offset="0" stop-color="#ba5200"/><stop offset="1" stop-color="#d75f02"/></linearGradient><linearGradient id="linear-gradient-2" x1="104.19" y1="808.41" x2="105.19" y2="807.41" gradientTransform="matrix(211, 0, 0, -113, -21940.04, 91332.02)" gradientUnits="userSpaceOnUse"><stop offset="0" stop-color="#bb6001"/><stop offset="1" stop-color="#dc7b02"/></linearGradient><linearGradient id="linear-gradient-3" x1="103.52" y1="808.1" x2="104.52" y2="807.1" gradientTransform="matrix(125, 0, 0, -111, -12789.02, 89721.02)" gradientUnits="userSpaceOnUse"><stop offset="0" stop-color="#e58102"/><stop offset="1" stop-color="#e28b01"/></linearGradient><linearGradient id="linear-gradient-4" x1="103.9" y1="807.91" x2="104.9" y2="806.91" gradientTransform="matrix(140, 0, 0, -154, -14356.54, 124466.54)" gradientUnits="userSpaceOnUse"><stop offset="0" stop-color="#e8840d"/><stop offset="1" stop-color="#ea9a17"/></linearGradient><linearGradient id="linear-gradient-5" x1="103.7" y1="807.5" x2="104.7" y2="806.5" gradientTransform="matrix(140, 0, 0, -185, -14356.54, 149513.04)" gradientUnits="userSpaceOnUse"><stop offset="0" stop-color="#e98711"/><stop offset="1" stop-color="#eca329"/></linearGradient><linearGradient id="linear-gradient-6" x1="104.09" y1="807.65" x2="105.09" y2="806.65" gradientTransform="matrix(203, 0, 0, -185, -21090.04, 149513.04)" gradientUnits="userSpaceOnUse"><stop offset="0" stop-color="#da6409"/><stop offset="1" stop-color="#e88717"/></linearGradient><linearGradient id="linear-gradient-7" x1="96.99" y1="807.06" x2="97.99" y2="806.06" gradientTransform="matrix(14, 0, 0, -323, -1353.5, 260697.18)" gradientUnits="userSpaceOnUse"><stop offset="0" stop-color="#b84501"/><stop offset="1" stop-color="#d35a09"/></linearGradient><linearGradient id="linear-gradient-8" x1="103.8" y1="807.6" x2="104.8" y2="806.6" gradientTransform="matrix(212, 0, 0, -149, -22039.54, 120540.04)" gradientUnits="userSpaceOnUse"><stop offset="0" stop-color="#d9680c"/><stop offset="1" stop-color="#e58d20"/></linearGradient><linearGradient id="linear-gradient-9" x1="104.01" y1="807.99" x2="105.01" y2="806.99" gradientTransform="matrix(212, 0, 0, -131, -22039.54, 106147.04)" gradientUnits="userSpaceOnUse"><stop offset="0" stop-color="#e48419"/><stop offset="1" stop-color="#e78f1f"/></linearGradient><linearGradient id="linear-gradient-10" x1="104.05" y1="807.78" x2="105.05" y2="806.78" gradientTransform="matrix(221, 0, 0, -155, -22976.05, 125503.04)" gradientUnits="userSpaceOnUse"><stop offset="0" stop-color="#e68c1a"/><stop offset="1" stop-color="#efa82f"/></linearGradient><linearGradient id="linear-gradient-11" x1="103.85" y1="807.67" x2="104.85" y2="806.67" gradientTransform="matrix(185, 0, 0, -155, -19006.04, 125503.04)" gradientUnits="userSpaceOnUse"><stop offset="0" stop-color="#eeaf3b"/><stop offset="1" stop-color="#efbb48"/></linearGradient><linearGradient id="linear-gradient-12" x1="103.92" y1="807.88" x2="104.92" y2="806.88" gradientTransform="matrix(185, 0, 0, -139, -19006.04, 112523.04)" gradientUnits="userSpaceOnUse"><stop offset="0" stop-color="#eeac3a"/><stop offset="1" stop-color="#eeb443"/></linearGradient><linearGradient id="linear-gradient-13" x1="104.12" y1="807.97" x2="105.12" y2="806.97" gradientTransform="matrix(229, 0, 0, -139, -23517.06, 112523.04)" gradientUnits="userSpaceOnUse"><stop offset="0" stop-color="#eeb342"/><stop offset="1" stop-color="#eebd52"/></linearGradient><linearGradient id="linear-gradient-14" x1="104.09" y1="807.75" x2="105.09" y2="806.75" gradientTransform="matrix(266, 0, 0, -154, -27398.56, 124466.54)" gradientUnits="userSpaceOnUse"><stop offset="0" stop-color="#e89c0e"/><stop offset="1" stop-color="#eca61c"/></linearGradient><linearGradient id="linear-gradient-15" x1="104.11" y1="807.8" x2="105.11" y2="806.8" gradientTransform="matrix(251, 0, 0, -153, -25816.06, 123679.04)" gradientUnits="userSpaceOnUse"><stop offset="0" stop-color="#edb32f"/><stop offset="1" stop-color="#eeb32c"/></linearGradient><linearGradient id="linear-gradient-16" x1="104.4" y1="903.86" x2="105.4" y2="902.86" gradientTransform="matrix(496, 0, 0, -2, -51722.61, 1810.5)" gradientUnits="userSpaceOnUse"><stop offset="0" stop-color="#c16600"/><stop offset="1" stop-color="#e18800"/></linearGradient><linearGradient id="linear-gradient-17" x1="104.2" y1="809.43" x2="105.2" y2="808.43" gradientTransform="matrix(285, 0, 0, -68, -29462.06, 55039.52)" gradientUnits="userSpaceOnUse"><stop offset="0" stop-color="#e18c03"/><stop offset="1" stop-color="#e89103"/></linearGradient><linearGradient id="linear-gradient-18" x1="104.11" y1="808.73" x2="105.11" y2="807.73" gradientTransform="matrix(266, 0, 0, -87, -27398.56, 70363.02)" gradientUnits="userSpaceOnUse"><stop offset="0" stop-color="#e89507"/><stop offset="1" stop-color="#eb9908"/></linearGradient><linearGradient id="linear-gradient-19" x1="103.95" y1="808.81" x2="104.95" y2="807.81" gradientTransform="matrix(169, 0, 0, -87, -17055.04, 70363.02)" gradientUnits="userSpaceOnUse"><stop offset="0" stop-color="#ea9200"/><stop offset="1" stop-color="#eb9a04"/></linearGradient><linearGradient id="linear-gradient-20" x1="103.76" y1="807.71" x2="104.76" y2="806.71" gradientTransform="matrix(154, 0, 0, -153, -15450.54, 123679.04)" gradientUnits="userSpaceOnUse"><stop offset="0" stop-color="#eeb12d"/><stop offset="1" stop-color="#efa00e"/></linearGradient><linearGradient id="linear-gradient-21" x1="103.75" y1="808.16" x2="104.75" y2="807.16" gradientTransform="matrix(132, 0, 0, -120, -13129.54, 96983.54)" gradientUnits="userSpaceOnUse"><stop offset="0" stop-color="#ec9d0a"/><stop offset="1" stop-color="#eb9605"/></linearGradient><linearGradient id="linear-gradient-22" x1="103.9" y1="807.76" x2="104.9" y2="806.76" gradientTransform="matrix(154, 0, 0, -164, -15450.54, 132589.54)" gradientUnits="userSpaceOnUse"><stop offset="0" stop-color="#f0b836"/><stop offset="1" stop-color="#f2ad2a"/></linearGradient><linearGradient id="linear-gradient-23" x1="103.93" y1="807.51" x2="104.93" y2="806.51" gradientTransform="matrix(170, 0, 0, -201, -17253.54, 162544.05)" gradientUnits="userSpaceOnUse"><stop offset="0" stop-color="#f0c35f"/><stop offset="1" stop-color="#a6863f"/></linearGradient><linearGradient id="linear-gradient-24" x1="103.8" y1="807.47" x2="104.8" y2="806.47" gradientTransform="matrix(149, 0, 0, -201, -14928.04, 162544.05)" gradientUnits="userSpaceOnUse"><stop offset="0" stop-color="#eec153"/><stop offset="1" stop-color="#a78742"/></linearGradient><linearGradient id="linear-gradient-25" x1="103.87" y1="807.67" x2="104.87" y2="806.67" gradientTransform="matrix(205, 0, 0, -151, -20741.04, 122269.04)" gradientUnits="userSpaceOnUse"><stop offset="0" stop-color="#f3c245"/><stop offset="1" stop-color="#a98522"/></linearGradient><linearGradient id="linear-gradient-26" x1="104.07" y1="807.54" x2="105.07" y2="806.54" gradientTransform="matrix(191, 0, 0, -211, -19620.04, 170730.06)" gradientUnits="userSpaceOnUse"><stop offset="0" stop-color="#f2c144"/><stop offset="1" stop-color="#f1c33e"/></linearGradient><linearGradient id="linear-gradient-27" x1="103.82" y1="807.36" x2="104.82" y2="806.36" gradientTransform="matrix(170, 0, 0, -211, -17253.54, 170730.06)" gradientUnits="userSpaceOnUse"><stop offset="0" stop-color="#f1cb5e"/><stop offset="1" stop-color="#a98d2e"/></linearGradient><linearGradient id="linear-gradient-28" x1="103.85" y1="807.67" x2="104.85" y2="806.67" gradientTransform="matrix(191, 0, 0, -153, -19620.04, 124045.04)" gradientUnits="userSpaceOnUse"><stop offset="0" stop-color="#f2bc2c"/><stop offset="1" stop-color="#f4bf12"/></linearGradient><linearGradient id="linear-gradient-29" x1="104.12" y1="807.49" x2="105.12" y2="806.49" gradientTransform="matrix(221, 0, 0, -215, -22976.05, 174024.06)" gradientUnits="userSpaceOnUse"><stop offset="0" stop-color="#e89117"/><stop offset="1" stop-color="#f3b227"/></linearGradient><linearGradient id="linear-gradient-30" x1="103.85" y1="807.42" x2="104.85" y2="806.42" gradientTransform="matrix(190, 0, 0, -191, -19632.54, 154692.04)" gradientUnits="userSpaceOnUse"><stop offset="0" stop-color="#f4b820"/><stop offset="1" stop-color="#f5ba0e"/></linearGradient><linearGradient id="linear-gradient-31" x1="103.29" y1="807.15" x2="104.29" y2="806.15" gradientTransform="matrix(104, 0, 0, -228, -10749.52, 184508.56)" gradientUnits="userSpaceOnUse"><stop offset="0" stop-color="#e99416"/><stop offset="1" stop-color="#f4af1d"/></linearGradient><linearGradient id="linear-gradient-32" x1="96.98" y1="806.86" x2="97.98" y2="805.86" gradientTransform="matrix(14, 0, 0, -467, -1358.5, 377156.11)" gradientUnits="userSpaceOnUse"><stop offset="0" stop-color="#e38812"/><stop offset="1" stop-color="#cb7115"/></linearGradient><linearGradient id="linear-gradient-33" x1="100.51" y1="806.92" x2="101.51" y2="805.92" gradientTransform="matrix(27, 0, 0, -361, -2717, 291773.19)" gradientUnits="userSpaceOnUse"><stop offset="0" stop-color="#e99113"/><stop offset="1" stop-color="#d6851b"/></linearGradient><linearGradient id="linear-gradient-34" x1="103.61" y1="807.83" x2="104.61" y2="806.83" gradientTransform="matrix(118, 0, 0, -146, -12226.52, 118590.54)" gradientUnits="userSpaceOnUse"><stop offset="0" stop-color="#f3ab28"/><stop offset="1" stop-color="#d68d25"/></linearGradient><linearGradient id="linear-gradient-35" x1="104.04" y1="807.57" x2="105.04" y2="806.57" gradientTransform="matrix(190, 0, 0, -199, -19632.54, 161297.05)" gradientUnits="userSpaceOnUse"><stop offset="0" stop-color="#f5b92e"/><stop offset="1" stop-color="#d6921e"/></linearGradient><linearGradient id="linear-gradient-36" x1="103.87" y1="807.64" x2="104.87" y2="806.64" gradientTransform="matrix(188, 0, 0, -161, -19541.54, 130688.04)" gradientUnits="userSpaceOnUse"><stop offset="0" stop-color="#a7431f"/><stop offset="1" stop-color="#bf691e"/></linearGradient><linearGradient id="linear-gradient-37" x1="103.99" y1="807.33" x2="104.99" y2="806.33" gradientTransform="matrix(286, 0, 0, -199, -29594.56, 161297.05)" gradientUnits="userSpaceOnUse"><stop offset="0" stop-color="#aa4519"/><stop offset="1" stop-color="#c56a0b"/></linearGradient><linearGradient id="linear-gradient-38" x1="104" y1="807.74" x2="105" y2="806.74" gradientTransform="matrix(166, 0, 0, -175, -16934.54, 141907.04)" gradientUnits="userSpaceOnUse"><stop offset="0" stop-color="#f6c716"/><stop offset="1" stop-color="#d79718"/></linearGradient><linearGradient id="linear-gradient-39" x1="104" y1="807.5" x2="105" y2="806.5" gradientTransform="matrix(269, 0, 0, -175, -27580.06, 141907.04)" gradientUnits="userSpaceOnUse"><stop offset="0" stop-color="#f5c824"/><stop offset="1" stop-color="#b07a22"/></linearGradient><linearGradient id="linear-gradient-40" x1="104.12" y1="807.31" x2="105.12" y2="806.31" gradientTransform="matrix(269, 0, 0, -242, -27580.06, 195811.56)" gradientUnits="userSpaceOnUse"><stop offset="0" stop-color="#e2b537"/><stop offset="1" stop-color="#766132"/></linearGradient><linearGradient id="linear-gradient-41" x1="104.13" y1="807.31" x2="105.13" y2="806.31" gradientTransform="matrix(205, 0, 0, -293, -20741.04, 236892.17)" gradientUnits="userSpaceOnUse"><stop offset="0" stop-color="#805f15"/><stop offset="1" stop-color="#cb981d"/></linearGradient><linearGradient id="linear-gradient-42" x1="103.8" y1="807.05" x2="104.8" y2="806.05" gradientTransform="matrix(178, 0, 0, -293, -17801.54, 236892.17)" gradientUnits="userSpaceOnUse"><stop offset="0" stop-color="#433414"/><stop offset="1" stop-color="#a57209"/></linearGradient><linearGradient id="linear-gradient-43" x1="103.94" y1="808.06" x2="104.94" y2="807.06" gradientTransform="matrix(147, 0, 0, -138, -14475.04, 111884.54)" gradientUnits="userSpaceOnUse"><stop offset="0" stop-color="#f5b00d"/><stop offset="1" stop-color="#f6a303"/></linearGradient><linearGradient id="linear-gradient-44" x1="103.88" y1="807.48" x2="104.88" y2="806.48" gradientTransform="matrix(251, 0, 0, -164, -25438.06, 132589.54)" gradientUnits="userSpaceOnUse"><stop offset="0" stop-color="#f4ad2b"/><stop offset="1" stop-color="#f39806"/></linearGradient><linearGradient id="linear-gradient-45" x1="104.18" y1="808.07" x2="105.18" y2="807.07" gradientTransform="matrix(251, 0, 0, -132, -25438.06, 106913.54)" gradientUnits="userSpaceOnUse"><stop offset="0" stop-color="#f4ad28"/><stop offset="1" stop-color="#f5a30a"/></linearGradient><linearGradient id="linear-gradient-46" x1="103.84" y1="807.94" x2="104.84" y2="806.94" gradientTransform="matrix(156, 0, 0, -136, -15415.54, 110139.54)" gradientUnits="userSpaceOnUse"><stop offset="0" stop-color="#f4aa0d"/><stop offset="1" stop-color="#f59c04"/></linearGradient><linearGradient id="linear-gradient-47" x1="104.24" y1="807.72" x2="105.24" y2="806.72" gradientTransform="matrix(246, 0, 0, -185, -24910.56, 149473.04)" gradientUnits="userSpaceOnUse"><stop offset="0" stop-color="#f09204"/><stop offset="1" stop-color="#ef9103"/></linearGradient><linearGradient id="linear-gradient-48" x1="103.78" y1="808.13" x2="104.78" y2="807.13" gradientTransform="matrix(144, 0, 0, -120, -14273.54, 96983.54)" gradientUnits="userSpaceOnUse"><stop offset="0" stop-color="#e99801"/><stop offset="1" stop-color="#eb9604"/></linearGradient><linearGradient id="linear-gradient-49" x1="103.93" y1="808.22" x2="104.93" y2="807.22" gradientTransform="matrix(232, 0, 0, -106, -23447.56, 85706.52)" gradientUnits="userSpaceOnUse"><stop offset="0" stop-color="#ed9505"/><stop offset="1" stop-color="#e99102"/></linearGradient><linearGradient id="linear-gradient-50" x1="102.72" y1="807.54" x2="103.72" y2="806.54" gradientTransform="matrix(59, 0, 0, -185, -5137.02, 149473.04)" gradientUnits="userSpaceOnUse"><stop offset="0" stop-color="#ed8c02"/><stop offset="1" stop-color="#ef8f03"/></linearGradient><linearGradient id="linear-gradient-51" x1="104.37" y1="828.2" x2="105.37" y2="827.2" gradientTransform="matrix(483, 0, 0, -9, -49868.11, 7453)" gradientUnits="userSpaceOnUse"><stop offset="0" stop-color="#e89000"/><stop offset="1" stop-color="#e58e00"/></linearGradient><linearGradient id="linear-gradient-52" x1="104.28" y1="815.07" x2="105.28" y2="814.07" gradientTransform="matrix(314, 0, 0, -23, -32038.67, 18744)" gradientUnits="userSpaceOnUse"><stop offset="0" stop-color="#e69201"/><stop offset="1" stop-color="#e58b01"/></linearGradient><linearGradient id="linear-gradient-53" x1="104.05" y1="809.22" x2="105.05" y2="808.22" gradientTransform="matrix(170, 0, 0, -76, -16846.54, 61488.52)" gradientUnits="userSpaceOnUse"><stop offset="0" stop-color="#e78e01"/><stop offset="1" stop-color="#e68902"/></linearGradient><linearGradient id="linear-gradient-54" x1="102.86" y1="808.1" x2="103.86" y2="807.1" gradientTransform="matrix(60, 0, 0, -130, -5241.52, 105039.54)" gradientUnits="userSpaceOnUse"><stop offset="0" stop-color="#e78b01"/><stop offset="1" stop-color="#e58702"/></linearGradient><linearGradient id="linear-gradient-55" x1="102.48" y1="807.81" x2="103.48" y2="806.81" gradientTransform="matrix(55, 0, 0, -136, -4714.02, 110139.54)" gradientUnits="userSpaceOnUse"><stop offset="0" stop-color="#f59f05"/><stop offset="1" stop-color="#f39705"/></linearGradient><linearGradient id="linear-gradient-56" x1="102.31" y1="807.57" x2="103.31" y2="806.57" gradientTransform="matrix(46, 0, 0, -196, -3764.52, 158398.54)" gradientUnits="userSpaceOnUse"><stop offset="0" stop-color="#f39204"/><stop offset="1" stop-color="#ee9003"/></linearGradient><linearGradient id="linear-gradient-57" x1="0.15" y1="807.25" x2="1.15" y2="806.25" gradientTransform="matrix(1, 0, 0, -326, 983, 263113.68)" gradientUnits="userSpaceOnUse"><stop offset="0" stop-color="#ea8902"/><stop offset="1" stop-color="#e98902"/></linearGradient><linearGradient id="linear-gradient-58" x1="103.42" y1="807.77" x2="104.42" y2="806.77" gradientTransform="matrix(107, 0, 0, -141, -10204.02, 114308.04)" gradientUnits="userSpaceOnUse"><stop offset="0" stop-color="#f69b02"/><stop offset="1" stop-color="#f59e04"/></linearGradient><linearGradient id="linear-gradient-59" x1="102.77" y1="807.58" x2="103.77" y2="806.58" gradientTransform="matrix(55, 0, 0, -212, -4714.02, 171498.56)" gradientUnits="userSpaceOnUse"><stop offset="0" stop-color="#f4a104"/><stop offset="1" stop-color="#f29c05"/></linearGradient><linearGradient id="linear-gradient-60" x1="104.07" y1="807.53" x2="105.07" y2="806.53" gradientTransform="matrix(289, 0, 0, -177, -29401.16, 143476.04)" gradientUnits="userSpaceOnUse"><stop offset="0" stop-color="#ba9324"/><stop offset="1" stop-color="#d7860f"/></linearGradient><linearGradient id="linear-gradient-61" x1="103.79" y1="807.83" x2="104.79" y2="806.83" gradientTransform="matrix(111, 0, 0, -177, -10622.02, 143476.04)" gradientUnits="userSpaceOnUse"><stop offset="0" stop-color="#f6a405"/><stop offset="1" stop-color="#d78008"/></linearGradient><linearGradient id="linear-gradient-62" x1="78.49" y1="807.12" x2="79.49" y2="806.12" gradientTransform="matrix(4, 0, 0, -382, 666.5, 308603.69)" gradientUnits="userSpaceOnUse"><stop offset="0" stop-color="#f49b07"/><stop offset="1" stop-color="#d47608"/></linearGradient><linearGradient id="linear-gradient-63" x1="104.32" y1="807.91" x2="105.32" y2="806.91" gradientTransform="matrix(289, 0, 0, -158, -29401.16, 128307.54)" gradientUnits="userSpaceOnUse"><stop offset="0" stop-color="#824b1a"/><stop offset="1" stop-color="#90320d"/></linearGradient><linearGradient id="linear-gradient-64" x1="103.98" y1="807.23" x2="104.98" y2="806.23" gradientTransform="matrix(247, 0, 0, -233, -25012.06, 188795.06)" gradientUnits="userSpaceOnUse"><stop offset="0" stop-color="#8f4d1a"/><stop offset="1" stop-color="#93310e"/></linearGradient><linearGradient id="linear-gradient-65" x1="104.13" y1="807.36" x2="105.13" y2="806.36" gradientTransform="matrix(221, 0, 0, -257, -22516.05, 208151.06)" gradientUnits="userSpaceOnUse"><stop offset="0" stop-color="#a0380d"/><stop offset="1" stop-color="#8e4715"/></linearGradient><linearGradient id="linear-gradient-66" x1="103.89" y1="807.17" x2="104.89" y2="806.17" gradientTransform="matrix(197, 0, 0, -257, -19917.04, 208151.06)" gradientUnits="userSpaceOnUse"><stop offset="0" stop-color="#914d1b"/><stop offset="1" stop-color="#90330c"/></linearGradient><linearGradient id="linear-gradient-67" x1="104.26" y1="807.79" x2="105.26" y2="806.79" gradientTransform="matrix(286, 0, 0, -168, -29594.56, 136436.54)" gradientUnits="userSpaceOnUse"><stop offset="0" stop-color="#a23f18"/><stop offset="1" stop-color="#a23b11"/></linearGradient><linearGradient id="linear-gradient-68" x1="103.68" y1="807.4" x2="104.68" y2="806.4" gradientTransform="matrix(156, 0, 0, -185, -16016.54, 150205.04)" gradientUnits="userSpaceOnUse"><stop offset="0" stop-color="#9a3f1c"/><stop offset="1" stop-color="#8d3c1a"/></linearGradient><linearGradient id="linear-gradient-69" x1="103.95" y1="807.58" x2="104.95" y2="806.58" gradientTransform="matrix(181, 0, 0, -185, -18803.04, 150205.04)" gradientUnits="userSpaceOnUse"><stop offset="0" stop-color="#813e20"/><stop offset="1" stop-color="#8c4025"/></linearGradient><linearGradient id="linear-gradient-70" x1="103.93" y1="807.56" x2="104.93" y2="806.56" gradientTransform="matrix(188, 0, 0, -181, -19541.54, 146964.04)" gradientUnits="userSpaceOnUse"><stop offset="0" stop-color="#9c411f"/><stop offset="1" stop-color="#8e4025"/></linearGradient><linearGradient id="linear-gradient-71" x1="104.09" y1="808.01" x2="105.09" y2="807.01" gradientTransform="matrix(218, 0, 0, -135, -21914.55, 109916.04)" gradientUnits="userSpaceOnUse"><stop offset="0" stop-color="#863210"/><stop offset="1" stop-color="#7a2d0f"/></linearGradient><linearGradient id="linear-gradient-72" x1="102.14" y1="807.34" x2="103.14" y2="806.34" gradientTransform="matrix(42, 0, 0, -271, -3342.5, 219464.16)" gradientUnits="userSpaceOnUse"><stop offset="0" stop-color="#8f2f0f"/><stop offset="1" stop-color="#812e0c"/></linearGradient><linearGradient id="linear-gradient-73" x1="104.33" y1="817.9" x2="105.33" y2="816.9" gradientTransform="matrix(799, 0, 0, -17, -83210.28, 14881)" gradientUnits="userSpaceOnUse"><stop offset="0" stop-color="#723615"/><stop offset="1" stop-color="#6f2d0d"/></linearGradient><linearGradient id="linear-gradient-74" x1="104.11" y1="810.06" x2="105.11" y2="809.06" gradientTransform="matrix(197, 0, 0, -57, -19917.04, 47084.02)" gradientUnits="userSpaceOnUse"><stop offset="0" stop-color="#85330a"/><stop offset="1" stop-color="#83300e"/></linearGradient><linearGradient id="linear-gradient-75" x1="103.9" y1="809.54" x2="104.9" y2="808.54" gradientTransform="matrix(258, 0, 0, -60, -26134.56, 49503.52)" gradientUnits="userSpaceOnUse"><stop offset="0" stop-color="#7f2f0e"/><stop offset="1" stop-color="#6d2b0d"/></linearGradient><linearGradient id="linear-gradient-76" x1="104.01" y1="808.99" x2="105.01" y2="807.99" gradientTransform="matrix(268, 0, 0, -75, -27720.56, 61600.02)" gradientUnits="userSpaceOnUse"><stop offset="0" stop-color="#793b1c"/><stop offset="1" stop-color="#8d3a14"/></linearGradient><linearGradient id="linear-gradient-77" x1="104.31" y1="817.94" x2="105.31" y2="816.94" gradientTransform="matrix(541, 0, 0, -17, -56249.12, 14881)" gradientUnits="userSpaceOnUse"><stop offset="0" stop-color="#753a17"/><stop offset="1" stop-color="#7e350f"/></linearGradient><linearGradient id="linear-gradient-78" x1="103.81" y1="807.41" x2="104.81" y2="806.41" gradientTransform="matrix(137, 0, 0, -230, -13875.03, 186439.56)" gradientUnits="userSpaceOnUse"><stop offset="0" stop-color="#a33b13"/><stop offset="1" stop-color="#96380f"/></linearGradient><linearGradient id="linear-gradient-79" x1="103.4" y1="807.15" x2="104.4" y2="806.15" gradientTransform="matrix(116, 0, 0, -230, -11568.52, 186439.56)" gradientUnits="userSpaceOnUse"><stop offset="0" stop-color="#9d340a"/><stop offset="1" stop-color="#8c350b"/></linearGradient><linearGradient id="linear-gradient-80" x1="103.97" y1="811.61" x2="104.97" y2="810.61" gradientTransform="matrix(273, 0, 0, -37, -27975.06, 30978)" gradientUnits="userSpaceOnUse"><stop offset="0" stop-color="#86350a"/><stop offset="1" stop-color="#80340f"/></linearGradient></defs><title>7</title><polygon id="triangle36" class="cls-1" points="5 3 19 177 169 116 5 3"/><polygon id="triangle36-2" data-name="triangle36" class="cls-2" points="5 3 169 116 216 5 5 3"/><polygon id="triangle36-3" data-name="triangle36" class="cls-3" points="169 116 216 5 294 71 169 116"/><polygon id="triangle36-4" data-name="triangle36" class="cls-4" points="169 116 294 71 309 225 169 116"/><polygon id="triangle36-5" data-name="triangle36" class="cls-5" points="169 116 309 225 222 301 169 116"/><polygon id="triangle36-6" data-name="triangle36" class="cls-6" points="19 177 169 116 222 301 19 177"/><polygon id="triangle36-7" data-name="triangle36" class="cls-7" points="5 3 19 177 10 326 5 3"/><polygon id="triangle36-8" data-name="triangle36" class="cls-8" points="19 177 222 301 10 326 19 177"/><polygon id="triangle36-9" data-name="triangle36" class="cls-9" points="10 326 222 301 14 432 10 326"/><polygon id="triangle36-10" data-name="triangle36" class="cls-10" points="14 432 222 301 235 456 14 432"/><polygon id="triangle36-11" data-name="triangle36" class="cls-11" points="222 301 235 456 407 364 222 301"/><polygon id="triangle36-12" data-name="triangle36" class="cls-12" points="222 301 309 225 407 364 222 301"/><polygon id="triangle36-13" data-name="triangle36" class="cls-13" points="309 225 407 364 538 243 309 225"/><polygon id="triangle36-14" data-name="triangle36" class="cls-14" points="294 71 309 225 560 90 294 71"/><polygon id="triangle36-15" data-name="triangle36" class="cls-15" points="309 225 538 243 560 90 309 225"/><polygon id="triangle36-16" data-name="triangle36" class="cls-16" points="5 3 216 5 501 3 5 3"/><polygon id="triangle36-17" data-name="triangle36" class="cls-17" points="216 5 294 71 501 3 216 5"/><polygon id="triangle36-18" data-name="triangle36" class="cls-18" points="294 71 560 90 501 3 294 71"/><polygon id="triangle36-19" data-name="triangle36" class="cls-19" points="501 3 560 90 670 9 501 3"/><polygon id="triangle36-20" data-name="triangle36" class="cls-20" points="538 243 560 90 692 129 538 243"/><polygon id="triangle36-21" data-name="triangle36" class="cls-21" points="560 90 670 9 692 129 560 90"/><polygon id="triangle36-22" data-name="triangle36" class="cls-22" points="538 243 692 129 687 293 538 243"/><polygon id="triangle36-23" data-name="triangle36" class="cls-23" points="407 364 538 243 577 444 407 364"/><polygon id="triangle36-24" data-name="triangle36" class="cls-24" points="538 243 687 293 577 444 538 243"/><polygon id="triangle36-25" data-name="triangle36" class="cls-25" points="687 293 782 393 577 444 687 293"/><polygon id="triangle36-26" data-name="triangle36" class="cls-26" points="235 456 407 364 426 575 235 456"/><polygon id="triangle36-27" data-name="triangle36" class="cls-27" points="407 364 577 444 426 575 407 364"/><polygon id="triangle36-28" data-name="triangle36" class="cls-28" points="235 456 426 575 308 609 235 456"/><polygon id="triangle36-29" data-name="triangle36" class="cls-29" points="14 432 235 456 118 647 14 432"/><polygon id="triangle36-30" data-name="triangle36" class="cls-30" points="235 456 308 609 118 647 235 456"/><polygon id="triangle36-31" data-name="triangle36" class="cls-31" points="14 432 118 647 27 660 14 432"/><polygon id="triangle36-32" data-name="triangle36" class="cls-32" points="10 326 14 432 0 793 10 326"/><polygon id="triangle36-33" data-name="triangle36" class="cls-33" points="14 432 27 660 0 793 14 432"/><polygon id="triangle36-34" data-name="triangle36" class="cls-34" points="27 660 118 647 0 793 27 660"/><polygon id="triangle36-35" data-name="triangle36" class="cls-35" points="118 647 308 609 188 808 118 647"/><polygon id="triangle36-36" data-name="triangle36" class="cls-36" points="0 793 118 647 188 808 0 793"/><polygon id="triangle36-37" data-name="triangle36" class="cls-37" points="188 808 308 609 474 750 188 808"/><polygon id="triangle36-38" data-name="triangle36" class="cls-38" points="308 609 426 575 474 750 308 609"/><polygon id="triangle36-39" data-name="triangle36" class="cls-39" points="426 575 474 750 695 686 426 575"/><polygon id="triangle36-40" data-name="triangle36" class="cls-40" points="426 575 577 444 695 686 426 575"/><polygon id="triangle36-41" data-name="triangle36" class="cls-41" points="577 444 782 393 695 686 577 444"/><polygon id="triangle36-42" data-name="triangle36" class="cls-42" points="695 686 782 393 873 531 695 686"/><polygon id="triangle36-43" data-name="triangle36" class="cls-43" points="782 393 873 531 929 397 782 393"/><polygon id="triangle36-44" data-name="triangle36" class="cls-44" points="687 293 692 129 938 261 687 293"/><polygon id="triangle36-45" data-name="triangle36" class="cls-45" points="687 293 782 393 938 261 687 293"/><polygon id="triangle36-46" data-name="triangle36" class="cls-46" points="782 393 929 397 938 261 782 393"/><polygon id="triangle36-47" data-name="triangle36" class="cls-47" points="692 129 938 261 924 76 692 129"/><polygon id="triangle36-48" data-name="triangle36" class="cls-48" points="670 9 692 129 814 23 670 9"/><polygon id="triangle36-49" data-name="triangle36" class="cls-49" points="692 129 924 76 814 23 692 129"/><polygon id="triangle36-50" data-name="triangle36" class="cls-50" points="924 76 938 261 983 130 924 76"/><polygon id="triangle36-51" data-name="triangle36" class="cls-51" points="501 3 670 9 984 0 501 3"/><polygon id="triangle36-52" data-name="triangle36" class="cls-52" points="670 9 814 23 984 0 670 9"/><polygon id="triangle36-53" data-name="triangle36" class="cls-53" points="814 23 924 76 984 0 814 23"/><polygon id="triangle36-54" data-name="triangle36" class="cls-54" points="924 76 983 130 984 0 924 76"/><polygon id="triangle36-55" data-name="triangle36" class="cls-55" points="929 397 938 261 984 326 929 397"/><polygon id="triangle36-56" data-name="triangle36" class="cls-56" points="938 261 983 130 984 326 938 261"/><polygon id="triangle36-57" data-name="triangle36" class="cls-57" points="983 130 984 0 984 326 983 130"/><polygon id="triangle36-58" data-name="triangle36" class="cls-58" points="873 531 929 397 980 538 873 531"/><polygon id="triangle36-59" data-name="triangle36" class="cls-59" points="929 397 984 326 980 538 929 397"/><polygon id="triangle36-60" data-name="triangle36" class="cls-60" points="695 686 873 531 984 708 695 686"/><polygon id="triangle36-61" data-name="triangle36" class="cls-61" points="873 531 980 538 984 708 873 531"/><polygon id="triangle36-62" data-name="triangle36" class="cls-62" points="980 538 984 326 984 708 980 538"/><polygon id="triangle36-63" data-name="triangle36" class="cls-63" points="695 686 984 708 942 844 695 686"/><polygon id="triangle36-64" data-name="triangle36" class="cls-64" points="695 686 942 844 762 919 695 686"/><polygon id="triangle36-65" data-name="triangle36" class="cls-65" points="474 750 695 686 565 943 474 750"/><polygon id="triangle36-66" data-name="triangle36" class="cls-66" points="695 686 762 919 565 943 695 686"/><polygon id="triangle36-67" data-name="triangle36" class="cls-67" points="188 808 474 750 337 918 188 808"/><polygon id="triangle36-68" data-name="triangle36" class="cls-68" points="188 808 337 918 181 993 188 808"/><polygon id="triangle36-69" data-name="triangle36" class="cls-69" points="181 993 188 808 7 974 181 993"/><polygon id="triangle36-70" data-name="triangle36" class="cls-70" points="0 793 188 808 7 974 0 793"/><polygon id="triangle36-71" data-name="triangle36" class="cls-71" points="762 919 942 844 980 979 762 919"/><polygon id="triangle36-72" data-name="triangle36" class="cls-72" points="942 844 984 708 980 979 942 844"/><polygon id="triangle36-73" data-name="triangle36" class="cls-73" points="181 993 980 979 722 976 181 993"/><polygon id="triangle36-74" data-name="triangle36" class="cls-74" points="565 943 762 919 722 976 565 943"/><polygon id="triangle36-75" data-name="triangle36" class="cls-75" points="762 919 980 979 722 976 762 919"/><polygon id="triangle36-76" data-name="triangle36" class="cls-76" points="181 993 337 918 449 980 181 993"/><polygon id="triangle36-77" data-name="triangle36" class="cls-77" points="181 993 722 976 449 980 181 993"/><polygon id="triangle36-78" data-name="triangle36" class="cls-78" points="337 918 474 750 449 980 337 918"/><polygon id="triangle36-79" data-name="triangle36" class="cls-79" points="474 750 565 943 449 980 474 750"/><polygon id="triangle36-80" data-name="triangle36" class="cls-80" points="565 943 722 976 449 980 565 943"/></svg>