<svg id="Layer_1" data-name="Layer 1" xmlns="http://www.w3.org/2000/svg" xmlns:xlink="http://www.w3.org/1999/xlink" viewBox="0 0 987 995"><defs><style>.cls-1{fill:url(#linear-gradient);}.cls-2{fill:url(#linear-gradient-2);}.cls-3{fill:url(#linear-gradient-3);}.cls-4{fill:url(#linear-gradient-4);}.cls-5{fill:url(#linear-gradient-5);}.cls-6{fill:url(#linear-gradient-6);}.cls-7{fill:url(#linear-gradient-7);}.cls-8{fill:url(#linear-gradient-8);}.cls-9{fill:url(#linear-gradient-9);}.cls-10{fill:url(#linear-gradient-10);}.cls-11{fill:url(#linear-gradient-11);}.cls-12{fill:url(#linear-gradient-12);}.cls-13{fill:url(#linear-gradient-13);}.cls-14{fill:url(#linear-gradient-14);}.cls-15{fill:url(#linear-gradient-15);}.cls-16{fill:url(#linear-gradient-16);}.cls-17{fill:url(#linear-gradient-17);}.cls-18{fill:url(#linear-gradient-18);}.cls-19{fill:url(#linear-gradient-19);}.cls-20{fill:url(#linear-gradient-20);}.cls-21{fill:url(#linear-gradient-21);}.cls-22{fill:url(#linear-gradient-22);}.cls-23{fill:url(#linear-gradient-23);}.cls-24{fill:url(#linear-gradient-24);}.cls-25{fill:url(#linear-gradient-25);}.cls-26{fill:url(#linear-gradient-26);}.cls-27{fill:url(#linear-gradient-27);}.cls-28{fill:url(#linear-gradient-28);}.cls-29{fill:url(#linear-gradient-29);}.cls-30{fill:url(#linear-gradient-30);}.cls-31{fill:url(#linear-gradient-31);}.cls-32{fill:url(#linear-gradient-32);}.cls-33{fill:url(#linear-gradient-33);}.cls-34{fill:url(#linear-gradient-34);}.cls-35{fill:url(#linear-gradient-35);}.cls-36{fill:url(#linear-gradient-36);}.cls-37{fill:url(#linear-gradient-37);}.cls-38{fill:url(#linear-gradient-38);}.cls-39{fill:url(#linear-gradient-39);}.cls-40{fill:url(#linear-gradient-40);}.cls-41{fill:url(#linear-gradient-41);}.cls-42{fill:url(#linear-gradient-42);}.cls-43{fill:url(#linear-gradient-43);}.cls-44{fill:url(#linear-gradient-44);}.cls-45{fill:url(#linear-gradient-45);}.cls-46{fill:url(#linear-gradient-46);}.cls-47{fill:url(#linear-gradient-47);}.cls-48{fill:url(#linear-gradient-48);}.cls-49{fill:url(#linear-gradient-49);}.cls-50{fill:url(#linear-gradient-50);}.cls-51{fill:url(#linear-gradient-51);}.cls-52{fill:url(#linear-gradient-52);}.cls-53{fill:url(#linear-gradient-53);}.cls-54{fill:url(#linear-gradient-54);}.cls-55{fill:url(#linear-gradient-55);}.cls-56{fill:url(#linear-gradient-56);}.cls-57{fill:url(#linear-gradient-57);}.cls-58{fill:url(#linear-gradient-58);}.cls-59{fill:url(#linear-gradient-59);}.cls-60{fill:url(#linear-gradient-60);}.cls-61{fill:url(#linear-gradient-61);}.cls-62{fill:url(#linear-gradient-62);}.cls-63{fill:url(#linear-gradient-63);}.cls-64{fill:url(#linear-gradient-64);}.cls-65{fill:url(#linear-gradient-65);}.cls-66{fill:url(#linear-gradient-66);}.cls-67{fill:url(#linear-gradient-67);}.cls-68{fill:url(#linear-gradient-68);}.cls-69{fill:url(#linear-gradient-69);}.cls-70{fill:url(#linear-gradient-70);}.cls-71{fill:url(#linear-gradient-71);}.cls-72{fill:url(#linear-gradient-72);}.cls-73{fill:url(#linear-gradient-73);}.cls-74{fill:url(#linear-gradient-74);}.cls-75{fill:url(#linear-gradient-75);}.cls-76{fill:url(#linear-gradient-76);}.cls-77{fill:url(#linear-gradient-77);}.cls-78{fill:url(#linear-gradient-78);}.cls-79{fill:url(#linear-gradient-79);}.cls-80{fill:url(#linear-gradient-80);}.cls-81{fill:url(#linear-gradient-81);}.cls-82{fill:url(#linear-gradient-82);}</style><linearGradient id="linear-gradient" x1="103.77" y1="807.37" x2="104.77" y2="806.37" gradientTransform="matrix(159, 0, 0, -207, -16511.04, 167152.06)" gradientUnits="userSpaceOnUse"><stop offset="0" stop-color="#81c1f7"/><stop offset="1" stop-color="#76c6f9"/></linearGradient><linearGradient id="linear-gradient-2" x1="104.29" y1="809.22" x2="105.29" y2="808.22" gradientTransform="matrix(308, 0, 0, -75, -32081.67, 60682.02)" gradientUnits="userSpaceOnUse"><stop offset="0" stop-color="#63b3f7"/><stop offset="1" stop-color="#73befa"/></linearGradient><linearGradient id="linear-gradient-3" x1="103.97" y1="807.48" x2="104.97" y2="806.48" gradientTransform="matrix(149, 0, 0, -240, -15307.04, 193754.56)" gradientUnits="userSpaceOnUse"><stop offset="0" stop-color="#58b4fb"/><stop offset="1" stop-color="#5cb7fb"/></linearGradient><linearGradient id="linear-gradient-4" x1="103.45" y1="807.18" x2="104.45" y2="806.18" gradientTransform="matrix(114, 0, 0, -240, -11523.52, 193754.56)" gradientUnits="userSpaceOnUse"><stop offset="0" stop-color="#6cc0fc"/><stop offset="1" stop-color="#5dc0fc"/></linearGradient><linearGradient id="linear-gradient-5" x1="103.98" y1="807.35" x2="104.98" y2="806.35" gradientTransform="matrix(173, 0, 0, -254, -17973.04, 205120.56)" gradientUnits="userSpaceOnUse"><stop offset="0" stop-color="#49bcfa"/><stop offset="1" stop-color="#5bbffc"/></linearGradient><linearGradient id="linear-gradient-6" x1="103.54" y1="807.13" x2="104.54" y2="806.13" gradientTransform="matrix(126, 0, 0, -254, -12903.52, 205120.56)" gradientUnits="userSpaceOnUse"><stop offset="0" stop-color="#6ac3fb"/><stop offset="1" stop-color="#56bffc"/></linearGradient><linearGradient id="linear-gradient-7" x1="103.75" y1="807.63" x2="104.75" y2="806.63" gradientTransform="matrix(173, 0, 0, -152, -17973.04, 123001.54)" gradientUnits="userSpaceOnUse"><stop offset="0" stop-color="#4cbdfb"/><stop offset="1" stop-color="#3ab3fc"/></linearGradient><linearGradient id="linear-gradient-8" x1="103.83" y1="807.66" x2="104.83" y2="806.66" gradientTransform="matrix(152, 0, 0, -170, -15757.54, 137628.54)" gradientUnits="userSpaceOnUse"><stop offset="0" stop-color="#1fa6fb"/><stop offset="1" stop-color="#2babfc"/></linearGradient><linearGradient id="linear-gradient-9" x1="103.73" y1="807.38" x2="104.73" y2="806.38" gradientTransform="matrix(111, 0, 0, -274, -11321.02, 221415.66)" gradientUnits="userSpaceOnUse"><stop offset="0" stop-color="#4bbcfc"/><stop offset="1" stop-color="#43b7fb"/></linearGradient><linearGradient id="linear-gradient-10" x1="103.98" y1="807.47" x2="104.98" y2="806.47" gradientTransform="matrix(239, 0, 0, -185, -24841.06, 149726.04)" gradientUnits="userSpaceOnUse"><stop offset="0" stop-color="#159ffa"/><stop offset="1" stop-color="#2caefa"/></linearGradient><linearGradient id="linear-gradient-11" x1="103.86" y1="807.03" x2="104.86" y2="806.04" gradientTransform="matrix(224, 0, 0, -274, -23034.55, 221415.66)" gradientUnits="userSpaceOnUse"><stop offset="0" stop-color="#32b3fb"/><stop offset="1" stop-color="#4dbdfb"/></linearGradient><linearGradient id="linear-gradient-12" x1="104.04" y1="807.63" x2="105.04" y2="806.63" gradientTransform="matrix(261, 0, 0, -164, -26885.06, 132589.54)" gradientUnits="userSpaceOnUse"><stop offset="0" stop-color="#73c9fb"/><stop offset="1" stop-color="#71c9fc"/></linearGradient><linearGradient id="linear-gradient-13" x1="104.23" y1="807.64" x2="105.23" y2="806.64" gradientTransform="matrix(261, 0, 0, -192, -26885.06, 155282.54)" gradientUnits="userSpaceOnUse"><stop offset="0" stop-color="#65c5fb"/><stop offset="1" stop-color="#5cc3fb"/></linearGradient><linearGradient id="linear-gradient-14" x1="104.12" y1="807.88" x2="105.12" y2="806.88" gradientTransform="matrix(182, 0, 0, -164, -18515.54, 132589.54)" gradientUnits="userSpaceOnUse"><stop offset="0" stop-color="#78cafc"/><stop offset="1" stop-color="#7ccbfa"/></linearGradient><linearGradient id="linear-gradient-15" x1="104.12" y1="808.11" x2="105.12" y2="807.11" gradientTransform="matrix(215, 0, 0, -129, -22055.04, 104233.04)" gradientUnits="userSpaceOnUse"><stop offset="0" stop-color="#7bc1fb"/><stop offset="1" stop-color="#6abefa"/></linearGradient><linearGradient id="linear-gradient-16" x1="103.86" y1="807.89" x2="104.86" y2="806.89" gradientTransform="matrix(182, 0, 0, -133, -18515.54, 107460.04)" gradientUnits="userSpaceOnUse"><stop offset="0" stop-color="#48b6fc"/><stop offset="1" stop-color="#5ab8f9"/></linearGradient><linearGradient id="linear-gradient-17" x1="103.66" y1="808.08" x2="104.66" y2="807.08" gradientTransform="matrix(109, 0, 0, -133, -10763.02, 107460.04)" gradientUnits="userSpaceOnUse"><stop offset="0" stop-color="#62b5f8"/><stop offset="1" stop-color="#65b9f7"/></linearGradient><linearGradient id="linear-gradient-18" x1="103.49" y1="807.91" x2="104.49" y2="806.91" gradientTransform="matrix(121, 0, 0, -125, -11959.02, 101016.03)" gradientUnits="userSpaceOnUse"><stop offset="0" stop-color="#4badf7"/><stop offset="1" stop-color="#3da3f7"/></linearGradient><linearGradient id="linear-gradient-19" x1="103.68" y1="807.53" x2="104.68" y2="806.53" gradientTransform="matrix(166, 0, 0, -159, -16696.54, 128562.04)" gradientUnits="userSpaceOnUse"><stop offset="0" stop-color="#82d0fc"/><stop offset="1" stop-color="#81cdfa"/></linearGradient><linearGradient id="linear-gradient-20" x1="103.87" y1="807.84" x2="104.87" y2="806.84" gradientTransform="matrix(131, 0, 0, -166, -13004.04, 134163.54)" gradientUnits="userSpaceOnUse"><stop offset="0" stop-color="#5ebbf9"/><stop offset="1" stop-color="#51b3fa"/></linearGradient><linearGradient id="linear-gradient-21" x1="103.81" y1="807.71" x2="104.81" y2="806.71" gradientTransform="matrix(207, 0, 0, -139, -21034.04, 112591.04)" gradientUnits="userSpaceOnUse"><stop offset="0" stop-color="#4abdfa"/><stop offset="1" stop-color="#5bc3fa"/></linearGradient><linearGradient id="linear-gradient-22" x1="104.05" y1="808.07" x2="105.05" y2="807.07" gradientTransform="matrix(166, 0, 0, -140, -16696.54, 113360.54)" gradientUnits="userSpaceOnUse"><stop offset="0" stop-color="#6bc9fc"/><stop offset="1" stop-color="#64c6fb"/></linearGradient><linearGradient id="linear-gradient-23" x1="104.15" y1="808.27" x2="105.15" y2="807.27" gradientTransform="matrix(207, 0, 0, -121, -21034.04, 98177.04)" gradientUnits="userSpaceOnUse"><stop offset="0" stop-color="#3bb7fa"/><stop offset="1" stop-color="#3bb7fb"/></linearGradient><linearGradient id="linear-gradient-24" x1="104.18" y1="807.73" x2="105.18" y2="806.73" gradientTransform="matrix(233, 0, 0, -176, -23975.06, 142570.54)" gradientUnits="userSpaceOnUse"><stop offset="0" stop-color="#24abfc"/><stop offset="1" stop-color="#2eaffb"/></linearGradient><linearGradient id="linear-gradient-25" x1="103.6" y1="807.5" x2="104.6" y2="806.5" gradientTransform="matrix(132, 0, 0, -176, -13196.54, 142570.54)" gradientUnits="userSpaceOnUse"><stop offset="0" stop-color="#33b3fa"/><stop offset="1" stop-color="#2cadfb"/></linearGradient><linearGradient id="linear-gradient-26" x1="103.97" y1="807.68" x2="104.97" y2="806.68" gradientTransform="matrix(233, 0, 0, -154, -23975.06, 124909.54)" gradientUnits="userSpaceOnUse"><stop offset="0" stop-color="#23a9fa"/><stop offset="1" stop-color="#20a3fb"/></linearGradient><linearGradient id="linear-gradient-27" x1="103.8" y1="807.48" x2="104.8" y2="806.48" gradientTransform="matrix(172, 0, 0, -180, -17706.54, 145878.54)" gradientUnits="userSpaceOnUse"><stop offset="0" stop-color="#18a2fa"/><stop offset="1" stop-color="#0e94fa"/></linearGradient><linearGradient id="linear-gradient-28" x1="104.18" y1="807.62" x2="105.18" y2="806.62" gradientTransform="matrix(239, 0, 0, -195, -24841.06, 157961.04)" gradientUnits="userSpaceOnUse"><stop offset="0" stop-color="#109bfc"/><stop offset="1" stop-color="#119afa"/></linearGradient><linearGradient id="linear-gradient-29" x1="99.51" y1="806.9" x2="100.51" y2="805.9" gradientTransform="matrix(21, 0, 0, -473, -2089, 381888.12)" gradientUnits="userSpaceOnUse"><stop offset="0" stop-color="#36b2f9"/><stop offset="1" stop-color="#1396fa"/></linearGradient><linearGradient id="linear-gradient-30" x1="99.87" y1="807.02" x2="100.87" y2="806.02" gradientTransform="matrix(23, 0, 0, -321, -2292, 259452.18)" gradientUnits="userSpaceOnUse"><stop offset="0" stop-color="#159ffc"/><stop offset="1" stop-color="#0c91fc"/></linearGradient><linearGradient id="linear-gradient-31" x1="103.62" y1="807.29" x2="104.62" y2="806.29" gradientTransform="matrix(156, 0, 0, -195, -16190.54, 157961.04)" gradientUnits="userSpaceOnUse"><stop offset="0" stop-color="#0c97fc"/><stop offset="1" stop-color="#0688fa"/></linearGradient><linearGradient id="linear-gradient-32" x1="103.83" y1="808.07" x2="104.83" y2="807.07" gradientTransform="matrix(156, 0, 0, -124, -16190.54, 100892.53)" gradientUnits="userSpaceOnUse"><stop offset="0" stop-color="#067ffb"/><stop offset="1" stop-color="#0980fb"/></linearGradient><linearGradient id="linear-gradient-33" x1="103.92" y1="807.57" x2="104.92" y2="806.57" gradientTransform="matrix(172, 0, 0, -187, -17706.54, 151678.04)" gradientUnits="userSpaceOnUse"><stop offset="0" stop-color="#0d8dfb"/><stop offset="1" stop-color="#138cfb"/></linearGradient><linearGradient id="linear-gradient-34" x1="103.93" y1="807.74" x2="104.93" y2="806.74" gradientTransform="matrix(171, 0, 0, -161, -17756.04, 130735.04)" gradientUnits="userSpaceOnUse"><stop offset="0" stop-color="#0d7efb"/><stop offset="1" stop-color="#0d84fa"/></linearGradient><linearGradient id="linear-gradient-35" x1="103.97" y1="807.46" x2="104.97" y2="806.46" gradientTransform="matrix(232, 0, 0, -187, -23959.56, 151678.04)" gradientUnits="userSpaceOnUse"><stop offset="0" stop-color="#188bfb"/><stop offset="1" stop-color="#1e9cfc"/></linearGradient><linearGradient id="linear-gradient-36" x1="103.99" y1="807.44" x2="104.99" y2="806.44" gradientTransform="matrix(167, 0, 0, -236, -17012.04, 191136.56)" gradientUnits="userSpaceOnUse"><stop offset="0" stop-color="#1597fc"/><stop offset="1" stop-color="#229ffc"/></linearGradient><linearGradient id="linear-gradient-37" x1="103.89" y1="807.17" x2="104.89" y2="806.17" gradientTransform="matrix(225, 0, 0, -236, -22996.06, 191136.56)" gradientUnits="userSpaceOnUse"><stop offset="0" stop-color="#2aa2fc"/><stop offset="1" stop-color="#2da7fc"/></linearGradient><linearGradient id="linear-gradient-38" x1="103.86" y1="807.43" x2="104.86" y2="806.43" gradientTransform="matrix(135, 0, 0, -245, -13501.04, 198304.06)" gradientUnits="userSpaceOnUse"><stop offset="0" stop-color="#24a6fb"/><stop offset="1" stop-color="#30acfc"/></linearGradient><linearGradient id="linear-gradient-39" x1="103.77" y1="807.14" x2="104.77" y2="806.14" gradientTransform="matrix(181, 0, 0, -245, -18185.04, 198304.06)" gradientUnits="userSpaceOnUse"><stop offset="0" stop-color="#23a5fd"/><stop offset="1" stop-color="#22a0fd"/></linearGradient><linearGradient id="linear-gradient-40" x1="104" y1="807.63" x2="105" y2="806.63" gradientTransform="matrix(283, 0, 0, -155, -28844.06, 125598.04)" gradientUnits="userSpaceOnUse"><stop offset="0" stop-color="#33b2fc"/><stop offset="1" stop-color="#3ab3fa"/></linearGradient><linearGradient id="linear-gradient-41" x1="104.24" y1="807.77" x2="105.24" y2="806.77" gradientTransform="matrix(283, 0, 0, -168, -28844.06, 136203.54)" gradientUnits="userSpaceOnUse"><stop offset="0" stop-color="#2faefc"/><stop offset="1" stop-color="#2ba6fb"/></linearGradient><linearGradient id="linear-gradient-42" x1="103.83" y1="807.64" x2="104.83" y2="806.64" gradientTransform="matrix(240, 0, 0, -142, -24275.56, 114973.54)" gradientUnits="userSpaceOnUse"><stop offset="0" stop-color="#48bdfc"/><stop offset="1" stop-color="#52bffc"/></linearGradient><linearGradient id="linear-gradient-43" x1="104.28" y1="807.97" x2="105.28" y2="806.97" gradientTransform="matrix(240, 0, 0, -155, -24275.56, 125598.04)" gradientUnits="userSpaceOnUse"><stop offset="0" stop-color="#44b9fc"/><stop offset="1" stop-color="#36b0fb"/></linearGradient><linearGradient id="linear-gradient-44" x1="104.28" y1="808.07" x2="105.28" y2="807.07" gradientTransform="matrix(228, 0, 0, -146, -23009.56, 118195.54)" gradientUnits="userSpaceOnUse"><stop offset="0" stop-color="#76ccfa"/><stop offset="1" stop-color="#62c2fa"/></linearGradient><linearGradient id="linear-gradient-45" x1="103.96" y1="807.63" x2="104.96" y2="806.63" gradientTransform="matrix(211, 0, 0, -166, -21243.04, 134163.54)" gradientUnits="userSpaceOnUse"><stop offset="0" stop-color="#3fa9f8"/><stop offset="1" stop-color="#56b3f8"/></linearGradient><linearGradient id="linear-gradient-46" x1="104.01" y1="807.98" x2="105.01" y2="806.98" gradientTransform="matrix(225, 0, 0, -129, -22696.06, 104360.04)" gradientUnits="userSpaceOnUse"><stop offset="0" stop-color="#77c6f9"/><stop offset="1" stop-color="#60b3f6"/></linearGradient><linearGradient id="linear-gradient-47" x1="104.06" y1="825.84" x2="105.06" y2="824.84" gradientTransform="matrix(320, 0, 0, -10, -32812.67, 8260.5)" gradientUnits="userSpaceOnUse"><stop offset="0" stop-color="#78bef7"/><stop offset="1" stop-color="#7ec2f7"/></linearGradient><linearGradient id="linear-gradient-48" x1="104.08" y1="808.98" x2="105.08" y2="807.98" gradientTransform="matrix(211, 0, 0, -81, -21313.04, 65530.02)" gradientUnits="userSpaceOnUse"><stop offset="0" stop-color="#89c7f7"/><stop offset="1" stop-color="#6ebbf8"/></linearGradient><linearGradient id="linear-gradient-49" x1="104" y1="808.17" x2="105" y2="807.17" gradientTransform="matrix(211, 0, 0, -116, -21243.04, 93759.52)" gradientUnits="userSpaceOnUse"><stop offset="0" stop-color="#85c4f8"/><stop offset="1" stop-color="#86c3f7"/></linearGradient><linearGradient id="linear-gradient-50" x1="104.32" y1="826" x2="105.32" y2="825" gradientTransform="matrix(461, 0, 0, -10, -47547.1, 8260.5)" gradientUnits="userSpaceOnUse"><stop offset="0" stop-color="#71bcf7"/><stop offset="1" stop-color="#81c4f8"/></linearGradient><linearGradient id="linear-gradient-51" x1="103.88" y1="808.23" x2="104.88" y2="807.23" gradientTransform="matrix(141, 0, 0, -121, -13787.04, 97787.04)" gradientUnits="userSpaceOnUse"><stop offset="0" stop-color="#bbddfa"/><stop offset="1" stop-color="#84c1f8"/></linearGradient><linearGradient id="linear-gradient-52" x1="103.09" y1="808.11" x2="104.09" y2="807.11" gradientTransform="matrix(71, 0, 0, -125, -6402.02, 101134.03)" gradientUnits="userSpaceOnUse"><stop offset="0" stop-color="#1f9cf7"/><stop offset="1" stop-color="#43acfa"/></linearGradient><linearGradient id="linear-gradient-53" x1="103.05" y1="807.98" x2="104.05" y2="806.98" gradientTransform="matrix(71, 0, 0, -134, -6402.02, 108271.54)" gradientUnits="userSpaceOnUse"><stop offset="0" stop-color="#4ca5f5"/><stop offset="1" stop-color="#59aef9"/></linearGradient><linearGradient id="linear-gradient-54" x1="101.99" y1="807.64" x2="102.99" y2="806.64" gradientTransform="matrix(45, 0, 0, -146, -3661.02, 118195.54)" gradientUnits="userSpaceOnUse"><stop offset="0" stop-color="#6ac6fb"/><stop offset="1" stop-color="#29b2fc"/></linearGradient><linearGradient id="linear-gradient-55" x1="102.41" y1="807.46" x2="103.41" y2="806.46" gradientTransform="matrix(47, 0, 0, -234, -3870.02, 189055.56)" gradientUnits="userSpaceOnUse"><stop offset="0" stop-color="#96d1fa"/><stop offset="1" stop-color="#3dacfc"/></linearGradient><linearGradient id="linear-gradient-56" x1="102.96" y1="807.63" x2="103.96" y2="806.63" gradientTransform="matrix(75, 0, 0, -153, -6825.02, 123987.04)" gradientUnits="userSpaceOnUse"><stop offset="0" stop-color="#35a9f8"/><stop offset="1" stop-color="#2caafa"/></linearGradient><linearGradient id="linear-gradient-57" x1="102.28" y1="807.91" x2="103.28" y2="806.91" gradientTransform="matrix(43, 0, 0, -162, -3449, 131221.54)" gradientUnits="userSpaceOnUse"><stop offset="0" stop-color="#1da8fb"/><stop offset="1" stop-color="#23a9fb"/></linearGradient><linearGradient id="linear-gradient-58" x1="103.83" y1="807.76" x2="104.83" y2="806.76" gradientTransform="matrix(181, 0, 0, -144, -18004.04, 116881.54)" gradientUnits="userSpaceOnUse"><stop offset="0" stop-color="#269ffc"/><stop offset="1" stop-color="#30a1f9"/></linearGradient><linearGradient id="linear-gradient-59" x1="103.39" y1="807.94" x2="104.39" y2="806.94" gradientTransform="matrix(79, 0, 0, -159, -7243.02, 128964.04)" gradientUnits="userSpaceOnUse"><stop offset="0" stop-color="#34a6f9"/><stop offset="1" stop-color="#2ca0fa"/></linearGradient><linearGradient id="linear-gradient-60" x1="83.52" y1="807.03" x2="84.52" y2="806.03" gradientTransform="matrix(5, 0, 0, -321, 564, 259455.18)" gradientUnits="userSpaceOnUse"><stop offset="0" stop-color="#2bacfc"/><stop offset="1" stop-color="#2fa4fa"/></linearGradient><linearGradient id="linear-gradient-61" x1="83.59" y1="806.85" x2="84.59" y2="805.85" gradientTransform="matrix(5, 0, 0, -555, 564, 447942.24)" gradientUnits="userSpaceOnUse"><stop offset="0" stop-color="#1daafc"/><stop offset="1" stop-color="#1796fa"/></linearGradient><linearGradient id="linear-gradient-62" x1="104.08" y1="808.95" x2="105.08" y2="807.95" gradientTransform="matrix(181, 0, 0, -85, -18004.04, 69432.02)" gradientUnits="userSpaceOnUse"><stop offset="0" stop-color="#1e98fb"/><stop offset="1" stop-color="#2798fa"/></linearGradient><linearGradient id="linear-gradient-63" x1="104.15" y1="807.43" x2="105.15" y2="806.43" gradientTransform="matrix(234, 0, 0, -235, -23711.56, 190407.06)" gradientUnits="userSpaceOnUse"><stop offset="0" stop-color="#35abfc"/><stop offset="1" stop-color="#33a7fc"/></linearGradient><linearGradient id="linear-gradient-64" x1="103.76" y1="807.36" x2="104.76" y2="806.36" gradientTransform="matrix(136, 0, 0, -235, -13301.53, 190407.06)" gradientUnits="userSpaceOnUse"><stop offset="0" stop-color="#259efb"/><stop offset="1" stop-color="#39a5fa"/></linearGradient><linearGradient id="linear-gradient-65" x1="103.91" y1="807.29" x2="104.91" y2="806.29" gradientTransform="matrix(234, 0, 0, -208, -23711.56, 168708.56)" gradientUnits="userSpaceOnUse"><stop offset="0" stop-color="#48b1fc"/><stop offset="1" stop-color="#50affb"/></linearGradient><linearGradient id="linear-gradient-66" x1="104.08" y1="807.49" x2="105.08" y2="806.49" gradientTransform="matrix(225, 0, 0, -206, -22996.06, 167095.56)" gradientUnits="userSpaceOnUse"><stop offset="0" stop-color="#30a5fc"/><stop offset="1" stop-color="#43affc"/></linearGradient><linearGradient id="linear-gradient-67" x1="103.99" y1="807.39" x2="104.99" y2="806.39" gradientTransform="matrix(225, 0, 0, -208, -22955.06, 168708.56)" gradientUnits="userSpaceOnUse"><stop offset="0" stop-color="#3dadfd"/><stop offset="1" stop-color="#4daffc"/></linearGradient><linearGradient id="linear-gradient-68" x1="104.12" y1="807.85" x2="105.12" y2="806.85" gradientTransform="matrix(232, 0, 0, -151, -23959.56, 122820.04)" gradientUnits="userSpaceOnUse"><stop offset="0" stop-color="#1982fa"/><stop offset="1" stop-color="#359efc"/></linearGradient><linearGradient id="linear-gradient-69" x1="103.96" y1="807.74" x2="104.96" y2="806.74" gradientTransform="matrix(211, 0, 0, -151, -21703.04, 122820.04)" gradientUnits="userSpaceOnUse"><stop offset="0" stop-color="#36a7fc"/><stop offset="1" stop-color="#50b1fc"/></linearGradient><linearGradient id="linear-gradient-70" x1="103.67" y1="807.8" x2="104.67" y2="806.8" gradientTransform="matrix(141, 0, 0, -140, -14529.04, 113959.54)" gradientUnits="userSpaceOnUse"><stop offset="0" stop-color="#1e8bfb"/><stop offset="1" stop-color="#3a9ffc"/></linearGradient><linearGradient id="linear-gradient-71" x1="103.96" y1="807.75" x2="104.96" y2="806.75" gradientTransform="matrix(171, 0, 0, -166, -17756.04, 134889.54)" gradientUnits="userSpaceOnUse"><stop offset="0" stop-color="#107cfb"/><stop offset="1" stop-color="#1d86fa"/></linearGradient><linearGradient id="linear-gradient-72" x1="104.14" y1="819.54" x2="105.14" y2="818.54" gradientTransform="matrix(241, 0, 0, -15, -25079.06, 13272)" gradientUnits="userSpaceOnUse"><stop offset="0" stop-color="#2f90fb"/><stop offset="1" stop-color="#3d9bfc"/></linearGradient><linearGradient id="linear-gradient-73" x1="91.38" y1="807.11" x2="92.38" y2="806.11" gradientTransform="matrix(8, 0, 0, -288, -730.5, 233158.67)" gradientUnits="userSpaceOnUse"><stop offset="0" stop-color="#0774fb"/><stop offset="1" stop-color="#197cfc"/></linearGradient><linearGradient id="linear-gradient-74" x1="103.23" y1="807.44" x2="104.23" y2="806.44" gradientTransform="matrix(100, 0, 0, -166, -10344.52, 134889.54)" gradientUnits="userSpaceOnUse"><stop offset="0" stop-color="#1881fc"/><stop offset="1" stop-color="#2e92fb"/></linearGradient><linearGradient id="linear-gradient-75" x1="104.16" y1="813.55" x2="105.16" y2="812.55" gradientTransform="matrix(576, 0, 0, -27, -59845.73, 22938)" gradientUnits="userSpaceOnUse"><stop offset="0" stop-color="#58b2fc"/><stop offset="1" stop-color="#56b2fc"/></linearGradient><linearGradient id="linear-gradient-76" x1="104.34" y1="815.89" x2="105.34" y2="814.89" gradientTransform="matrix(365, 0, 0, -21, -37585.18, 18099)" gradientUnits="userSpaceOnUse"><stop offset="0" stop-color="#5db8fb"/><stop offset="1" stop-color="#53aefb"/></linearGradient><linearGradient id="linear-gradient-77" x1="104.03" y1="809.39" x2="105.03" y2="808.39" gradientTransform="matrix(193, 0, 0, -69, -19386.04, 56763.02)" gradientUnits="userSpaceOnUse"><stop offset="0" stop-color="#54adfb"/><stop offset="1" stop-color="#52b0fb"/></linearGradient><linearGradient id="linear-gradient-78" x1="103.7" y1="809.15" x2="104.7" y2="808.15" gradientTransform="matrix(166, 0, 0, -69, -16424.54, 56763.02)" gradientUnits="userSpaceOnUse"><stop offset="0" stop-color="#5bb1fc"/><stop offset="1" stop-color="#58b2fc"/></linearGradient><linearGradient id="linear-gradient-79" x1="103.47" y1="807.71" x2="104.47" y2="806.71" gradientTransform="matrix(111, 0, 0, -150, -10624.02, 121939.54)" gradientUnits="userSpaceOnUse"><stop offset="0" stop-color="#60b7fb"/><stop offset="1" stop-color="#59b1fb"/></linearGradient><linearGradient id="linear-gradient-80" x1="103.8" y1="809.51" x2="104.8" y2="808.51" gradientTransform="matrix(113, 0, 0, -70, -10833.02, 57564.52)" gradientUnits="userSpaceOnUse"><stop offset="0" stop-color="#52b1fb"/><stop offset="1" stop-color="#5ab3fc"/></linearGradient><linearGradient id="linear-gradient-81" x1="102.34" y1="807.55" x2="103.34" y2="806.55" gradientTransform="matrix(45, 0, 0, -220, -3656.02, 178319.56)" gradientUnits="userSpaceOnUse"><stop offset="0" stop-color="#2796f9"/><stop offset="1" stop-color="#389ff9"/></linearGradient><linearGradient id="linear-gradient-82" x1="83.66" y1="807.23" x2="84.66" y2="806.23" gradientTransform="matrix(5, 0, 0, -290, 564, 234774.67)" gradientUnits="userSpaceOnUse"><stop offset="0" stop-color="#4caefc"/><stop offset="1" stop-color="#47aafb"/></linearGradient></defs><title>8</title><polygon id="triangle36" class="cls-1" points="0 12 1 219 159 75 0 12"/><polygon id="triangle36-2" data-name="triangle36" class="cls-2" points="0 12 159 75 308 0 0 12"/><polygon id="triangle36-3" data-name="triangle36" class="cls-3" points="159 75 308 0 285 240 159 75"/><polygon id="triangle36-4" data-name="triangle36" class="cls-4" points="308 0 399 129 285 240 308 0"/><polygon id="triangle36-5" data-name="triangle36" class="cls-5" points="1 219 159 75 174 329 1 219"/><polygon id="triangle36-6" data-name="triangle36" class="cls-6" points="159 75 285 240 174 329 159 75"/><polygon id="triangle36-7" data-name="triangle36" class="cls-7" points="1 219 174 329 22 371 1 219"/><polygon id="triangle36-8" data-name="triangle36" class="cls-8" points="22 371 174 329 30 499 22 371"/><polygon id="triangle36-9" data-name="triangle36" class="cls-9" points="174 329 285 240 269 514 174 329"/><polygon id="triangle36-10" data-name="triangle36" class="cls-10" points="30 499 174 329 269 514 30 499"/><polygon id="triangle36-11" data-name="triangle36" class="cls-11" points="269 514 285 240 493 432 269 514"/><polygon id="triangle36-12" data-name="triangle36" class="cls-12" points="285 240 399 129 546 293 285 240"/><polygon id="triangle36-13" data-name="triangle36" class="cls-13" points="285 240 493 432 546 293 285 240"/><polygon id="triangle36-14" data-name="triangle36" class="cls-14" points="399 129 546 293 581 134 399 129"/><polygon id="triangle36-15" data-name="triangle36" class="cls-15" points="308 0 399 129 523 1 308 0"/><polygon id="triangle36-16" data-name="triangle36" class="cls-16" points="399 129 581 134 523 1 399 129"/><polygon id="triangle36-17" data-name="triangle36" class="cls-17" points="523 1 581 134 632 9 523 1"/><polygon id="triangle36-18" data-name="triangle36" class="cls-18" points="581 134 632 9 702 90 581 134"/><polygon id="triangle36-19" data-name="triangle36" class="cls-19" points="546 293 581 134 712 256 546 293"/><polygon id="triangle36-20" data-name="triangle36" class="cls-20" points="581 134 702 90 712 256 581 134"/><polygon id="triangle36-21" data-name="triangle36" class="cls-21" points="493 432 546 293 700 396 493 432"/><polygon id="triangle36-22" data-name="triangle36" class="cls-22" points="546 293 712 256 700 396 546 293"/><polygon id="triangle36-23" data-name="triangle36" class="cls-23" points="493 432 700 396 625 517 493 432"/><polygon id="triangle36-24" data-name="triangle36" class="cls-24" points="269 514 493 432 502 608 269 514"/><polygon id="triangle36-25" data-name="triangle36" class="cls-25" points="493 432 625 517 502 608 493 432"/><polygon id="triangle36-26" data-name="triangle36" class="cls-26" points="269 514 502 608 335 668 269 514"/><polygon id="triangle36-27" data-name="triangle36" class="cls-27" points="269 514 335 668 163 694 269 514"/><polygon id="triangle36-28" data-name="triangle36" class="cls-28" points="30 499 269 514 163 694 30 499"/><polygon id="triangle36-29" data-name="triangle36" class="cls-29" points="1 219 22 371 7 692 1 219"/><polygon id="triangle36-30" data-name="triangle36" class="cls-30" points="22 371 30 499 7 692 22 371"/><polygon id="triangle36-31" data-name="triangle36" class="cls-31" points="30 499 163 694 7 692 30 499"/><polygon id="triangle36-32" data-name="triangle36" class="cls-32" points="7 692 163 694 9 816 7 692"/><polygon id="triangle36-33" data-name="triangle36" class="cls-33" points="163 694 335 668 180 855 163 694"/><polygon id="triangle36-34" data-name="triangle36" class="cls-34" points="9 816 163 694 180 855 9 816"/><polygon id="triangle36-35" data-name="triangle36" class="cls-35" points="180 855 335 668 412 844 180 855"/><polygon id="triangle36-36" data-name="triangle36" class="cls-36" points="335 668 502 608 412 844 335 668"/><polygon id="triangle36-37" data-name="triangle36" class="cls-37" points="412 844 502 608 637 762 412 844"/><polygon id="triangle36-38" data-name="triangle36" class="cls-38" points="502 608 625 517 637 762 502 608"/><polygon id="triangle36-39" data-name="triangle36" class="cls-39" points="625 517 637 762 806 685 625 517"/><polygon id="triangle36-40" data-name="triangle36" class="cls-40" points="625 517 700 396 908 551 625 517"/><polygon id="triangle36-41" data-name="triangle36" class="cls-41" points="625 517 806 685 908 551 625 517"/><polygon id="triangle36-42" data-name="triangle36" class="cls-42" points="700 396 712 256 940 398 700 396"/><polygon id="triangle36-43" data-name="triangle36" class="cls-43" points="700 396 908 551 940 398 700 396"/><polygon id="triangle36-44" data-name="triangle36" class="cls-44" points="712 256 940 398 937 252 712 256"/><polygon id="triangle36-45" data-name="triangle36" class="cls-45" points="702 90 712 256 913 127 702 90"/><polygon id="triangle36-46" data-name="triangle36" class="cls-46" points="712 256 937 252 913 127 712 256"/><polygon id="triangle36-47" data-name="triangle36" class="cls-47" points="523 1 632 9 843 11 523 1"/><polygon id="triangle36-48" data-name="triangle36" class="cls-48" points="632 9 702 90 843 11 632 9"/><polygon id="triangle36-49" data-name="triangle36" class="cls-49" points="702 90 913 127 843 11 702 90"/><polygon id="triangle36-50" data-name="triangle36" class="cls-50" points="523 1 843 11 984 6 523 1"/><polygon id="triangle36-51" data-name="triangle36" class="cls-51" points="843 11 913 127 984 6 843 11"/><polygon id="triangle36-52" data-name="triangle36" class="cls-52" points="913 127 937 252 984 140 913 127"/><polygon id="triangle36-53" data-name="triangle36" class="cls-53" points="913 127 984 6 984 140 913 127"/><polygon id="triangle36-54" data-name="triangle36" class="cls-54" points="937 252 940 398 982 374 937 252"/><polygon id="triangle36-55" data-name="triangle36" class="cls-55" points="937 252 984 140 982 374 937 252"/><polygon id="triangle36-56" data-name="triangle36" class="cls-56" points="908 551 940 398 983 536 908 551"/><polygon id="triangle36-57" data-name="triangle36" class="cls-57" points="940 398 982 374 983 536 940 398"/><polygon id="triangle36-58" data-name="triangle36" class="cls-58" points="806 685 908 551 987 695 806 685"/><polygon id="triangle36-59" data-name="triangle36" class="cls-59" points="908 551 983 536 987 695 908 551"/><polygon id="triangle36-60" data-name="triangle36" class="cls-60" points="982 374 983 536 987 695 982 374"/><polygon id="triangle36-61" data-name="triangle36" class="cls-61" points="982 374 984 140 987 695 982 374"/><polygon id="triangle36-62" data-name="triangle36" class="cls-62" points="806 685 987 695 942 770 806 685"/><polygon id="triangle36-63" data-name="triangle36" class="cls-63" points="637 762 806 685 871 920 637 762"/><polygon id="triangle36-64" data-name="triangle36" class="cls-64" points="806 685 942 770 871 920 806 685"/><polygon id="triangle36-65" data-name="triangle36" class="cls-65" points="637 762 871 920 678 970 637 762"/><polygon id="triangle36-66" data-name="triangle36" class="cls-66" points="412 844 637 762 453 968 412 844"/><polygon id="triangle36-67" data-name="triangle36" class="cls-67" points="637 762 678 970 453 968 637 762"/><polygon id="triangle36-68" data-name="triangle36" class="cls-68" points="180 855 412 844 242 995 180 855"/><polygon id="triangle36-69" data-name="triangle36" class="cls-69" points="412 844 453 968 242 995 412 844"/><polygon id="triangle36-70" data-name="triangle36" class="cls-70" points="180 855 242 995 101 982 180 855"/><polygon id="triangle36-71" data-name="triangle36" class="cls-71" points="9 816 180 855 101 982 9 816"/><polygon id="triangle36-72" data-name="triangle36" class="cls-72" points="101 982 242 995 1 980 101 982"/><polygon id="triangle36-73" data-name="triangle36" class="cls-73" points="7 692 9 816 1 980 7 692"/><polygon id="triangle36-74" data-name="triangle36" class="cls-74" points="9 816 101 982 1 980 9 816"/><polygon id="triangle36-75" data-name="triangle36" class="cls-75" points="242 995 453 968 818 989 242 995"/><polygon id="triangle36-76" data-name="triangle36" class="cls-76" points="453 968 678 970 818 989 453 968"/><polygon id="triangle36-77" data-name="triangle36" class="cls-77" points="678 970 871 920 818 989 678 970"/><polygon id="triangle36-78" data-name="triangle36" class="cls-78" points="818 989 871 920 984 985 818 989"/><polygon id="triangle36-79" data-name="triangle36" class="cls-79" points="871 920 942 770 982 915 871 920"/><polygon id="triangle36-80" data-name="triangle36" class="cls-80" points="871 920 984 985 982 915 871 920"/><polygon id="triangle36-81" data-name="triangle36" class="cls-81" points="942 770 987 695 982 915 942 770"/><polygon id="triangle36-82" data-name="triangle36" class="cls-82" points="984 985 987 695 982 915 984 985"/></svg>