<?xml version="1.0" encoding="utf-8"?>
<!-- Generator: Adobe Illustrator 21.1.0, SVG Export Plug-In . SVG Version: 6.00 Build 0)  -->
<svg version="1.1" id="Layer_1" xmlns="http://www.w3.org/2000/svg" xmlns:xlink="http://www.w3.org/1999/xlink" x="0px" y="0px"
	 viewBox="0 0 1000 1000" enable-background="new 0 0 1000 1000" xml:space="preserve">
<linearGradient id="triangle36_79_" gradientUnits="userSpaceOnUse" x1="103.7111" y1="807.3135" x2="104.7111" y2="806.3135" gradientTransform="matrix(171 0 0 -196 -17757.0391 158274.5469)">
	<stop  offset="0" style="stop-color:#736501"/>
	<stop  offset="1" style="stop-color:#665001"/>
</linearGradient>
<polygon id="triangle36" fill="url(#triangle36_79_)" points="8,202 10,6 179,146 "/>
<linearGradient id="triangle36_80_" gradientUnits="userSpaceOnUse" x1="104.1812" y1="808.0581" x2="105.1812" y2="807.0581" gradientTransform="matrix(195 0 0 -145 -20263.043 117138.0391)">
	<stop  offset="0" style="stop-color:#574301"/>
	<stop  offset="1" style="stop-color:#714D01"/>
</linearGradient>
<polygon id="triangle36_1_" fill="url(#triangle36_80_)" points="10,6 179,146 205,1 "/>
<linearGradient id="triangle36_81_" gradientUnits="userSpaceOnUse" x1="103.7865" y1="807.7307" x2="104.7865" y2="806.7306" gradientTransform="matrix(173 0 0 -145 -17795.0391 117138.0391)">
	<stop  offset="0" style="stop-color:#754D01"/>
	<stop  offset="1" style="stop-color:#693D02"/>
</linearGradient>
<polygon id="triangle36_2_" fill="url(#triangle36_81_)" points="179,146 205,1 352,65 "/>
<linearGradient id="triangle36_82_" gradientUnits="userSpaceOnUse" x1="104.044" y1="807.7858" x2="105.044" y2="806.7858" gradientTransform="matrix(183 0 0 -166 -18840.041 134138.5469)">
	<stop  offset="0" style="stop-color:#845502"/>
	<stop  offset="1" style="stop-color:#824909"/>
</linearGradient>
<polygon id="triangle36_3_" fill="url(#triangle36_82_)" points="179,146 352,65 362,231 "/>
<linearGradient id="triangle36_83_" gradientUnits="userSpaceOnUse" x1="103.9145" y1="807.4581" x2="104.9145" y2="806.4581" gradientTransform="matrix(183 0 0 -200 -18840.041 161640.5625)">
	<stop  offset="0" style="stop-color:#8D6009"/>
	<stop  offset="1" style="stop-color:#98651C"/>
</linearGradient>
<polygon id="triangle36_4_" fill="url(#triangle36_83_)" points="179,146 362,231 246,346 "/>
<linearGradient id="triangle36_84_" gradientUnits="userSpaceOnUse" x1="103.5067" y1="807.259" x2="104.5067" y2="806.259" gradientTransform="matrix(122 0 0 -217 -12520.5244 175351.0625)">
	<stop  offset="0" style="stop-color:#8D6808"/>
	<stop  offset="1" style="stop-color:#977919"/>
</linearGradient>
<polygon id="triangle36_5_" fill="url(#triangle36_84_)" points="179,146 246,346 124,363 "/>
<linearGradient id="triangle36_85_" gradientUnits="userSpaceOnUse" x1="104.0591" y1="807.5657" x2="105.0591" y2="806.5657" gradientTransform="matrix(171 0 0 -217 -17757.0391 175351.0625)">
	<stop  offset="0" style="stop-color:#837201"/>
	<stop  offset="1" style="stop-color:#896D06"/>
</linearGradient>
<polygon id="triangle36_6_" fill="url(#triangle36_85_)" points="8,202 179,146 124,363 "/>
<linearGradient id="triangle36_86_" gradientUnits="userSpaceOnUse" x1="103.4309" y1="807.1456" x2="104.4309" y2="806.1456" gradientTransform="matrix(116 0 0 -239 -12009.5234 193150.0625)">
	<stop  offset="0" style="stop-color:#847B02"/>
	<stop  offset="1" style="stop-color:#8D8612"/>
</linearGradient>
<polygon id="triangle36_7_" fill="url(#triangle36_86_)" points="8,202 124,363 8,441 "/>
<linearGradient id="triangle36_87_" gradientUnits="userSpaceOnUse" x1="103.9311" y1="807.3462" x2="104.9311" y2="806.3462" gradientTransform="matrix(152 0 0 -267 -15771.5371 215893.1563)">
	<stop  offset="0" style="stop-color:#949528"/>
	<stop  offset="1" style="stop-color:#998F27"/>
</linearGradient>
<polygon id="triangle36_8_" fill="url(#triangle36_87_)" points="8,441 124,363 160,630 "/>
<linearGradient id="triangle36_88_" gradientUnits="userSpaceOnUse" x1="103.7511" y1="807.1019" x2="104.7511" y2="806.1019" gradientTransform="matrix(168 0 0 -267 -17327.5391 215893.1563)">
	<stop  offset="0" style="stop-color:#97851C"/>
	<stop  offset="1" style="stop-color:#9B8933"/>
</linearGradient>
<polygon id="triangle36_9_" fill="url(#triangle36_88_)" points="124,363 160,630 292,556 "/>
<linearGradient id="triangle36_89_" gradientUnits="userSpaceOnUse" x1="104.0403" y1="807.587" x2="105.0403" y2="806.587" gradientTransform="matrix(168 0 0 -210 -17327.5391 169905.5625)">
	<stop  offset="0" style="stop-color:#967B11"/>
	<stop  offset="1" style="stop-color:#9A7727"/>
</linearGradient>
<polygon id="triangle36_10_" fill="url(#triangle36_89_)" points="124,363 246,346 292,556 "/>
<linearGradient id="triangle36_90_" gradientUnits="userSpaceOnUse" x1="103.9284" y1="807.334" x2="104.9284" y2="806.334" gradientTransform="matrix(218 0 0 -210 -22430.5547 169905.5625)">
	<stop  offset="0" style="stop-color:#9B7330"/>
	<stop  offset="1" style="stop-color:#9C6A32"/>
</linearGradient>
<polygon id="triangle36_11_" fill="url(#triangle36_90_)" points="246,346 292,556 464,468 "/>
<linearGradient id="triangle36_91_" gradientUnits="userSpaceOnUse" x1="104.0326" y1="807.3326" x2="105.0326" y2="806.3326" gradientTransform="matrix(218 0 0 -237 -22430.5547 191566.0625)">
	<stop  offset="0" style="stop-color:#996822"/>
	<stop  offset="1" style="stop-color:#99571F"/>
</linearGradient>
<polygon id="triangle36_12_" fill="url(#triangle36_91_)" points="246,346 362,231 464,468 "/>
<linearGradient id="triangle36_92_" gradientUnits="userSpaceOnUse" x1="104.1685" y1="807.3638" x2="105.1685" y2="806.3638" gradientTransform="matrix(279 0 0 -237 -28689.0605 191566.0625)">
	<stop  offset="0" style="stop-color:#984A15"/>
	<stop  offset="1" style="stop-color:#993D1E"/>
</linearGradient>
<polygon id="triangle36_13_" fill="url(#triangle36_92_)" points="362,231 464,468 641,277 "/>
<linearGradient id="triangle36_93_" gradientUnits="userSpaceOnUse" x1="104.2817" y1="809.6279" x2="105.2817" y2="808.6279" gradientTransform="matrix(340 0 0 -64 -35220.6719 51811.5195)">
	<stop  offset="0" style="stop-color:#683B03"/>
	<stop  offset="1" style="stop-color:#5E2B03"/>
</linearGradient>
<polygon id="triangle36_14_" fill="url(#triangle36_93_)" points="205,1 352,65 545,6 "/>
<linearGradient id="triangle36_94_" gradientUnits="userSpaceOnUse" x1="103.9853" y1="808.5428" x2="104.9853" y2="807.5428" gradientTransform="matrix(214 0 0 -94 -21713.5449 76011.5234)">
	<stop  offset="0" style="stop-color:#4C1301"/>
	<stop  offset="1" style="stop-color:#620E01"/>
</linearGradient>
<polygon id="triangle36_15_" fill="url(#triangle36_94_)" points="545,6 652,100 759,63 "/>
<linearGradient id="triangle36_95_" gradientUnits="userSpaceOnUse" x1="103.6936" y1="807.5128" x2="104.6936" y2="806.5128" gradientTransform="matrix(145 0 0 -177 -14407.0361 143045.0469)">
	<stop  offset="0" style="stop-color:#81160A"/>
	<stop  offset="1" style="stop-color:#730B02"/>
</linearGradient>
<polygon id="triangle36_16_" fill="url(#triangle36_95_)" points="641,277 652,100 786,161 "/>
<linearGradient id="triangle36_96_" gradientUnits="userSpaceOnUse" x1="103.8258" y1="808.59" x2="104.8258" y2="807.59" gradientTransform="matrix(134 0 0 -98 -13246.5352 79294.5234)">
	<stop  offset="0" style="stop-color:#780F01"/>
	<stop  offset="1" style="stop-color:#770501"/>
</linearGradient>
<polygon id="triangle36_17_" fill="url(#triangle36_96_)" points="652,100 759,63 786,161 "/>
<linearGradient id="triangle36_97_" gradientUnits="userSpaceOnUse" x1="103.8894" y1="807.6492" x2="104.8894" y2="806.6492" gradientTransform="matrix(151 0 0 -182 -15034.0371 147138.5469)">
	<stop  offset="0" style="stop-color:#8D120B"/>
	<stop  offset="1" style="stop-color:#7A0107"/>
</linearGradient>
<polygon id="triangle36_18_" fill="url(#triangle36_97_)" points="641,277 786,161 792,343 "/>
<linearGradient id="triangle36_98_" gradientUnits="userSpaceOnUse" x1="104.0563" y1="807.3204" x2="105.0563" y2="806.3204" gradientTransform="matrix(259 0 0 -226 -26497.0586 182740.5625)">
	<stop  offset="0" style="stop-color:#993B22"/>
	<stop  offset="1" style="stop-color:#97231E"/>
</linearGradient>
<polygon id="triangle36_19_" fill="url(#triangle36_98_)" points="464,468 641,277 723,503 "/>
<linearGradient id="triangle36_99_" gradientUnits="userSpaceOnUse" x1="103.8709" y1="807.4236" x2="104.8709" y2="806.4236" gradientTransform="matrix(151 0 0 -226 -15034.0371 182740.5625)">
	<stop  offset="0" style="stop-color:#961B15"/>
	<stop  offset="1" style="stop-color:#91131E"/>
</linearGradient>
<polygon id="triangle36_20_" fill="url(#triangle36_99_)" points="641,277 792,343 723,503 "/>
<linearGradient id="triangle36_100_" gradientUnits="userSpaceOnUse" x1="104.1632" y1="807.9864" x2="105.1632" y2="806.9865" gradientTransform="matrix(259 0 0 -137 -26497.0586 111153.0391)">
	<stop  offset="0" style="stop-color:#9D503B"/>
	<stop  offset="1" style="stop-color:#9B3637"/>
</linearGradient>
<polygon id="triangle36_21_" fill="url(#triangle36_100_)" points="464,468 723,503 599,605 "/>
<linearGradient id="triangle36_101_" gradientUnits="userSpaceOnUse" x1="104.0628" y1="807.3798" x2="105.0628" y2="806.3798" gradientTransform="matrix(172 0 0 -274 -17577.5391 221643.6563)">
	<stop  offset="0" style="stop-color:#9D763E"/>
	<stop  offset="1" style="stop-color:#9F694A"/>
</linearGradient>
<polygon id="triangle36_22_" fill="url(#triangle36_101_)" points="292,556 464,468 444,742 "/>
<linearGradient id="triangle36_102_" gradientUnits="userSpaceOnUse" x1="103.7015" y1="807.085" x2="104.7015" y2="806.085" gradientTransform="matrix(155 0 0 -274 -15649.0371 221643.6563)">
	<stop  offset="0" style="stop-color:#9E583C"/>
	<stop  offset="1" style="stop-color:#9E5446"/>
</linearGradient>
<polygon id="triangle36_23_" fill="url(#triangle36_102_)" points="464,468 599,605 444,742 "/>
<linearGradient id="triangle36_103_" gradientUnits="userSpaceOnUse" x1="103.8777" y1="807.525" x2="104.8777" y2="806.525" gradientTransform="matrix(132 0 0 -227 -13529.5352 183826.0625)">
	<stop  offset="0" style="stop-color:#9D9441"/>
	<stop  offset="1" style="stop-color:#9C8844"/>
</linearGradient>
<polygon id="triangle36_24_" fill="url(#triangle36_103_)" points="160,630 292,556 279,783 "/>
<linearGradient id="triangle36_104_" gradientUnits="userSpaceOnUse" x1="103.6628" y1="807.1515" x2="104.6628" y2="806.1515" gradientTransform="matrix(165 0 0 -227 -16859.0391 183826.0625)">
	<stop  offset="0" style="stop-color:#9D7C3B"/>
	<stop  offset="1" style="stop-color:#9F8153"/>
</linearGradient>
<polygon id="triangle36_25_" fill="url(#triangle36_104_)" points="292,556 444,742 279,783 "/>
<linearGradient id="triangle36_105_" gradientUnits="userSpaceOnUse" x1="103.6614" y1="807.3324" x2="104.6614" y2="806.3324" gradientTransform="matrix(160 0 0 -191 -16496.5371 154866.0469)">
	<stop  offset="0" style="stop-color:#9B9A47"/>
	<stop  offset="1" style="stop-color:#929550"/>
</linearGradient>
<polygon id="triangle36_26_" fill="url(#triangle36_105_)" points="160,630 279,783 119,821 "/>
<linearGradient id="triangle36_106_" gradientUnits="userSpaceOnUse" x1="103.9677" y1="807.8915" x2="104.9678" y2="806.8915" gradientTransform="matrix(160 0 0 -153 -16496.5371 124372.0391)">
	<stop  offset="0" style="stop-color:#88964E"/>
	<stop  offset="1" style="stop-color:#8D9254"/>
</linearGradient>
<polygon id="triangle36_27_" fill="url(#triangle36_106_)" points="119,821 279,783 196,936 "/>
<linearGradient id="triangle36_107_" gradientUnits="userSpaceOnUse" x1="103.8031" y1="807.6317" x2="104.8031" y2="806.6317" gradientTransform="matrix(187 0 0 -153 -19241.041 124372.0391)">
	<stop  offset="0" style="stop-color:#8E945F"/>
	<stop  offset="1" style="stop-color:#9B9062"/>
</linearGradient>
<polygon id="triangle36_28_" fill="url(#triangle36_107_)" points="196,936 279,783 383,930 "/>
<linearGradient id="triangle36_108_" gradientUnits="userSpaceOnUse" x1="104.0249" y1="807.692" x2="105.0249" y2="806.692" gradientTransform="matrix(165 0 0 -188 -16859.0391 152558.5469)">
	<stop  offset="0" style="stop-color:#9E8E5E"/>
	<stop  offset="1" style="stop-color:#9E8266"/>
</linearGradient>
<polygon id="triangle36_29_" fill="url(#triangle36_108_)" points="279,783 444,742 383,930 "/>
<linearGradient id="triangle36_109_" gradientUnits="userSpaceOnUse" x1="103.7194" y1="807.3752" x2="104.7194" y2="806.3752" gradientTransform="matrix(168 0 0 -188 -17068.5391 152558.5469)">
	<stop  offset="0" style="stop-color:#9B7F6A"/>
	<stop  offset="1" style="stop-color:#9D6E64"/>
</linearGradient>
<polygon id="triangle36_30_" fill="url(#triangle36_109_)" points="383,930 444,742 551,879 "/>
<linearGradient id="triangle36_110_" gradientUnits="userSpaceOnUse" x1="104.1292" y1="807.9789" x2="105.1292" y2="806.9789" gradientTransform="matrix(243 0 0 -137 -24845.0586 111427.0391)">
	<stop  offset="0" style="stop-color:#9F6960"/>
	<stop  offset="1" style="stop-color:#9A5A63"/>
</linearGradient>
<polygon id="triangle36_31_" fill="url(#triangle36_110_)" points="444,742 551,879 687,770 "/>
<linearGradient id="triangle36_111_" gradientUnits="userSpaceOnUse" x1="104.0227" y1="807.6302" x2="105.0228" y2="806.6302" gradientTransform="matrix(243 0 0 -165 -24845.0586 133872.0469)">
	<stop  offset="0" style="stop-color:#9F6257"/>
	<stop  offset="1" style="stop-color:#9B464C"/>
</linearGradient>
<polygon id="triangle36_32_" fill="url(#triangle36_111_)" points="444,742 599,605 687,770 "/>
<linearGradient id="triangle36_112_" gradientUnits="userSpaceOnUse" x1="103.8117" y1="807.3838" x2="104.8117" y2="806.3838" gradientTransform="matrix(124 0 0 -267 -12254.5244 216033.1563)">
	<stop  offset="0" style="stop-color:#9B393D"/>
	<stop  offset="1" style="stop-color:#9A3C4B"/>
</linearGradient>
<polygon id="triangle36_33_" fill="url(#triangle36_112_)" points="599,605 723,503 687,770 "/>
<linearGradient id="triangle36_113_" gradientUnits="userSpaceOnUse" x1="103.5919" y1="807.0409" x2="104.5919" y2="806.0409" gradientTransform="matrix(145 0 0 -267 -14361.0361 216033.1563)">
	<stop  offset="0" style="stop-color:#99455E"/>
	<stop  offset="1" style="stop-color:#963550"/>
</linearGradient>
<polygon id="triangle36_34_" fill="url(#triangle36_113_)" points="687,770 723,503 832,742 "/>
<linearGradient id="triangle36_114_" gradientUnits="userSpaceOnUse" x1="104.0016" y1="807.2904" x2="105.0016" y2="806.2905" gradientTransform="matrix(220 0 0 -239 -22162.5547 193451.0625)">
	<stop  offset="0" style="stop-color:#972A44"/>
	<stop  offset="1" style="stop-color:#902A57"/>
</linearGradient>
<polygon id="triangle36_35_" fill="url(#triangle36_114_)" points="723,503 832,742 943,644 "/>
<linearGradient id="triangle36_115_" gradientUnits="userSpaceOnUse" x1="103.6566" y1="807.5834" x2="104.6566" y2="806.5834" gradientTransform="matrix(147 0 0 -160 -14534.0361 129577.5391)">
	<stop  offset="0" style="stop-color:#971B2E"/>
	<stop  offset="1" style="stop-color:#900B25"/>
</linearGradient>
<polygon id="triangle36_36_" fill="url(#triangle36_115_)" points="723,503 792,343 870,473 "/>
<linearGradient id="triangle36_116_" gradientUnits="userSpaceOnUse" x1="104.1482" y1="807.7611" x2="105.1482" y2="806.7611" gradientTransform="matrix(220 0 0 -171 -22162.5547 138579.0469)">
	<stop  offset="0" style="stop-color:#982941"/>
	<stop  offset="1" style="stop-color:#921D49"/>
</linearGradient>
<polygon id="triangle36_37_" fill="url(#triangle36_116_)" points="723,503 943,644 870,473 "/>
<linearGradient id="triangle36_117_" gradientUnits="userSpaceOnUse" x1="103.9639" y1="807.98" x2="104.9638" y2="806.98" gradientTransform="matrix(201 0 0 -130 -20108.043 105382.5391)">
	<stop  offset="0" style="stop-color:#8D0923"/>
	<stop  offset="1" style="stop-color:#8E0C36"/>
</linearGradient>
<polygon id="triangle36_38_" fill="url(#triangle36_117_)" points="792,343 870,473 993,402 "/>
<linearGradient id="triangle36_118_" gradientUnits="userSpaceOnUse" x1="103.7992" y1="807.4521" x2="104.7992" y2="806.4521" gradientTransform="matrix(123 0 0 -242 -11879.0244 195769.5625)">
	<stop  offset="0" style="stop-color:#941340"/>
	<stop  offset="1" style="stop-color:#8B0E43"/>
</linearGradient>
<polygon id="triangle36_39_" fill="url(#triangle36_118_)" points="870,473 943,644 993,402 "/>
<linearGradient id="triangle36_119_" gradientUnits="userSpaceOnUse" x1="103.8633" y1="807.4249" x2="104.8633" y2="806.4249" gradientTransform="matrix(212 0 0 -182 -21263.5449 147138.5469)">
	<stop  offset="0" style="stop-color:#76010C"/>
	<stop  offset="1" style="stop-color:#7C0118"/>
</linearGradient>
<polygon id="triangle36_40_" fill="url(#triangle36_119_)" points="786,161 792,343 998,271 "/>
<linearGradient id="triangle36_120_" gradientUnits="userSpaceOnUse" x1="104.1055" y1="808.0976" x2="105.1055" y2="807.0977" gradientTransform="matrix(206 0 0 -131 -20630.543 106117.0391)">
	<stop  offset="0" style="stop-color:#84011A"/>
	<stop  offset="1" style="stop-color:#790128"/>
</linearGradient>
<polygon id="triangle36_41_" fill="url(#triangle36_120_)" points="792,343 993,402 998,271 "/>
<linearGradient id="triangle36_121_" gradientUnits="userSpaceOnUse" x1="103.9229" y1="808.3448" x2="104.9229" y2="807.3448" gradientTransform="matrix(239 0 0 -98 -24112.0566 79294.5234)">
	<stop  offset="0" style="stop-color:#5C0304"/>
	<stop  offset="1" style="stop-color:#5C010A"/>
</linearGradient>
<polygon id="triangle36_42_" fill="url(#triangle36_121_)" points="759,63 786,161 998,129 "/>
<linearGradient id="triangle36_122_" gradientUnits="userSpaceOnUse" x1="104.2009" y1="808.0637" x2="105.2009" y2="807.0637" gradientTransform="matrix(212 0 0 -142 -21263.5449 114846.5391)">
	<stop  offset="0" style="stop-color:#65010C"/>
	<stop  offset="1" style="stop-color:#5D0118"/>
</linearGradient>
<polygon id="triangle36_43_" fill="url(#triangle36_122_)" points="786,161 998,271 998,129 "/>
<linearGradient id="triangle36_123_" gradientUnits="userSpaceOnUse" x1="104.3686" y1="810.0147" x2="105.3686" y2="809.0147" gradientTransform="matrix(447 0 0 -57 -46062.1016 46171.0156)">
	<stop  offset="0" style="stop-color:#4B0E01"/>
	<stop  offset="1" style="stop-color:#440304"/>
</linearGradient>
<polygon id="triangle36_44_" fill="url(#triangle36_123_)" points="545,6 759,63 992,10 "/>
<linearGradient id="triangle36_124_" gradientUnits="userSpaceOnUse" x1="104.1957" y1="808.2668" x2="105.1957" y2="807.2668" gradientTransform="matrix(239 0 0 -119 -24112.0566 96178.0313)">
	<stop  offset="0" style="stop-color:#4D0205"/>
	<stop  offset="1" style="stop-color:#42000C"/>
</linearGradient>
<polygon id="triangle36_45_" fill="url(#triangle36_124_)" points="759,63 998,129 992,10 "/>
<linearGradient id="triangle36_125_" gradientUnits="userSpaceOnUse" x1="103.788" y1="808.402" x2="104.788" y2="807.402" gradientTransform="matrix(166 0 0 -98 -16410.5391 79875.5234)">
	<stop  offset="0" style="stop-color:#8E315F"/>
	<stop  offset="1" style="stop-color:#8C215C"/>
</linearGradient>
<polygon id="triangle36_46_" fill="url(#triangle36_125_)" points="832,742 943,644 998,729 "/>
<linearGradient id="triangle36_126_" gradientUnits="userSpaceOnUse" x1="102.6426" y1="807.1376" x2="103.6426" y2="806.1376" gradientTransform="matrix(55 0 0 -327 -4700.0161 264322.1875)">
	<stop  offset="0" style="stop-color:#8C1651"/>
	<stop  offset="1" style="stop-color:#8A134D"/>
</linearGradient>
<polygon id="triangle36_47_" fill="url(#triangle36_126_)" points="943,644 993,402 998,729 "/>
<linearGradient id="triangle36_127_" gradientUnits="userSpaceOnUse" x1="83.7788" y1="807.1031" x2="84.7789" y2="806.103" gradientTransform="matrix(5 0 0 -458 575 369842.625)">
	<stop  offset="0" style="stop-color:#8B0A3E"/>
	<stop  offset="1" style="stop-color:#841345"/>
</linearGradient>
<polygon id="triangle36_48_" fill="url(#triangle36_127_)" points="993,402 998,271 998,729 "/>
<linearGradient id="triangle36_128_" gradientUnits="userSpaceOnUse" x1="104.046" y1="808.1046" x2="105.046" y2="807.1046" gradientTransform="matrix(166 0 0 -136 -16410.5391 110607.5391)">
	<stop  offset="0" style="stop-color:#8F3164"/>
	<stop  offset="1" style="stop-color:#912D6D"/>
</linearGradient>
<polygon id="triangle36_49_" fill="url(#triangle36_128_)" points="832,742 998,729 948,865 "/>
<linearGradient id="triangle36_129_" gradientUnits="userSpaceOnUse" x1="102.5278" y1="807.3768" x2="103.5278" y2="806.3769" gradientTransform="matrix(50 0 0 -256 -4172.5151 207387.5625)">
	<stop  offset="0" style="stop-color:#9B3F87"/>
	<stop  offset="1" style="stop-color:#953576"/>
</linearGradient>
<polygon id="triangle36_50_" fill="url(#triangle36_129_)" points="993,985 998,729 948,865 "/>
<linearGradient id="triangle36_130_" gradientUnits="userSpaceOnUse" x1="104.0081" y1="807.9707" x2="105.0081" y2="806.9707" gradientTransform="matrix(153 0 0 -152 -15197.0371 123524.5391)">
	<stop  offset="0" style="stop-color:#934564"/>
	<stop  offset="1" style="stop-color:#903C69"/>
</linearGradient>
<polygon id="triangle36_51_" fill="url(#triangle36_130_)" points="687,770 832,742 840,894 "/>
<linearGradient id="triangle36_131_" gradientUnits="userSpaceOnUse" x1="103.4143" y1="807.5948" x2="104.4143" y2="806.5948" gradientTransform="matrix(116 0 0 -152 -11185.5234 123524.5391)">
	<stop  offset="0" style="stop-color:#913E6B"/>
	<stop  offset="1" style="stop-color:#933E77"/>
</linearGradient>
<polygon id="triangle36_52_" fill="url(#triangle36_131_)" points="832,742 948,865 840,894 "/>
<linearGradient id="triangle36_132_" gradientUnits="userSpaceOnUse" x1="103.7873" y1="807.9448" x2="104.7873" y2="806.9449" gradientTransform="matrix(136 0 0 -140 -13556.5352 113874.5391)">
	<stop  offset="0" style="stop-color:#975765"/>
	<stop  offset="1" style="stop-color:#934D65"/>
</linearGradient>
<polygon id="triangle36_53_" fill="url(#triangle36_132_)" points="551,879 687,770 685,910 "/>
<linearGradient id="triangle36_133_" gradientUnits="userSpaceOnUse" x1="103.6044" y1="807.6684" x2="104.6044" y2="806.6684" gradientTransform="matrix(155 0 0 -140 -15408.0371 113874.5391)">
	<stop  offset="0" style="stop-color:#944C68"/>
	<stop  offset="1" style="stop-color:#8F476F"/>
</linearGradient>
<polygon id="triangle36_54_" fill="url(#triangle36_133_)" points="687,770 840,894 685,910 "/>
<linearGradient id="triangle36_134_" gradientUnits="userSpaceOnUse" x1="104.0213" y1="808.2773" x2="105.0213" y2="807.2773" gradientTransform="matrix(168 0 0 -119 -17068.5391 97047.0313)">
	<stop  offset="0" style="stop-color:#997C6D"/>
	<stop  offset="1" style="stop-color:#95686C"/>
</linearGradient>
<polygon id="triangle36_55_" fill="url(#triangle36_134_)" points="383,930 551,879 529,998 "/>
<linearGradient id="triangle36_135_" gradientUnits="userSpaceOnUse" x1="103.7653" y1="808.0696" x2="104.7653" y2="807.0696" gradientTransform="matrix(156 0 0 -119 -15668.5371 97047.0313)">
	<stop  offset="0" style="stop-color:#955E68"/>
	<stop  offset="1" style="stop-color:#8E5A6C"/>
</linearGradient>
<polygon id="triangle36_56_" fill="url(#triangle36_135_)" points="551,879 685,910 529,998 "/>
<linearGradient id="triangle36_136_" gradientUnits="userSpaceOnUse" x1="104.0966" y1="809.6022" x2="105.0966" y2="808.6022" gradientTransform="matrix(187 0 0 -66 -19241.041 54353.5195)">
	<stop  offset="0" style="stop-color:#8C9566"/>
	<stop  offset="1" style="stop-color:#938E6B"/>
</linearGradient>
<polygon id="triangle36_57_" fill="url(#triangle36_136_)" points="196,936 383,930 312,996 "/>
<linearGradient id="triangle36_137_" gradientUnits="userSpaceOnUse" x1="103.8586" y1="809.199" x2="104.8586" y2="808.199" gradientTransform="matrix(217 0 0 -68 -22260.0547 55966.5195)">
	<stop  offset="0" style="stop-color:#97856E"/>
	<stop  offset="1" style="stop-color:#8F7C6B"/>
</linearGradient>
<polygon id="triangle36_58_" fill="url(#triangle36_137_)" points="383,930 529,998 312,996 "/>
<linearGradient id="triangle36_138_" gradientUnits="userSpaceOnUse" x1="102.9876" y1="807.4626" x2="103.9876" y2="806.4626" gradientTransform="matrix(77 0 0 -174 -7823.0181 141346.5469)">
	<stop  offset="0" style="stop-color:#7D914D"/>
	<stop  offset="1" style="stop-color:#768E52"/>
</linearGradient>
<polygon id="triangle36_59_" fill="url(#triangle36_138_)" points="119,821 196,936 122,995 "/>
<linearGradient id="triangle36_139_" gradientUnits="userSpaceOnUse" x1="103.8018" y1="809.5935" x2="104.8018" y2="808.5934" gradientTransform="matrix(190 0 0 -60 -19628.541 49520.5156)">
	<stop  offset="0" style="stop-color:#80905C"/>
	<stop  offset="1" style="stop-color:#7B8D59"/>
</linearGradient>
<polygon id="triangle36_60_" fill="url(#triangle36_139_)" points="196,936 312,996 122,995 "/>
<linearGradient id="triangle36_140_" gradientUnits="userSpaceOnUse" x1="103.5098" y1="807.8414" x2="104.5098" y2="806.8414" gradientTransform="matrix(86 0 0 -174 -8846.5186 141346.5469)">
	<stop  offset="0" style="stop-color:#758F4A"/>
	<stop  offset="1" style="stop-color:#768F4C"/>
</linearGradient>
<polygon id="triangle36_61_" fill="url(#triangle36_140_)" points="36,833 119,821 122,995 "/>
<linearGradient id="triangle36_141_" gradientUnits="userSpaceOnUse" x1="103.3789" y1="807.5114" x2="104.3789" y2="806.5114" gradientTransform="matrix(112 0 0 -162 -11589.5225 131680.5469)">
	<stop  offset="0" style="stop-color:#71904B"/>
	<stop  offset="1" style="stop-color:#6A914D"/>
</linearGradient>
<polygon id="triangle36_62_" fill="url(#triangle36_141_)" points="36,833 122,995 10,993 "/>
<linearGradient id="triangle36_142_" gradientUnits="userSpaceOnUse" x1="103.6022" y1="808.1011" x2="104.6022" y2="807.1011" gradientTransform="matrix(108 0 0 -127 -10341.5225 103485.0391)">
	<stop  offset="0" style="stop-color:#933D79"/>
	<stop  offset="1" style="stop-color:#973B80"/>
</linearGradient>
<polygon id="triangle36_63_" fill="url(#triangle36_142_)" points="840,894 948,865 870,992 "/>
<linearGradient id="triangle36_143_" gradientUnits="userSpaceOnUse" x1="103.5598" y1="807.9396" x2="104.5598" y2="806.9396" gradientTransform="matrix(123 0 0 -127 -11879.0244 103485.0391)">
	<stop  offset="0" style="stop-color:#993C82"/>
	<stop  offset="1" style="stop-color:#9A3D8A"/>
</linearGradient>
<polygon id="triangle36_64_" fill="url(#triangle36_143_)" points="948,865 993,985 870,992 "/>
<linearGradient id="triangle36_144_" gradientUnits="userSpaceOnUse" x1="103.911" y1="808.6624" x2="104.911" y2="807.6624" gradientTransform="matrix(193 0 0 -88 -19535.043 72076.5234)">
	<stop  offset="0" style="stop-color:#8C6071"/>
	<stop  offset="1" style="stop-color:#8C5173"/>
</linearGradient>
<polygon id="triangle36_65_" fill="url(#triangle36_144_)" points="529,998 685,910 722,992 "/>
<linearGradient id="triangle36_145_" gradientUnits="userSpaceOnUse" x1="104.1944" y1="838.9163" x2="105.1945" y2="837.9163" gradientTransform="matrix(341 0 0 -6 -35001.1719 6025.5)">
	<stop  offset="0" style="stop-color:#8D5974"/>
	<stop  offset="1" style="stop-color:#91477F"/>
</linearGradient>
<polygon id="triangle36_66_" fill="url(#triangle36_145_)" points="529,998 870,992 722,992 "/>
<linearGradient id="triangle36_146_" gradientUnits="userSpaceOnUse" x1="103.886" y1="808.5443" x2="104.886" y2="807.5444" gradientTransform="matrix(155 0 0 -98 -15408.0371 80125.5234)">
	<stop  offset="0" style="stop-color:#8C4B6E"/>
	<stop  offset="1" style="stop-color:#8F4777"/>
</linearGradient>
<polygon id="triangle36_67_" fill="url(#triangle36_146_)" points="685,910 840,894 722,992 "/>
<linearGradient id="triangle36_147_" gradientUnits="userSpaceOnUse" x1="103.7438" y1="808.4339" x2="104.7438" y2="807.4339" gradientTransform="matrix(148 0 0 -98 -14639.5371 80125.5234)">
	<stop  offset="0" style="stop-color:#923E79"/>
	<stop  offset="1" style="stop-color:#934380"/>
</linearGradient>
<polygon id="triangle36_68_" fill="url(#triangle36_147_)" points="840,894 870,992 722,992 "/>
<linearGradient id="triangle36_148_" gradientUnits="userSpaceOnUse" x1="103.6676" y1="807.555" x2="104.6676" y2="806.555" gradientTransform="matrix(146 0 0 -166 -14800.5361 134138.5469)">
	<stop  offset="0" style="stop-color:#783C06"/>
	<stop  offset="1" style="stop-color:#8A410B"/>
</linearGradient>
<polygon id="triangle36_69_" fill="url(#triangle36_148_)" points="352,65 362,231 498,154 "/>
<linearGradient id="triangle36_149_" gradientUnits="userSpaceOnUse" x1="104.1093" y1="807.9646" x2="105.1093" y2="806.9646" gradientTransform="matrix(193 0 0 -148 -19712.043 119562.5391)">
	<stop  offset="0" style="stop-color:#6A3104"/>
	<stop  offset="1" style="stop-color:#682504"/>
</linearGradient>
<polygon id="triangle36_70_" fill="url(#triangle36_149_)" points="352,65 545,6 498,154 "/>
<linearGradient id="triangle36_150_" gradientUnits="userSpaceOnUse" x1="104.091" y1="808.047" x2="105.091" y2="807.047" gradientTransform="matrix(279 0 0 -123 -28689.0605 99548.0313)">
	<stop  offset="0" style="stop-color:#8F410D"/>
	<stop  offset="1" style="stop-color:#8B2B0A"/>
</linearGradient>
<polygon id="triangle36_71_" fill="url(#triangle36_150_)" points="362,231 641,277 498,154 "/>
<linearGradient id="triangle36_151_" gradientUnits="userSpaceOnUse" x1="103.6631" y1="807.6555" x2="104.6631" y2="806.6555" gradientTransform="matrix(154 0 0 -148 -15490.5371 119562.5391)">
	<stop  offset="0" style="stop-color:#5A1B02"/>
	<stop  offset="1" style="stop-color:#7D2102"/>
</linearGradient>
<polygon id="triangle36_72_" fill="url(#triangle36_151_)" points="545,6 652,100 498,154 "/>
<linearGradient id="triangle36_152_" gradientUnits="userSpaceOnUse" x1="103.9957" y1="807.7726" x2="104.9957" y2="806.7726" gradientTransform="matrix(154 0 0 -177 -15490.5371 143045.0469)">
	<stop  offset="0" style="stop-color:#8D210B"/>
	<stop  offset="1" style="stop-color:#852103"/>
</linearGradient>
<polygon id="triangle36_73_" fill="url(#triangle36_152_)" points="641,277 652,100 498,154 "/>
<linearGradient id="triangle36_153_" gradientUnits="userSpaceOnUse" x1="101.2443" y1="806.9356" x2="102.2443" y2="805.9356" gradientTransform="matrix(33 0 0 -371 -3341.0029 300028.1875)">
	<stop  offset="0" style="stop-color:#6A9242"/>
	<stop  offset="1" style="stop-color:#769138"/>
</linearGradient>
<polygon id="triangle36_74_" fill="url(#triangle36_153_)" points="10,993 36,833 3,622 "/>
<linearGradient id="triangle36_154_" gradientUnits="userSpaceOnUse" x1="104.0093" y1="807.6523" x2="105.0093" y2="806.6523" gradientTransform="matrix(157 0 0 -199 -16299.0381 161310.0625)">
	<stop  offset="0" style="stop-color:#889747"/>
	<stop  offset="1" style="stop-color:#8D9837"/>
</linearGradient>
<polygon id="triangle36_75_" fill="url(#triangle36_154_)" points="119,821 160,630 3,622 "/>
<linearGradient id="triangle36_155_" gradientUnits="userSpaceOnUse" x1="103.4347" y1="807.2574" x2="104.4347" y2="806.2574" gradientTransform="matrix(116 0 0 -211 -12014.5234 170988.0625)">
	<stop  offset="0" style="stop-color:#7D944B"/>
	<stop  offset="1" style="stop-color:#829640"/>
</linearGradient>
<polygon id="triangle36_76_" fill="url(#triangle36_155_)" points="36,833 119,821 3,622 "/>
<linearGradient id="triangle36_156_" gradientUnits="userSpaceOnUse" x1="83.6005" y1="806.9628" x2="84.6003" y2="805.9631" gradientTransform="matrix(5 0 0 -420 -415 339126.5938)">
	<stop  offset="0" style="stop-color:#90971C"/>
	<stop  offset="1" style="stop-color:#848B13"/>
</linearGradient>
<polygon id="triangle36_77_" fill="url(#triangle36_156_)" points="8,441 8,202 3,622 "/>
<linearGradient id="triangle36_157_" gradientUnits="userSpaceOnUse" x1="103.6037" y1="807.2973" x2="104.6037" y2="806.2974" gradientTransform="matrix(157 0 0 -189 -16299.0381 153064.0469)">
	<stop  offset="0" style="stop-color:#909929"/>
	<stop  offset="1" style="stop-color:#8D9830"/>
</linearGradient>
<polygon id="triangle36_78_" fill="url(#triangle36_157_)" points="8,441 160,630 3,622 "/>
</svg>
