<svg id="Layer_1" data-name="Layer 1" xmlns="http://www.w3.org/2000/svg" xmlns:xlink="http://www.w3.org/1999/xlink" viewBox="0 0 995 997"><defs><style>.cls-1{fill:url(#linear-gradient);}.cls-2{fill:url(#linear-gradient-2);}.cls-3{fill:url(#linear-gradient-3);}.cls-4{fill:url(#linear-gradient-4);}.cls-5{fill:url(#linear-gradient-5);}.cls-6{fill:url(#linear-gradient-6);}.cls-7{fill:url(#linear-gradient-7);}.cls-8{fill:url(#linear-gradient-8);}.cls-9{fill:url(#linear-gradient-9);}.cls-10{fill:url(#linear-gradient-10);}.cls-11{fill:url(#linear-gradient-11);}.cls-12{fill:url(#linear-gradient-12);}.cls-13{fill:url(#linear-gradient-13);}.cls-14{fill:url(#linear-gradient-14);}.cls-15{fill:url(#linear-gradient-15);}.cls-16{fill:url(#linear-gradient-16);}.cls-17{fill:url(#linear-gradient-17);}.cls-18{fill:url(#linear-gradient-18);}.cls-19{fill:url(#linear-gradient-19);}.cls-20{fill:url(#linear-gradient-20);}.cls-21{fill:url(#linear-gradient-21);}.cls-22{fill:url(#linear-gradient-22);}.cls-23{fill:url(#linear-gradient-23);}.cls-24{fill:url(#linear-gradient-24);}.cls-25{fill:url(#linear-gradient-25);}.cls-26{fill:url(#linear-gradient-26);}.cls-27{fill:url(#linear-gradient-27);}.cls-28{fill:url(#linear-gradient-28);}.cls-29{fill:url(#linear-gradient-29);}.cls-30{fill:url(#linear-gradient-30);}.cls-31{fill:url(#linear-gradient-31);}.cls-32{fill:url(#linear-gradient-32);}.cls-33{fill:url(#linear-gradient-33);}.cls-34{fill:url(#linear-gradient-34);}.cls-35{fill:url(#linear-gradient-35);}.cls-36{fill:url(#linear-gradient-36);}.cls-37{fill:url(#linear-gradient-37);}.cls-38{fill:url(#linear-gradient-38);}.cls-39{fill:url(#linear-gradient-39);}.cls-40{fill:url(#linear-gradient-40);}.cls-41{fill:url(#linear-gradient-41);}.cls-42{fill:url(#linear-gradient-42);}.cls-43{fill:url(#linear-gradient-43);}.cls-44{fill:url(#linear-gradient-44);}.cls-45{fill:url(#linear-gradient-45);}.cls-46{fill:url(#linear-gradient-46);}.cls-47{fill:url(#linear-gradient-47);}.cls-48{fill:url(#linear-gradient-48);}.cls-49{fill:url(#linear-gradient-49);}.cls-50{fill:url(#linear-gradient-50);}.cls-51{fill:url(#linear-gradient-51);}.cls-52{fill:url(#linear-gradient-52);}.cls-53{fill:url(#linear-gradient-53);}.cls-54{fill:url(#linear-gradient-54);}.cls-55{fill:url(#linear-gradient-55);}.cls-56{fill:url(#linear-gradient-56);}.cls-57{fill:url(#linear-gradient-57);}.cls-58{fill:url(#linear-gradient-58);}.cls-59{fill:url(#linear-gradient-59);}.cls-60{fill:url(#linear-gradient-60);}.cls-61{fill:url(#linear-gradient-61);}.cls-62{fill:url(#linear-gradient-62);}.cls-63{fill:url(#linear-gradient-63);}.cls-64{fill:url(#linear-gradient-64);}.cls-65{fill:url(#linear-gradient-65);}.cls-66{fill:url(#linear-gradient-66);}.cls-67{fill:url(#linear-gradient-67);}.cls-68{fill:url(#linear-gradient-68);}.cls-69{fill:url(#linear-gradient-69);}.cls-70{fill:url(#linear-gradient-70);}.cls-71{fill:url(#linear-gradient-71);}.cls-72{fill:url(#linear-gradient-72);}.cls-73{fill:url(#linear-gradient-73);}.cls-74{fill:url(#linear-gradient-74);}.cls-75{fill:url(#linear-gradient-75);}.cls-76{fill:url(#linear-gradient-76);}.cls-77{fill:url(#linear-gradient-77);}.cls-78{fill:url(#linear-gradient-78);}.cls-79{fill:url(#linear-gradient-79);}</style><linearGradient id="linear-gradient" x1="103.71" y1="807.31" x2="104.71" y2="806.31" gradientTransform="matrix(171, 0, 0, -196, -17760.04, 158273.54)" gradientUnits="userSpaceOnUse"><stop offset="0" stop-color="#c6ae02"/><stop offset="1" stop-color="#b99102"/></linearGradient><linearGradient id="linear-gradient-2" x1="104.18" y1="808.06" x2="105.18" y2="807.06" gradientTransform="matrix(195, 0, 0, -145, -20266.04, 117137.04)" gradientUnits="userSpaceOnUse"><stop offset="0" stop-color="#aa8401"/><stop offset="1" stop-color="#c48602"/></linearGradient><linearGradient id="linear-gradient-3" x1="103.79" y1="807.73" x2="104.79" y2="806.73" gradientTransform="matrix(173, 0, 0, -145, -17798.04, 117137.04)" gradientUnits="userSpaceOnUse"><stop offset="0" stop-color="#c88402"/><stop offset="1" stop-color="#bc6e03"/></linearGradient><linearGradient id="linear-gradient-4" x1="104.04" y1="807.79" x2="105.04" y2="806.79" gradientTransform="matrix(183, 0, 0, -166, -18843.04, 134137.54)" gradientUnits="userSpaceOnUse"><stop offset="0" stop-color="#d78a04"/><stop offset="1" stop-color="#d5770e"/></linearGradient><linearGradient id="linear-gradient-5" x1="103.91" y1="807.46" x2="104.91" y2="806.46" gradientTransform="matrix(183, 0, 0, -200, -18843.04, 161639.55)" gradientUnits="userSpaceOnUse"><stop offset="0" stop-color="#e0990e"/><stop offset="1" stop-color="#eb9d2b"/></linearGradient><linearGradient id="linear-gradient-6" x1="103.51" y1="807.26" x2="104.51" y2="806.26" gradientTransform="matrix(122, 0, 0, -217, -12523.52, 175350.06)" gradientUnits="userSpaceOnUse"><stop offset="0" stop-color="#e0a50d"/><stop offset="1" stop-color="#eabc27"/></linearGradient><linearGradient id="linear-gradient-7" x1="104.06" y1="807.57" x2="105.06" y2="806.57" gradientTransform="matrix(171, 0, 0, -217, -17760.04, 175350.06)" gradientUnits="userSpaceOnUse"><stop offset="0" stop-color="#d6bb02"/><stop offset="1" stop-color="#dcb009"/></linearGradient><linearGradient id="linear-gradient-8" x1="103.43" y1="807.15" x2="104.43" y2="806.15" gradientTransform="matrix(116, 0, 0, -239, -12012.52, 193149.06)" gradientUnits="userSpaceOnUse"><stop offset="0" stop-color="#d7c803"/><stop offset="1" stop-color="#e0d51c"/></linearGradient><linearGradient id="linear-gradient-9" x1="103.93" y1="807.35" x2="104.93" y2="806.35" gradientTransform="matrix(152, 0, 0, -267, -15774.54, 215892.16)" gradientUnits="userSpaceOnUse"><stop offset="0" stop-color="#e7e83f"/><stop offset="1" stop-color="#ecdd3d"/></linearGradient><linearGradient id="linear-gradient-10" x1="103.75" y1="807.1" x2="104.75" y2="806.1" gradientTransform="matrix(168, 0, 0, -267, -17330.54, 215892.16)" gradientUnits="userSpaceOnUse"><stop offset="0" stop-color="#eace2c"/><stop offset="1" stop-color="#eed24f"/></linearGradient><linearGradient id="linear-gradient-11" x1="104.04" y1="807.59" x2="105.04" y2="806.59" gradientTransform="matrix(168, 0, 0, -210, -17330.54, 169904.56)" gradientUnits="userSpaceOnUse"><stop offset="0" stop-color="#e9c01b"/><stop offset="1" stop-color="#edb83c"/></linearGradient><linearGradient id="linear-gradient-12" x1="103.93" y1="807.33" x2="104.93" y2="806.33" gradientTransform="matrix(218, 0, 0, -210, -22433.55, 169904.56)" gradientUnits="userSpaceOnUse"><stop offset="0" stop-color="#eeb14a"/><stop offset="1" stop-color="#efa34d"/></linearGradient><linearGradient id="linear-gradient-13" x1="104.03" y1="807.33" x2="105.03" y2="806.33" gradientTransform="matrix(218, 0, 0, -237, -22433.55, 191565.06)" gradientUnits="userSpaceOnUse"><stop offset="0" stop-color="#eca135"/><stop offset="1" stop-color="#ec8730"/></linearGradient><linearGradient id="linear-gradient-14" x1="104.17" y1="807.36" x2="105.17" y2="806.36" gradientTransform="matrix(279, 0, 0, -237, -28692.06, 191565.06)" gradientUnits="userSpaceOnUse"><stop offset="0" stop-color="#eb7220"/><stop offset="1" stop-color="#ec5e2f"/></linearGradient><linearGradient id="linear-gradient-15" x1="104.28" y1="809.63" x2="105.28" y2="808.63" gradientTransform="matrix(340, 0, 0, -64, -35223.67, 51810.52)" gradientUnits="userSpaceOnUse"><stop offset="0" stop-color="#bb6b05"/><stop offset="1" stop-color="#b15106"/></linearGradient><linearGradient id="linear-gradient-16" x1="103.99" y1="808.54" x2="104.99" y2="807.54" gradientTransform="matrix(214, 0, 0, -94, -21716.54, 76010.52)" gradientUnits="userSpaceOnUse"><stop offset="0" stop-color="#9f2702"/><stop offset="1" stop-color="#b51901"/></linearGradient><linearGradient id="linear-gradient-17" x1="103.69" y1="807.51" x2="104.69" y2="806.51" gradientTransform="matrix(145, 0, 0, -177, -14410.04, 143044.04)" gradientUnits="userSpaceOnUse"><stop offset="0" stop-color="#d42510"/><stop offset="1" stop-color="#c61303"/></linearGradient><linearGradient id="linear-gradient-18" x1="103.83" y1="808.59" x2="104.83" y2="807.59" gradientTransform="matrix(134, 0, 0, -98, -13249.54, 79293.52)" gradientUnits="userSpaceOnUse"><stop offset="0" stop-color="#cb1a02"/><stop offset="1" stop-color="#b10802"/></linearGradient><linearGradient id="linear-gradient-19" x1="103.89" y1="807.65" x2="104.89" y2="806.65" gradientTransform="matrix(151, 0, 0, -182, -15037.04, 147137.54)" gradientUnits="userSpaceOnUse"><stop offset="0" stop-color="#e01d11"/><stop offset="1" stop-color="#cd020b"/></linearGradient><linearGradient id="linear-gradient-20" x1="104.06" y1="807.32" x2="105.06" y2="806.32" gradientTransform="matrix(259, 0, 0, -226, -26500.06, 182739.56)" gradientUnits="userSpaceOnUse"><stop offset="0" stop-color="#ec5b35"/><stop offset="1" stop-color="#ea372e"/></linearGradient><linearGradient id="linear-gradient-21" x1="103.87" y1="807.42" x2="104.87" y2="806.42" gradientTransform="matrix(151, 0, 0, -226, -15037.04, 182739.56)" gradientUnits="userSpaceOnUse"><stop offset="0" stop-color="#e92a21"/><stop offset="1" stop-color="#e41e2f"/></linearGradient><linearGradient id="linear-gradient-22" x1="104.16" y1="807.99" x2="105.16" y2="806.99" gradientTransform="matrix(259, 0, 0, -137, -26500.06, 111152.04)" gradientUnits="userSpaceOnUse"><stop offset="0" stop-color="#f07a5a"/><stop offset="1" stop-color="#ee5355"/></linearGradient><linearGradient id="linear-gradient-23" x1="104.06" y1="807.38" x2="105.06" y2="806.38" gradientTransform="matrix(172, 0, 0, -274, -17580.54, 221642.66)" gradientUnits="userSpaceOnUse"><stop offset="0" stop-color="#f0b45f"/><stop offset="1" stop-color="#f2a070"/></linearGradient><linearGradient id="linear-gradient-24" x1="103.7" y1="807.08" x2="104.7" y2="806.08" gradientTransform="matrix(155, 0, 0, -274, -15652.04, 221642.66)" gradientUnits="userSpaceOnUse"><stop offset="0" stop-color="#f1865c"/><stop offset="1" stop-color="#f1816b"/></linearGradient><linearGradient id="linear-gradient-25" x1="103.88" y1="807.52" x2="104.88" y2="806.53" gradientTransform="matrix(132, 0, 0, -227, -13532.54, 183825.06)" gradientUnits="userSpaceOnUse"><stop offset="0" stop-color="#f0e264"/><stop offset="1" stop-color="#efd168"/></linearGradient><linearGradient id="linear-gradient-26" x1="103.66" y1="807.15" x2="104.66" y2="806.15" gradientTransform="matrix(165, 0, 0, -227, -16862.04, 183825.06)" gradientUnits="userSpaceOnUse"><stop offset="0" stop-color="#f0be5b"/><stop offset="1" stop-color="#f2c57e"/></linearGradient><linearGradient id="linear-gradient-27" x1="103.66" y1="807.33" x2="104.66" y2="806.33" gradientTransform="matrix(160, 0, 0, -191, -16499.54, 154865.04)" gradientUnits="userSpaceOnUse"><stop offset="0" stop-color="#eeed6d"/><stop offset="1" stop-color="#e3e87c"/></linearGradient><linearGradient id="linear-gradient-28" x1="103.97" y1="807.89" x2="104.97" y2="806.89" gradientTransform="matrix(160, 0, 0, -153, -16499.54, 124371.04)" gradientUnits="userSpaceOnUse"><stop offset="0" stop-color="#d4e979"/><stop offset="1" stop-color="#dde584"/></linearGradient><linearGradient id="linear-gradient-29" x1="103.8" y1="807.63" x2="104.8" y2="806.63" gradientTransform="matrix(187, 0, 0, -153, -19244.04, 124371.04)" gradientUnits="userSpaceOnUse"><stop offset="0" stop-color="#dee795"/><stop offset="1" stop-color="#eede96"/></linearGradient><linearGradient id="linear-gradient-30" x1="104.02" y1="807.69" x2="105.02" y2="806.69" gradientTransform="matrix(165, 0, 0, -188, -16862.04, 152557.54)" gradientUnits="userSpaceOnUse"><stop offset="0" stop-color="#f1d990"/><stop offset="1" stop-color="#f1c69c"/></linearGradient><linearGradient id="linear-gradient-31" x1="103.72" y1="807.38" x2="104.72" y2="806.38" gradientTransform="matrix(168, 0, 0, -188, -17071.54, 152557.54)" gradientUnits="userSpaceOnUse"><stop offset="0" stop-color="#eec3a3"/><stop offset="1" stop-color="#f0a899"/></linearGradient><linearGradient id="linear-gradient-32" x1="104.13" y1="807.98" x2="105.13" y2="806.98" gradientTransform="matrix(243, 0, 0, -137, -24848.06, 111426.04)" gradientUnits="userSpaceOnUse"><stop offset="0" stop-color="#f2a092"/><stop offset="1" stop-color="#ed8a99"/></linearGradient><linearGradient id="linear-gradient-33" x1="104.02" y1="807.63" x2="105.02" y2="806.63" gradientTransform="matrix(243, 0, 0, -165, -24848.06, 133871.04)" gradientUnits="userSpaceOnUse"><stop offset="0" stop-color="#f29685"/><stop offset="1" stop-color="#ee6b75"/></linearGradient><linearGradient id="linear-gradient-34" x1="103.81" y1="807.38" x2="104.81" y2="806.38" gradientTransform="matrix(124, 0, 0, -267, -12257.52, 216032.16)" gradientUnits="userSpaceOnUse"><stop offset="0" stop-color="#ee575e"/><stop offset="1" stop-color="#ed5c74"/></linearGradient><linearGradient id="linear-gradient-35" x1="103.59" y1="807.04" x2="104.59" y2="806.04" gradientTransform="matrix(145, 0, 0, -267, -14364.04, 216032.16)" gradientUnits="userSpaceOnUse"><stop offset="0" stop-color="#ec6b91"/><stop offset="1" stop-color="#e9527d"/></linearGradient><linearGradient id="linear-gradient-36" x1="104" y1="807.29" x2="105" y2="806.29" gradientTransform="matrix(220, 0, 0, -239, -22165.55, 193450.06)" gradientUnits="userSpaceOnUse"><stop offset="0" stop-color="#ea416a"/><stop offset="1" stop-color="#e3428a"/></linearGradient><linearGradient id="linear-gradient-37" x1="103.66" y1="807.58" x2="104.66" y2="806.58" gradientTransform="matrix(147, 0, 0, -160, -14537.04, 129576.54)" gradientUnits="userSpaceOnUse"><stop offset="0" stop-color="#ea2a47"/><stop offset="1" stop-color="#e3123b"/></linearGradient><linearGradient id="linear-gradient-38" x1="104.15" y1="807.76" x2="105.15" y2="806.76" gradientTransform="matrix(220, 0, 0, -171, -22165.55, 138578.04)" gradientUnits="userSpaceOnUse"><stop offset="0" stop-color="#eb4065"/><stop offset="1" stop-color="#e52d72"/></linearGradient><linearGradient id="linear-gradient-39" x1="103.96" y1="807.98" x2="104.96" y2="806.98" gradientTransform="matrix(201, 0, 0, -130, -20111.04, 105381.54)" gradientUnits="userSpaceOnUse"><stop offset="0" stop-color="#e00e37"/><stop offset="1" stop-color="#e11356"/></linearGradient><linearGradient id="linear-gradient-40" x1="103.8" y1="807.45" x2="104.8" y2="806.45" gradientTransform="matrix(123, 0, 0, -242, -11882.02, 195768.56)" gradientUnits="userSpaceOnUse"><stop offset="0" stop-color="#e71d64"/><stop offset="1" stop-color="#de176b"/></linearGradient><linearGradient id="linear-gradient-41" x1="103.86" y1="807.42" x2="104.86" y2="806.42" gradientTransform="matrix(212, 0, 0, -182, -21266.54, 147137.54)" gradientUnits="userSpaceOnUse"><stop offset="0" stop-color="#c90215"/><stop offset="1" stop-color="#cf0228"/></linearGradient><linearGradient id="linear-gradient-42" x1="104.11" y1="808.1" x2="105.11" y2="807.1" gradientTransform="matrix(206, 0, 0, -131, -20633.54, 106116.04)" gradientUnits="userSpaceOnUse"><stop offset="0" stop-color="#d7022b"/><stop offset="1" stop-color="#cc0243"/></linearGradient><linearGradient id="linear-gradient-43" x1="103.92" y1="808.34" x2="104.92" y2="807.34" gradientTransform="matrix(239, 0, 0, -98, -24115.06, 79293.52)" gradientUnits="userSpaceOnUse"><stop offset="0" stop-color="#af0607"/><stop offset="1" stop-color="#af0113"/></linearGradient><linearGradient id="linear-gradient-44" x1="104.2" y1="808.06" x2="105.2" y2="807.06" gradientTransform="matrix(212, 0, 0, -142, -21266.54, 114845.54)" gradientUnits="userSpaceOnUse"><stop offset="0" stop-color="#b80115"/><stop offset="1" stop-color="#b0012d"/></linearGradient><linearGradient id="linear-gradient-45" x1="104.37" y1="810.01" x2="105.37" y2="809.01" gradientTransform="matrix(447, 0, 0, -57, -46065.1, 46170.02)" gradientUnits="userSpaceOnUse"><stop offset="0" stop-color="#9e1e02"/><stop offset="1" stop-color="#970708"/></linearGradient><linearGradient id="linear-gradient-46" x1="104.2" y1="808.27" x2="105.2" y2="807.27" gradientTransform="matrix(239, 0, 0, -119, -24115.06, 96177.04)" gradientUnits="userSpaceOnUse"><stop offset="0" stop-color="#a0050b"/><stop offset="1" stop-color="#95011b"/></linearGradient><linearGradient id="linear-gradient-47" x1="103.79" y1="808.4" x2="104.79" y2="807.4" gradientTransform="matrix(166, 0, 0, -98, -16413.54, 79874.52)" gradientUnits="userSpaceOnUse"><stop offset="0" stop-color="#e14d97"/><stop offset="1" stop-color="#df3592"/></linearGradient><linearGradient id="linear-gradient-48" x1="102.64" y1="807.14" x2="103.64" y2="806.14" gradientTransform="matrix(55, 0, 0, -327, -4703.02, 264321.18)" gradientUnits="userSpaceOnUse"><stop offset="0" stop-color="#df2381"/><stop offset="1" stop-color="#dd1f7c"/></linearGradient><linearGradient id="linear-gradient-49" x1="83.78" y1="807.1" x2="84.78" y2="806.1" gradientTransform="matrix(5, 0, 0, -458, 572, 369841.61)" gradientUnits="userSpaceOnUse"><stop offset="0" stop-color="#de1063"/><stop offset="1" stop-color="#d71f70"/></linearGradient><linearGradient id="linear-gradient-50" x1="104.05" y1="808.1" x2="105.05" y2="807.1" gradientTransform="matrix(166, 0, 0, -136, -16413.54, 110606.54)" gradientUnits="userSpaceOnUse"><stop offset="0" stop-color="#e24d9e"/><stop offset="1" stop-color="#e447ab"/></linearGradient><linearGradient id="linear-gradient-51" x1="102.53" y1="807.38" x2="103.53" y2="806.38" gradientTransform="matrix(50, 0, 0, -256, -4175.52, 207386.56)" gradientUnits="userSpaceOnUse"><stop offset="0" stop-color="#ee61d0"/><stop offset="1" stop-color="#e853b8"/></linearGradient><linearGradient id="linear-gradient-52" x1="104.01" y1="807.97" x2="105.01" y2="806.97" gradientTransform="matrix(153, 0, 0, -152, -15200.04, 123523.54)" gradientUnits="userSpaceOnUse"><stop offset="0" stop-color="#e66c9c"/><stop offset="1" stop-color="#e35fa6"/></linearGradient><linearGradient id="linear-gradient-53" x1="103.41" y1="807.59" x2="104.41" y2="806.59" gradientTransform="matrix(116, 0, 0, -152, -11188.52, 123523.54)" gradientUnits="userSpaceOnUse"><stop offset="0" stop-color="#e462a9"/><stop offset="1" stop-color="#e661ba"/></linearGradient><linearGradient id="linear-gradient-54" x1="103.79" y1="807.94" x2="104.79" y2="806.94" gradientTransform="matrix(136, 0, 0, -140, -13559.53, 113873.54)" gradientUnits="userSpaceOnUse"><stop offset="0" stop-color="#ea879c"/><stop offset="1" stop-color="#e6789e"/></linearGradient><linearGradient id="linear-gradient-55" x1="103.6" y1="807.67" x2="104.6" y2="806.67" gradientTransform="matrix(155, 0, 0, -140, -15411.04, 113873.54)" gradientUnits="userSpaceOnUse"><stop offset="0" stop-color="#e777a2"/><stop offset="1" stop-color="#e270af"/></linearGradient><linearGradient id="linear-gradient-56" x1="104.02" y1="808.28" x2="105.02" y2="807.28" gradientTransform="matrix(168, 0, 0, -119, -17071.54, 97046.04)" gradientUnits="userSpaceOnUse"><stop offset="0" stop-color="#ecbfa8"/><stop offset="1" stop-color="#e8a2a8"/></linearGradient><linearGradient id="linear-gradient-57" x1="103.77" y1="808.07" x2="104.77" y2="807.07" gradientTransform="matrix(156, 0, 0, -119, -15671.54, 97046.04)" gradientUnits="userSpaceOnUse"><stop offset="0" stop-color="#e892a2"/><stop offset="1" stop-color="#e18eab"/></linearGradient><linearGradient id="linear-gradient-58" x1="104.1" y1="809.6" x2="105.1" y2="808.6" gradientTransform="matrix(187, 0, 0, -66, -19244.04, 54352.52)" gradientUnits="userSpaceOnUse"><stop offset="0" stop-color="#dbe89f"/><stop offset="1" stop-color="#e6dfa7"/></linearGradient><linearGradient id="linear-gradient-59" x1="103.86" y1="809.2" x2="104.86" y2="808.2" gradientTransform="matrix(217, 0, 0, -68, -22263.05, 55965.52)" gradientUnits="userSpaceOnUse"><stop offset="0" stop-color="#eaceaa"/><stop offset="1" stop-color="#e2c5aa"/></linearGradient><linearGradient id="linear-gradient-60" x1="102.99" y1="807.46" x2="103.99" y2="806.46" gradientTransform="matrix(77, 0, 0, -174, -7826.02, 141345.54)" gradientUnits="userSpaceOnUse"><stop offset="0" stop-color="#c5e47a"/><stop offset="1" stop-color="#bbe182"/></linearGradient><linearGradient id="linear-gradient-61" x1="103.8" y1="809.59" x2="104.8" y2="808.59" gradientTransform="matrix(190, 0, 0, -60, -19631.54, 49519.52)" gradientUnits="userSpaceOnUse"><stop offset="0" stop-color="#cae391"/><stop offset="1" stop-color="#c4e08e"/></linearGradient><linearGradient id="linear-gradient-62" x1="103.51" y1="807.84" x2="104.51" y2="806.84" gradientTransform="matrix(86, 0, 0, -174, -8849.52, 141345.54)" gradientUnits="userSpaceOnUse"><stop offset="0" stop-color="#b9e275"/><stop offset="1" stop-color="#bae278"/></linearGradient><linearGradient id="linear-gradient-63" x1="103.38" y1="807.51" x2="104.38" y2="806.51" gradientTransform="matrix(112, 0, 0, -162, -11592.52, 131679.54)" gradientUnits="userSpaceOnUse"><stop offset="0" stop-color="#b3e377"/><stop offset="1" stop-color="#a7e479"/></linearGradient><linearGradient id="linear-gradient-64" x1="103.6" y1="808.1" x2="104.6" y2="807.1" gradientTransform="matrix(108, 0, 0, -127, -10344.52, 103484.04)" gradientUnits="userSpaceOnUse"><stop offset="0" stop-color="#e65fbe"/><stop offset="1" stop-color="#ea5cc7"/></linearGradient><linearGradient id="linear-gradient-65" x1="103.56" y1="807.94" x2="104.56" y2="806.94" gradientTransform="matrix(123, 0, 0, -127, -11882.02, 103484.04)" gradientUnits="userSpaceOnUse"><stop offset="0" stop-color="#ec5cc8"/><stop offset="1" stop-color="#ed5ed5"/></linearGradient><linearGradient id="linear-gradient-66" x1="103.91" y1="808.66" x2="104.91" y2="807.66" gradientTransform="matrix(193, 0, 0, -88, -19538.04, 72075.52)" gradientUnits="userSpaceOnUse"><stop offset="0" stop-color="#df99b4"/><stop offset="1" stop-color="#df81b7"/></linearGradient><linearGradient id="linear-gradient-67" x1="104.19" y1="838.92" x2="105.19" y2="837.92" gradientTransform="matrix(341, 0, 0, -6, -35004.17, 6024.5)" gradientUnits="userSpaceOnUse"><stop offset="0" stop-color="#e08db9"/><stop offset="1" stop-color="#e46fc8"/></linearGradient><linearGradient id="linear-gradient-68" x1="103.89" y1="808.54" x2="104.89" y2="807.54" gradientTransform="matrix(155, 0, 0, -98, -15411.04, 80124.52)" gradientUnits="userSpaceOnUse"><stop offset="0" stop-color="#df78b0"/><stop offset="1" stop-color="#e270bc"/></linearGradient><linearGradient id="linear-gradient-69" x1="103.74" y1="808.43" x2="104.74" y2="807.43" gradientTransform="matrix(148, 0, 0, -98, -14642.54, 80124.52)" gradientUnits="userSpaceOnUse"><stop offset="0" stop-color="#e562be"/><stop offset="1" stop-color="#e669c9"/></linearGradient><linearGradient id="linear-gradient-70" x1="103.67" y1="807.56" x2="104.67" y2="806.56" gradientTransform="matrix(146, 0, 0, -166, -14803.54, 134137.54)" gradientUnits="userSpaceOnUse"><stop offset="0" stop-color="#cb660b"/><stop offset="1" stop-color="#dd6812"/></linearGradient><linearGradient id="linear-gradient-71" x1="104.11" y1="807.96" x2="105.11" y2="806.96" gradientTransform="matrix(193, 0, 0, -148, -19715.04, 119561.54)" gradientUnits="userSpaceOnUse"><stop offset="0" stop-color="#bd5708"/><stop offset="1" stop-color="#bb4307"/></linearGradient><linearGradient id="linear-gradient-72" x1="104.09" y1="808.05" x2="105.09" y2="807.05" gradientTransform="matrix(279, 0, 0, -123, -28692.06, 99547.03)" gradientUnits="userSpaceOnUse"><stop offset="0" stop-color="#e26714"/><stop offset="1" stop-color="#de4410"/></linearGradient><linearGradient id="linear-gradient-73" x1="103.66" y1="807.66" x2="104.66" y2="806.66" gradientTransform="matrix(154, 0, 0, -148, -15493.54, 119561.54)" gradientUnits="userSpaceOnUse"><stop offset="0" stop-color="#ad3403"/><stop offset="1" stop-color="#d03704"/></linearGradient><linearGradient id="linear-gradient-74" x1="104" y1="807.77" x2="105" y2="806.77" gradientTransform="matrix(154, 0, 0, -177, -15493.54, 143044.04)" gradientUnits="userSpaceOnUse"><stop offset="0" stop-color="#e03511"/><stop offset="1" stop-color="#d83605"/></linearGradient><linearGradient id="linear-gradient-75" x1="101.24" y1="806.94" x2="102.24" y2="805.94" gradientTransform="matrix(33, 0, 0, -371, -3344, 300027.19)" gradientUnits="userSpaceOnUse"><stop offset="0" stop-color="#a7e568"/><stop offset="1" stop-color="#b9e458"/></linearGradient><linearGradient id="linear-gradient-76" x1="104.01" y1="807.65" x2="105.01" y2="806.65" gradientTransform="matrix(157, 0, 0, -199, -16302.04, 161309.05)" gradientUnits="userSpaceOnUse"><stop offset="0" stop-color="#d3ea6e"/><stop offset="1" stop-color="#daeb55"/></linearGradient><linearGradient id="linear-gradient-77" x1="103.43" y1="807.26" x2="104.43" y2="806.26" gradientTransform="matrix(116, 0, 0, -211, -12017.52, 170987.06)" gradientUnits="userSpaceOnUse"><stop offset="0" stop-color="#c3e775"/><stop offset="1" stop-color="#cae964"/></linearGradient><linearGradient id="linear-gradient-78" x1="83.6" y1="806.96" x2="84.6" y2="805.96" gradientTransform="matrix(5, 0, 0, -420, -418, 339125.6)" gradientUnits="userSpaceOnUse"><stop offset="0" stop-color="#dfea2c"/><stop offset="1" stop-color="#d3de1e"/></linearGradient><linearGradient id="linear-gradient-79" x1="103.6" y1="807.3" x2="104.6" y2="806.3" gradientTransform="matrix(157, 0, 0, -189, -16302.04, 153063.04)" gradientUnits="userSpaceOnUse"><stop offset="0" stop-color="#deec3f"/><stop offset="1" stop-color="#dbeb4a"/></linearGradient></defs><title>9</title><polygon id="triangle36" class="cls-1" points="5 201 7 5 176 145 5 201"/><polygon id="triangle36-2" data-name="triangle36" class="cls-2" points="7 5 176 145 202 0 7 5"/><polygon id="triangle36-3" data-name="triangle36" class="cls-3" points="176 145 202 0 349 64 176 145"/><polygon id="triangle36-4" data-name="triangle36" class="cls-4" points="176 145 349 64 359 230 176 145"/><polygon id="triangle36-5" data-name="triangle36" class="cls-5" points="176 145 359 230 243 345 176 145"/><polygon id="triangle36-6" data-name="triangle36" class="cls-6" points="176 145 243 345 121 362 176 145"/><polygon id="triangle36-7" data-name="triangle36" class="cls-7" points="5 201 176 145 121 362 5 201"/><polygon id="triangle36-8" data-name="triangle36" class="cls-8" points="5 201 121 362 5 440 5 201"/><polygon id="triangle36-9" data-name="triangle36" class="cls-9" points="5 440 121 362 157 629 5 440"/><polygon id="triangle36-10" data-name="triangle36" class="cls-10" points="121 362 157 629 289 555 121 362"/><polygon id="triangle36-11" data-name="triangle36" class="cls-11" points="121 362 243 345 289 555 121 362"/><polygon id="triangle36-12" data-name="triangle36" class="cls-12" points="243 345 289 555 461 467 243 345"/><polygon id="triangle36-13" data-name="triangle36" class="cls-13" points="243 345 359 230 461 467 243 345"/><polygon id="triangle36-14" data-name="triangle36" class="cls-14" points="359 230 461 467 638 276 359 230"/><polygon id="triangle36-15" data-name="triangle36" class="cls-15" points="202 0 349 64 542 5 202 0"/><polygon id="triangle36-16" data-name="triangle36" class="cls-16" points="542 5 649 99 756 62 542 5"/><polygon id="triangle36-17" data-name="triangle36" class="cls-17" points="638 276 649 99 783 160 638 276"/><polygon id="triangle36-18" data-name="triangle36" class="cls-18" points="649 99 756 62 783 160 649 99"/><polygon id="triangle36-19" data-name="triangle36" class="cls-19" points="638 276 783 160 789 342 638 276"/><polygon id="triangle36-20" data-name="triangle36" class="cls-20" points="461 467 638 276 720 502 461 467"/><polygon id="triangle36-21" data-name="triangle36" class="cls-21" points="638 276 789 342 720 502 638 276"/><polygon id="triangle36-22" data-name="triangle36" class="cls-22" points="461 467 720 502 596 604 461 467"/><polygon id="triangle36-23" data-name="triangle36" class="cls-23" points="289 555 461 467 441 741 289 555"/><polygon id="triangle36-24" data-name="triangle36" class="cls-24" points="461 467 596 604 441 741 461 467"/><polygon id="triangle36-25" data-name="triangle36" class="cls-25" points="157 629 289 555 276 782 157 629"/><polygon id="triangle36-26" data-name="triangle36" class="cls-26" points="289 555 441 741 276 782 289 555"/><polygon id="triangle36-27" data-name="triangle36" class="cls-27" points="157 629 276 782 116 820 157 629"/><polygon id="triangle36-28" data-name="triangle36" class="cls-28" points="116 820 276 782 193 935 116 820"/><polygon id="triangle36-29" data-name="triangle36" class="cls-29" points="193 935 276 782 380 929 193 935"/><polygon id="triangle36-30" data-name="triangle36" class="cls-30" points="276 782 441 741 380 929 276 782"/><polygon id="triangle36-31" data-name="triangle36" class="cls-31" points="380 929 441 741 548 878 380 929"/><polygon id="triangle36-32" data-name="triangle36" class="cls-32" points="441 741 548 878 684 769 441 741"/><polygon id="triangle36-33" data-name="triangle36" class="cls-33" points="441 741 596 604 684 769 441 741"/><polygon id="triangle36-34" data-name="triangle36" class="cls-34" points="596 604 720 502 684 769 596 604"/><polygon id="triangle36-35" data-name="triangle36" class="cls-35" points="684 769 720 502 829 741 684 769"/><polygon id="triangle36-36" data-name="triangle36" class="cls-36" points="720 502 829 741 940 643 720 502"/><polygon id="triangle36-37" data-name="triangle36" class="cls-37" points="720 502 789 342 867 472 720 502"/><polygon id="triangle36-38" data-name="triangle36" class="cls-38" points="720 502 940 643 867 472 720 502"/><polygon id="triangle36-39" data-name="triangle36" class="cls-39" points="789 342 867 472 990 401 789 342"/><polygon id="triangle36-40" data-name="triangle36" class="cls-40" points="867 472 940 643 990 401 867 472"/><polygon id="triangle36-41" data-name="triangle36" class="cls-41" points="783 160 789 342 995 270 783 160"/><polygon id="triangle36-42" data-name="triangle36" class="cls-42" points="789 342 990 401 995 270 789 342"/><polygon id="triangle36-43" data-name="triangle36" class="cls-43" points="756 62 783 160 995 128 756 62"/><polygon id="triangle36-44" data-name="triangle36" class="cls-44" points="783 160 995 270 995 128 783 160"/><polygon id="triangle36-45" data-name="triangle36" class="cls-45" points="542 5 756 62 989 9 542 5"/><polygon id="triangle36-46" data-name="triangle36" class="cls-46" points="756 62 995 128 989 9 756 62"/><polygon id="triangle36-47" data-name="triangle36" class="cls-47" points="829 741 940 643 995 728 829 741"/><polygon id="triangle36-48" data-name="triangle36" class="cls-48" points="940 643 990 401 995 728 940 643"/><polygon id="triangle36-49" data-name="triangle36" class="cls-49" points="990 401 995 270 995 728 990 401"/><polygon id="triangle36-50" data-name="triangle36" class="cls-50" points="829 741 995 728 945 864 829 741"/><polygon id="triangle36-51" data-name="triangle36" class="cls-51" points="990 984 995 728 945 864 990 984"/><polygon id="triangle36-52" data-name="triangle36" class="cls-52" points="684 769 829 741 837 893 684 769"/><polygon id="triangle36-53" data-name="triangle36" class="cls-53" points="829 741 945 864 837 893 829 741"/><polygon id="triangle36-54" data-name="triangle36" class="cls-54" points="548 878 684 769 682 909 548 878"/><polygon id="triangle36-55" data-name="triangle36" class="cls-55" points="684 769 837 893 682 909 684 769"/><polygon id="triangle36-56" data-name="triangle36" class="cls-56" points="380 929 548 878 526 997 380 929"/><polygon id="triangle36-57" data-name="triangle36" class="cls-57" points="548 878 682 909 526 997 548 878"/><polygon id="triangle36-58" data-name="triangle36" class="cls-58" points="193 935 380 929 309 995 193 935"/><polygon id="triangle36-59" data-name="triangle36" class="cls-59" points="380 929 526 997 309 995 380 929"/><polygon id="triangle36-60" data-name="triangle36" class="cls-60" points="116 820 193 935 119 994 116 820"/><polygon id="triangle36-61" data-name="triangle36" class="cls-61" points="193 935 309 995 119 994 193 935"/><polygon id="triangle36-62" data-name="triangle36" class="cls-62" points="33 832 116 820 119 994 33 832"/><polygon id="triangle36-63" data-name="triangle36" class="cls-63" points="33 832 119 994 7 992 33 832"/><polygon id="triangle36-64" data-name="triangle36" class="cls-64" points="837 893 945 864 867 991 837 893"/><polygon id="triangle36-65" data-name="triangle36" class="cls-65" points="945 864 990 984 867 991 945 864"/><polygon id="triangle36-66" data-name="triangle36" class="cls-66" points="526 997 682 909 719 991 526 997"/><polygon id="triangle36-67" data-name="triangle36" class="cls-67" points="526 997 867 991 719 991 526 997"/><polygon id="triangle36-68" data-name="triangle36" class="cls-68" points="682 909 837 893 719 991 682 909"/><polygon id="triangle36-69" data-name="triangle36" class="cls-69" points="837 893 867 991 719 991 837 893"/><polygon id="triangle36-70" data-name="triangle36" class="cls-70" points="349 64 359 230 495 153 349 64"/><polygon id="triangle36-71" data-name="triangle36" class="cls-71" points="349 64 542 5 495 153 349 64"/><polygon id="triangle36-72" data-name="triangle36" class="cls-72" points="359 230 638 276 495 153 359 230"/><polygon id="triangle36-73" data-name="triangle36" class="cls-73" points="542 5 649 99 495 153 542 5"/><polygon id="triangle36-74" data-name="triangle36" class="cls-74" points="638 276 649 99 495 153 638 276"/><polygon id="triangle36-75" data-name="triangle36" class="cls-75" points="7 992 33 832 0 621 7 992"/><polygon id="triangle36-76" data-name="triangle36" class="cls-76" points="116 820 157 629 0 621 116 820"/><polygon id="triangle36-77" data-name="triangle36" class="cls-77" points="33 832 116 820 0 621 33 832"/><polygon id="triangle36-78" data-name="triangle36" class="cls-78" points="5 440 5 201 0 621 5 440"/><polygon id="triangle36-79" data-name="triangle36" class="cls-79" points="5 440 157 629 0 621 5 440"/></svg>